<svg xmlns="http://www.w3.org/2000/svg" xmlns:xlink="http://www.w3.org/1999/xlink" width="197" height="21.198" viewBox="0 0 197 21.198">
  <defs>
    <clipPath id="clip-path">
      <path id="Path_2189" data-name="Path 2189" d="M0,15.129H197V-6.07H0Z" transform="translate(0 6.07)" fill="#9c9e9f"/>
    </clipPath>
  </defs>
  <g id="Group_1339" data-name="Group 1339" transform="translate(0 6.07)">
    <g id="Group_1338" data-name="Group 1338" transform="translate(0 -6.07)" clip-path="url(#clip-path)">
      <g id="Group_1331" data-name="Group 1331" transform="translate(0 0)">
        <path id="Path_2182" data-name="Path 2182" d="M1.853,1.117H.152C-.1-.179.044-.448,5.15-.448h7.194c10.208,0,14.64,3.915,14.64,10.358,0,6.2-4.184,10.358-14.322,10.358H-.665a2.223,2.223,0,0,1,0-1.173C3.128,18.914,3.8,18.7,3.8,16.685V2.472c0-1.173-.353-1.355-1.949-1.355m20.381,9.366c0-5.783-3.545-9.153-10.351-9.153H8.234V16.476c0,1.837.779,2.134,4.076,2.134,6.059,0,9.925-1.652,9.925-8.127" transform="translate(0.743 0.448)" fill="#9c9e9f"/>
      </g>
      <g id="Group_1332" data-name="Group 1332" transform="translate(29.031 0.21)">
        <path id="Path_2183" data-name="Path 2183" d="M11.262,0a6.871,6.871,0,0,0,.922,2.228L20.37,18.1c.391.786.782,1.055,2.588,1.055h.817c.213.873,0,1.355-.922,1.355H11.37a2.153,2.153,0,0,1,0-1.173c3.863-.091,4.254-.363,3.863-1.145L13,13.641H3.854L2.4,16.924c-.817,1.778-.817,2.228,1.132,2.228H6.582c.248.873,0,1.355-.884,1.355H-4.44a2.223,2.223,0,0,1,0-1.173c2.728-.3,3.049-.485,4.006-2.41L6.582,2.8C7.752.482,8.213,0,9.879,0Zm.922,11.986L8.318,4.156l-3.684,7.83Z" transform="translate(4.518 0)" fill="#9c9e9f"/>
      </g>
      <g id="Group_1333" data-name="Group 1333" transform="translate(59.628 0.602)">
        <path id="Path_2184" data-name="Path 2184" d="M8.347,0a2.229,2.229,0,0,1,0,1.173C5.263,1.355,4.8,1.928,4.8,3.192v14.3c0,1.055.356,1.268,1.844,1.268H8.56c.248.873.14,1.355-.922,1.355H-3.136a1.652,1.652,0,0,1,0-1.173C-.3,18.548.37,18.248.37,17.011V2.619c0-1.086-.318-1.264-1.949-1.264h-1.7C-3.492.573-3.279,0-1.791,0Z" transform="translate(3.349)" fill="#9c9e9f"/>
      </g>
      <g id="Group_1334" data-name="Group 1334" transform="translate(75.781 0.602)">
        <path id="Path_2185" data-name="Path 2185" d="M25.959,0a1.656,1.656,0,0,1,0,1.173c-3.3.182-3.51.664-3.4,1.537l1.7,14.7c.1.964.674,1.051,3.405,1.355.1.873,0,1.355-1,1.355H14.155a1.7,1.7,0,0,1,0-1.173l1.917-.094c2.975-.15,3.471-.478,3.293-1.956L17.773,3.765,9.266,18.943C8.627,20.025,8.344,20.2,7.53,20.2L-2.252,3.765-3.387,17.284C-3.5,18.457-3.5,18.761.262,18.761H2.176c.248.873.108,1.355-.887,1.355H-10.337a2.23,2.23,0,0,1,0-1.173c3.9-.182,4.219-.786,4.327-2.05L-4.557,2.741c.1-.964-.108-1.3-3.615-1.386C-8.388.664-8.172,0-6.684,0H.475l8.9,14.483L17.56,0Z" transform="translate(10.415)" fill="#9c9e9f"/>
      </g>
      <g id="Group_1335" data-name="Group 1335" transform="translate(118.576 0.602)">
        <path id="Path_2186" data-name="Path 2186" d="M9.381,0a2.16,2.16,0,0,1,0,1.173c-3.719.182-4.428.454-4.428,2.41V16.892c0,.992.6,1.264,1.6,1.264H8.815c2.623,0,2.975-.15,4.467-2.86l.992-1.865c1.03-.031,1.558.332,1.17,1.264a37.984,37.984,0,0,0-1.844,5.42H-3.7a2.661,2.661,0,0,1,0-1.173c3.44-.182,4.219-.573,4.219-2.532V2.619c0-1.086-.461-1.264-1.949-1.264h-1.7C-3.342.573-3.129,0-1.641,0Z" transform="translate(3.764)" fill="#9c9e9f"/>
      </g>
      <g id="Group_1336" data-name="Group 1336" transform="translate(141.186 0.602)">
        <path id="Path_2187" data-name="Path 2187" d="M13.812,0a36.616,36.616,0,0,0,.566,4.065c.178.936-.251,1.446-1.383,1.355l-.461-1.355c-.6-1.837-1.345-2.319-3.3-2.319H3.569V9.485H7.288c1.065,0,1.275-.3,1.383-1.083l.248-1.537h.426c.709,0,1.1.21,1.027,1.142a54.3,54.3,0,0,0,0,5.937,1.977,1.977,0,0,1-1.24,0c-.461-2.35-.922-2.623-1.844-2.623H3.569v5.3c0,1.083.318,1.533,2.728,1.533H9.345c2.623,0,2.979-.15,4.467-2.86l.992-1.865c1.027-.031,1.526.36,1.17,1.264a38.5,38.5,0,0,0-1.847,5.42H-5.434a1.656,1.656,0,0,1,0-1.173c3.754-.182,4.428-.395,4.428-2.41V2.619c0-1.086-.318-1.264-1.914-1.264h-1.7C-4.764.573-4.621,0-3.06,0Z" transform="translate(5.542)" fill="#9c9e9f"/>
      </g>
      <g id="Group_1337" data-name="Group 1337" transform="translate(167.381 0.392)">
        <path id="Path_2188" data-name="Path 2188" d="M1.364,1.117h-1.7C-.588.334-.337-.238,1.113-.329c1.7-.119,3.831-.119,8.794-.119,6.8,0,10.561,2.741,10.561,6.862,0,2.532-1.844,4.578-4.785,5.633,0,0,2.658,2.078,4.006,3.01,4.68,3.192,6.241,3.464,9.321,3.464.321,1.055-.566,1.837-4.324,1.837A12.1,12.1,0,0,1,16.6,17.827a14.659,14.659,0,0,1-3.367-3.461c-.887-1.355-.957-1.446-3.122-1.446H7.745v4.425c0,.873.318,1.177,2.162,1.177h1.809c.1.873,0,1.355-1.03,1.355H-.48a2.607,2.607,0,0,1,0-1.173c3.084-.182,3.8-.485,3.8-2.319V2.472c0-1.177-.5-1.355-1.952-1.355M9.445,11.175c3.506,0,6.342-.482,6.342-4.547S12.952,1.295,8.95,1.295h-1.2v9.88Z" transform="translate(0.547 0.448)" fill="#9c9e9f"/>
      </g>
    </g>
  </g>
</svg>
