<svg xmlns="http://www.w3.org/2000/svg" width="132.306" height="38.502" viewBox="0 0 132.306 38.502">
  <g id="Group_1223" data-name="Group 1223" transform="translate(-11.592 -109.083)">
    <path id="Path_2002" data-name="Path 2002" d="M130.553,140.17c1.383-4.111,3.118-9.484,3.118-11.014,0-1.211-.358-2.121-1.565-2.121-5.107,0-13.188,7.588-18.466,13.135h0c-2.3,2.417-4.07,4.448-4.827,5.3a4.283,4.283,0,0,1-3.416,1.106,9.466,9.466,0,0,1-3.755-1.013c-.549-.28-.574-.594-.411-1.255l.459-1.871c.132-.544.356-1.319.646-2.268v-.107c1.546-5.033,5.038-14.915,7.582-20.69.128-.29.257-.531.912-.634a14.018,14.018,0,0,1,2.7-.28,10.367,10.367,0,0,1,4,.607s.008-.016.008,1.654c0,.721.079,3.177,2.388,3.177,3.9,0,10.974-6.69,17.229-6.69,5.5,0,6.739,3.393,6.739,6.017,0,3.075-2.553,11.355-4.386,16.839v.11c-.8,2.369-1.452,4.217-1.712,4.9-.564,1.486-1.646,1.7-3.046,1.7a9.125,9.125,0,0,1-5.385-1.351.845.845,0,0,1-.271-.97c.294-.875.84-2.452,1.455-4.28Z" fill="#9c9e9f" fill-rule="evenodd"/>
    <path id="Path_2003" data-name="Path 2003" d="M66.847,140.17c0-.048,0-.094,0-.142,0-3.032,2.642-8.591,4.813-13.858.923-2.241,4.853-9.77,18.237-9.77,5.524,0,12.371.867,12.371,6.881,0,3.705-3.66,11.84-4.833,14.1a24,24,0,0,1-1.682,2.785v0c-4.688,6.647-10.614,6.6-17.212,6.6C74.944,146.768,66.959,146.808,66.847,140.17Zm19.925-16.456c-.927,0-2.312.145-2.937,1.012-2.344,3.246-3.9,11.361-3.9,13.62,0,1.54,1.071,1.444,2.5,1.444.834,0,2.178.018,2.937-.772,2.059-2.148,3.835-11.868,3.835-13.623C89.211,124.148,89.122,123.714,86.772,123.714Z" fill="#9c9e9f" fill-rule="evenodd"/>
    <path id="Path_2004" data-name="Path 2004" d="M36.808,140.17a9.741,9.741,0,0,0,2.4-1.807s4.337-.5,7.123-.5c2.7,0,6.689.433,6.689,1.975l-.079.331c-.662,3.006-10.019,7.415-17.915,7.415-8.259,0-15.972-3.008-20.16-7.418l0,0a10.751,10.751,0,0,1-3.276-7.36c0-13.532,26.119-23.727,33.736-23.727,6.862,0,7.8,10.927,7.8,14.921,0,8.527-5.25,10.3-11.07,10.3H37.965c-4.088,0-12.319-.242-12.319-.242-.663-.013-1.157-.145-1.157.242,0,1.887,1.451,4.428,3.882,5.864l.046,0a7.952,7.952,0,0,0,4.06,1.108,9.112,9.112,0,0,0,4.338-1.108m6.6-17.082c0-1.74-.082-4.235-1.445-4.235-4.431,0-12.214,6.777-12.995,7.556-.576.577-.143.528.626.528H39.56C43.09,126.937,43.411,126.346,43.411,123.088Z" fill="#9c9e9f" fill-rule="evenodd"/>
    <path id="Path_2005" data-name="Path 2005" d="M66.077,128.864a17.211,17.211,0,0,1-1.214,3.8c-.958,2.361-3.468,2.742-5.235,2.742-2.649,0-3.561-.951-3.561-2.453a11.154,11.154,0,0,1,1.107-3.465c1.192-2.735,3.33-3.033,5.438-3.033,1.787,0,3.465.743,3.465,2.407" fill="#9c9e9f" fill-rule="evenodd"/>
  </g>
</svg>
