<svg xmlns="http://www.w3.org/2000/svg" xmlns:xlink="http://www.w3.org/1999/xlink" width="172.273" height="21.297" viewBox="0 0 172.273 21.297">
  <defs>
    <clipPath id="clip-path">
      <path id="Path_2150" data-name="Path 2150" d="M0,15.227H172.273V-6.07H0Z" transform="translate(0 6.07)" fill="#9c9e9f"/>
    </clipPath>
  </defs>
  <g id="Group_1296" data-name="Group 1296" transform="translate(0 6.07)">
    <g id="Group_1295" data-name="Group 1295" transform="translate(0 -6.07)" clip-path="url(#clip-path)">
      <g id="Group_1288" data-name="Group 1288" transform="translate(22.539 1.362)">
        <path id="Path_2143" data-name="Path 2143" d="M10.885,9.58H6.822c0-1.246-.358-1.224-.695-1.224s-.484.4-.484.751v1.5c0,.768.316,1.182,1.074,1.182H10.7a1.441,1.441,0,0,0,1.453-1.6V7.7h4.74v8.413H4.566a2.913,2.913,0,0,1-2.652-1.333A2.913,2.913,0,0,1-.739,16.117h-3.6V11.885h1.516a1.25,1.25,0,0,0,1.351-1.295V8.236A2.025,2.025,0,0,0-3.329,6.149,2.025,2.025,0,0,0-1.473,4.061V1.707A1.248,1.248,0,0,0-2.823.412H-4.339V-3.819h3.6A2.913,2.913,0,0,1,1.913-2.486,2.913,2.913,0,0,1,4.566-3.819H16.888V4.594h-4.74V2.1A1.44,1.44,0,0,0,10.7.507H6.716c-.758,0-1.074.414-1.074,1.182v1.5c0,.354.147.751.484.751s.695.018.695-1.224h4.063Z" transform="translate(4.339 3.819)" fill="#9c9e9f"/>
      </g>
      <g id="Group_1289" data-name="Group 1289" transform="translate(97.273 1.362)">
        <path id="Path_2144" data-name="Path 2144" d="M10.885,9.58H6.822c0-1.246-.358-1.224-.695-1.224s-.488.4-.488.751v1.5c0,.768.319,1.182,1.077,1.182H10.7a1.441,1.441,0,0,0,1.453-1.6V7.7h4.737v8.413H4.566a2.913,2.913,0,0,1-2.652-1.333A2.913,2.913,0,0,1-.739,16.117h-3.6V11.885h1.516a1.25,1.25,0,0,0,1.351-1.295V8.236A2.025,2.025,0,0,0-3.329,6.149,2.025,2.025,0,0,0-1.473,4.061V1.707A1.248,1.248,0,0,0-2.823.412H-4.339V-3.819h3.6A2.913,2.913,0,0,1,1.913-2.486,2.913,2.913,0,0,1,4.566-3.819H16.884V4.594H12.148V2.1A1.44,1.44,0,0,0,10.7.507H6.716c-.758,0-1.077.414-1.077,1.182v1.5c0,.354.151.751.488.751s.695.018.695-1.224h4.063Z" transform="translate(4.339 3.819)" fill="#9c9e9f"/>
      </g>
      <g id="Group_1290" data-name="Group 1290" transform="translate(0 1.364)">
        <path id="Path_2145" data-name="Path 2145" d="M15.177,6.013V-2.4H2.858A2.918,2.918,0,0,0,.206-1.067,2.92,2.92,0,0,0-2.45-2.4h-3.6V1.831h1.516a1.251,1.251,0,0,1,1.351,1.3V5.483A2.024,2.024,0,0,1-5.04,7.567,2.027,2.027,0,0,1-3.184,9.655v2.354a1.251,1.251,0,0,1-1.351,1.3H-6.05v4.228h3.6A2.915,2.915,0,0,0,.206,16.2a2.913,2.913,0,0,0,2.652,1.333H7.511V13.213H5.005c-.758,0-1.074-.414-1.074-1.186v-1.5c0-.354.147-.751.484-.751s.695-.018.695,1.224H9.174V4.136H5.111c0,1.246-.358,1.224-.695,1.224s-.484-.393-.484-.751v-1.5c0-.772.316-1.186,1.074-1.186H8.984a1.445,1.445,0,0,1,1.456,1.6V6.013Z" transform="translate(6.05 2.397)" fill="#9c9e9f"/>
      </g>
      <g id="Group_1291" data-name="Group 1291" transform="translate(46.455 1.362)">
        <path id="Path_2146" data-name="Path 2146" d="M7.137,3.991c0-.817.316-1.256,1.074-1.256h1.895c1.6,0,2.61.481,2.61,1.821S11.7,6.38,10.105,6.38H8.21c-.758,0-1.074-.439-1.074-1.256ZM6.063-1.591A2.913,2.913,0,0,0,3.411-.258,2.915,2.915,0,0,0,.755-1.591h-3.6V2.64h1.516A1.248,1.248,0,0,1,.021,3.935V6.289A2.025,2.025,0,0,1-1.835,8.377,2.024,2.024,0,0,1,.021,10.461v2.358a1.25,1.25,0,0,1-1.351,1.295H-2.845v4.231h3.6a2.915,2.915,0,0,0,2.656-1.333,2.913,2.913,0,0,0,2.652,1.333h4.652V14.019H8.21c-.758,0-1.074-.414-1.074-1.182v-1.5c0-.354.147-.751.484-.751h2.484c1.41,0,1.979.975,1.979,2.635V14.58c0,1.9,1.2,3.614,4.424,3.614h4.61V13.633H20.36c-.947,0-1.389-.235-1.389-1.3v-.712a3.375,3.375,0,0,0-2.337-3.2c1.642-.649,3.031-1.54,3.031-4.677a4.968,4.968,0,0,0-4.989-5.333Z" transform="translate(2.845 1.591)" fill="#9c9e9f"/>
      </g>
      <g id="Group_1292" data-name="Group 1292" transform="translate(71.81 1.362)">
        <path id="Path_2147" data-name="Path 2147" d="M7.137,3.991c0-.817.316-1.256,1.074-1.256h1.895c1.6,0,2.614.481,2.614,1.821S11.7,6.38,10.105,6.38H8.21c-.758,0-1.074-.439-1.074-1.256ZM6.063-1.591A2.913,2.913,0,0,0,3.411-.258,2.915,2.915,0,0,0,.755-1.591h-3.6V2.64h1.516A1.248,1.248,0,0,1,.021,3.935V6.289A2.025,2.025,0,0,1-1.835,8.377,2.024,2.024,0,0,1,.021,10.461v2.358a1.25,1.25,0,0,1-1.351,1.295H-2.845v4.231h3.6a2.915,2.915,0,0,0,2.656-1.333,2.913,2.913,0,0,0,2.652,1.333h4.652V14.019H8.21c-.758,0-1.074-.414-1.074-1.182v-1.5c0-.354.147-.751.484-.751h2.484c1.41,0,1.979.975,1.979,2.635V14.58c0,1.9,1.2,3.614,4.424,3.614h4.61V13.633H20.36c-.947,0-1.389-.235-1.389-1.3v-.712a3.375,3.375,0,0,0-2.337-3.2c1.642-.649,3.031-1.54,3.031-4.677a4.968,4.968,0,0,0-4.989-5.333Z" transform="translate(2.845 1.591)" fill="#9c9e9f"/>
      </g>
      <g id="Group_1293" data-name="Group 1293" transform="translate(121.467 1.362)">
        <path id="Path_2148" data-name="Path 2148" d="M7.137,3.991c0-.817.316-1.256,1.074-1.256h1.895c1.6,0,2.61.481,2.61,1.821S11.7,6.38,10.105,6.38H8.21c-.758,0-1.074-.439-1.074-1.256ZM6.063-1.591A2.913,2.913,0,0,0,3.411-.258,2.915,2.915,0,0,0,.755-1.591h-3.6V2.64h1.516A1.248,1.248,0,0,1,.021,3.935V6.289A2.025,2.025,0,0,1-1.835,8.377,2.024,2.024,0,0,1,.021,10.461v2.358a1.25,1.25,0,0,1-1.351,1.295H-2.845v4.231h3.6a2.915,2.915,0,0,0,2.656-1.333,2.913,2.913,0,0,0,2.652,1.333h4.652V14.019H8.21c-.758,0-1.074-.414-1.074-1.182v-1.5c0-.354.147-.751.484-.751h2.484c1.41,0,1.979.975,1.979,2.635V14.58c0,1.9,1.2,3.614,4.424,3.614h4.61V13.633H20.36c-.947,0-1.389-.235-1.389-1.3v-.712a3.375,3.375,0,0,0-2.337-3.2c1.642-.649,3.031-1.54,3.031-4.677a4.968,4.968,0,0,0-4.989-5.333Z" transform="translate(2.845 1.591)" fill="#9c9e9f"/>
      </g>
      <g id="Group_1294" data-name="Group 1294" transform="translate(145.458 0.001)">
        <path id="Path_2149" data-name="Path 2149" d="M17.861,5.561A3.63,3.63,0,0,0,19.7,8.368a3.637,3.637,0,0,0-1.835,2.81c-1.582,6.786-7.715,7.778-11.571,7.778S-3.7,17.964-5.285,11.179A3.637,3.637,0,0,0-7.12,8.368,3.63,3.63,0,0,0-5.285,5.561C-3.7-1.224,2.43-2.217,6.29-2.217s9.989.993,11.571,7.778M6.29,2.46a3.642,3.642,0,0,0-3.835,3.6,2.263,2.263,0,0,0,1.495,2.21,2.263,2.263,0,0,0-1.495,2.21,3.642,3.642,0,0,0,3.835,3.6,3.641,3.641,0,0,0,3.831-3.6,2.263,2.263,0,0,0-1.495-2.21,2.263,2.263,0,0,0,1.495-2.21A3.641,3.641,0,0,0,6.29,2.46" transform="translate(7.12 2.217)" fill="#9c9e9f"/>
      </g>
    </g>
  </g>
</svg>
