<svg xmlns="http://www.w3.org/2000/svg" width="109.551" height="85.008" viewBox="0 0 109.551 85.008">
  <g id="Group_1282" data-name="Group 1282" transform="translate(-916 -2714)">
    <path id="Path_2028" data-name="Path 2028" d="M27.339,181.2v-5.642a3.31,3.31,0,0,0-3.573-3.573,3.71,3.71,0,0,0-3.2,1.6,3.288,3.288,0,0,0-3.009-1.6,3.037,3.037,0,0,0-2.633,1.316v-1.128H12.952V181.2h1.975v-4.984c0-1.6.846-2.351,2.163-2.351s1.975.846,1.975,2.351V181.2h1.975v-4.984a2.081,2.081,0,0,1,2.163-2.351c1.317,0,1.975.846,1.975,2.351V181.2Zm29.245-9.027h-3.2v-2.727H51.413v2.727H49.626v1.787h1.787v4.138c0,2.069.846,3.291,3.1,3.291a5.261,5.261,0,0,0,2.445-.658l-.565-1.693a3.094,3.094,0,0,1-1.692.47c-.94,0-1.316-.564-1.316-1.5v-4.043h3.2v-1.787Zm16.739-.188a2.651,2.651,0,0,0-2.351,1.316v-1.128H69V181.2h1.975v-5.078c0-1.5.658-2.351,1.88-2.351a5.492,5.492,0,0,1,1.223.188l.564-1.881a6.221,6.221,0,0,0-1.316-.094Zm-25.3.94a6.455,6.455,0,0,0-3.668-.94c-2.257,0-3.761,1.128-3.761,2.915,0,1.5,1.129,2.351,3.1,2.633l.94.094c1.034.188,1.6.47,1.6.941,0,.658-.752,1.128-2.069,1.128a5.194,5.194,0,0,1-3.009-.94l-.94,1.5a6.651,6.651,0,0,0,3.856,1.128c2.633,0,4.138-1.222,4.138-2.915,0-1.6-1.223-2.445-3.1-2.727l-.94-.094c-.846-.094-1.5-.282-1.5-.846,0-.658.658-1.034,1.692-1.034a6.775,6.775,0,0,1,2.821.752l.846-1.6Zm52.472-.94a2.651,2.651,0,0,0-2.351,1.316v-1.128H96.173V181.2h1.975v-5.078c0-1.5.658-2.351,1.881-2.351a5.492,5.492,0,0,1,1.223.188l.564-1.881a6.221,6.221,0,0,0-1.316-.094Zm-25.2,4.7a4.517,4.517,0,0,0,4.8,4.7,4.678,4.678,0,0,0,3.2-1.034l-.94-1.6A3.8,3.8,0,0,1,80,179.6a2.669,2.669,0,0,1-2.727-2.915A2.774,2.774,0,0,1,80,173.767a3.8,3.8,0,0,1,2.351.846l.94-1.6a4.677,4.677,0,0,0-3.2-1.034,4.517,4.517,0,0,0-4.8,4.7Zm18.243,0v-4.514H91.565V173.3a3.4,3.4,0,0,0-2.821-1.316,4.706,4.706,0,0,0,0,9.4,3.165,3.165,0,0,0,2.821-1.316V181.2H93.54Zm-7.241,0a2.733,2.733,0,1,1,5.454,0,2.733,2.733,0,1,1-5.454,0Zm-23.6-4.7a4.7,4.7,0,0,0,.094,9.4,5.754,5.754,0,0,0,3.668-1.222l-.941-1.411a4.493,4.493,0,0,1-2.633.94,2.538,2.538,0,0,1-2.727-2.163h6.677v-.752c.094-2.915-1.6-4.8-4.138-4.8Zm0,1.692a2.2,2.2,0,0,1,2.257,2.163h-4.7a2.381,2.381,0,0,1,2.445-2.163Zm48.992,3.009V168.6h-1.975v4.7a3.4,3.4,0,0,0-2.821-1.316,4.706,4.706,0,0,0,0,9.4,3.164,3.164,0,0,0,2.821-1.316V181.2h1.975Zm-7.241,0a2.733,2.733,0,1,1,5.454,0,2.733,2.733,0,1,1-5.454,0Zm-66.013,0v-4.514H36.461V173.3a3.4,3.4,0,0,0-2.821-1.316,4.706,4.706,0,0,0,0,9.4,3.164,3.164,0,0,0,2.821-1.316V181.2h1.975Zm-7.335,0a2.733,2.733,0,1,1,5.454,0,2.733,2.733,0,1,1-5.454,0Z" transform="translate(908.596 2617.624)" fill="#9c9e9f"/>
    <rect id="Rectangle_474" data-name="Rectangle 474" width="29.621" height="53.224" transform="translate(955.965 2721.241)" fill="#9c9e9f"/>
    <path id="Path_2029" data-name="Path 2029" d="M41.846,33.853A33.943,33.943,0,0,1,54.728,7.241,33.84,33.84,0,1,0,33.853,67.705a33.643,33.643,0,0,0,20.876-7.241A33.8,33.8,0,0,1,41.846,33.853Z" transform="translate(916 2714)" fill="#9c9e9f"/>
    <path id="Path_2030" data-name="Path 2030" d="M182.711,33.853a33.817,33.817,0,0,1-54.728,26.612,33.927,33.927,0,0,0,0-53.224,33.817,33.817,0,0,1,54.728,26.612Z" transform="translate(842.839 2714)" fill="#cecece"/>
  </g>
</svg>
