<svg xmlns="http://www.w3.org/2000/svg" width="182.337" height="35.263" viewBox="0 0 182.337 35.263">
  <g id="Group_1270" data-name="Group 1270" transform="translate(90.161 107.3)">
    <path id="Path_2126" data-name="Path 2126" d="M916.4-105.924a10.06,10.06,0,0,1,8.078-.948c.023,1.582,0,3.166.011,4.75a5.283,5.283,0,0,0-4.085-.374,3.238,3.238,0,0,0-1.849,2.586,34.86,34.86,0,0,0-.1,4.15c2.7.006,5.406,0,8.109,0,.02-1.755-.021-3.511.023-5.266,1.838-.523,3.656-1.11,5.485-1.661.015,2.312-.021,4.626.02,6.939,1.827-.026,3.656-.006,5.485-.012v4.5c-1.835-.075-3.671-.02-5.506-.026.008,2.588,0,5.175,0,7.764.029,1.433-.077,2.874.091,4.3a2.788,2.788,0,0,0,1.2,2.211,4.13,4.13,0,0,0,4.215-.4v4.546a10.838,10.838,0,0,1-5.068.776,6.163,6.163,0,0,1-4.37-2,8.274,8.274,0,0,1-1.566-5.289c-.014-3.972,0-7.943-.006-11.916q-4.057,0-8.112,0,0,9.349,0,18.7h-5.543q0-9.347,0-18.692c-1.285-.025-2.572.006-3.858-.02,0-1.479.011-2.96,0-4.441,1.279-.029,2.56-.017,3.842-.008.094-1.967-.206-3.992.382-5.908a7.561,7.561,0,0,1,3.126-4.267Z" transform="translate(-845.399 0)" fill="#9c9e9f"/>
    <path id="Path_2127" data-name="Path 2127" d="M170.357-96.479a3.39,3.39,0,0,1,3.068,1.087,3.16,3.16,0,0,1,.385,3.6,3.448,3.448,0,0,1-3.69,1.546,3.134,3.134,0,0,1-2.574-3.088,3.208,3.208,0,0,1,2.811-3.145Z" transform="translate(-218.036 -9.122)" fill="#9c9e9f"/>
    <path id="Path_2128" data-name="Path 2128" d="M-90.16-91.82H-82.1q3.764,9.557,7.549,19.108c.642,1.593,1.242,3.2,1.915,4.786,3.228-7.961,6.5-15.9,9.706-23.875,2.585-.042,5.171-.009,7.757-.015q-.009,16.161,0,32.322c-1.866,0-3.73.015-5.594-.011.02-7.951,0-15.9.009-23.854,0-.357-.009-.714-.034-1.071a4.273,4.273,0,0,0-.291.517c-3.2,8.139-6.468,16.254-9.653,24.4-1.327.048-2.655,0-3.984.025-3.3-8.139-6.568-16.3-9.856-24.44-.086-.169-.179-.334-.279-.493-.068,3.484-.011,6.97-.029,10.454q0,7.236,0,14.473c-1.759,0-3.519,0-5.277,0q0-16.163,0-32.326Z" transform="translate(0 -13.094)" fill="#9c9e9f"/>
    <path id="Path_2129" data-name="Path 2129" d="M238.971-35.515a15.174,15.174,0,0,1,8.234.025,6.645,6.645,0,0,1,1.581.659c-.031,1.766,0,3.533-.017,5.3a8.806,8.806,0,0,0-6.327-1.944,6.509,6.509,0,0,0-4.6,2.557A8.941,8.941,0,0,0,236.37-22.5a6.947,6.947,0,0,0,2.24,4.606,7.019,7.019,0,0,0,5.186,1.544,10.561,10.561,0,0,0,4.974-2.041c.015,1.673-.008,3.347.012,5.02a13.481,13.481,0,0,1-7.577,1.569,11.235,11.235,0,0,1-7.221-3.011,11.546,11.546,0,0,1-3.354-7.755,14.042,14.042,0,0,1,2.192-8.6,11.151,11.151,0,0,1,6.15-4.344Z" transform="translate(-271.395 -60.264)" fill="#9c9e9f"/>
    <path id="Path_2130" data-name="Path 2130" d="M642.361-35.842a14.663,14.663,0,0,1,7.672.8c0,1.7,0,3.4,0,5.1a9.768,9.768,0,0,0-5.822-1.719,2.98,2.98,0,0,0-2.648,1.464,2.4,2.4,0,0,0,.8,2.835c1.572,1.051,3.447,1.5,5.075,2.44a7.3,7.3,0,0,1,3.176,3.02,6.761,6.761,0,0,1-1.442,7.8c-2.049,1.915-5,2.444-7.714,2.343a16.481,16.481,0,0,1-5.636-1.293c.008-1.787-.011-3.573.009-5.358a12.123,12.123,0,0,0,5.029,2.17,6.473,6.473,0,0,0,3.825-.351,2.214,2.214,0,0,0,.662-3.149,6.664,6.664,0,0,0-2.42-1.584,23.19,23.19,0,0,1-4.784-2.449,5.734,5.734,0,0,1-2.07-3.145,7.066,7.066,0,0,1,.767-5.529,8.253,8.253,0,0,1,5.515-3.388Z" transform="translate(-614.234 -60.288)" fill="#9c9e9f"/>
    <path id="Path_2131" data-name="Path 2131" d="M383.4-34.34a6.252,6.252,0,0,1,5.144-.434c-.008,1.849,0,3.7,0,5.546a5.891,5.891,0,0,0-3.747-.881,4.6,4.6,0,0,0-3.467,2.772,10.244,10.244,0,0,0-.79,4.73q0,5.539,0,11.079h-5.465q-.007-11.577,0-23.156c1.824-.023,3.648-.014,5.472,0-.008,1.325,0,2.651,0,3.978a7.1,7.1,0,0,1,2.865-3.63Z" transform="translate(-393.616 -61.061)" fill="#9c9e9f"/>
    <path id="Path_2132" data-name="Path 2132" d="M170.83-32.327c1.838-.008,3.678-.026,5.515.009-.022,7.717,0,15.435-.009,23.152h-5.5q-.007-11.58,0-23.161Z" transform="translate(-220.816 -63.422)" fill="#9c9e9f"/>
    <path id="Path_2133" data-name="Path 2133" d="M487.278-30.091a9.8,9.8,0,0,0-4.841-4.894,14.708,14.708,0,0,0-7.935-.936,11.061,11.061,0,0,0-7.287,3.895,12.348,12.348,0,0,0-2.558,7.079,13.3,13.3,0,0,0,2.03,8.653,10.5,10.5,0,0,0,6.4,4.176,15.919,15.919,0,0,0,6.49.006,10.728,10.728,0,0,0,6.364-3.927,12.287,12.287,0,0,0,2.437-6.745A15.2,15.2,0,0,0,487.278-30.091Zm-5.354,10.634a5.064,5.064,0,0,1-2.723,2.675,7.474,7.474,0,0,1-4.518.2,5.532,5.532,0,0,1-3.474-2.866,10.694,10.694,0,0,1-.842-5.8,7.366,7.366,0,0,1,2.141-4.834,5.8,5.8,0,0,1,3.647-1.439,5.966,5.966,0,0,1,4.637,1.573,7.477,7.477,0,0,1,1.913,4.829A12.139,12.139,0,0,1,481.924-19.457Z" transform="translate(-469.369 -60.257)" fill="#9c9e9f"/>
    <path id="Path_2134" data-name="Path 2134" d="M774.193-29.419a9.891,9.891,0,0,0-4.761-5.389,14.357,14.357,0,0,0-8.228-1.118,11.476,11.476,0,0,0-6.125,2.628,11.35,11.35,0,0,0-3.656,7.115,15.34,15.34,0,0,0,.871,8.048,10.273,10.273,0,0,0,5.631,5.463,14.906,14.906,0,0,0,7.808.66A10.826,10.826,0,0,0,772.548-16a12.675,12.675,0,0,0,2.508-7.891A14.766,14.766,0,0,0,774.193-29.419Zm-5,7.854a7.222,7.222,0,0,1-1.433,3.4,5.188,5.188,0,0,1-3.239,1.743,7.327,7.327,0,0,1-3.965-.431,5.618,5.618,0,0,1-2.923-3.059,11,11,0,0,1-.657-5.048,8.009,8.009,0,0,1,1.679-4.613,5.671,5.671,0,0,1,4.045-1.941,6.079,6.079,0,0,1,4.441,1.31,6.356,6.356,0,0,1,2.006,3.688A14.075,14.075,0,0,1,769.193-21.565Z" transform="translate(-711.892 -60.259)" fill="#9c9e9f"/>
  </g>
</svg>
