<svg id="Group_2005" data-name="Group 2005" xmlns="http://www.w3.org/2000/svg" width="78.173" height="78.39" viewBox="0 0 78.173 78.39">
  <path id="Path_2472" data-name="Path 2472" d="M314.216,429.159h-9.623a5.4,5.4,0,0,0-3.857-3.85v-13.67a1.346,1.346,0,1,0-2.693,0v13.67a5.38,5.38,0,1,0,6.549,6.549h9.623a1.35,1.35,0,1,0,0-2.7Zm-14.829,4.049a2.7,2.7,0,1,1,2.7-2.7,2.7,2.7,0,0,1-2.7,2.7Zm0,0" transform="translate(-260.303 -389.865)" fill="#00aeef"/>
  <path id="Path_2473" data-name="Path 2473" d="M341.544,411.333l5.522,5.515a1.352,1.352,0,0,0,1.909,0,10.949,10.949,0,0,0-15.487-15.481,1.374,1.374,0,0,0-.4.955,1.344,1.344,0,0,0,.4.954l6.153,6.148-2.29,2.29a36.311,36.311,0,0,0-48.522,0l-2.3-2.29,6.153-6.148a1.361,1.361,0,0,0,.394-.954,1.38,1.38,0,0,0-.394-.955A10.949,10.949,0,1,0,277.2,416.848a1.351,1.351,0,0,0,.955.394,1.321,1.321,0,0,0,.954-.394l5.523-5.515,2.256,2.256a36.34,36.34,0,0,0,7.761,56.584l-4.081,4.081a1.349,1.349,0,0,0,.954,2.3,1.336,1.336,0,0,0,.949-.394l4.654-4.654a36.288,36.288,0,0,0,31.928,0l4.647,4.654a1.349,1.349,0,0,0,1.907-1.909l-4.079-4.081a36.338,36.338,0,0,0,7.759-56.584Zm5.522-8.057a8.266,8.266,0,0,1,.876,10.637L336.43,402.4a8.258,8.258,0,0,1,10.635.875Zm-68.832,10.637A8.251,8.251,0,0,1,289.745,402.4Zm34.85,58.6a33.7,33.7,0,1,1,33.7-33.7,33.74,33.74,0,0,1-33.7,33.7Zm0,0" transform="translate(-274 -398.168)" fill="#00aeef"/>
  <path id="Path_2474" data-name="Path 2474" d="M297.741,407.834a1.344,1.344,0,0,0,1.35-1.341v-1.35a1.346,1.346,0,1,0-2.693,0v1.35a1.34,1.34,0,0,0,1.343,1.341Zm0,0" transform="translate(-258.658 -394.315)" fill="#00aeef"/>
  <path id="Path_2475" data-name="Path 2475" d="M297.741,438.191a1.347,1.347,0,0,0-1.343,1.35v1.35a1.346,1.346,0,1,0,2.693,0v-1.35a1.347,1.347,0,0,0-1.35-1.35Zm0,0" transform="translate(-258.658 -370.753)" fill="#00aeef"/>
  <path id="Path_2476" data-name="Path 2476" d="M314.545,424.086h1.35a1.345,1.345,0,1,0,0-2.691h-1.35a1.345,1.345,0,1,0,0,2.691Zm0,0" transform="translate(-247.152 -382.258)" fill="#00aeef"/>
  <path id="Path_2477" data-name="Path 2477" d="M281.495,421.395h-1.348a1.345,1.345,0,1,0,0,2.691h1.348a1.345,1.345,0,0,0,0-2.691Zm0,0" transform="translate(-270.714 -382.258)" fill="#00aeef"/>
  <path id="Path_2478" data-name="Path 2478" d="M309.626,409.345l-.954.947a1.35,1.35,0,0,0,1.909,1.909l.947-.954a1.345,1.345,0,0,0-1.9-1.9Zm0,0" transform="translate(-250.521 -390.783)" fill="#00aeef"/>
  <path id="Path_2479" data-name="Path 2479" d="M285.3,433.669l-.954.954a1.345,1.345,0,1,0,1.9,1.9l.955-.954a1.345,1.345,0,0,0-1.9-1.9Zm0,0" transform="translate(-267.182 -374.122)" fill="#00aeef"/>
  <path id="Path_2480" data-name="Path 2480" d="M310.582,433.669a1.348,1.348,0,1,0-1.909,1.9l.954.954a1.345,1.345,0,0,0,1.9-1.9Zm0,0" transform="translate(-250.521 -374.122)" fill="#00aeef"/>
  <path id="Path_2481" data-name="Path 2481" d="M286.249,409.345a1.345,1.345,0,0,0-1.9,1.9l.954.954a1.324,1.324,0,0,0,.947.394,1.349,1.349,0,0,0,.955-2.3Zm0,0" transform="translate(-267.182 -390.783)" fill="#00aeef"/>
</svg>
