<svg xmlns="http://www.w3.org/2000/svg" width="66.349" height="76.179" viewBox="0 0 66.349 76.179">
  <g id="Group_1659" data-name="Group 1659" transform="translate(-81.008 -173.891)">
    <path id="Path_2482" data-name="Path 2482" d="M183.453,222.909a6.137,6.137,0,0,0-3.988,5.733,6.07,6.07,0,0,0,.7,2.8,4.894,4.894,0,0,0,0,9.154,6.069,6.069,0,0,0-.7,2.8,6.137,6.137,0,0,0,3.988,5.733,4.844,4.844,0,0,0-.3,1.639,4.883,4.883,0,0,0,6.647,4.584,4.9,4.9,0,0,0,9.326-2.127v-34.4a4.9,4.9,0,0,0-9.326-2.127,4.882,4.882,0,0,0-6.647,4.584,4.841,4.841,0,0,0,.3,1.639Zm4.612-4.1a2.46,2.46,0,0,1,2.457,2.457h2.457a4.868,4.868,0,0,0-1.133-3.1,2.451,2.451,0,0,1,4.819.643v34.4a2.452,2.452,0,0,1-4.819.643,4.867,4.867,0,0,0,1.133-3.1h-2.457a2.457,2.457,0,1,1-2.457-2.457v-2.457a4.868,4.868,0,0,0-3.133,1.16,3.683,3.683,0,1,1,4.362-3.618h2.457a6.15,6.15,0,0,0-6.144-6.144,6.078,6.078,0,0,0-3.686,1.261v-.032a2.457,2.457,0,0,1,0-4.915v-.032a6.078,6.078,0,0,0,3.686,1.26,6.15,6.15,0,0,0,6.144-6.144h-2.457a3.686,3.686,0,1,1-4.362-3.617,4.868,4.868,0,0,0,3.133,1.16v-2.457a2.457,2.457,0,1,1,0-4.914Zm0,0" transform="translate(-81.256 -33.862)" fill="#00aeef"/>
    <path id="Path_2483" data-name="Path 2483" d="M348.062,216.355a4.882,4.882,0,0,0-1.731.331A4.9,4.9,0,0,0,337,218.813v34.4a4.9,4.9,0,0,0,9.326,2.127,4.882,4.882,0,0,0,6.646-4.584,4.833,4.833,0,0,0-.3-1.639,6.138,6.138,0,0,0,3.989-5.733,6.069,6.069,0,0,0-.7-2.8,4.894,4.894,0,0,0,0-9.154,6.07,6.07,0,0,0,.7-2.8,6.137,6.137,0,0,0-3.989-5.733,4.83,4.83,0,0,0,.3-1.639,4.92,4.92,0,0,0-4.915-4.915Zm6.144,12.286a3.686,3.686,0,1,1-7.372,0h-2.457a6.15,6.15,0,0,0,6.143,6.144,6.078,6.078,0,0,0,3.686-1.26v.032a2.457,2.457,0,0,1,0,4.915v.032a6.078,6.078,0,0,0-3.686-1.261,6.15,6.15,0,0,0-6.143,6.144h2.457A3.686,3.686,0,1,1,351.2,247a4.87,4.87,0,0,0-3.134-1.16V248.3a2.457,2.457,0,1,1-2.457,2.457h-2.457a4.867,4.867,0,0,0,1.133,3.1,2.452,2.452,0,0,1-4.819-.643v-34.4a2.451,2.451,0,0,1,4.819-.643,4.868,4.868,0,0,0-1.133,3.1H345.6a2.457,2.457,0,1,1,2.457,2.457v2.457a4.87,4.87,0,0,0,3.134-1.16,3.686,3.686,0,0,1,3.01,3.617Zm0,0" transform="translate(-216.678 -33.862)" fill="#00aeef"/>
    <path id="Path_2484" data-name="Path 2484" d="M192.62,181.555a28.025,28.025,0,0,0-21.153-7.606l.152,2.452a25.8,25.8,0,0,1,15.891,47.262,15.189,15.189,0,0,0-5.551,6.748H164.534a15.439,15.439,0,0,0-5.58-6.8,25.686,25.686,0,0,1-11.47-22.283l-2.456-.076a28.126,28.126,0,0,0,12.562,24.4,12.947,12.947,0,0,1,4.25,4.757h-3.312v2.457h4.292a14.176,14.176,0,0,1,.526,2.457h-2.36v2.457h2.457v3.686a1.228,1.228,0,0,0,1.229,1.229H165.9a7.372,7.372,0,0,0,14.744,0h1.229a1.228,1.228,0,0,0,1.229-1.229v-3.686h2.457v-2.457h-2.37a13.714,13.714,0,0,1,.494-2.457h4.334v-2.457h-3.365a12.669,12.669,0,0,1,4.218-4.7,28.255,28.255,0,0,0,3.751-44.158Zm-19.348,66.058a4.92,4.92,0,0,1-4.915-4.915h9.83a4.92,4.92,0,0,1-4.915,4.915Zm7.372-7.372H165.9v-2.457h14.744Zm.088-4.915H165.8a16.726,16.726,0,0,0-.416-2.457h15.729a16.341,16.341,0,0,0-.382,2.457Zm0,0" transform="translate(-54.175 0)" fill="#00aeef"/>
    <path id="Path_2485" data-name="Path 2485" d="M130.237,182.5a4.92,4.92,0,0,1,4.915,4.915,1.229,1.229,0,0,0,2.457,0,4.919,4.919,0,0,1,4.914-4.915,1.229,1.229,0,1,0,0-2.457,4.919,4.919,0,0,1-4.914-4.915,1.229,1.229,0,0,0-2.457,0,4.92,4.92,0,0,1-4.915,4.915,1.229,1.229,0,1,0,0,2.457Zm6.144-3.3a7.436,7.436,0,0,0,2.073,2.073,7.44,7.44,0,0,0-2.073,2.073,7.436,7.436,0,0,0-2.073-2.073,7.432,7.432,0,0,0,2.073-2.073Zm0,0" transform="translate(-40.628 -0.006)" fill="#00aeef"/>
    <path id="Path_2486" data-name="Path 2486" d="M94.524,262.5a1.229,1.229,0,1,0,0-2.457,4.92,4.92,0,0,1-4.915-4.914,1.229,1.229,0,1,0-2.457,0,4.92,4.92,0,0,1-4.915,4.914,1.229,1.229,0,1,0,0,2.457,4.92,4.92,0,0,1,4.915,4.915,1.229,1.229,0,0,0,2.457,0,4.92,4.92,0,0,1,4.915-4.915Zm-6.144.844a7.438,7.438,0,0,0-2.073-2.073A7.447,7.447,0,0,0,88.38,259.2a7.45,7.45,0,0,0,2.073,2.073,7.442,7.442,0,0,0-2.073,2.073Zm0,0" transform="translate(0 -67.719)" fill="#00aeef"/>
  </g>
</svg>
