<svg xmlns="http://www.w3.org/2000/svg" xmlns:xlink="http://www.w3.org/1999/xlink" width="78" height="71" viewBox="0 0 78 71">
  <defs>
    <clipPath id="clip-path">
      <rect id="SVGID" width="78" height="71" transform="translate(-0.491)" fill="#00aeef"/>
    </clipPath>
  </defs>
  <g id="Group_1662" data-name="Group 1662" transform="translate(-91.658 -231.265)">
    <path id="Path_2487" data-name="Path 2487" d="M405.63,497.906a1.508,1.508,0,1,0,1.068,1.848,1.506,1.506,0,0,0-1.068-1.848Zm0,0" transform="translate(-252.932 -216.659)" fill="#00aeef"/>
    <g id="Group_1661" data-name="Group 1661" transform="translate(92.149 231.265)">
      <g id="Group_1660" data-name="Group 1660" transform="translate(0 0)" clip-path="url(#clip-path)">
        <path id="Path_2488" data-name="Path 2488" d="M175.774,500.82a1.508,1.508,0,1,0-1.848-1.066,1.507,1.507,0,0,0,1.848,1.066Zm0,0" transform="translate(-158.603 -447.924)" fill="#00aeef"/>
        <path id="Path_2489" data-name="Path 2489" d="M167.572,279.917a36.166,36.166,0,0,0-9.822-37.4,39.061,39.061,0,0,0-27.1-11.028c-20.809,0-38.616,16.838-38.616,37.711a36.552,36.552,0,0,0,1.694,10.72,4.549,4.549,0,0,0-1.577,4.728l3.906,14.568a4.523,4.523,0,0,0,5.542,3.2l4.621-1.239a4.536,4.536,0,0,0,4.9,1.811l5.829-1.563a4.53,4.53,0,0,0,3.2-5.541l-5.466-20.4a4.532,4.532,0,0,0-5.543-3.2l-5.827,1.561a4.491,4.491,0,0,0-1.633.821,26.586,26.586,0,0,1-.561-4.172,4.438,4.438,0,0,0,3.1-3.806c1.244-12.756,13.1-23.134,26.427-23.134s25.182,10.378,26.427,23.134a4.437,4.437,0,0,0,3.1,3.806,26.677,26.677,0,0,1-.561,4.172,4.5,4.5,0,0,0-1.633-.821l-5.827-1.561a4.531,4.531,0,0,0-5.543,3.2l-5.465,20.4a4.53,4.53,0,0,0,3.2,5.541l5.83,1.563a4.533,4.533,0,0,0,4.9-1.811l4.624,1.239a4.524,4.524,0,0,0,5.54-3.2l3.906-14.571a4.552,4.552,0,0,0-1.575-4.728Zm-63.477-3.154,5.828-1.562a1.511,1.511,0,0,1,1.848,1.067l5.465,20.4a1.511,1.511,0,0,1-1.066,1.847l-1.457.39-2.732-10.2a1.509,1.509,0,1,0-2.914.781l2.733,10.2-1.457.391a1.513,1.513,0,0,1-1.848-1.067v0l-5.466-20.4a1.51,1.51,0,0,1,1.067-1.847Zm1.095,21.568-4.37,1.172a1.508,1.508,0,0,1-1.848-1.068l-3.9-14.568a1.515,1.515,0,0,1,.972-1.819c.035-.012.071-.023.1-.029l4.309-1.155c.44,1.1-.363-1.419,4.747,17.467Zm-10.1-27.623h3.02a30.68,30.68,0,0,0,1.325,7.3l-2.9.778a34.39,34.39,0,0,1-1.446-8.08Zm64.988-4.31c-1.426-14.614-14.691-25.859-29.429-25.859s-28,11.251-29.43,25.859a1.475,1.475,0,0,1-1.479,1.292H95.088c.843-18.139,16.783-33.185,35.562-33.185s34.718,15.047,35.561,33.185h-4.652a1.475,1.475,0,0,1-1.479-1.293Zm6.128,4.31a34.438,34.438,0,0,1-1.446,8.08l-2.9-.777a30.729,30.729,0,0,0,1.326-7.3Zm-13.4,28.3h0a1.511,1.511,0,0,1-1.846,1.068l-1.458-.391,2.732-10.2a1.509,1.509,0,1,0-2.914-.781l-2.732,10.2-1.457-.391a1.51,1.51,0,0,1-1.067-1.847l5.465-20.4a1.512,1.512,0,0,1,1.458-1.118,1.532,1.532,0,0,1,.391.052l5.827,1.561a1.51,1.51,0,0,1,1.067,1.847Zm13.428-15.141-3.906,14.571a1.508,1.508,0,0,1-1.847,1.067l-4.371-1.173c5.112-18.893,4.306-16.368,4.746-17.467,4.59,1.231,4.322,1.155,4.417,1.189a1.512,1.512,0,0,1,.961,1.813Zm0,0" transform="translate(-92.179 -231.827)" fill="#00aeef"/>
      </g>
    </g>
  </g>
</svg>
