<svg xmlns="http://www.w3.org/2000/svg" xmlns:xlink="http://www.w3.org/1999/xlink" width="89.083" height="98.552" viewBox="0 0 89.083 98.552">
  <defs>
    <clipPath id="clip-path">
      <path id="Path_2181" data-name="Path 2181" d="M0,61.1H89.083V-37.448H0Z" transform="translate(0 37.448)" fill="#9c9e9f"/>
    </clipPath>
  </defs>
  <g id="Group_1330" data-name="Group 1330" transform="translate(0 37.448)">
    <g id="Group_1329" data-name="Group 1329" transform="translate(0 -37.448)" clip-path="url(#clip-path)">
      <g id="Group_1304" data-name="Group 1304" transform="translate(0 79.494)">
        <path id="Path_2156" data-name="Path 2156" d="M7.114,4.434a16.092,16.092,0,0,1-.687-2.279A2.681,2.681,0,0,1,7.882-.937C8.8-1.192,9.161-.732,9.519.345A22.326,22.326,0,0,1,9.875,7.19c-.2,4.192-2.3,9.253-7.511,9.148-4.5-.1-6.49-3.011-6.7-7.458a20.424,20.424,0,0,1,.921-7.156c.461-1.584.871-2.15,2.3-2.455C.011-.937-.092.239-.344,1.624A27.164,27.164,0,0,0-.957,9.645c.2,3.682,1.89,5.113,3.729,5.113,2.761.053,3.987-2.247,4.5-5.574a9.706,9.706,0,0,0-.158-4.75M65.966,8.063c1.076,0,1.384,1.271,1.129,2.042A3.283,3.283,0,0,1,64.487,12c-.308-.768-.461-3.934,1.479-3.934M45.987,9.8c0-.866-.463-1.584-1.021-1.584-.466,0-1.534.511-1.534,2.147a3.176,3.176,0,0,0,.663,2.15A2.651,2.651,0,0,0,45.987,9.8M30.089-.629A1.5,1.5,0,0,0,28.5-2.006,2.027,2.027,0,0,0,26.717.289a1.5,1.5,0,0,0,1.534,1.537A2.172,2.172,0,0,0,30.089-.629m8.311,3C38.31.945,37.965.3,37.2.352c-1.018.061-1.487,3.263-1.279,6.629.132,2.2.458,2.534.763,2.513.563-.032,1.913-3.958,1.718-7.121M72.306,7.755c-.634,2.626-2.555,6.492-5.419,6.492-.663,0-1.84-.258-1.84-.921,0-.718,4.5-.816,4.5-4.242a3.187,3.187,0,0,0-2.913-3.069c-2.3,0-4.545,2.508-4.545,5.982,0,3.116,1.937,4.14,3.876,4.14,3.376,0,5.421-2.763,6.492-5.061.513,1.532.816,5.061,2.1,5.061.511,0,.871-.258,1.484-1.634C77.569,11.077,79.054,7.14,81.1,7.14c.763,0,.305,1.384,2.145,1.384a1.5,1.5,0,0,0,1.479-1.537c0-1.179-1.071-2.095-2.705-2.095-4.805,0-5.827,7.208-6.592,7.208-1.279,0-.871-5.777-1.792-5.777-.818,0-1.221.974-1.329,1.432M31.418,13.887a3.577,3.577,0,0,0,3.119-1.908,19.185,19.185,0,0,1-1.074-4.948c-.305-4.955,1.6-9.616,3.695-9.745,1.532-.092,2.758,1.358,2.9,3.708.376,6.174-1.679,8.75-2.708,10.974A3.65,3.65,0,0,0,40.36,14.3a1.978,1.978,0,0,0,1.282-.463,5.07,5.07,0,0,1-.208-1.482c0-3.576,2.3-6.6,4.295-6.6,1.584,0,2.505,2.1,2.505,3.479,0,1.634-1.382,2.966-3.424,4.242a2.449,2.449,0,0,0,1.584.616c2.916,0,4.442-3.529,5.571-6.75.2-.616.563-1.482,1.276-1.482,1.229,0,1.74,8.077,3.779,8.077.874,0,1.587-1.792,1.587-3.169,0-1.024-.358-1.126-.358-2.608,0-1.634.868-3.013,2.047-3.013.716,0,.974.713.974,1.579,0,3.274-2.355,9.356-5.827,9.356-2.611,0-2.408-4.5-3.326-4.5-1.026,0-2.458,4.55-7.513,4.55a3.255,3.255,0,0,1-2.4-1.229,5.886,5.886,0,0,1-3.426,1.176c-1.887,0-2.708-1.942-3.471-1.942-.924,0-1.942,1.995-5.013,1.995-2.453,0-2.861-3.269-3.729-3.269-.768,0-1.942,3.269-3.219,3.269-2.15,0-2.608-5.674-4.5-5.674-1.482,0-6.166,5.761-7.437,5.629-.511-.053-.726-.434-.671-.945a35.73,35.73,0,0,1,.926-3.5c.413-1.553.792-3.255,1.005-3.8a1.358,1.358,0,0,1,1.232-.9c.232.024.3.45.371.8.258,1.266.618,2.553,1.026,2.553.716,0,3.087-4.55,4.466-4.55,1.69,0,1.892,7.158,4.192,7.158.768,0,1.332-.918,1.84-2.045.053-1.895.563-4.6,2.1-4.6,1.074,0,1.587,2.4.816,4.5,0,2.5,1.634,3.116,2.711,3.116" transform="translate(4.36 2.718)" fill="#9c9e9f"/>
      </g>
      <g id="Group_1305" data-name="Group 1305" transform="translate(69.534 12.963)">
        <path id="Path_2157" data-name="Path 2157" d="M1.144,1.849A1.176,1.176,0,0,1-.077,1.254C-.322.764-.24-.022-.7-.375A4.755,4.755,0,0,0,.628-.241c1.221,0,2.39-.84,3.287-.84a.7.7,0,0,1,.779.758c0,1.195-2.408,2.171-3.55,2.171m.6,3.066c2.819,0,5.4-2.253,5.4-4.232A1.651,1.651,0,0,0,5.591-1.133a1.189,1.189,0,0,1,.271.866c0,1.492-2.274,3.148-4.745,3.148a1.038,1.038,0,0,0-1.168.947c0,.761.734,1.087,1.792,1.087m-.218,1.14C1.878,8.628,5.781,12.1,6.839,12.02c.708-.061.976-3.363.976-5.966,0-1.492.082-2.658-.705-2.932C5.862,5.646,2.583,6.162,1.523,6.054" transform="translate(0.701 1.133)" fill="#9c9e9f"/>
      </g>
      <g id="Group_1306" data-name="Group 1306" transform="translate(8.434 30.996)">
        <path id="Path_2158" data-name="Path 2158" d="M1.411,3.852c.921,0,.732-5.642,2.221-5.642.355,0,.463.353.463.787,0,1.274-.624,3.148-.624,4.176,0,.516.134.679.379.679.653,0,1.792-6.213,2.9-6.213.353,0,.516.353.516.708,0,1.3-1.655,5.042-1.655,6.1,0,.163.055.3.189.3.679,0,2.034-2.926,2.469-4.392.245-.758.568-1.166.868-1.166.271,0,.516.3.516.924,0,1.463-1.358,4.908-2.55,7.213-.921,1.79-2.358,4.366-2.358,5.8A2.87,2.87,0,0,0,5.941,15.54C4.2,15.432,3.5,15.269,2.848,13.913c-2.9,5.777,5.342,5.208,2.521,10.332-.516-.921-4.582-1.871-4.582-7.24,0-4.637,4.066-7.35,4.066-9.277a1.24,1.24,0,0,0-.487-1c-.895-.761-.924-1.382-1.626-1.382-.516,0-1.142,1.192-.489,2.25.218.353.408.568.408.895,0,.758-1.195,2.792-2.034,2.792s-1.49-2.087-1.49-5.45c0-2.984.676-5.995,1.516-5.995C.9-.164.977,0,.977.218c0,.353-.108,1.055-.108,2.25,0,1.274.3,1.384.542,1.384" transform="translate(0.865 2.361)" fill="#9c9e9f"/>
      </g>
      <g id="Group_1307" data-name="Group 1307" transform="translate(16.162 31.975)">
        <path id="Path_2159" data-name="Path 2159" d="M.907,8.172C2.047,8.172,3,7.329,3,5.461V2.692A4.744,4.744,0,0,1,3.784-.4,4.894,4.894,0,0,0,3.7.687C3.7,3.019,5,4.619,5,6.869c0,.84-.245,1.3-.895,1.3-.624,0-.571-.571-.705-.571-.108,0-.271.353-.271.734A1.465,1.465,0,0,0,4.678,9.8,1.862,1.862,0,0,0,6.442,7.9c0-2.44-1.9-5.153-1.9-7.756a6.09,6.09,0,0,1,.545-2.5c0,5.4,4.582,9.332,4.582,11.579a.9.9,0,0,1-.947.924A.885.885,0,0,1,7.8,9.282c0-.189-.026-.242-.108-.242a1.385,1.385,0,0,0-.65,1.247,2.03,2.03,0,0,0,2.087,1.982A2.4,2.4,0,0,0,11.513,9.8c0-2.845-5.561-7.158-5.561-11.769a6.366,6.366,0,0,1,.705-3.037,9.321,9.321,0,0,0-4.69,8.053c0,2.334-.082,3.5-1.276,3.5-.624,0-.787-.568-1-.568-.163,0-.245.489-.245.624A1.486,1.486,0,0,0,.907,8.172" transform="translate(0.556 5.008)" fill="#9c9e9f"/>
      </g>
      <g id="Group_1308" data-name="Group 1308" transform="translate(58.552 13.587)">
        <path id="Path_2160" data-name="Path 2160" d="M.1.638C.446.406,1.975.772,3.951-.2a1.46,1.46,0,0,1,.705-.187c.95,0,.705,1.082,1.574,1.082.679,0,1.547-.568,2.063-.568.808,0,1.976,2.55,1.976,3.742,0,1.384-2.084,2.226-4.555,2.226A5.793,5.793,0,0,1-.062.909.287.287,0,0,1,.1.638M6.015,4.083c1.195,0,2.09-.542,2.09-.868,0-.108-.163-.189-.516-.189A14.806,14.806,0,0,1,5.2,2.78c-1.14-.189-2.008-.624-2.334-.624-.108,0-.163.055-.163.134C2.7,3,4,4.083,6.015,4.083" transform="translate(0.062 0.391)" fill="#9c9e9f"/>
      </g>
      <g id="Group_1309" data-name="Group 1309" transform="translate(15.861 54.429)">
        <path id="Path_2161" data-name="Path 2161" d="M1.447.589A3.949,3.949,0,0,0-.887,4.442c0,2.655,2.85,6.753,7.542,6.753,3.958,0,4.934-2.74,4.934-4.584,0-4.095-2.521-6.971-5.8-6.971A3.271,3.271,0,0,0,2.4,2.865,4.489,4.489,0,0,0,6.979,7.342,2.285,2.285,0,0,0,9.392,5.01a3,3,0,0,0-2.737-2.9.793.793,0,0,0-.84.84c0,.65.892,1.3,2.005,1.3a1.44,1.44,0,0,0,.6-.111.674.674,0,0,1,.082.326c0,.624-.6,1.005-1.521,1.005A2.655,2.655,0,0,1,4.268,2.813c0-.974.84-1.679,2.061-1.679a4.031,4.031,0,0,1,3.85,4.284c0,1.924-1.055,3.037-3.226,3.037C2.613,8.455.5,4.55,1.447.589" transform="translate(0.887 0.361)" fill="#9c9e9f"/>
      </g>
      <g id="Group_1310" data-name="Group 1310" transform="translate(24.703 61.156)">
        <path id="Path_2162" data-name="Path 2162" d="M15.16,6.271A12.909,12.909,0,0,0,16.8,6.163c.405,0,.434.245.434.408,0,.6-1.332,1.329-3.69,1.329a2.391,2.391,0,0,1-2.469-1.547A10.684,10.684,0,0,1,5.625,8.007c-5.558,0-6.969-2.416-8.706-3.2-1.329-.6-3.361.571-6.211-2.6a6.856,6.856,0,0,0,1.3.108c2.495,0,3.824-1.218,3.824-3.174a6.583,6.583,0,0,0-.055-.755,5.38,5.38,0,0,1,2.905,3.9c.053.271,1.163.516,1.868.516A2.211,2.211,0,0,0,2.97.794C6.223.526,8.42-1.4,8.883-3.843A6.428,6.428,0,0,1,11.7-1.861a4.874,4.874,0,0,1,1.626-.245,10.437,10.437,0,0,1,3.011.516c.055-.353.108-.787.65-.787.816,0,.6.895.868,1.408.137.271.816.434.816.976a.7.7,0,0,1-.708.708A1.186,1.186,0,0,1,17.642.66c-.542.189-.571,4.092-2.85,4.092a4.568,4.568,0,0,1-3.905-3.116A1.16,1.16,0,0,0,9.912.794c-.434,0-.679.084-1.192.653A9.44,9.44,0,0,1,1.8,4.428c-.924,0-1.655-.082-1.845-.082-.111,0-.111.026-.111.053,0,.192.924.924,2.929.924,4.774,0,5.942-2.684,6.7-2.684a.625.625,0,0,1,.621.434,5.329,5.329,0,0,0,5.061,3.2M13.057.849A1.084,1.084,0,1,0,14.142-.235,1.09,1.09,0,0,0,13.057.849" transform="translate(9.291 3.843)" fill="#9c9e9f"/>
      </g>
      <g id="Group_1311" data-name="Group 1311" transform="translate(58.959 51.174)">
        <path id="Path_2163" data-name="Path 2163" d="M5.934.707c-.379,0-.787.3-.787,1.032a1.712,1.712,0,0,0,.976,1.49,1.658,1.658,0,0,0,.784.218c.79,0,1.413-.218,1.413-.868C8.321,1.738,7.1.707,5.934.707M3.008,2.388c-.568,0-3.719,4.2-5.75,4.2-.487,0-.895-.921-.895-1.624,0-.382.245-.653,1.113-.842C2.14,3.067,1.108-.433,5.092-.433a4.551,4.551,0,0,1,4.64,4.855c0,3.582-5.095,8.027-5.856,8.027-.624,0-1.3-.895-1.3-1.49,0-.189.082-.434.624-.653C5.8,9.275,7.29,6.891,7.29,5.67A.483.483,0,0,0,6.8,5.128c-.458,0-2.434,4.5-4.634,4.5C.645,9.628-.9,8.249-.9,7.6-.9,6.509,3.5,4.5,3.5,2.983c0-.571-.271-.595-.489-.595" transform="translate(3.637 0.433)" fill="#9c9e9f"/>
      </g>
      <g id="Group_1312" data-name="Group 1312" transform="translate(7.891 12.988)">
        <path id="Path_2164" data-name="Path 2164" d="M2.5,3.381a3.262,3.262,0,0,1-1.763.595A2.038,2.038,0,0,1-1.346,1.889,2.287,2.287,0,0,1,.091-.254,2.7,2.7,0,0,0,.065.207,3.159,3.159,0,0,0,2.5,3.381m5.8,5.208a5.154,5.154,0,0,0-1.218,3.119,2.437,2.437,0,0,0,2.279,2.684,2.053,2.053,0,0,0,1.953-2.305c0-1.816-1.655-3.092-3.013-3.5m-9,1.084a.56.56,0,0,0-.082.3.577.577,0,0,0,.513.516c.216,0,.353-.053.461-.053.65,0,1.384.461,2.442.461a5.2,5.2,0,0,0,2.276-.65,5.666,5.666,0,0,0,2.713-3.8c0-.516-.413-.447-.761-.921s-.213-.892-.434-1.113c-.124-.126-.513-.134-1-.189-.163-.016-.382-.026-.6-.026a5.5,5.5,0,0,0-3.145.868C-.661,6.563-.317,9.05-.693,9.673M5.678,6.31c.187.255.705.571.705.761,0,.376-.218.866-.65.866-.953,0-1.711-1.437-1.711-2.253,0-.513.3-.566.705-.566a.646.646,0,0,1,.405.108c.247.134.247.676.545,1.084M3.184,9.618A2.238,2.238,0,0,1,1.312,7.5c0-.542.405-1.221.7-1.221.111,0,.163.084.192.274A3.071,3.071,0,0,0,4.052,9.021c.079.055.134.082.134.137,0,.189-.516.461-1,.461M5.489,2.783A5.368,5.368,0,0,0,5.734,1.21c0-1.3-.6-3.282-2.442-3.282A1.808,1.808,0,0,0,1.473-.227c0,2.145,2.142,3.011,4.016,3.011M-1.535,13.631c0,2.061.624,3.04,1.734,3.04.868,0,2.034-.626,3.416-1.818a11.982,11.982,0,0,1-2.6.408,2.85,2.85,0,0,1-2.547-1.629m.95-2.413a2.112,2.112,0,0,0-.026.405C-.611,12.9.065,13.6.96,13.6a2.924,2.924,0,0,0,2.169-1.3,5.841,5.841,0,0,1-.976.082A3.249,3.249,0,0,1-.585,11.218m6.642-.379a2.581,2.581,0,0,0-1.926,2.276,1.6,1.6,0,0,0,1.711,1.6A1.772,1.772,0,0,0,6.9,14.444a3.151,3.151,0,0,1-1.032-2.358,3.65,3.65,0,0,1,.189-1.247m.976-7.432A1.086,1.086,0,1,0,8.118,2.323,1.088,1.088,0,0,0,7.034,3.407m1.411,2.44A1.084,1.084,0,1,0,9.531,4.762,1.091,1.091,0,0,0,8.444,5.847" transform="translate(1.535 2.072)" fill="#9c9e9f"/>
      </g>
      <g id="Group_1313" data-name="Group 1313" transform="translate(49.739 20.8)">
        <path id="Path_2165" data-name="Path 2165" d="M6.475,8.323a1.043,1.043,0,0,1,2.084,0,1.042,1.042,0,1,1-2.084,0M-3.047-.03A1.087,1.087,0,0,0-1.965,1.055,1.089,1.089,0,0,0-.876-.03a1.091,1.091,0,0,0-1.09-1.084A1.089,1.089,0,0,0-3.047-.03m-.921,3.824A1.559,1.559,0,0,0-2.423,5.339,1.563,1.563,0,0,0-.876,3.794,1.567,1.567,0,0,0-2.423,2.247,1.563,1.563,0,0,0-3.968,3.794M-.552,2.057A1.644,1.644,0,0,0,1.1,3.713,1.654,1.654,0,1,0,1.1.4,1.643,1.643,0,0,0-.552,2.057m.137-3.524A1.03,1.03,0,0,0,.611-.435,1.033,1.033,0,0,0,1.643-1.467,1.031,1.031,0,0,0,.611-2.5,1.028,1.028,0,0,0-.415-1.467m4.908-2.6A1.029,1.029,0,0,0,5.525-3.04,1.029,1.029,0,0,0,6.556-4.069,1.03,1.03,0,0,0,5.525-5.1,1.03,1.03,0,0,0,4.493-4.069M2.456-.732A1.746,1.746,0,0,0,4.193,1,1.746,1.746,0,0,0,5.93-.732,1.747,1.747,0,0,0,4.193-2.469,1.747,1.747,0,0,0,2.456-.732M-.334,5.613a1.083,1.083,0,1,0,2.166,0A1.091,1.091,0,0,0,.745,4.526,1.087,1.087,0,0,0-.334,5.613m3.55-2.171A1.086,1.086,0,1,0,4.3,2.357,1.087,1.087,0,0,0,3.217,3.441m-1,3.824A1.872,1.872,0,1,0,4.085,5.394,1.873,1.873,0,0,0,2.214,7.265M6.119,4.96A1.274,1.274,0,1,0,7.39,3.686,1.275,1.275,0,0,0,6.119,4.96M6.04,1.541A1.137,1.137,0,1,0,7.175.4,1.146,1.146,0,0,0,6.04,1.541" transform="translate(3.968 5.101)" fill="#9c9e9f"/>
      </g>
      <g id="Group_1314" data-name="Group 1314" transform="translate(52.722 60.073)">
        <path id="Path_2166" data-name="Path 2166" d="M6.068,1.832a8,8,0,0,1-5.1,1.761,6.713,6.713,0,0,1-2.334-.461c-.271,0-.571.271-.868.624A6.119,6.119,0,0,0-3.719,7.472,2.223,2.223,0,0,0-1.308,9.641c5.077,0,8.869-3.171,8.869-5.748,0-1.463-.866-2.061-1.492-2.061m-1.411-.3a1,1,0,0,0,.271-.79V.122c0-.787-1.187-1.245-2.819-1.245-1.982,0-3.04.892-3.04,1.274V1.4c0,.516,1.195,1.032,2.661,1.032a4.537,4.537,0,0,0,2.926-.895M4.439,4.219c.137,0,.3.079.3.571a2.373,2.373,0,0,1-1.242,2,5.215,5.215,0,0,1-2.958.868A6.35,6.35,0,0,0,.918,5.685a4.968,4.968,0,0,0-.055-.626h.353a6.129,6.129,0,0,0,3.224-.84" transform="translate(3.719 1.123)" fill="#9c9e9f"/>
      </g>
      <g id="Group_1315" data-name="Group 1315" transform="translate(48.76 32.273)">
        <path id="Path_2167" data-name="Path 2167" d="M1.093,0c.3,2.3,3.392,1.137,3.392,3.929,0,.408-.108,1.008-.108,1.521,0,.6.053,1.113.511,1.113s.568-.326.568-.761-.108-.976-.108-1.274A1.05,1.05,0,0,1,6.436,3.363c1.032,0,1.818,1.058,3.366,1.058C9.449,6.156,5.864,5.695,5.864,7.592c0,.95.95,1.166,1.576,1.166.568,0,.758-.082.758-.568,0-.271-.053-.571-.053-.761a.213.213,0,0,1,.216-.216c.6,0,3.524,2.224,3.524,2.9,0,.624-3.09,1.247-3.984,1.247a.291.291,0,0,1-.326-.3c0-.189.461-.758.461-1.084,0-.245-.405-.405-1.492-.405-.516,0-.9.053-.9.461,0,.732,1.195,1.626,1.195,2.3,0,.545-.324.868-1.195.868-.732,0-1.84-.568-1.84-1.518,0-.758.784-1.516.784-1.979a.379.379,0,0,0-.429-.353c-1.005,0-1.276,2.658-4.832,2.955a2.728,2.728,0,0,0,1.058-2.25c0-.568-.134-1.032-.134-1.653,0-.816.379-1.221.921-1.221,1,0,1.49,1.408,2.145,1.408a.783.783,0,0,0,.732-.813C4.051,5.721.091,6.021.091,3.119A6.708,6.708,0,0,1,1.093,0M14.031,7.945c0,.676.218,1.466.895,1.466.571,0,1.058-.868,1.058-1.818,0-1.084-.189-1.926-.189-2.361,0-.189.082-.268.189-.268.408.026.787,1.137,1.224,1.137.487,0,1.216-.895,1.513-.895.082,0,.108.108.108.134,0,.408-.624,1.305-.624,1.655,0,.3,1.574.353,1.574.624,0,.408-1.65.408-2.437.761-.758.326-1.221.732-1.221,1.276s.542.65,1.3.65c1.813,0,3.087-.976,3.495-.976a.127.127,0,0,1,.134.134c0,.271-.921,1.166-.921,1.574,0,.461,1.682,1,1.655,1.274-.026.082-.137.108-.326.108-.3,0-.761-.082-1.113-.082a.619.619,0,0,0-.489.137c-.187.216.055,1.655-.324,1.655-.353,0-1.274-3.2-3.358-3.2-.3,0-.516.242-.516.65a4.084,4.084,0,0,0,2.063,2.929c.453.3,1.216.6,1.216.761,0,.324-1.732.026-1.732.568,0,.489.216,1.221.216,1.653,0,.137-.026.3-.189.3-.326,0-1.113-1.492-1.492-1.492-.326,0-1.032.895-1.332.895a.15.15,0,0,1-.134-.161c0-.626,1-2.034,1-3.419,0-.65-.082-2.061-.868-2.061-.65,0-1.384,1.029-1.711,2.061-.189.595-.055,2.9-.489,2.9-.405,0-.3-1.547-.842-1.547-.4,0-1.268.732-1.566.732-.055,0-.111-.026-.111-.082,0-.324.79-1.382.79-1.6,0-.405-1.792-.461-1.792-.784,0-.192.705-.326,1.355-.437,1.382-.242,3.416-1.245,3.416-2.655,0-1.574-1.521-2.253-2.519-2.9-.516-.326-1.087-.595-1.087-.813s.653-.216.924-.216c.408,0,.808-.029.808-.353,0-.245-.053-.732-.053-1.113,0-.271.026-.487.134-.487.408,0,.976,1.329,1.25,1.329.434,0,1.032-1.087,1.44-1.087.134,0,.189.082.189.326,0,1-.516,2.142-.516,3.119" transform="translate(0.67)" fill="#9c9e9f"/>
      </g>
      <g id="Group_1316" data-name="Group 1316" transform="translate(42.984 45.698)">
        <path id="Path_2168" data-name="Path 2168" d="M5.163,1.26c1.247.163,1.547.6,1.547.95,0,.6-.542.787-1.061.787-.379,0-.813-.082-1.274-.082a2.049,2.049,0,0,0-1.682.705.925.925,0,0,1,.868.842C3.563,6.034-.8,4.731-.8,8.773c0,2.142,2.224,4.477,5.584,4.477,1.74,0,2.853-.571,2.853-1.221,0-.516-.924-.163-.924-.6,0-.189.326-.545.326-.842,0-.132-.108-.379-.326-.379C6.221,10.21,5.3,11,3.426,11c-1.463,0-2.9-.84-2.9-1.979,0-.245.111-.382.271-.382s.382.111.571.111c.163,0,.189-.111.189-.408s0-1.14.513-1.14,1.495,1.9,5.24,1.9c1.242,0,3.658-.245,4.555-1.058a7.051,7.051,0,0,1-7.242,6.913A7.654,7.654,0,0,1-3.164,7.144,7.984,7.984,0,0,1,4.865-.772c1.192,0,2.2.405,2.2.921,0,.705-1.766.271-1.9,1.111M13.489,2.7a1.617,1.617,0,0,1,.274.866c0,.761-.516,1.466-.516,2.253a1.617,1.617,0,0,0,1.7,1.626,1.878,1.878,0,0,0,1.874-1.953c0-1.437-1.3-2.658-3.334-2.792M4.513,4.433a1.1,1.1,0,0,1,.353.813c0,.408-.192.842-.192,1.3A1.194,1.194,0,0,0,5.868,7.77a1.264,1.264,0,0,0,1.276-1.3A2.382,2.382,0,0,0,4.513,4.433m3.6-4.611a5.017,5.017,0,0,1,4.4,4.692,2.456,2.456,0,0,1-2.39,2.658A2.3,2.3,0,0,1,7.742,4.7c0-1.14.89-2.332.89-3.5A2.1,2.1,0,0,0,8.115-.177M9.529,3.431a.65.65,0,0,0,.65.679.747.747,0,0,0,.705-.816c0-.568-.516-1.355-1-1.355-.218,0-.137.326-.192.679-.026.271-.161.595-.161.813" transform="translate(3.164 0.772)" fill="#9c9e9f"/>
      </g>
      <g id="Group_1317" data-name="Group 1317" transform="translate(21.259 14.506)">
        <path id="Path_2169" data-name="Path 2169" d="M2.776,4.642c.921,0,1.979-4.99,1.979-5.832,0-.218-.082-.379-.271-.379-.842,0-2.005,4.745-2.005,5.8,0,.189.053.408.3.408M9.421,6.134c.676,0,1.437-2.605,1.437-4.232,0-.353-.055-.732-.218-.732-.568,0-1.518,2.684-1.518,4.148,0,.571.137.816.3.816M5,3.721c.3,0,.679-.329,1.387-1.113a7.128,7.128,0,0,0,.053-1.084c0-.542-.216-1.14-.542-1.14-.816,0-1.221,2.169-1.221,2.74,0,.324.163.6.324.6M8.713,2.608c0-.463-.108-.571-.216-.571-.271,0-.568.326-1,1.058.053.976.216,1.411.487,1.411.3,0,.732-.95.732-1.9m2.09-3.2c1.792,0,2.6,1.545,2.6,3.282,0,.758-.216,1.871-.568,1.871s-.3-.624-.353-1.195c-.053-.732-.189-.895-.434-.895-.461,0-.758,1.084-.758,2.09,0,.624.108,1.329.595,1.329a1,1,0,0,0,.679-.3,2.427,2.427,0,0,1-2.334,2.332c-2.384,0-3.282-2.795-3.55-4.421C5.241,5.021,3.915,6.134,1.525,6.134A3.055,3.055,0,0,1-1.7,2.961c0-.461.163-1.655.734-1.655.676,0,.079,2.224,1.408,2.224.326,0,.921-.271,1.25-1.166a5.023,5.023,0,0,0,.3-1.6c0-.732-.163-1.192-.705-1.192A2.119,2.119,0,0,0,.062.113,4.088,4.088,0,0,1,4.02-2.845c2.145,0,3.284,1.9,3.284,4.016a5.47,5.47,0,0,1-.082.921C8.144.574,9.421-.592,10.8-.592" transform="translate(1.701 2.845)" fill="#9c9e9f"/>
      </g>
      <g id="Group_1318" data-name="Group 1318" transform="translate(20.365 24.053)">
        <path id="Path_2170" data-name="Path 2170" d="M5.163,0C4,0,3.944,1.413,3.944,4.258,3.073,2.387,1.639.379-.045.379c-1.137,0-1.571.761-1.571,2.09a4.957,4.957,0,0,0,.082.921c.134-.461.568-.65,1.111-.65a4.943,4.943,0,0,1,3.5,2.116A18.012,18.012,0,0,0,.12,4.477a3.419,3.419,0,0,0-1.44.242A3.61,3.61,0,0,0-3.164,8,5.342,5.342,0,0,0-3.08,8.9a5.836,5.836,0,0,1,5.1-3.063,4.879,4.879,0,0,1,.758.055A4.424,4.424,0,0,0,1.691,8.869c-.026.434-.189.463-.489.463,0,.892.708,2.224.708,2.9a.577.577,0,0,1-.271.516c0,1.195,1.192,2.061,1.192,2.821A.638.638,0,0,1,2.694,16c.082.487,1.395,1.308,1.563,1.721.211.5.445.584.579.584.463,0,1.192-.542,1.192-1.032a.64.64,0,0,0-.242-.434,3.982,3.982,0,0,1-1-1.734.511.511,0,0,1-.524-.4c-.147-.561-.155-1.608-.371-2.232-.353-.082-.516-.218-.516-.95,0-.353.216-1.734.216-2.224a.384.384,0,0,1-.379-.434c0-.866.868-1.545,1.111-2.658A3.992,3.992,0,0,1,6.247,9.548,7.157,7.157,0,0,1,6.057,11.1C7.2,10.524,8.9,9.682,8.9,7.974c0-1.005-.461-2.116-3.526-2.55a9.606,9.606,0,0,1,3.148-.542c1.737,0,2.74.542,2.955,1.763a3.382,3.382,0,0,0,.624-1.734,2.292,2.292,0,0,0-2.521-2.2c-1.655,0-3.119.866-4.692,1.926C5.6,3.174,6.084,2.305,6.952,2.305a2.171,2.171,0,0,1,.408.055C7.034,1.168,5.815,0,5.163,0" transform="translate(3.164)" fill="#9c9e9f"/>
      </g>
      <g id="Group_1319" data-name="Group 1319" transform="translate(69.449 43.608)">
        <path id="Path_2171" data-name="Path 2171" d="M3.061,0C4.419,0,5.5,1.763,5.5,3.824a8.525,8.525,0,0,1-2.871,6.211C2.606,6.374-1.876,7.54-1.876,4.882a1.8,1.8,0,0,1,1.795-1.9,2.743,2.743,0,0,1,2.034.734,2.408,2.408,0,0,1-.732-1.737A1.843,1.843,0,0,1,3.061,0" transform="translate(1.876)" fill="#9c9e9f"/>
      </g>
      <g id="Group_1320" data-name="Group 1320" transform="translate(49.468 13.341)">
        <path id="Path_2172" data-name="Path 2172" d="M.436,2.792a2.882,2.882,0,0,0,2.09.976c.3,0,.653-.082.842-.082.245,0,.408.108.408.3a1.719,1.719,0,0,1-.6,1.061,2.74,2.74,0,0,0,1.058.189A3.193,3.193,0,0,0,7.541,1.815a3.633,3.633,0,0,1,.516,1.737A3.889,3.889,0,0,1,3.883,7.647,5.82,5.82,0,0,1,1.765,7.21c-.516,0-.487,1.034-.84,1.005C.3,8.108-.267,6.724-.267,5.26a4.318,4.318,0,0,1,.7-2.469M4.531.813A2.032,2.032,0,0,0,3.125.271a2.194,2.194,0,0,0-2.174,1.6A2.558,2.558,0,0,1,.762.947a2.621,2.621,0,0,1,2.8-2.658,4.754,4.754,0,0,1,2.653.924c.271,0,.542-.274.761-.274.3,0,.3.463.3.79,0,1.084-.487,2.955-1.711,3.634a2.743,2.743,0,0,0-1.35-1.3.431.431,0,0,1-.271-.408,1.092,1.092,0,0,1,.592-.84" transform="translate(0.267 1.711)" fill="#9c9e9f"/>
      </g>
      <g id="Group_1321" data-name="Group 1321" transform="translate(8.107 0.027)">
        <path id="Path_2173" data-name="Path 2173" d="M14.393,6.153c0,.95,3.39,5.587,4.042,5.587.542,0,.947-.95.947-1.763a1.1,1.1,0,0,0-.161-.6c-.489-.676-3.934-3.39-4.692-3.39a.153.153,0,0,0-.137.163M-5.539,3.361c0,.542-2.061,2.358-2.792,2.358-.271,0-.355-.324-.355-.624A2.4,2.4,0,0,1-8.142,3.55a3.022,3.022,0,0,1,1.79-.487c.379,0,.813.079.813.3M19.222,4.932c0-1.626-4.4-4.582-4.45-5.856a.491.491,0,0,1,.158-.337c.755-.795,3.884-1.374,3.884-2.053,0-.35-.653-.35-.976-.35-2.521,0-6.211.921-6.211,1.816,0,.924,3.308,3.174,3.308,4.287,0,.3-.189.405-.487.405-.921,0-2.929-1.113-3.879-1.113-.434,0-.6.3-.6.734,0,1.3,1.547,3.769,1.547,4.5,0,.082-.029.189-.137.189-.487,0-2.792-2.711-3.605-2.711-.3,0-.326.405-.326,1v.924c0,.621-.026,1-.324,1C6.419,7.374,6.1,5.4,5.416,5.4c-.705,0-.84,3.524-1.516,3.524-.79,0-.111-3.879-.868-3.879C2.19,5.04,1.24,7.619.643,7.619c-.216,0-.268-.218-.268-.408,0-.787.458-2.061.458-2.819,0-.382-.108-.6-.432-.6-.842,0-2.687,1.355-3.39,1.355-.111,0-.245-.055-.245-.163,0-.65,2.955-2.711,2.955-3.634,0-.895-4.069-.3-4.069-1.329,0-.866,2.9-1.763,2.9-2.658,0-.787-3.445-1.137-4.774-1.137-1.6,0-2.469.187-2.469.647,0,.708,3.634.924,3.634,1.547,0,.6-3.769,2.2-3.769,3.119,0,.813,5.313.055,5.313.9,0,.921-4.634,4.905-4.634,6.234,0,.3.216.434.513.434,1.411,0,5.071-2.684,6.077-2.684.353,0,.379.434.379.813,0,.705-.242,1.79-.242,2.579,0,.621.161,1.055.7,1.055,1.005,0,1.926-1.708,2.605-1.708.866,0,.35,5.016,1.653,5.016,1.113,0,1.574-5.424,2.279-5.424S7.1,10.33,7.751,10.33c.813,0,.432-2.74,1.3-2.74.95,0,3.661,3.255,4.882,3.255.379,0,.516-.3.516-.679,0-1.437-2.008-4.69-2.008-5.721,0-.271.082-.353.379-.353,1.058,0,4.15,1.463,5.616,1.463.489,0,.787-.268.787-.624M16.4-.437c0,.487,1.708,1.547,2.495,1.547.461,0,.6-.626.6-1.276,0-.813-.353-.842-1.058-.842-.895,0-2.034.245-2.034.571M10.027-3.2c0-.163-.813-.326-1.924-.326-1.763,0-1.518,1.466-2.876,1.466-1.408,0-1.058-1.521-2.847-1.521C1.3-3.584.293-3.392.293-3.15c0,.326,1.274.189,1.274,1.087,0,.947-2.74,1.221-2.74,1.79,0,.189.216.271.487.271.6,0,1.547-.271,2.224-.271.382,0,.734.079.734.434C2.272.837.806,2.058.806,2.6c0,.163.134.218.271.218.545,0,1.466-1.384,2.334-1.384C4.848,1.434,3.9,4.5,4.685,4.5c.813,0,.461-3.013,1.626-3.013.953,0,1.655,2.09,2.305,2.09a.307.307,0,0,0,.3-.326c0-.568-.813-1.734-.813-2.495,0-.461.324-.679.758-.679.624,0,1.463.382,1.924.382.163,0,.326-.055.326-.245,0-.65-2.413-1.355-2.413-2.195s1.329-.842,1.329-1.221" transform="translate(8.821 3.771)" fill="#9c9e9f"/>
      </g>
      <g id="Group_1322" data-name="Group 1322" transform="translate(64.382 0.081)">
        <path id="Path_2174" data-name="Path 2174" d="M6.607,3.043c0,2.413-1.758,4.258-4.934,4.771.353.026.679.026,1.005.026,3.713,0,5.071-1.679,5.071-3.09A1.724,1.724,0,0,0,6.607,3.043M2.025,5.78c0-1.924-4.605-2.413-4.605-2.845,0-.353,2.571-.95,3.9-.979C-.715-.647-3.612-.375-3.612-.836c0-.271,2.171-.816,4.174-.816,1.682,0,3.255.382,3.255,1.655,0,.708-.571,1.44-.571,2.524A1,1,0,0,0,4.333,3.638c.842,0,1.032-.895,1.032-1.845,0-.784-.137-1.382-.137-1.761a1.8,1.8,0,0,1,1.895-1.9c.924,0,1.14.4,2.5.4A2.074,2.074,0,0,0,8.615.14c0,1.14.734,1.926.734,4.258,0,4.284-4.011,5.8-8.924,5.8a28.2,28.2,0,0,1-4.2-.324c-.216-.029-.271-.082-.271-.218,0-.353,1.929-.542,1.929-2.276a13.527,13.527,0,0,0-.218-1.574.218.218,0,0,1,.218-.218c.408,0,1.221,1.574,2.737,1.574A1.292,1.292,0,0,0,2.025,5.78M6.444-.212a.672.672,0,0,0,.679.676A.672.672,0,0,0,7.8-.212a.674.674,0,0,0-.679-.679.674.674,0,0,0-.679.679" transform="translate(4.049 1.865)" fill="#9c9e9f"/>
      </g>
      <g id="Group_1323" data-name="Group 1323" transform="translate(61.425 21.016)">
        <path id="Path_2175" data-name="Path 2175" d="M6.845,3.582c0-.568-1.44-.624-1.574-2.224-.029-.242-.111-.676-.411-.676-.487,0-.108,1.492-.65,1.492-1.247,0-1.653-2.442-2.116-2.442-.108,0-.237.082-.237.408,0,.3.055.487.055.84s-.084.6-.408.6C.771,1.576.121-.134-.505-.134A.247.247,0,0,0-.776.084c0,.326.542.921.542,1.221,0,.65-1.763.3-1.763.84,0,.245.245.326.568.326.571,0,1.468-.242,1.929-.242.271,0,.679.053.679.4C1.179,3.013.2,3.5.2,3.853A.272.272,0,0,0,.5,4.1c.734,0,2.029-1.274,2.953-1.274.163,0,.568.082.568.324,0,.353-.921.976-.921,1.492a.274.274,0,0,0,.245.3c.484,0,1.137-1.274,2.061-1.274.353,0,.868.137,1.142.137.216,0,.3-.137.3-.218M7.55,16.735a16.5,16.5,0,0,1,1.866-3.769c-.887-.461-3.25-1.437-3.25-3.04,0-1.871,2.332-3.334,2.816-3.334.218,0,.271.189.271.542,0,.976-.461,2.55-.461,3.39,0,.761.489,1.492.924,1.492.461,0,1.737-1.626,1.737-3.226A3.654,3.654,0,0,0,8.148,5.047c-.734,0-2.063,1.192-5.184,1.192-5.829,0-7.158-5.777-7.158-8.3,0-.111.026-.137.053-.137A4.154,4.154,0,0,0-1.59-1.49c.95,0,1.818-.245,3.2-.245,3.248,0,4.687,2.253,6.7,5.127,1.213.758,4.119,1.979,4.119,5.424,0,3.037-3.229,4.719-4.011,7.974,1.242-.134,1.976-2.361,3.25-2.361.653,0,.953.516.953,1.332a5.917,5.917,0,0,1-1.982,4.095,1.868,1.868,0,0,0,.026-.408c0-.758-.3-1.842-1.168-1.842-1.35,0-1.784,1.463-2.545,2.682-.787-2.763-1.845-5.261-3.745-6.779C1.287,11.963-2.024,12.8-2.024,9.982c0-.761.489-1.845.489-2.711a1.269,1.269,0,0,0-.218-.787c2.605.976,1.682,2.711,3.284,4.5,1,1.142,3.766,2.226,5.369,6.916a5.179,5.179,0,0,0,.053-.729c0-4.016-5.313-7.95-5.774-9.577,3.087.353,3.629,1.113,5.095,5.182A16.957,16.957,0,0,1,7.55,16.735" transform="translate(4.195 2.195)" fill="#9c9e9f"/>
      </g>
      <g id="Group_1324" data-name="Group 1324" transform="translate(49.193 0)">
        <path id="Path_2176" data-name="Path 2176" d="M5.668,6.977c-1.9,0-3.148-.947-3.148-1.437A.375.375,0,0,1,2.9,5.135c.6,0,1.9.918,2.334.918.108,0,.189-.053.189-.216,0-.487-.461-1.3-.461-1.705,0-.111.082-.192.245-.192.732,0,1.818.3,2.39.3.189,0,.242-.108.242-.218,0-.6-1.763-1.763-1.763-2.116,0-.324,2.192-.813,2.192-1.329C8.269.035,5.287.414,5.287-.1c0-.379.571-1.029.571-1.326,0-.137-.108-.189-.3-.189A21.435,21.435,0,0,1,3.468-1.1c-.271,0-.595-.053-.595-.434,0-.624,1.058-1.3,2.713-1.3C8.269-2.839,9.871-1,9.871,2.1c0,3.905-2.737,4.882-4.2,4.882M.381,1.824c0-.3-1.061-.866-1.061-1.192,0-.055.053-.082.134-.082.3,0,.818.108,1.224.108.353,0,.408-1.518.674-1.518.189,0,.516,1.437.816,1.437.353,0,1-.405,1.274-.405C3.5.172,3.55.2,3.55.253c0,.189-.676.921-.676,1.137,0,.245,1.518.545,1.518.761,0,.271-1.547.245-1.547.489,0,.187.571.947.571,1.192a.072.072,0,0,1-.082.082c-.218,0-1.058-.382-1.3-.382-.3,0-.782,1.113-1.026,1.113-.082,0-.134-.108-.134-.245L.816,3.316A.193.193,0,0,0,.626,3.1C.3,3.1-.326,3.072-.516,3.072c-.137,0-.189-.026-.189-.082,0-.216,1.087-.976,1.087-1.166m-.79,4.448c.437,0,.516,1.058.6,1.682.053.326.108.353.245.353.326,0,.84-1.247,1.187-1.247.516,0,1.9,1.437,4.208,1.437a6.179,6.179,0,0,0,6.374-6.371c0-3.934-2.771-6.24-6.592-6.24-1.816,0-3.148.895-3.855.895C1.331-3.192.679-4.276.352-4.276c-.134,0-.271.268-.271.729,0,.3,0,1.25-.324,1.25-.653,0-3.174-1.871-3.174-1.195,0,.624,1.679,2.524,1.679,3.011S-3.39.469-3.39.8c0,.595,1.761.7,1.761,1.463S-3.474,3.614-3.474,4.185c0,.461,1.845.134,1.845.705S-2.985,7.356-2.985,7.9c0,.137.026.137.134.137.516,0,2.063-1.763,2.442-1.763" transform="translate(3.474 4.276)" fill="#9c9e9f"/>
      </g>
      <g id="Group_1325" data-name="Group 1325" transform="translate(31.321 56.167)">
        <path id="Path_2177" data-name="Path 2177" d="M5.365,1.243a1.241,1.241,0,0,1-.3.787,1.993,1.993,0,0,0-1.518-.813c-2.792,0-1.734,4.04-4.719,4.04a14.115,14.115,0,0,1-1.816-.163c-.192,0-.3.082-.3.245,0,.708,1,2.442,3.8,2.442S5.989,6.072,5.989,3.954a2.839,2.839,0,0,0-.245-1.111.794.794,0,0,1,.624-.271c.434,0,.679.489,1.084.489A.741.741,0,0,0,8.212,2.3.823.823,0,0,0,7.7,1.541.936.936,0,0,0,8.078.809a.863.863,0,0,0-.871-.895.784.784,0,0,0-.595.268C6.56-.3,6.289-.762,5.773-.762A.7.7,0,0,0,5.065,0c0,.429.3.784.3,1.245" transform="translate(3.288 0.762)" fill="#9c9e9f"/>
      </g>
      <g id="Group_1326" data-name="Group 1326" transform="translate(23.133 50.632)">
        <path id="Path_2178" data-name="Path 2178" d="M1.227,1.548C3.4,2.088,4.482,3.254,4.7,4.638A6.017,6.017,0,0,0,5.7,7.6,4.689,4.689,0,0,0,8.875,9.03c.976,0,1.763-.321,1.763-1.218,0-.976-1.329-3.174-3.282-3.174-.189,0-.434.029-.705.029a1.3,1.3,0,0,1-.813-.245C5.4,4.041,5.267,2.009,4.453.788a3.415,3.415,0,0,0-3.2-1.737C.306-.949-.752-.433-.752.327c0,.461.242.784,1.979,1.221M8.8,7.622c-.816,0-2.037-.868-2.037-1.358a.658.658,0,0,1,.679-.624c.679,0,1.9.842,1.9,1.547,0,.189-.137.434-.539.434" transform="translate(0.752 0.949)" fill="#9c9e9f"/>
      </g>
      <g id="Group_1327" data-name="Group 1327" transform="translate(29.722 31.839)">
        <path id="Path_2179" data-name="Path 2179" d="M.286,3.867c0-1.737,4.124-2.658,4.124-4.8A3.577,3.577,0,0,0,4.03-2.37C5.465-1.586,6.523-.254,6.523.83,6.523,2.7,4.57,3.57,4.57,4.736c0,1.355,2.09,1.574,2.09,3.255,0,1.382-1.979,2.982-1.979,4.771a2.7,2.7,0,0,0,2.466,2.711,6.144,6.144,0,0,1-1.382.192C3.025,15.665.2,13.415.2,10.728A4.632,4.632,0,0,1,1.641,7.394,3.879,3.879,0,0,0,3.649,8.478c.434,0,.624-.216.624-.542C4.273,6.93.286,6.009.286,3.867m8.653,13.7c-.932.426-1.3.353-1.3,1.3,0,.353-.082.813-.082,1.058,0,.324.055.516.434.516.976,0,2.524-1.655,2.524-3.066,0-.382-.218-.542-.463-.542-.216,0-.461.434-1.111.732M8.828,15.61c0-1.221-2.521-1.247-2.521-3.092a4.236,4.236,0,0,1,.895-2.09,2.941,2.941,0,0,0,2.034,2.605c2.413.895,2.74,2.25,2.74,3.69,0,2.442-1.708,5.479-6.1,5.479A6.175,6.175,0,0,1-.175,16.4c0-.732.189-1.545.65-1.545.408,0,.542.324.868.65A5.65,5.65,0,0,0,5.82,17.047c1.734,0,3.008-.705,3.008-1.437" transform="translate(0.175 2.37)" fill="#9c9e9f"/>
      </g>
      <g id="Group_1328" data-name="Group 1328" transform="translate(14.438 46.927)">
        <path id="Path_2180" data-name="Path 2180" d="M3.151,2.157a1.031,1.031,0,1,1-1.145-.908,1.034,1.034,0,0,1,1.145.908M-1.918,3.223A1.773,1.773,0,0,0,.037,4.744a2.272,2.272,0,0,0,.895-.271A1.669,1.669,0,0,0,2.861,5.768,1.714,1.714,0,0,0,4.43,3.849a1.958,1.958,0,0,0-.161-.626S4.4,3.21,4.5,3.191A1.8,1.8,0,0,0,6.056,1.27,1.757,1.757,0,0,0,4.161-.317a1.7,1.7,0,0,0-.9.366A1.826,1.826,0,0,0,1.211-1.3,1.75,1.75,0,0,0-.263.676a1.788,1.788,0,0,0,.137.539s-.161.026-.271.042A1.825,1.825,0,0,0-1.918,3.223" transform="translate(1.931 1.322)" fill="#9c9e9f"/>
      </g>
    </g>
  </g>
</svg>
