<svg xmlns="http://www.w3.org/2000/svg" width="80.689" height="87.508" viewBox="0 0 80.689 87.508">
  <g id="Group_1219" data-name="Group 1219" transform="translate(-233.71 -340.471)">
    <path id="Path_2016" data-name="Path 2016" d="M284.9,379.765c.068.069,15.259,34.719,15.245,34.69h-9.956c0-.107-4.716-11.3-4.667-11.355H274.787c.1.029,10.262-23.451,10.111-23.335Z" transform="translate(-18.832 -18.015)" fill="#9c9e9f" fill-rule="evenodd"/>
    <path id="Path_2017" data-name="Path 2017" d="M233.71,340.471h23.334c.068-.015-23.178,55.964-23.256,55.891,0-.078-.054-55.93-.078-55.891Z" transform="translate(0)" fill="#9c9e9f" fill-rule="evenodd"/>
    <path id="Path_2018" data-name="Path 2018" d="M309.6,340.471h24.128c0,.141-.017,56-.017,55.92.015.18-24.111-55.92-24.111-55.92Z" transform="translate(-34.792 0)" fill="#9c9e9f" fill-rule="evenodd"/>
    <path id="Path_2019" data-name="Path 2019" d="M243.747,459.989l5.184,22.183h-3.777l-.889-4.151h-4.69l-.864,4.151h-3.777l5.184-22.183Zm-.2,14.261-1.629-8.3-1.629,8.3Z" transform="translate(-0.562 -54.795)" fill="#9c9e9f" fill-rule="evenodd"/>
    <path id="Path_2020" data-name="Path 2020" d="M269.693,482.172l-.1-1.933h-.123a3.32,3.32,0,0,1-3.036,2.535c-3.333,0-4.74-3.9-4.74-8.715,0-4.119,1.037-8.588,4.789-8.588,1.308,0,1.926.475,2.864,1.711v-7.194h3.333v22.183Zm-2.37-13.437c-.913,0-2.172.888-2.172,5.388,0,2.091.271,5.451,2.172,5.451,1.827,0,2.172-3.01,2.172-5.451,0-4.5-1.283-5.388-2.172-5.388Z" transform="translate(-12.83 -54.795)" fill="#9c9e9f" fill-rule="evenodd"/>
    <path id="Path_2021" data-name="Path 2021" d="M286.314,478.733c0-4.976,1.728-8.62,5.653-8.62,3.9,0,5.653,3.644,5.653,8.62,0,5.038-1.778,8.683-5.653,8.683-3.9,0-5.653-3.644-5.653-8.683Zm7.85,0c0-4.373-.914-5.387-2.2-5.387-1.012,0-2.2.76-2.2,5.387,0,4.722,1.185,5.451,2.2,5.451,1.432,0,2.2-1.331,2.2-5.451Z" transform="translate(-24.117 -59.437)" fill="#9c9e9f" fill-rule="evenodd"/>
    <path id="Path_2022" data-name="Path 2022" d="M314.414,482.172h-2.987V459.989h3.357v7.384a2.98,2.98,0,0,1,2.839-1.9c3.53,0,4.814,3.707,4.814,8.588,0,4.849-1.259,8.715-4.789,8.715-1.457,0-2.32-.728-3.036-2.535h-.1l-.1,1.933Zm2.394-2.63c1.827,0,2.173-3.011,2.173-5.451,0-4.5-1.284-5.387-2.173-5.387-.913,0-2.172.887-2.172,5.387,0,2.091.271,5.451,2.172,5.451Z" transform="translate(-35.631 -54.795)" fill="#9c9e9f" fill-rule="evenodd"/>
    <path id="Path_2023" data-name="Path 2023" d="M345.843,482.155c-.839,4.88-3.555,5.26-5.381,5.26-2.049,0-5.555-.76-5.555-8.683,0-5.514,2.272-8.62,5.8-8.62,2.221,0,5.356,1.236,5.356,8.936v.888h-7.7c0,3.8,1.308,4.247,2.246,4.247.765,0,1.555-.222,1.876-2.029Zm-3.233-4.912c-.1-3.264-.889-3.9-2-3.9-1.9,0-2.221,2.694-2.246,3.9Z" transform="translate(-46.395 -59.437)" fill="#9c9e9f" fill-rule="evenodd"/>
    <path id="Path_2024" data-name="Path 2024" d="M357.29,341.773v-1.3h5.691v1.3h-2.107v5.534H359.4v-5.534Zm7.523.257v5.278h-1.477v-6.837h1.95l1.93,5.38,1.91-5.38h1.931v6.837h-1.477V342.03l-1.871,5.278h-1.044l-1.852-5.278Z" transform="translate(-56.657 0)" fill="#9c9e9f" fill-rule="evenodd"/>
  </g>
</svg>
