<svg id="Group_1604" data-name="Group 1604" xmlns="http://www.w3.org/2000/svg" xmlns:xlink="http://www.w3.org/1999/xlink" width="161.01" height="33.986" viewBox="0 0 161.01 33.986">
  <defs>
    <clipPath id="clip-path">
      <path id="Path_2233" data-name="Path 2233" d="M0,4.32H161.01V-29.666H0Z" transform="translate(0 29.666)" fill="none"/>
    </clipPath>
  </defs>
  <g id="Group_1482" data-name="Group 1482" transform="translate(0 0)" clip-path="url(#clip-path)">
    <g id="Group_1460" data-name="Group 1460" transform="translate(148.801 4.383)">
      <path id="Path_2211" data-name="Path 2211" d="M0,0Z" fill="#0f0f0f"/>
    </g>
    <g id="Group_1461" data-name="Group 1461" transform="translate(145.059 0.338)">
      <path id="Path_2212" data-name="Path 2212" d="M.567,1.83A2.233,2.233,0,0,1-.619,1.407C-2.037.158-1.508-5.411-.152-8.525a5.692,5.692,0,0,1,.36-.719,8.538,8.538,0,0,1,2.711-3.325C-.364-10.79-5.024-2.129-3.646.39a2.164,2.164,0,0,0,.508.572A8.04,8.04,0,0,0,.567,1.83" transform="translate(3.894 12.569)" fill="#0f0f0f"/>
    </g>
    <g id="Group_1462" data-name="Group 1462" transform="translate(158.732 7.58)">
      <path id="Path_2213" data-name="Path 2213" d="M0,0Z" fill="#0f0f0f"/>
    </g>
    <g id="Group_1463" data-name="Group 1463" transform="translate(145.815 8.173)">
      <path id="Path_2214" data-name="Path 2214" d="M1.693,0a3.075,3.075,0,0,1,.636,1.99c-.4,2.181-7.137,4.934-10.25,4.6a7.754,7.754,0,0,1-3.7-.889C-8.852,7.9,1.63,7.687,3.133,5.124a2.2,2.2,0,0,0,.254-.889C3.45,3.028,2.5,1.207,1.693,0" transform="translate(11.626)" fill="#0f0f0f"/>
    </g>
    <g id="Group_1464" data-name="Group 1464" transform="translate(149.139 0)">
      <path id="Path_2215" data-name="Path 2215" d="M.482,0A2.234,2.234,0,0,0-.6.317,8.733,8.733,0,0,0-3.309,3.642,2.776,2.776,0,0,1-2.017,2.287c1.757-.635,6.247,2.541,8.3,5.273.148.19.275.38.4.572.8,1.206,1.778,3.028,1.693,4.214C8.719,8.746,3.4,0,.482,0" transform="translate(3.309)" fill="#0f0f0f"/>
    </g>
    <g id="Group_1465" data-name="Group 1465" transform="translate(147.304 0.339)">
      <path id="Path_2216" data-name="Path 2216" d="M.19.514A5.542,5.542,0,0,1,.55-.205,8.363,8.363,0,0,1,3.26-3.53a6.5,6.5,0,0,0-1.313.994A11.586,11.586,0,0,0,.36-.185C.233.027.127.282,0,.535c-1.355,3.114-1.885,8.683-.466,9.931a2.1,2.1,0,0,0,1.08.424,1.353,1.353,0,0,1,.3.022,2.26,2.26,0,0,1-1.186-.424C-1.716,9.2-1.165,3.627.19.514" transform="translate(1.306 3.53)" fill="#0f0f0f"/>
    </g>
    <g id="Group_1466" data-name="Group 1466" transform="translate(145.794 1.988)">
      <path id="Path_2217" data-name="Path 2217" d="M1.9,1.134A11.346,11.346,0,0,0,.373-1.852a13.858,13.858,0,0,0-2.2-2.52,17.252,17.252,0,0,0-2.69-2.1,12.039,12.039,0,0,0-1.545-.847,4.945,4.945,0,0,0-1.652-.466,1.689,1.689,0,0,0-1.164.424A4.232,4.232,0,0,0-9.706-6.15a3.283,3.283,0,0,1,.931-1.165A2,2,0,0,1-7.25-7.527a7.218,7.218,0,0,1,1.588.614A13.43,13.43,0,0,1-4.158-6,16.743,16.743,0,0,1,.288-1.64,12.467,12.467,0,0,1,1.136-.179a10.685,10.685,0,0,1,.677,1.588A2.837,2.837,0,0,1,1.9,2.976,2,2,0,0,1,.987,4.141,8.288,8.288,0,0,1-2.083,5.2a22.391,22.391,0,0,1-3.579.317,22.4,22.4,0,0,1-3.155-.17,12.387,12.387,0,0,1-3.006-.7c.021,0,.041.022.063.022a5.256,5.256,0,0,1-1.271-.678c1.207,1.271,5.484,1.652,6.692,1.674A23.786,23.786,0,0,0-2.655,5.5a10.222,10.222,0,0,0,3.26-.89A2.728,2.728,0,0,0,2.025,3.272,2.911,2.911,0,0,0,1.9,1.134" transform="translate(13.031 7.783)" fill="#0f0f0f"/>
    </g>
    <g id="Group_1467" data-name="Group 1467" transform="translate(0 11.392)">
      <path id="Path_2218" data-name="Path 2218" d="M1.585.555h-.3c-.38-2.266-1.693-3.9-4.108-3.9-3.663,0-5.738,3.007-5.738,6.459,0,3.939,3.028,6.69,5.93,6.69C0,9.808,1.034,7.881,1.945,5.721l.276.127a17.563,17.563,0,0,1-1.1,3.579,9.4,9.4,0,0,1-4.086.868c-4.193,0-7.92-2.415-7.92-6.925,0-3.557,2.8-7.179,8.068-7.179a8.527,8.527,0,0,1,4.384,1.08Z" transform="translate(10.887 3.808)" fill="#0f0f0f"/>
    </g>
    <g id="Group_1468" data-name="Group 1468" transform="translate(13.488 15.686)">
      <path id="Path_2219" data-name="Path 2219" d="M.221.372c0-2.139-.063-2.478-1.652-2.6v-.212L2-2.55C5.535-2.656,5.811-.941,5.811-.264A2.466,2.466,0,0,1,4.075,2.045l.063.107c1.08,1.885,2.436,4.3,4.744,4.785l-.042.212c-1.482-.064-2.583-.022-3.389-.868A12.533,12.533,0,0,1,3.5,3.485c-.572-1.164-1.059-.826-2.054-1V4.755c0,1.545.022,1.822,1.949,2.1v.212H-1.516V6.852C.158,6.619.178,6.217.221,4.755ZM1.449,2.214C2.8,2.194,4.371,1.58,4.371.033c0-1.63-1.44-2.307-2.923-2.287Z" transform="translate(1.516 2.555)" fill="#0f0f0f"/>
    </g>
    <g id="Group_1469" data-name="Group 1469" transform="translate(22.976 15.563)">
      <path id="Path_2220" data-name="Path 2220" d="M1.3.627A4.8,4.8,0,0,1-3.822,5.561,4.791,4.791,0,0,1-8.946.607,4.793,4.793,0,0,1-3.822-4.307,4.721,4.721,0,0,1,1.3.627M-7.336.268c0,2.181,1.143,4.955,3.684,4.955C-1.344,5.222-.307,2.872-.307.86-.349-1.617-1.789-3.989-3.949-3.989c-2.414,0-3.388,2.371-3.388,4.256" transform="translate(8.946 4.307)" fill="#0f0f0f"/>
    </g>
    <g id="Group_1470" data-name="Group 1470" transform="translate(33.775 15.521)">
      <path id="Path_2221" data-name="Path 2221" d="M.727.339H.494C.261-.8-.1-1.884-1.475-1.884A1.566,1.566,0,0,0-3.127-.338C-3.127,2.1,1.3,2.012,1.3,4.829c0,1.8-1.8,2.752-3.409,2.752a4.679,4.679,0,0,1-2.477-.719l-.4-2.393h.254c.36,1.355,1.292,2.69,2.838,2.69A1.679,1.679,0,0,0-.057,5.443c0-2.5-4.3-2.266-4.3-5.083A2.964,2.964,0,0,1-1.222-2.329a4.312,4.312,0,0,1,2.054.551Z" transform="translate(4.991 2.329)" fill="#0f0f0f"/>
    </g>
    <g id="Group_1471" data-name="Group 1471" transform="translate(41.017 15.521)">
      <path id="Path_2222" data-name="Path 2222" d="M.724.339H.492C.258-.8-.1-1.884-1.478-1.884A1.548,1.548,0,0,0-3.109-.338c0,2.434,4.427,2.35,4.427,5.167,0,1.8-1.8,2.752-3.409,2.752A4.683,4.683,0,0,1-4.57,6.861l-.4-2.393h.254c.36,1.355,1.291,2.69,2.838,2.69A1.68,1.68,0,0,0-.038,5.443c0-2.5-4.3-2.266-4.3-5.083A2.966,2.966,0,0,1-1.2-2.329a4.315,4.315,0,0,1,2.054.551Z" transform="translate(4.972 2.329)" fill="#0f0f0f"/>
    </g>
    <g id="Group_1472" data-name="Group 1472" transform="translate(72.95 15.563)">
      <path id="Path_2223" data-name="Path 2223" d="M1.3.627A4.8,4.8,0,0,1-3.822,5.561,4.791,4.791,0,0,1-8.946.607,4.793,4.793,0,0,1-3.822-4.307,4.721,4.721,0,0,1,1.3.627M-7.336.268c0,2.181,1.143,4.955,3.684,4.955C-1.344,5.222-.307,2.872-.307.86-.349-1.617-1.789-3.989-3.949-3.989c-2.414,0-3.388,2.371-3.388,4.256" transform="translate(8.946 4.307)" fill="#0f0f0f"/>
    </g>
    <g id="Group_1473" data-name="Group 1473" transform="translate(82.903 15.712)">
      <path id="Path_2224" data-name="Path 2224" d="M.509,1.254H.361L-1.927-6.581c-.36-1.016-.4-1.482-1.566-1.8v-.212H.488v.212c-1.716.254-1.355.974-1.017,2.117L.953-1.287l2.2-5.866C2.88-8,2.415-8.233,1.567-8.38v-.212H5.655v.212c-1.525.212-1.355.868-1.1,1.673L6.332-1.16l1.1-3.155A16.084,16.084,0,0,0,8.3-7.449c0-.677-.635-.784-1.4-.953v-.211h3.664V-8.4A1.718,1.718,0,0,0,9-7.132l-.974,2.69-2.054,5.7H5.823l-2.5-7.793Z" transform="translate(3.493 8.613)" fill="#0f0f0f"/>
    </g>
    <g id="Group_1474" data-name="Group 1474" transform="translate(97.323 15.712)">
      <path id="Path_2225" data-name="Path 2225" d="M0,1.187C1.694.954,1.694.551,1.737-.909V-5.844C1.694-7.284,1.673-7.706,0-7.94v-.211H4.722v.211c-1.673.234-1.737.636-1.737,2.1v4.6A7.134,7.134,0,0,0,3.2.87L4.912,1C7.051,1.145,7.39.488,8.47-1.312l.191.085-.805,2.6H.021Z" transform="translate(0 8.151)" fill="#0f0f0f"/>
    </g>
    <g id="Group_1475" data-name="Group 1475" transform="translate(105.878 15.712)">
      <path id="Path_2226" data-name="Path 2226" d="M0,1.187C1.673.954,1.694.551,1.737-.909V-5.844C1.694-7.284,1.673-7.706,0-7.94v-.211H7.538l-.17,2.16H7.158c-.107-1.8-1.4-1.822-2.817-1.822H2.986v4H4.447c1.059,0,1.842-.085,2.012-1.292H6.67v3.134H6.459c-.191-1.228-.953-1.25-2.012-1.25H2.986V-.909c0,.826-.19,1.969,2.1,1.969A2.613,2.613,0,0,0,8.068-1.376h.212A8.615,8.615,0,0,1,7.793,1.4H0Z" transform="translate(0 8.151)" fill="#0f0f0f"/>
    </g>
    <g id="Group_1476" data-name="Group 1476" transform="translate(115.089 15.684)">
      <path id="Path_2227" data-name="Path 2227" d="M.011.014,3.4-.091c6.162-.191,6.819,3.366,6.819,4.828,0,2.012-1.291,4.807-6.12,4.765L-.074,9.48V9.268c1.673-.233,1.694-.635,1.737-2.1V2.3C1.62.861,1.6.438.011.2Zm2.9,7.306c0,.931.17,1.842,1.906,1.842,1.61,0,3.79-1.016,3.79-4.214,0-3.367-2.646-4.765-5.7-4.765Z" transform="translate(0.074 0.098)" fill="#0f0f0f"/>
    </g>
    <g id="Group_1477" data-name="Group 1477" transform="translate(126.333 15.563)">
      <path id="Path_2228" data-name="Path 2228" d="M1.217,1.1v.212A10.071,10.071,0,0,1-3.019,2.345c-2.88,0-5.336-1.759-5.336-4.829,0-3.113,2.732-5.04,5.655-5.04a10.235,10.235,0,0,1,3.281.551L.518-4.537H.328A3.1,3.1,0,0,0-2.849-7.184c-2.436,0-3.9,1.842-3.9,4.193a4.668,4.668,0,0,0,4.765,4.87C-.71,1.879-.71,1.54-.71.629V-.217c0-1.567-.4-1.715-1.885-1.906v-.211H1.556v.211C.581-1.932.54-1.53.54-.662V1.1Z" transform="translate(8.355 7.523)" fill="#0f0f0f"/>
    </g>
    <g id="Group_1478" data-name="Group 1478" transform="translate(136.794 15.712)">
      <path id="Path_2229" data-name="Path 2229" d="M0,1.187C1.673.954,1.694.551,1.737-.909V-5.844C1.694-7.284,1.673-7.706,0-7.94v-.211H7.538l-.17,2.16H7.157c-.105-1.8-1.4-1.822-2.816-1.822H2.986v4H4.447c1.059,0,1.863-.085,2.012-1.292H6.67v3.134H6.459c-.191-1.228-.953-1.25-2.012-1.25H2.986V-.909c0,.826-.19,1.969,2.1,1.969A2.613,2.613,0,0,0,8.068-1.376h.212A8.615,8.615,0,0,1,7.793,1.4H0Z" transform="translate(0 8.151)" fill="#0f0f0f"/>
    </g>
    <g id="Group_1479" data-name="Group 1479" transform="translate(47.433 11.561)">
      <path id="Path_2230" data-name="Path 2230" d="M.538,1.314C.6,3.388.623,4.024,3.207,4.341V4.6H-3.7V4.341c2.414-.317,2.436-.974,2.478-3.028V-5.738C-1.283-7.792-1.3-8.448-3.7-8.766V-9.02H2.677v.254C.623-8.448.6-7.792.559-5.738V1.314ZM9.6-9.02v.254C7.315-8.533,5.79-6.521,4.308-5L2.423-2.985,6.489,1.5a9.746,9.746,0,0,0,4.468,2.923l-.275.212c-3.494-.275-3.9-.17-5.781-2.224L.813-2.032,4.033-5.548c2.1-2.371,1.694-3.07.36-3.218V-9.02Z" transform="translate(3.697 9.02)" fill="#0f0f0f"/>
    </g>
    <g id="Group_1480" data-name="Group 1480" transform="translate(61.833 15.69)">
      <path id="Path_2231" data-name="Path 2231" d="M.218.388C.218-.5.3-1.519-.9-1.519v-.211l2.5-.933.149.085-.17,1.547A6.635,6.635,0,0,1,5.364-2.662c2.519,0,2.562,2.076,2.562,3.325V4.517c0,1.716.19,1.885,1.737,2.118v.212H4.75V6.635C6.316,6.4,6.443,6.148,6.465,4.517V2c0-1.482,0-3.727-2.563-3.727a3.132,3.132,0,0,0-2.224.994V4.517c0,1.716.17,1.885,1.737,2.118l-.17.233H-1.5V6.635C.07,6.4.218,6.148.239,4.517V.388Z" transform="translate(1.497 2.662)" fill="#0f0f0f"/>
    </g>
    <g id="Group_1481" data-name="Group 1481" transform="translate(94.422 28.481)">
      <path id="Path_2232" data-name="Path 2232" d="M0,0A.246.246,0,0,0,.19,0C.17.021.17.148,0,0" fill="#0f0f0f"/>
    </g>
  </g>
  <g id="Group_1483" data-name="Group 1483" transform="translate(97.662 27.231)">
    <path id="Path_2234" data-name="Path 2234" d="M.256,0H1.23L3.241,5.23H2.267L1.781,3.854h-2.1L-.8,5.23h-.953ZM-.062,3.155h1.61L.764.911H.743Z" transform="translate(1.756)" fill="#0f0f0f"/>
  </g>
  <g id="Group_1484" data-name="Group 1484" transform="translate(104.692 27.231)">
    <path id="Path_2235" data-name="Path 2235" d="M0,0H.931l.953,4h.022L2.965,0H3.9L4.934,4h.021l.953-4h.931L5.4,5.23H4.468l-1.059-4H3.388l-1.079,4H1.355Z" fill="#0f0f0f"/>
  </g>
  <path id="Path_2236" data-name="Path 2236" d="M97.8-5.114h.847V-5.9H97.8Zm0-.782,0,5.23h.847v-3.79H97.8Z" transform="translate(14.242 33.128)" fill="#0f0f0f"/>
  <path id="Path_2237" data-name="Path 2237" d="M99.332-.666h.847V-5.9h-.847Z" transform="translate(14.466 33.128)" fill="#0f0f0f"/>
  <g id="Group_1492" data-name="Group 1492" transform="translate(0 0)" clip-path="url(#clip-path)">
    <g id="Group_1485" data-name="Group 1485" transform="translate(115.365 28.587)">
      <path id="Path_2238" data-name="Path 2238" d="M.108.28A1.369,1.369,0,0,0,.171.7a1.183,1.183,0,0,0,.191.36.95.95,0,0,0,.317.254.988.988,0,0,0,.445.085.983.983,0,0,0,.593-.149A1,1,0,0,0,2.056.789h.782a1.617,1.617,0,0,1-.233.55,1.366,1.366,0,0,1-.381.4,1.865,1.865,0,0,1-.508.254,1.815,1.815,0,0,1-.593.085A1.793,1.793,0,0,1,.34,1.932a1.989,1.989,0,0,1-.592-.4A1.547,1.547,0,0,1-.612.894,2.466,2.466,0,0,1-.739.09,2.217,2.217,0,0,1-.612-.673a2.3,2.3,0,0,1,.36-.635A1.65,1.65,0,0,1,.32-1.752a1.814,1.814,0,0,1,.762-.17,1.676,1.676,0,0,1,.805.19,2.226,2.226,0,0,1,.592.487,2.14,2.14,0,0,1,.339.7A2.722,2.722,0,0,1,2.881.28ZM2.056-.271a1.238,1.238,0,0,0-.085-.38A.8.8,0,0,0,1.78-.97a.77.77,0,0,0-.3-.211.716.716,0,0,0-.38-.085.846.846,0,0,0-.4.085A.852.852,0,0,0,.383-.97a1.205,1.205,0,0,0-.212.318,1.238,1.238,0,0,0-.084.4H2.055V-.271Z" transform="translate(0.739 1.922)" fill="#0f0f0f"/>
    </g>
    <g id="Group_1486" data-name="Group 1486" transform="translate(119.218 28.671)">
      <path id="Path_2239" data-name="Path 2239" d="M0,0H.911l1,2.838h.021L2.88,0h.868L2.266,4a3.483,3.483,0,0,1-.212.488,2.775,2.775,0,0,1-.233.423,1.231,1.231,0,0,1-.361.3,1.345,1.345,0,0,1-.55.105,5.03,5.03,0,0,1-.572-.042v-.7a.632.632,0,0,1,.19.042.572.572,0,0,0,.19.022A.671.671,0,0,0,.953,4.6.387.387,0,0,0,1.1,4.49a.475.475,0,0,0,.107-.17c.021-.064.063-.127.085-.212l.105-.3Z" fill="#0f0f0f"/>
    </g>
    <g id="Group_1487" data-name="Group 1487" transform="translate(125.592 27.231)">
      <path id="Path_2240" data-name="Path 2240" d="M0,0H2.541A1.812,1.812,0,0,1,3.664.317a1.178,1.178,0,0,1,.423.975,1.207,1.207,0,0,1-.19.677,1.281,1.281,0,0,1-.551.445v.022a1.1,1.1,0,0,1,.741.465,1.475,1.475,0,0,1,.254.89,1.633,1.633,0,0,1-.105.572,1.21,1.21,0,0,1-.339.465,1.946,1.946,0,0,1-.593.318,2.735,2.735,0,0,1-.867.105H.021V0ZM.931,2.2h1.5a.828.828,0,0,0,.55-.19A.642.642,0,0,0,3.2,1.482a.694.694,0,0,0-.19-.551.881.881,0,0,0-.572-.17H.931Zm0,2.288H2.563a.946.946,0,0,0,.656-.212.816.816,0,0,0,.233-.614.767.767,0,0,0-.233-.593.913.913,0,0,0-.656-.212H.931Z" fill="#0f0f0f"/>
    </g>
    <g id="Group_1488" data-name="Group 1488" transform="translate(130.653 28.586)">
      <path id="Path_2241" data-name="Path 2241" d="M0,.011H.784V.752H.8a.572.572,0,0,1,.149-.3A1.025,1.025,0,0,1,1.207.18a1.04,1.04,0,0,1,.338-.19,1.2,1.2,0,0,1,.381-.064h.212c.042,0,.085,0,.105.022v.8c-.063,0-.127-.022-.17-.022C2.012.73,1.949.71,1.906.71a.854.854,0,0,0-.4.085.923.923,0,0,0-.317.254,1.212,1.212,0,0,0-.212.4A1.515,1.515,0,0,0,.889,2V3.8H.042V.011Z" transform="translate(0 0.074)" fill="#0f0f0f"/>
    </g>
    <g id="Group_1489" data-name="Group 1489" transform="translate(133.025 28.608)">
      <path id="Path_2242" data-name="Path 2242" d="M.431.385A.45.45,0,0,0,.473.6.164.164,0,0,0,.621.66H.706A.322.322,0,0,0,.833.639v.572a.346.346,0,0,0-.105.042c-.042.021-.085.021-.149.042-.042,0-.105.021-.148.021H.3A.842.842,0,0,1-.12,1.211.479.479,0,0,1-.331.851a1.483,1.483,0,0,1-.614.36,2.691,2.691,0,0,1-.7.105,1.814,1.814,0,0,1-.488-.063,1.149,1.149,0,0,1-.423-.212A1.143,1.143,0,0,1-2.852.7,1.184,1.184,0,0,1-2.957.215a1.154,1.154,0,0,1,.126-.572A.877.877,0,0,1-2.492-.7a1.251,1.251,0,0,1,.466-.17A3.874,3.874,0,0,1-1.5-.949c.148-.022.3-.042.424-.064s.253-.042.36-.063A.734.734,0,0,0-.458-1.2a.364.364,0,0,0,.085-.276.337.337,0,0,0-.085-.253A.34.34,0,0,0-.65-1.881.562.562,0,0,0-.9-1.944c-.085,0-.191-.022-.254-.022a.951.951,0,0,0-.572.149.6.6,0,0,0-.254.445h-.848a1.324,1.324,0,0,1,.17-.614,1,1,0,0,1,.4-.381,1.629,1.629,0,0,1,.529-.212,2.868,2.868,0,0,1,.614-.063,2.433,2.433,0,0,1,.55.063,1.656,1.656,0,0,1,.487.191,1.028,1.028,0,0,1,.339.338,1.01,1.01,0,0,1,.127.509V.385ZM-.416-.674a1.006,1.006,0,0,1-.466.148,4.408,4.408,0,0,0-.551.085l-.253.064A.645.645,0,0,0-1.9-.272a.456.456,0,0,0-.149.19A.587.587,0,0,0-2.11.195a.314.314,0,0,0,.085.233,1.189,1.189,0,0,0,.19.148A1.164,1.164,0,0,0-1.581.66a1,1,0,0,0,.254.022,1.724,1.724,0,0,0,.3-.042.758.758,0,0,0,.3-.127A.624.624,0,0,0-.5.28.59.59,0,0,0-.4-.06V-.674Z" transform="translate(2.957 2.643)" fill="#0f0f0f"/>
    </g>
    <g id="Group_1490" data-name="Group 1490" transform="translate(137.26 28.586)">
      <path id="Path_2243" data-name="Path 2243" d="M.005.011H.789V.562L.81.582A1.244,1.244,0,0,1,1.318.1,1.242,1.242,0,0,1,2-.074,1.386,1.386,0,0,1,2.97.243a1.249,1.249,0,0,1,.36.975v2.6H2.483V1.429A.974.974,0,0,0,2.292.773a.735.735,0,0,0-.55-.211.718.718,0,0,0-.381.085.94.94,0,0,0-.3.211.8.8,0,0,0-.19.318,1.194,1.194,0,0,0-.064.38V3.8H-.037V.011Z" transform="translate(0.037 0.074)" fill="#0f0f0f"/>
    </g>
    <g id="Group_1491" data-name="Group 1491" transform="translate(141.346 27.231)">
      <path id="Path_2244" data-name="Path 2244" d="M.477.668H-.307V.159H-.328A.953.953,0,0,1-.816.625a1.508,1.508,0,0,1-.677.148A1.854,1.854,0,0,1-2.276.625,1.584,1.584,0,0,1-2.826.2a2.269,2.269,0,0,1-.339-.635,3.191,3.191,0,0,1-.107-.805,2.294,2.294,0,0,1,.149-.889,1.752,1.752,0,0,1,.36-.614,1.47,1.47,0,0,1,.529-.36,1.5,1.5,0,0,1,.614-.107,2.139,2.139,0,0,1,.36.042A2.39,2.39,0,0,1-.9-3.059a1.279,1.279,0,0,1,.317.19.944.944,0,0,1,.233.276h.022V-4.584H.519V.668ZM-2.446-1.2a1.93,1.93,0,0,0,.064.488,1.529,1.529,0,0,0,.19.423,1.061,1.061,0,0,0,.317.3,1.087,1.087,0,0,0,.466.105A.937.937,0,0,0-.921-.009,1.215,1.215,0,0,0-.582-.328a1.529,1.529,0,0,0,.19-.423,1.93,1.93,0,0,0,.064-.488A1.481,1.481,0,0,0-.6-2.213a.944.944,0,0,0-.762-.36.877.877,0,0,0-.487.127,1.211,1.211,0,0,0-.339.317,1.409,1.409,0,0,0-.19.445,1.811,1.811,0,0,0-.064.487" transform="translate(3.272 4.584)" fill="#0f0f0f"/>
    </g>
  </g>
</svg>
