<svg xmlns="http://www.w3.org/2000/svg" xmlns:xlink="http://www.w3.org/1999/xlink" width="72" height="72" viewBox="0 0 72 72">
  <defs>
    <clipPath id="clip-path">
      <rect id="Rectangle_484" data-name="Rectangle 484" width="72" height="72" transform="translate(0.34 0.34)" fill="#00aeef"/>
    </clipPath>
  </defs>
  <g id="Group_1514" data-name="Group 1514" transform="translate(-0.34 -0.34)">
    <g id="Group_1513" data-name="Group 1513">
      <g id="Group_1510" data-name="Group 1510" clip-path="url(#clip-path)">
        <path id="Path_2273" data-name="Path 2273" d="M1.791,45.308a8.794,8.794,0,0,0,1.258.727c.525.268,1.4.715,1.464,1.031a2.09,2.09,0,0,1-.142,1.226c-.18.388-.37.721-.532,1.009-.444.782-1.185,2.094-.067,3.009.261.243.714.593,1.127.908a3.055,3.055,0,0,0-.4,1.747,1.747,1.747,0,0,0,.711,1.187c.273.193.565.363.847.527.713.406.991.595,1.09.97a3.333,3.333,0,0,1-.133,1.466c-.071.315-.141.629-.186.951a7.134,7.134,0,0,0,.409,3.263,4.539,4.539,0,0,0,4.291,3.307,4.83,4.83,0,0,0,.989-.105,91.653,91.653,0,0,0,10.212-3.056c2.728,1.6,4.453,6.47,4.9,8.3a1.212,1.212,0,0,0,1.177.917l30.4-.085a1.212,1.212,0,0,0,1.154-1.574,9.363,9.363,0,0,0-1.226-2.3,11.186,11.186,0,0,1-.785-1.307,23.019,23.019,0,0,1-1.367-3.448,40.678,40.678,0,0,1-1.432-7.166,20.509,20.509,0,0,1,1.591-10.637,27.111,27.111,0,0,1,3.29-5.2c.727-.981,1.482-2,2.159-3.065a18.709,18.709,0,0,0,2.494-5.9,1.211,1.211,0,0,0-2.359-.548,16.372,16.372,0,0,1-2.18,5.149c-.629.994-1.356,1.973-2.06,2.92a29.255,29.255,0,0,0-3.564,5.674,22.9,22.9,0,0,0-1.776,11.9,43.056,43.056,0,0,0,1.527,7.6,25.147,25.147,0,0,0,1.5,3.794,13.346,13.346,0,0,0,.938,1.574l.081.121-27.473.082a19.329,19.329,0,0,0-4.266-7.736l1.09-.379c.813-.284,1.428-.5,1.746-.6,5.187-1.654,7.78-4.016,7.711-7.025a1.191,1.191,0,0,0-1.238-1.175,1.211,1.211,0,0,0-1.182,1.239c.028,1.239-.992,3.053-6.027,4.656-.329.105-.97.328-1.806.622-.9.314-2.041.713-3.3,1.141h-.009A93.972,93.972,0,0,1,12.04,64.158a2.157,2.157,0,0,1-2.5-1.613,4.875,4.875,0,0,1-.3-2.146c.035-.243.092-.5.148-.744a5.288,5.288,0,0,0,.122-2.608,4.02,4.02,0,0,0-2.236-2.473l-.26-.149a4.453,4.453,0,0,1,.467-.751,1.211,1.211,0,0,0-.234-1.725c-.29-.213-.968-.727-1.478-1.131.058-.105.121-.221.183-.325.19-.334.407-.727.619-1.171a4.524,4.524,0,0,0,.322-2.71c-.29-1.478-1.706-2.2-2.738-2.73a6.994,6.994,0,0,1-1-.579,5.073,5.073,0,0,1-.727-.589c0-.185.2-.629,1.12-1.75A48.892,48.892,0,0,0,9.1,31.958a3.609,3.609,0,0,0,.467-1.638,4.244,4.244,0,0,0-1.777-3.028c-.491-.451-.954-.874-1.006-1.232a2.4,2.4,0,0,1,.2-.862c.2-.518.426-1.028.653-1.537A17.67,17.67,0,0,0,8.84,20.376a32.644,32.644,0,0,1,1.09-4.007,20.785,20.785,0,0,1,4.347-7.1c2.317-2.453,5.962-4.188,10.855-5.159A78.878,78.878,0,0,1,36.5,2.473a26.526,26.526,0,0,1,3.858.082A1.214,1.214,0,1,0,40.579.138a29.565,29.565,0,0,0-4.21-.084A80.923,80.923,0,0,0,24.654,1.734c-5.461,1.09-9.43,3.005-12.14,5.868a23.162,23.162,0,0,0-4.859,7.925,35.369,35.369,0,0,0-1.192,4.378,15.722,15.722,0,0,1-1.039,2.762c-.243.551-.491,1.1-.71,1.675a4.232,4.232,0,0,0-.329,2.034,4.665,4.665,0,0,0,1.772,2.7c.593.542.985.926.989,1.261a2.063,2.063,0,0,1-.206.525,46.914,46.914,0,0,1-5.3,8.615c-.877,1.07-1.8,2.317-1.6,3.564a3.7,3.7,0,0,0,1.757,2.268Zm0,0" transform="translate(-0.006 -0.013)" fill="#00aeef"/>
      </g>
      <g id="Group_1511" data-name="Group 1511" clip-path="url(#clip-path)">
        <path id="Path_2274" data-name="Path 2274" d="M82.129,57.016a15.937,15.937,0,0,1,3.323-5.45c1.615-1.709,4.406-2.968,8.3-3.742a1.211,1.211,0,0,0-.471-2.376c-4.4.874-7.621,2.372-9.589,4.45a18.36,18.36,0,0,0-3.837,6.283,30.78,30.78,0,0,0-1,3.7l2.365.525a29.02,29.02,0,0,1,.9-3.386Zm0,0" transform="translate(-67.666 -38.976)" fill="#00aeef"/>
      </g>
      <g id="Group_1512" data-name="Group 1512" clip-path="url(#clip-path)">
        <path id="Path_2275" data-name="Path 2275" d="M186.256,6.805l-.727,3.624a14.468,14.468,0,0,0-2.04.847l-3.075-2.058a2.424,2.424,0,0,0-3.043.317l-2.011,2.009a2.422,2.422,0,0,0-.319,3.07l2.05,3.06a14.3,14.3,0,0,0-.847,2.04l-3.62.727a2.422,2.422,0,0,0-1.943,2.376v2.859a2.421,2.421,0,0,0,1.938,2.375l3.624.727a14.451,14.451,0,0,0,.847,2.038l-2.058,3.076a2.424,2.424,0,0,0,.317,3.043l2.01,2.01a2.429,2.429,0,0,0,3.07.318l3.061-2.05a14.468,14.468,0,0,0,2.04.847l.727,3.62a2.422,2.422,0,0,0,2.376,1.943h2.859a2.423,2.423,0,0,0,2.375-1.938l.727-3.624a14.377,14.377,0,0,0,2.04-.849l3.075,2.06a2.422,2.422,0,0,0,3.042-.317l2.01-2.01a2.422,2.422,0,0,0,.319-3.07l-2.05-3.06a14.371,14.371,0,0,0,.847-2.04l3.62-.727a2.414,2.414,0,0,0,1.668-1.262l1.826,1.224a2.222,2.222,0,0,0,1.175.341,2.184,2.184,0,0,0,1.547-.643l1.611-1.611a2.2,2.2,0,0,0,.282-2.755L214.042,21a11.27,11.27,0,0,0,.586-1.407l2.741-.547a2.179,2.179,0,0,0,1.76-2.148V14.627a2.179,2.179,0,0,0-1.75-2.145l-2.752-.548a11.269,11.269,0,0,0-.583-1.408l1.587-2.365a2.191,2.191,0,0,0-.3-2.723l-1.611-1.611a2.2,2.2,0,0,0-2.754-.282l-2.338,1.563a11.268,11.268,0,0,0-1.407-.586l-.548-2.741A2.181,2.181,0,0,0,204.524.02h-2.277A2.177,2.177,0,0,0,200.1,1.769l-.549,2.754a11.187,11.187,0,0,0-1.407.588l-2.365-1.587a2.191,2.191,0,0,0-2.723.3l-1.09,1.09a2.554,2.554,0,0,0-.476-.053h-2.859a2.429,2.429,0,0,0-2.378,1.942Zm18.518,4.748-.565-.565a4.82,4.82,0,0,1,1.5,9.093l-1.838-.363a14.539,14.539,0,0,0-.847-2.04l2.058-3.075a2.422,2.422,0,0,0-.312-3.045v-.006ZM194.636,5.671,197.4,7.532a1.213,1.213,0,0,0,1.293.035,8.861,8.861,0,0,1,2.217-.927,1.209,1.209,0,0,0,.872-.933l.65-3.263h1.894l.65,3.271a1.212,1.212,0,0,0,.873.933,8.861,8.861,0,0,1,2.217.927,1.21,1.21,0,0,0,1.293-.043l2.768-1.858,1.344,1.344-1.857,2.771a1.21,1.21,0,0,0-.035,1.293,8.9,8.9,0,0,1,.927,2.216,1.209,1.209,0,0,0,.933.872l3.271.65v1.9l-3.265.65a1.211,1.211,0,0,0-.933.872,8.914,8.914,0,0,1-.927,2.217,1.21,1.21,0,0,0,.035,1.293l1.858,2.769-1.344,1.344-2.7-1.806V22.817a2.431,2.431,0,0,0-.847-1.845A7.251,7.251,0,0,0,203.541,8.5a7.078,7.078,0,0,0-2.155.353,2.457,2.457,0,0,0-1.7.373l-3.058,2.05a14.468,14.468,0,0,0-2.04-.847l-.727-3.62a2.281,2.281,0,0,0-.084-.287Zm-6.876,5.951.872-4.332h2.859l.872,4.337a1.21,1.21,0,0,0,.87.93,11.95,11.95,0,0,1,2.86,1.187,1.208,1.208,0,0,0,1.28-.041l3.665-2.452,2.03,2.02-2.459,3.668a1.214,1.214,0,0,0-.041,1.282,11.927,11.927,0,0,1,1.187,2.86,1.211,1.211,0,0,0,.93.872l4.332.866v2.86l-4.337.872a1.209,1.209,0,0,0-.93.872,11.917,11.917,0,0,1-1.187,2.859,1.214,1.214,0,0,0,.041,1.282l2.452,3.665-2.019,2.03L197.368,34.8a1.211,1.211,0,0,0-1.282-.041,11.846,11.846,0,0,1-2.86,1.187,1.211,1.211,0,0,0-.872.93l-.867,4.332h-2.859l-.869-4.338a1.211,1.211,0,0,0-.872-.93,11.951,11.951,0,0,1-2.86-1.187,1.211,1.211,0,0,0-1.282.041l-3.665,2.452-2.03-2.019,2.459-3.669a1.211,1.211,0,0,0,.041-1.282,11.917,11.917,0,0,1-1.187-2.859,1.213,1.213,0,0,0-.93-.872l-4.332-.867V22.817l4.337-.872a1.209,1.209,0,0,0,.93-.872,11.951,11.951,0,0,1,1.187-2.86,1.214,1.214,0,0,0-.041-1.282l-2.452-3.665,2.02-2.03L182.75,13.7a1.211,1.211,0,0,0,1.282.041,11.927,11.927,0,0,1,2.86-1.187,1.209,1.209,0,0,0,.867-.928Zm0,0" transform="translate(-146.452 -0.017)" fill="#00aeef"/>
      </g>
    </g>
    <path id="Path_2276" data-name="Path 2276" d="M255.959,127.918a8.479,8.479,0,1,0-8.479-8.479,8.478,8.478,0,0,0,8.479,8.479Zm0-14.535a6.056,6.056,0,1,1-6.056,6.056,6.056,6.056,0,0,1,6.056-6.056Zm0,0" transform="translate(-212.35 -95.209)" fill="#00aeef"/>
    <path id="Path_2277" data-name="Path 2277" d="M301.093,163.371a1.212,1.212,0,1,1-1.212-1.211,1.213,1.213,0,0,1,1.212,1.211Zm0,0" transform="translate(-256.273 -139.141)" fill="#00aeef"/>
    <path id="Path_2278" data-name="Path 2278" d="M70.7,171.9a1.212,1.212,0,1,1-1.211-1.212A1.211,1.211,0,0,1,70.7,171.9Zm0,0" transform="translate(-58.587 -146.46)" fill="#00aeef"/>
  </g>
</svg>
