<svg xmlns="http://www.w3.org/2000/svg" width="60.851" height="67.746" viewBox="0 0 60.851 67.746">
  <g id="Group_1509" data-name="Group 1509" transform="translate(0 0.001)">
    <path id="Path_2267" data-name="Path 2267" d="M9.908,186.5H9.256a2.36,2.36,0,0,1-1.521-2.608c.435-1.3.869-2.39,1.3-3.477a2.14,2.14,0,1,1,3.912,1.738,12.566,12.566,0,0,0-1.087,3.042A2.2,2.2,0,0,1,9.908,186.5Z" transform="translate(-6.649 -154.83)" fill="#00aeef"/>
    <path id="Path_2268" data-name="Path 2268" d="M3.042,278.6a2.617,2.617,0,0,1-2.173-1.521A29.388,29.388,0,0,1,0,270.78a2.364,2.364,0,0,1,1.956-2.39,2.546,2.546,0,0,1,2.39,1.956,21.815,21.815,0,0,0,.869,5.215,2.235,2.235,0,0,1-1.521,2.608C3.477,278.6,3.26,278.6,3.042,278.6Z" transform="translate(0 -231.938)" fill="#00aeef"/>
    <path id="Path_2269" data-name="Path 2269" d="M41.342,382.74a3.089,3.089,0,0,1-1.3-.435,33.938,33.938,0,0,1-7.171-7.606,2.2,2.2,0,1,1,3.694-2.39,24.977,24.977,0,0,0,6.085,6.519,2.337,2.337,0,0,1,.435,3.042A1.976,1.976,0,0,1,41.342,382.74Z" transform="translate(-28.086 -320.862)" fill="#00aeef"/>
    <path id="Path_2270" data-name="Path 2270" d="M157.366,461.987a30.483,30.483,0,0,1-8.91-1.3,2.269,2.269,0,1,1,1.3-4.346,26.653,26.653,0,0,0,15.429,0,2.206,2.206,0,0,1,2.825,1.521,2.13,2.13,0,0,1-1.521,2.825A33.088,33.088,0,0,1,157.366,461.987Z" transform="translate(-126.942 -394.242)" fill="#00aeef"/>
    <path id="Path_2271" data-name="Path 2271" d="M203.841,104.018a1.976,1.976,0,0,1-1.738-.869,2.126,2.126,0,0,1,.435-3.042,25.8,25.8,0,0,0,7.823-10.214,25.537,25.537,0,0,0,.217-19.993,26.176,26.176,0,0,0-27.6-16.3,2.184,2.184,0,0,1-.435-4.346,30.439,30.439,0,0,1,15.864,2.173,30.592,30.592,0,0,1,16.081,39.986,29.375,29.375,0,0,1-9.127,11.952A1.806,1.806,0,0,1,203.841,104.018Z" transform="translate(-156.032 -42.358)" fill="#00aeef"/>
    <path id="Path_2272" data-name="Path 2272" d="M182.81,18.632a1.976,1.976,0,0,1-1.738-.869l-6.3-8.258a2.126,2.126,0,0,1,.435-3.042L183.244.378a2.337,2.337,0,0,1,3.042.435,2.126,2.126,0,0,1-.435,3.042l-6.519,5,5,6.519a2.126,2.126,0,0,1-.435,3.042A1.628,1.628,0,0,1,182.81,18.632Z" transform="translate(-150.647)" fill="#00aeef"/>
  </g>
</svg>
