<svg id="Group_1508" data-name="Group 1508" xmlns="http://www.w3.org/2000/svg" width="88.904" height="88.957" viewBox="0 0 88.904 88.957">
  <path id="Path_2247" data-name="Path 2247" d="M229.846,8.687h4.637a2.028,2.028,0,0,0,2.026-2.026V2.026A2.028,2.028,0,0,0,234.483,0h-4.637a2.028,2.028,0,0,0-2.026,2.026V6.663A2.027,2.027,0,0,0,229.846,8.687Zm.579-6.083H233.9V6.083h-3.478V2.6Z" transform="translate(-188.238)" fill="#00aeef"/>
  <path id="Path_2248" data-name="Path 2248" d="M6.663,0H2.026A2.028,2.028,0,0,0,0,2.026V6.663A2.026,2.026,0,0,0,2.026,8.687H6.663A2.025,2.025,0,0,0,8.687,6.663V2.026A2.026,2.026,0,0,0,6.663,0Zm-.58,6.083H2.6V2.6H6.083V6.083Z" fill="#00aeef"/>
  <path id="Path_2249" data-name="Path 2249" d="M6.663,227.82H2.026A2.028,2.028,0,0,0,0,229.846v4.637a2.028,2.028,0,0,0,2.026,2.026H6.663a2.028,2.028,0,0,0,2.026-2.026v-4.637A2.029,2.029,0,0,0,6.663,227.82Zm-.58,6.083H2.6v-3.478H6.083V233.9Z" transform="translate(0 -188.238)" fill="#00aeef"/>
  <path id="Path_2250" data-name="Path 2250" d="M247.926,62.823a1.3,1.3,0,1,0-2.606,0v1.23a1.3,1.3,0,1,0,2.606,0Z" transform="translate(-202.698 -50.831)" fill="#00aeef"/>
  <path id="Path_2251" data-name="Path 2251" d="M247.926,105.313a1.3,1.3,0,0,0-2.606,0v1.23a1.3,1.3,0,1,0,2.606,0Z" transform="translate(-202.698 -85.939)" fill="#00aeef"/>
  <path id="Path_2252" data-name="Path 2252" d="M246.623,189.01a1.3,1.3,0,0,0-1.3,1.3v1.23a1.3,1.3,0,1,0,2.606,0v-1.23A1.3,1.3,0,0,0,246.623,189.01Z" transform="translate(-202.698 -156.171)" fill="#00aeef"/>
  <path id="Path_2253" data-name="Path 2253" d="M247.926,147.813a1.3,1.3,0,0,0-2.606,0v1.23a1.3,1.3,0,0,0,2.606,0Z" transform="translate(-202.698 -121.055)" fill="#00aeef"/>
  <path id="Path_2254" data-name="Path 2254" d="M17.51,110.035a1.3,1.3,0,1,0,2.606,0V108.8a1.3,1.3,0,0,0-2.606,0Z" transform="translate(-14.468 -88.823)" fill="#00aeef"/>
  <path id="Path_2255" data-name="Path 2255" d="M18.8,68.846a1.3,1.3,0,0,0,1.3-1.3v-1.23a1.3,1.3,0,0,0-2.606,0v1.23A1.3,1.3,0,0,0,18.8,68.846Z" transform="translate(-14.46 -53.715)" fill="#00aeef"/>
  <path id="Path_2256" data-name="Path 2256" d="M17.51,195.033a1.3,1.3,0,1,0,2.606,0V193.8a1.3,1.3,0,1,0-2.606,0Z" transform="translate(-14.468 -159.055)" fill="#00aeef"/>
  <path id="Path_2257" data-name="Path 2257" d="M17.51,152.533a1.3,1.3,0,0,0,2.606,0V151.3a1.3,1.3,0,1,0-2.606,0Z" transform="translate(-14.468 -123.939)" fill="#00aeef"/>
  <path id="Path_2258" data-name="Path 2258" d="M152.7,17.51h-1.23a1.3,1.3,0,0,0,0,2.606h1.23a1.3,1.3,0,0,0,0-2.606Z" transform="translate(-124.079 -14.468)" fill="#00aeef"/>
  <path id="Path_2259" data-name="Path 2259" d="M110.2,17.51h-1.23a1.3,1.3,0,0,0,0,2.606h1.23a1.3,1.3,0,0,0,0-2.606Z" transform="translate(-88.963 -14.468)" fill="#00aeef"/>
  <path id="Path_2260" data-name="Path 2260" d="M195.193,17.51h-1.23a1.3,1.3,0,1,0,0,2.606h1.23a1.3,1.3,0,1,0,0-2.606Z" transform="translate(-159.187 -14.468)" fill="#00aeef"/>
  <path id="Path_2261" data-name="Path 2261" d="M67.7,17.51h-1.23a1.3,1.3,0,0,0,0,2.606H67.7a1.3,1.3,0,1,0,0-2.606Z" transform="translate(-53.847 -14.468)" fill="#00aeef"/>
  <path id="Path_2262" data-name="Path 2262" d="M149.213,245.33h-1.23a1.3,1.3,0,1,0,0,2.606h1.23a1.3,1.3,0,0,0,0-2.606Z" transform="translate(-121.196 -202.706)" fill="#00aeef"/>
  <path id="Path_2263" data-name="Path 2263" d="M64.213,245.33h-1.23a1.3,1.3,0,1,0,0,2.606h1.23a1.3,1.3,0,1,0,0-2.606Z" transform="translate(-50.964 -202.706)" fill="#00aeef"/>
  <path id="Path_2264" data-name="Path 2264" d="M191.7,245.33h-1.23a1.3,1.3,0,0,0,0,2.606h1.23a1.3,1.3,0,0,0,0-2.606Z" transform="translate(-156.303 -202.706)" fill="#00aeef"/>
  <path id="Path_2265" data-name="Path 2265" d="M106.713,245.33h-1.23a1.3,1.3,0,1,0,0,2.606h1.23a1.3,1.3,0,1,0,0-2.606Z" transform="translate(-86.08 -202.706)" fill="#00aeef"/>
  <path id="Path_2266" data-name="Path 2266" d="M276.011,247.01l-15.969-5.323a1.3,1.3,0,0,0-.824,2.471l13.819,4.606-14.9,7.582-18.821-18.82,14.117,4.7a1.3,1.3,0,1,0,.824-2.471l-17.748-5.916v-4a2.028,2.028,0,0,0-2.026-2.026h-4.637a2.028,2.028,0,0,0-2.026,2.026v4.637a2.028,2.028,0,0,0,2.026,2.026h3.93l13.185,39.554a1.658,1.658,0,0,0,3.049.228c.891-1.753,7.975-15.671,8.845-17.385l17.385-8.845A1.661,1.661,0,0,0,276.011,247.01Zm-45.586-16.585H233.9V233.9h-3.478v-3.478Zm7.049,8.942,18.821,18.821-7.582,14.9Z" transform="translate(-188.238 -188.238)" fill="#00aeef"/>
</svg>
