<svg xmlns="http://www.w3.org/2000/svg" width="190.557" height="37.414" viewBox="0 0 190.557 37.414">
  <g id="Group_1271" data-name="Group 1271" transform="translate(-320.645 -547.216)">
    <path id="Path_2135" data-name="Path 2135" d="M338.523,547.22v5.787h-3.2s-2.893-.413-2.893,2.377v4.547h6.1l-.724,6.281h-5.374V583.8H325.4V566.132h-4.754v-6.2h4.96v-5.27a5.889,5.889,0,0,1,1.964-5.27,8.88,8.88,0,0,1,5.994-2.17Z" fill="#9c9e9f"/>
    <path id="Path_2136" data-name="Path 2136" d="M386.41,581.058v3.153a8.953,8.953,0,0,0-7.075-3.825c-5.45,0-9.869,4.806-9.869,12.633,0,7.776,4.419,12.633,9.869,12.633a8.975,8.975,0,0,0,7.125-3.892l-.046,3.066h6.769V581.058Zm-.378,14.312a4.552,4.552,0,1,1-9.1,0v-4.547a4.552,4.552,0,1,1,9.1,0Z" transform="translate(-30.943 -21.024)" fill="#9c9e9f"/>
    <path id="Path_2137" data-name="Path 2137" d="M573.029,584.55V581.4a8.953,8.953,0,0,0,7.075,3.825c5.451,0,9.869-4.805,9.869-12.633,0-7.776-4.419-12.633-9.869-12.633a8.975,8.975,0,0,0-7.125,3.892l.047-15.7-7.039.792v35.5Zm.378-14.312a4.552,4.552,0,1,1,9.1,0v4.546a4.552,4.552,0,1,1-9.1,0Z" transform="translate(-155.498 -0.592)" fill="#9c9e9f"/>
    <path id="Path_2138" data-name="Path 2138" d="M454.294,600.2s-5.425.31-5.425-6.717v-.384c0-7.027,5.425-6.717,5.425-6.717,3.669-.052,4.96,1.24,4.96,1.24l1.7-5.115c-2.945-2.17-11.833-2.532-15.811,1.137-3.443,3.174-3.442,8.319-3.38,9.648-.063,1.329-.063,6.474,3.38,9.648,3.978,3.669,12.866,3.307,15.811,1.137l-1.7-5.115S457.962,600.248,454.294,600.2Z" transform="translate(-76.76 -21.331)" fill="#9c9e9f"/>
    <path id="Path_2139" data-name="Path 2139" d="M519.082,595.832s2.842-14.881-10.747-14.962-11.626,13.464-11.626,13.464c.31,8.216,4.082,10.592,10.541,11.367A21.713,21.713,0,0,0,518.617,604l-1.5-4.805a29.7,29.7,0,0,1-9.352,1.24c-4.134-.362-3.824-4.6-3.824-4.6Zm-15.243-4.806s-.362-5.27,4.392-5.27,4.392,5.27,4.392,5.27Z" transform="translate(-111.527 -21.33)" fill="#9c9e9f"/>
    <path id="Path_2140" data-name="Path 2140" d="M649.264,581.272c-8.846,0-11.824,5.337-11.824,12.471,0,7.568,3.836,12.471,11.824,12.471,6.53,0,11.823-4.387,11.823-12.471C661.087,586.855,657.709,581.272,649.264,581.272Zm4.609,14.534a4.67,4.67,0,0,1-9.339,0V591.26a4.67,4.67,0,0,1,9.339,0Z" transform="translate(-200.786 -21.585)" fill="#9c9e9f"/>
    <path id="Path_2141" data-name="Path 2141" d="M720.562,581.272c-8.846,0-11.824,5.337-11.824,12.471,0,7.568,3.836,12.471,11.824,12.471,6.53,0,11.823-4.387,11.823-12.471C732.385,586.855,729.007,581.272,720.562,581.272Zm4.609,14.534a4.67,4.67,0,0,1-9.339,0V591.26a4.67,4.67,0,0,1,9.339,0Z" transform="translate(-245.975 -21.585)" fill="#9c9e9f"/>
    <path id="Path_2142" data-name="Path 2142" d="M802.565,584.284l-7.73-11.967,7.386-11.967h-7.558l-7.214,10.712V547.812l-7.1.744v35.728h7.1V572.11l7.787,12.174Z" transform="translate(-291.362 -0.378)" fill="#9c9e9f"/>
  </g>
</svg>
