<svg xmlns="http://www.w3.org/2000/svg" xmlns:xlink="http://www.w3.org/1999/xlink" width="79.804" height="79.793" viewBox="0 0 79.804 79.793">
  <defs>
    <clipPath id="clip-path">
      <path id="Path_2152" data-name="Path 2152" d="M0,49.007H79.8V-30.786H0Z" transform="translate(0 30.786)" fill="#9c9e9f"/>
    </clipPath>
  </defs>
  <g id="Group_1299" data-name="Group 1299" transform="translate(0 30.786)">
    <g id="Group_1298" data-name="Group 1298" transform="translate(0 -30.786)" clip-path="url(#clip-path)">
      <g id="Group_1297" data-name="Group 1297" transform="translate(-0.001 0.002)">
        <path id="Path_2151" data-name="Path 2151" d="M49.014,24.505A39.9,39.9,0,1,0,9.114,64.4a39.9,39.9,0,0,0,39.9-39.891m-1.532.044A38.392,38.392,0,1,1,9.089-13.839,38.39,38.39,0,0,1,47.482,24.549m-1.669,0A36.607,36.607,0,0,0,33.439-2.927S27.068-8.793,14.77-8.134c0,0-4.015.568-5.8,2.335-1.84,1.819-4.987,2.086-6.135-.314,0,0-2.5-4.689,7.356-5.767l.573-.049,1.3-.119-2.97-.117A36.645,36.645,0,0,0-18.39.2s-5.865,6.376-5.21,18.682c0,0,.568,4,2.34,5.788,1.82,1.845,2.084,4.995-.316,6.14,0,0-4.686,2.5-5.767-7.356l-.049-.57-.117-1.293-.122,2.96A36.6,36.6,0,0,0-15.26,52.031s6.376,5.868,18.674,5.21c0,0,4.007-.568,5.8-2.33,1.843-1.832,4.992-2.092,6.132.306,0,0,2.5,4.694-7.345,5.767l-.578.052-1.293.114,2.96.127A36.623,36.623,0,0,0,36.573,48.905s5.863-6.371,5.212-18.674c0,0-.568-4.01-2.34-5.793-1.819-1.845-2.089-5,.314-6.138,0,0,4.691-2.5,5.762,7.351l.052.57.114,1.3ZM26.389,46.658a14.494,14.494,0,0,1-6.257,1.254S7.624,46.137,8.3,33.94A17.726,17.726,0,0,1,16.7,20.8a1.848,1.848,0,0,1-.575-1.254L5.33,26.115S6.04,38.3-.133,44.724A20.993,20.993,0,0,1-3.22,47.078a6.718,6.718,0,0,1-2.294.835,9.963,9.963,0,0,1-2.6.1s-3.027.106-4.7-3.6c0,0-2.918-5.941,3.02-12.039,0,0,3.447-4.277,12.153-7.192l.158-2.506s-3.131,2.3-5.16,1.874c-1.236-.249-4.069-.415-4.847-5.109,0,0-4.857-1.615-5.168-6.617,0,0-.052-2.965,1.451-4.3,2.395-2.112,1.226,1.327,1.226,1.327-.093,2.136.135,5.757,2.644,6.417A17.726,17.726,0,0,1-4.84,7.2S-.146.308,5.17,2.816c0,0,5.01,3.748-2.032,11.573,0,0-3.027,4.113-7.2,5,0,0,1.247,5.158,7.2-.938,0,0,1.578-7.2,5.951-5.474,0,0,3.434,2.346-3.919,7.345l-.153,2.664,10.01-6.151a27.8,27.8,0,0,1,.941-9.8s2.5-5.79,8.133-4.847c0,0,6.778,3.18.311,10.943,0,0-3.657,3.914-5.521,4.23a3.87,3.87,0,0,0,1.042,1.978s8.081-1.667,7.449,1.462c0,0,.316,4.22-8.439,2.654,0,0-6.259,5.166-5.479,10.793,0,0-.63,7.669,7.034,8.758,0,0,7.825.472,7.516-6.412,0,0-.163-5.785-4.849-5.321,0,0-4.385,1.418-.941,5.321a1.755,1.755,0,0,1,.153,2.82,2.831,2.831,0,0,1-3.463-.575,7.813,7.813,0,0,1-2.162-5.059s-.472-7.034,7.975-6.726c0,0,7.61.837,7.817,9.7a10.2,10.2,0,0,1-6.156,9.906M18.78,14.54a21.006,21.006,0,0,0,4.069-4.375c.827-1.348,1.77-3.025.1-4.17,0,0-3.966-.524-4.173,8.545m-22.521.941s6.957-4.45,6.832-8.128c0,0,.254-1.151-.575-1.462,0,0-5.477.518-6.257,9.59M.636,36.288a21.282,21.282,0,0,0,1.41-7.514S-9.638,34.507-9.8,40.3a5.228,5.228,0,0,0,.319,1.98c.358.754,1.12,1.042,1.825,1.514,0,0,4.378,2.037,8.289-7.5" transform="translate(30.79 15.394)" fill="#9c9e9f"/>
      </g>
    </g>
  </g>
</svg>
