<svg xmlns="http://www.w3.org/2000/svg" width="253.315" height="32.952" viewBox="0 0 253.315 32.952">
  <g id="Group_1648" data-name="Group 1648" transform="translate(-13.761 -17.594)">
    <g id="Aberdeen" transform="translate(162.432 31.404)">
      <path id="Path_2423" data-name="Path 2423" d="M101.913,34.267a7.809,7.809,0,0,0-4.969,1.55,7.385,7.385,0,0,1,6.125-3.97c2.184,0,3.762,1.235,6.758,1.235a12.486,12.486,0,0,0,6.575-1.92c-1.6,2.316-4.288,4.341-7.39,4.341C106.224,35.5,104.989,34.267,101.913,34.267Z" transform="translate(-96.944 -20.722)" fill="#0094dd"/>
      <path id="Path_2424" data-name="Path 2424" d="M122.827,30.865a8.074,8.074,0,0,0-2.917.5V25.321h-2.366v18.3a8.479,8.479,0,0,0,3.943.845c4.261,0,7.442-2.009,7.442-7.183C128.929,33.4,126.639,30.865,122.827,30.865Zm-1.294,11.508a4.523,4.523,0,0,1-1.628-.238V33.555a6.8,6.8,0,0,1,2.681-.527c2.577,0,3.918,1.426,3.918,4.25C126.5,40.42,124.823,42.323,121.533,42.373Zm61.636-11.51c-3.919,0-6.155,2.894-6.155,6.758,0,4.132,2.867,6.842,7.049,6.842a7.749,7.749,0,0,0,4.284-1.212l-.92-1.946a6.56,6.56,0,0,1-3.18.9c-2.263,0-4.5-1.08-4.761-3.894h9.44v-.735C188.926,34.309,187.321,30.89,183.169,30.863Zm-3.63,5.287a3.485,3.485,0,0,1,3.444-3.156,3.379,3.379,0,0,1,3.444,3.156Zm-43.361-5.287c-3.92,0-6.152,2.894-6.152,6.758,0,4.132,2.865,6.842,7.045,6.842a7.762,7.762,0,0,0,4.286-1.212l-.919-1.946a6.578,6.578,0,0,1-3.183.9c-2.261,0-4.5-1.08-4.761-3.894h9.442v-.735C141.937,34.309,140.333,30.89,136.178,30.863Zm-3.63,5.287a3.488,3.488,0,0,1,3.446-3.156,3.38,3.38,0,0,1,3.444,3.156Zm68.764,1.208v6.813h-2.366v-6.6c0-2.92-1.183-4.654-4.129-4.654a8.208,8.208,0,0,0-2.155.261V44.171h-2.368V31.812a11.05,11.05,0,0,1,4.629-.949C199.128,30.863,201.312,33.362,201.312,37.358Zm-31.134-6.495c-3.916,0-6.152,2.894-6.152,6.758,0,4.132,2.865,6.842,7.047,6.842a7.753,7.753,0,0,0,4.284-1.212l-.919-1.946a6.567,6.567,0,0,1-3.183.9c-2.261,0-4.495-1.08-4.76-3.894h9.44v-.735C175.936,34.309,174.333,30.89,170.177,30.863Zm-3.628,5.287a3.487,3.487,0,0,1,3.444-3.156,3.382,3.382,0,0,1,3.446,3.156ZM151.9,32.127l-1.233,1.735a5.665,5.665,0,0,0-3.21-.92,5.211,5.211,0,0,0-1.787.315V44.171H143.3V31.784a8.884,8.884,0,0,1,3.971-.92A7.686,7.686,0,0,1,151.9,32.127Zm8.443-1.08a10.9,10.9,0,0,0-2-.184c-4.152,0-7.124,2.72-7.124,6.852s3.206,6.747,7.389,6.747a10.011,10.011,0,0,0,4.1-.867V25.321h-2.368Zm0,11.137a5.57,5.57,0,0,1-1.623.186c-2.9-.054-5.128-1.632-5.128-4.706,0-2.865,1.673-4.651,4.917-4.651a6.625,6.625,0,0,1,1.834.236Zm-58.7-2.461c.293,0,.554.02.815.041l-2.157,4.407h-3L99.43,40A9.028,9.028,0,0,1,101.637,39.723Zm12.368-.524,2.547,4.972h-3l-1.832-3.744A9.991,9.991,0,0,0,114.005,39.2Zm-1.457-2.845a11.337,11.337,0,0,1-2.624.408l-3-6.136-2.516,5.144a7.481,7.481,0,0,0-1.612-.184,6.512,6.512,0,0,0-1.162.114l5.29-10.332Z" transform="translate(-96.668 -25.321)" fill="#0d2755"/>
    </g>
    <g id="Standard_Life" data-name="Standard Life" transform="translate(13.761 17.594)">
      <path id="Path_2425" data-name="Path 2425" d="M22.819,34.677a4.4,4.4,0,0,1,2.175,4.213c-.007,3.387-2.048,4.956-6.079,5.065a15.808,15.808,0,0,1-4.936-.645c0-.906,0-2.969,0-2.969,1.1.173,2.436.345,3.748.416,1.553.084,2.189.041,2.77-.32a1.426,1.426,0,0,0,.55-1.432c-.111-.572-.354-.867-1.23-1.444-1.046-.69-2.054-1.273-2.869-1.744-2.515-1.448-3.185-2.4-3.185-4.568,0-3.333,1.811-4.74,6.005-4.743a18.668,18.668,0,0,1,4.3.536c-.014.567.014,3.119-.005,3.113a25.8,25.8,0,0,0-4.17-.486c-1.058-.029-1.709.039-2.073.429a1.138,1.138,0,0,0-.273.908c.038.7.524.949,1.458,1.494.794.465,2.845,1.519,3.819,2.177M31.51,43.96a11.925,11.925,0,0,0,2.717-.286l.005-2.5a17.188,17.188,0,0,1-2.188.036c-.352-.03-.4-.1-.517-.279a2.412,2.412,0,0,1-.095-1.013V33.187l2.645-.005V30.658l-2.645,0V27.444l-3.682.638v2.575H25.882v2.524l1.869.005v7.29c.011,2.6,1.172,3.474,3.759,3.483m11.483-3.23-.005-2.8a5.65,5.65,0,0,0-2.627.256c-.438.225-.706.567-.706,1.435,0,.039,0,.114,0,.157.025.938.658,1.4,1.653,1.367a4.116,4.116,0,0,0,1.684-.416ZM41.517,30.468c3.031.027,5.147,1.294,5.151,4.566v8.742h-3.6v-.765a4.658,4.658,0,0,1-3.1.949,3.607,3.607,0,0,1-3.852-3.878c0-.063,0-.413,0-.472.073-2.9,1.921-3.791,5.744-3.8l1.13,0v-.779a1.433,1.433,0,0,0-.552-1.324,3.627,3.627,0,0,0-1.964-.313c-1.137.023-2.59.188-3.453.281l-.005-2.627a17.939,17.939,0,0,1,4.493-.583m41.89,10.263-.007-2.8a5.653,5.653,0,0,0-2.627.256c-.44.225-.706.567-.706,1.435,0,.039,0,.114,0,.157.025.938.66,1.4,1.653,1.367a4.133,4.133,0,0,0,1.685-.416ZM81.93,30.468c3.029.027,5.147,1.294,5.153,4.566v8.742h-3.6v-.765a4.668,4.668,0,0,1-3.1.949,3.605,3.605,0,0,1-3.848-3.878c0-.063,0-.413,0-.472.071-2.9,1.92-3.791,5.743-3.8l1.13,0v-.779a1.436,1.436,0,0,0-.55-1.324,3.633,3.633,0,0,0-1.966-.313c-1.137.023-2.592.188-3.453.281l-.005-2.627a17.95,17.95,0,0,1,4.493-.583M56.986,43.776h3.678V34.793c0-2.245-1.1-4.314-4.061-4.318a6.326,6.326,0,0,0-3.778,1.237V30.656l-3.417,0V43.776h3.7V34.155a5.682,5.682,0,0,1,2.009-.668,1.581,1.581,0,0,1,1.546.472,2.653,2.653,0,0,1,.327,1.71v8.107Zm13.68-3.049.009-7.549a6.074,6.074,0,0,0-2.193-.091c-1.449.316-1.83,1.312-1.83,3.555,0,.071,0,1.063,0,1.131.018,1.744.168,2.3.679,2.854a2.013,2.013,0,0,0,1.571.531,3.473,3.473,0,0,0,1.762-.431Zm0-14.461h3.682v17.51h-3.6s0-.073,0-.752a4.559,4.559,0,0,1-3.035.951c-2.983,0-4.726-1.659-4.726-5.382,0-.1,0-2.011,0-2.109.034-2.667.679-3.975,1.762-4.985a5.507,5.507,0,0,1,3.816-1.246,11.233,11.233,0,0,1,2.1.188V26.266Zm35.392,14.461.007-7.549a6.072,6.072,0,0,0-2.193-.091c-1.448.316-1.828,1.312-1.828,3.555,0,.071,0,1.063,0,1.131.018,1.744.166,2.3.679,2.854a2.013,2.013,0,0,0,1.573.531,3.48,3.48,0,0,0,1.76-.431Zm0-14.461h3.682v17.51h-3.6s0-.073,0-.752a4.556,4.556,0,0,1-3.035.951c-2.983,0-4.724-1.659-4.724-5.382,0-.1,0-2.011,0-2.109.034-2.667.679-3.975,1.762-4.985a5.505,5.505,0,0,1,3.814-1.246,11.239,11.239,0,0,1,2.1.188V26.266ZM97.245,30.5a5.323,5.323,0,0,0-3.837,1.113v-.956H89.8V43.776h3.676V34.3a6.767,6.767,0,0,1,3.764-.8s.007-2.686.007-3m47.063,2.711V30.656l-2.947.005v-.974c0-.466,0-.742.2-.947.291-.29,1.539-.243,2.763-.168V26.089a14.653,14.653,0,0,0-2.649-.266c-2.531,0-3.982.8-3.991,4.054v.785h-2.029v2.552h2.023V43.776h3.68V33.213Zm12.245,4.361c0,.182,0,.567-.011.76l-7.853,0a2.41,2.41,0,0,0,2.431,2.633A16.892,16.892,0,0,0,156.1,40.4s0,1.893,0,2.722a14.073,14.073,0,0,1-5.083.851c-3.617-.005-5.918-1.834-5.918-6.268,0-.054,0-1.085,0-1.138.023-4.275,2.581-6.093,5.9-6.093a5.291,5.291,0,0,1,4.331,1.916c1.026,1.376,1.223,2.411,1.215,5.183m-3.407-1.609c-.039-1.9-.942-2.72-2.222-2.724-1.251,0-2.2.783-2.222,2.724Zm-30.934,4.661a.678.678,0,0,1-.424-.139.422.422,0,0,1-.114-.34V26.159h-3.918l0,14.42a2.994,2.994,0,0,0,.806,2.465,3.708,3.708,0,0,0,2.243.82,34.031,34.031,0,0,0,6.765-.127v-3.1ZM133.637,26.69h-3.6v2.931h3.6Zm0,4.266h-3.6v12.82h3.6Z" transform="translate(-13.761 -11.115)" fill="#0d2755"/>
      <path id="Path_2426" data-name="Path 2426" d="M104.137,17.594,95.331,34.8l-3.825-7.521Z" transform="translate(47.446 -17.594)" fill="#0094dd"/>
    </g>
  </g>
</svg>
