<svg xmlns="http://www.w3.org/2000/svg" xmlns:xlink="http://www.w3.org/1999/xlink" width="275.917" height="34.236" viewBox="0 0 275.917 34.236">
  <defs>
    <clipPath id="clip-path">
      <path id="Path_2302" data-name="Path 2302" d="M8.687-16.555A.978.978,0,0,0,8.4-16.2h0L.1.388a.966.966,0,0,0-.1.4H0V.877a.991.991,0,0,0,.547.841h0a.991.991,0,0,0,.443.1H12.54a.956.956,0,0,0,.887-.548h0c2.492-5.149.981-12.977-3.391-17.649h0a.966.966,0,0,0-.765-.379h0a.957.957,0,0,0-.584.2" transform="translate(0 16.753)" fill="none"/>
    </clipPath>
    <linearGradient id="linear-gradient" x1="0.873" y1="0.915" x2="0.978" y2="0.915" gradientUnits="objectBoundingBox">
      <stop offset="0" stop-color="#0052cc"/>
      <stop offset="0.1" stop-color="#0457d1"/>
      <stop offset="0.2" stop-color="#085cd7"/>
      <stop offset="0.3" stop-color="#0c62dc"/>
      <stop offset="0.4" stop-color="#1067e2"/>
      <stop offset="0.5" stop-color="#146de7"/>
      <stop offset="0.6" stop-color="#1872ed"/>
      <stop offset="0.7" stop-color="#1c77f2"/>
      <stop offset="0.8" stop-color="#207df8"/>
      <stop offset="0.9" stop-color="#2582fd"/>
      <stop offset="1" stop-color="#2683ff"/>
    </linearGradient>
    <clipPath id="clip-path-2">
      <path id="Path_2313" data-name="Path 2313" d="M0,4.047H275.917V-30.189H0Z" transform="translate(0 30.189)" fill="none"/>
    </clipPath>
  </defs>
  <g id="Group_1550" data-name="Group 1550" transform="translate(0 30.189)">
    <g id="Group_1539" data-name="Group 1539" transform="translate(0 -14.952)" clip-path="url(#clip-path)">
      <g id="Group_1538" data-name="Group 1538" transform="matrix(-0.5, 0.866, -0.866, -0.5, 290.742, -6.678)">
        <path id="Path_2301" data-name="Path 2301" d="M137.957,256.07,0,17.117,29.649,0,167.606,238.952Z" fill="url(#linear-gradient)"/>
      </g>
    </g>
    <g id="Group_1549" data-name="Group 1549" transform="translate(0 -30.189)" clip-path="url(#clip-path-2)">
      <g id="Group_1540" data-name="Group 1540" transform="translate(12.586 -0.001)">
        <path id="Path_2303" data-name="Path 2303" d="M.418.063A21.874,21.874,0,0,0-.859,21.66L4.709,32.8a.992.992,0,0,0,.887.548H17.144a.992.992,0,0,0,.887-1.435S2.494.834,2.1.057A.935.935,0,0,0,.852-.374.927.927,0,0,0,.418.063" transform="translate(3.116 0.469)" fill="#2584ff"/>
      </g>
      <g id="Group_1541" data-name="Group 1541" transform="translate(151.445 5.569)">
        <path id="Path_2304" data-name="Path 2304" d="M2.552,2.368C2.552-2.5-.03-4.788-7.311-6.354c-4.024-.889-5-1.777-5-3.048,0-1.607,1.439-2.286,4.106-2.286A23.124,23.124,0,0,1,1.2-9.36v-6.394A21.241,21.241,0,0,0-7.99-17.659c-7.2,0-10.923,3.133-10.923,8.256m0,0c0,4.108,1.9,7.368,9.356,8.807C-5.11.338-4.179,1.056-4.179,2.538c0,1.439-.933,2.37-4.064,2.37a22.942,22.942,0,0,1-10.8-2.92V8.676A22.1,22.1,0,0,0-8.329,11C-.539,11,2.552,7.531,2.552,2.368" transform="translate(19.041 17.662)" fill="#0052cc"/>
      </g>
      <g id="Group_1542" data-name="Group 1542" transform="translate(251.657 5.996)">
        <path id="Path_2305" data-name="Path 2305" d="M0,0V27.817H5.928V6.6l2.5,5.631,8.383,15.582h7.452V0H18.332V17.952l-2.243-5.209L9.357,0Z" fill="#0052cc"/>
      </g>
      <path id="Path_2306" data-name="Path 2306" d="M182.954-24.9h6.478V2.915h-6.478Z" transform="translate(24.525 30.898)" fill="#0052cc"/>
      <g id="Group_1543" data-name="Group 1543" transform="translate(178.411 5.569)">
        <path id="Path_2307" data-name="Path 2307" d="M2.552,2.368C2.552-2.5-.03-4.788-7.311-6.354c-4.024-.889-5-1.777-5-3.048,0-1.607,1.439-2.286,4.106-2.286A23.134,23.134,0,0,1,1.2-9.36v-6.394A21.249,21.249,0,0,0-7.99-17.659c-7.2,0-10.923,3.133-10.923,8.256,0,4.108,1.9,7.368,9.356,8.807C-5.11.338-4.179,1.056-4.179,2.538c0,1.439-.933,2.37-4.064,2.37a22.942,22.942,0,0,1-10.8-2.92V8.676A22.1,22.1,0,0,0-8.329,11C-.539,11,2.552,7.531,2.552,2.368" transform="translate(19.041 17.662)" fill="#0052cc"/>
      </g>
      <g id="Group_1544" data-name="Group 1544" transform="translate(101.25 5.996)">
        <path id="Path_2308" data-name="Path 2308" d="M0,0V27.817H13.315l2.1-6.013H6.52V0Z" fill="#0052cc"/>
      </g>
      <g id="Group_1545" data-name="Group 1545" transform="translate(74.944 5.996)">
        <path id="Path_2309" data-name="Path 2309" d="M0,0V6.012H7.2V27.817h6.52V6.012h7.706V0Z" fill="#0052cc"/>
      </g>
      <g id="Group_1546" data-name="Group 1546" transform="translate(47.245 5.996)">
        <path id="Path_2310" data-name="Path 2310" d="M1.652,2.141a12.641,12.641,0,0,1-3.564-.513L1.652-10.51,5.216,1.633a12.677,12.677,0,0,1-3.564.508M5.925-15.974H-2.62l-9.7,27.816h7.408l1.376-4.684a18.429,18.429,0,0,0,10.374,0l1.376,4.684h7.409Z" transform="translate(12.321 15.974)" fill="#0052cc"/>
      </g>
      <g id="Group_1547" data-name="Group 1547" transform="translate(119.274 5.996)">
        <path id="Path_2311" data-name="Path 2311" d="M1.652,2.141a12.635,12.635,0,0,1-3.564-.513L1.652-10.51,5.216,1.633a12.677,12.677,0,0,1-3.564.508M5.924-15.974H-2.62l-9.7,27.816h7.41l1.374-4.684a18.409,18.409,0,0,0,10.374,0l1.376,4.684h7.41Z" transform="translate(12.321 15.974)" fill="#0052cc"/>
      </g>
      <g id="Group_1548" data-name="Group 1548" transform="translate(219.056 5.996)">
        <path id="Path_2312" data-name="Path 2312" d="M1.651,2.141a12.635,12.635,0,0,1-3.564-.513L1.651-10.51,5.216,1.633a12.677,12.677,0,0,1-3.564.508M5.926-15.974H-2.618l-9.7,27.816h7.409l1.376-4.684a18.429,18.429,0,0,0,10.374,0l1.374,4.684h7.41Z" transform="translate(12.318 15.974)" fill="#0052cc"/>
      </g>
    </g>
  </g>
</svg>
