<svg xmlns="http://www.w3.org/2000/svg" width="156.566" height="58.868" viewBox="0 0 156.566 58.868">
  <g id="Group_1647" data-name="Group 1647" transform="translate(-239.141 -559.215)">
    <path id="Path_2420" data-name="Path 2420" d="M255.839,584.074a4.545,4.545,0,0,1-2.429.961,4,4,0,0,1-3.6-1.339c-.725-.869-1.1-1.993-1.8-2.892a4.933,4.933,0,1,0-7.971,5.813c2.938,4.2,9.544,3.474,12.934.564a16.444,16.444,0,0,0,2.868-3.107m123.172,0a4.521,4.521,0,0,0,2.429.962,3.991,3.991,0,0,0,3.6-1.339c.724-.87,1.1-1.993,1.8-2.892a4.932,4.932,0,1,1,7.968,5.813c-2.936,4.2-9.542,3.475-12.93.564a16.357,16.357,0,0,1-2.87-3.108m-12.1-22.411c-.092,0-8.768,0-8.848,0a1.893,1.893,0,0,0,0,3.78c.092,0,8.768,0,8.848,0a1.893,1.893,0,0,0,0-3.779m-55.257,18.854a8.956,8.956,0,0,1-.221-1.494c-.006-.72-.006-1.729-.006-2.659.091-3.21.69-8.857-3.664-8.857-2.94,0-4.682,2.474-5.176,3.283-.07-2.255-1.85-3.892-4.568-3.892a3.716,3.716,0,0,0-2.765,1.38,2.872,2.872,0,0,1,1.692,2.86c.018,1.628,0,9.552,0,9.586a2.825,2.825,0,0,0,5.647,0v-7.028c.245-1.149.891-2.322,1.866-2.322,1.264,0,1.335,1.406,1.341,1.406l-.006,6.8a4.211,4.211,0,0,0,.073.642,3.529,3.529,0,0,0,.324.988,4.405,4.405,0,0,0,4.171,2.264,3.717,3.717,0,0,0,2.763-1.38,2.7,2.7,0,0,1-1.472-1.578m41.851,0a8.568,8.568,0,0,1-.221-1.494l0-16.839a2.965,2.965,0,1,0-5.93,0l0,14.913a8.534,8.534,0,0,0,.517,3.95,4.774,4.774,0,0,0,4.331,2.428,3.714,3.714,0,0,0,2.766-1.38,2.706,2.706,0,0,1-1.472-1.578m-66.205-.465v0l-.018,0-.017,0v0c-1.521-.028-2.284-1.776-2.284-4.634s.966-4.605,2.284-4.636h.034c1.316.031,2.283,1.781,2.283,4.636s-.761,4.606-2.283,4.634m-.059-12.692a8.057,8.057,0,1,0,8.058,8.058,8.057,8.057,0,0,0-8.058-8.058" transform="translate(0 -0.002)" fill="#4f2170"/>
    <path id="Path_2421" data-name="Path 2421" d="M320.935,579.534v0H320.9v0c-1.522-.023-2.283-1.548-2.283-4.037s.965-4.011,2.283-4.039v0l.018,0,.017,0v0c1.319.028,2.284,1.552,2.284,4.039s-.763,4.015-2.284,4.037m8.838.98a8.584,8.584,0,0,1-.221-1.494l0-16.839a2.966,2.966,0,1,0-5.931,0l-.012,7.975a5.963,5.963,0,0,0-4.76-2.671c-6.81,0-7.241,12.127-2.57,15.127a6.514,6.514,0,0,0,4.8.672c1.037-.271,2.673-1.289,2.936-2.506.038.089.077.178.123.267a4.777,4.777,0,0,0,4.332,2.427,3.715,3.715,0,0,0,2.766-1.379,2.706,2.706,0,0,1-1.472-1.579m6.768-6.013c.173-1.271.477-2.872,1.62-3.614a1.515,1.515,0,0,1,2.3,1.273,2.281,2.281,0,0,1-1.917,2.345,8.89,8.89,0,0,1-2,0m8.661,3.985s-.87,1.191-4.244,1.191a3.992,3.992,0,0,1-4.1-2.623c4.917,0,9.041-.329,9.041-4.31s-4.5-5.293-7.167-5.293c-4.4,0-7.623,3.513-7.623,8.15a7.674,7.674,0,0,0,7.67,7.87c6.127,0,6.421-4.985,6.421-4.985m15.063-3.985c.173-1.271.477-2.872,1.62-3.614a1.515,1.515,0,0,1,2.3,1.273,2.281,2.281,0,0,1-1.917,2.345,8.889,8.889,0,0,1-2,0m8.661,3.985s-.87,1.191-4.244,1.191a3.992,3.992,0,0,1-4.1-2.623c4.917,0,9.041-.329,9.041-4.31s-4.5-5.293-7.167-5.293c-4.4,0-7.623,3.513-7.623,8.15a7.674,7.674,0,0,0,7.67,7.87c6.127,0,6.421-4.985,6.421-4.985m11.126.431h-3.379a34.741,34.741,0,0,0,3.577-2.81c2.171-1.842,6.074-4.5,4.936-7.943l0,.024a2.544,2.544,0,0,0-.84-1.293,1.777,1.777,0,0,1-1.039.969,5.564,5.564,0,0,1-.983.159c-.27.005-9.444,0-9.444,0a2.282,2.282,0,0,0-2.3,2.174,2.176,2.176,0,0,0,2.225,2.156l5.352.034c-2.481,1.383-5.444,3.022-6.948,5.524-.859,1.436-1.779,3.65-1.429,5.348a9.1,9.1,0,0,1,6.685-1.578,8.474,8.474,0,0,1,2.6,1.12c4.455,2.787,7.132-2.663,5-5.066a5.92,5.92,0,0,1-4.025,1.182m-100.435,3.39c-2.733-3-3.587-7.979-3.756-11.291-.145-2.861.01-7.816,2.265-9.258a4.491,4.491,0,0,0-3.375-1.331c-2.542,0-3.768,1.693-4.637,2.911-.287.4-4.562,6.3-4.562,6.3s-3.6-5.563-4.038-6.231c-.61-.922-1.754-2.617-3.763-2.91-.866-.126-3.111-.241-4.333,1.436,2.106,1.685,2.054,5.977,1.6,8.907-1.372,8.8-5.115,9.605-5.115,9.605,1.917,5.177,6.854,3.132,8.249-1a35.081,35.081,0,0,0,1.622-8.9l5.418,8.311s6.135-8.285,6.135-8.278c-1.011,14.652,4.022,18.806,8.422,18.806a6.468,6.468,0,0,0,5.9-4.028,8.934,8.934,0,0,1-6.031-3.058m13.743,4.766a3.691,3.691,0,0,1,.095.64c0,.065,0,7.666,0,7.757a1.27,1.27,0,0,0,2.535,0c0-.087,0-6.932,0-6.932a3.652,3.652,0,0,0-.22-1.69,2.045,2.045,0,0,0-1.854-1.039,1.591,1.591,0,0,0-1.185.591,1.158,1.158,0,0,1,.63.675m80.356,8.327a3.681,3.681,0,0,1-.095-.64c0-.065,0-7.665,0-7.755a1.27,1.27,0,0,0-2.536,0c0,.087,0,6.931,0,6.931a3.664,3.664,0,0,0,.221,1.691,2.046,2.046,0,0,0,1.855,1.039,1.589,1.589,0,0,0,1.184-.59,1.161,1.161,0,0,1-.63-.675m-45.864-5.658a2.882,2.882,0,0,0-2.319,1.471l-.008.005c0-.366,0-.657,0-.671a1.274,1.274,0,0,0-2.534,0c0,.086,0,4.853,0,4.917a1.269,1.269,0,0,0,2.534,0c0-.049,0-1.6,0-2.944l.01-.006c.109-.515.4-1.041.836-1.041.566,0,.6.63.6.63l-.005,3.361a1.269,1.269,0,0,0,2.534,0l0-1.757c0-1.806.189-3.974-1.645-3.966m32.4,0a2.882,2.882,0,0,0-2.319,1.471l-.008.005c0-.366,0-.657,0-.671a1.274,1.274,0,0,0-2.534,0c0,.086,0,4.853,0,4.917a1.269,1.269,0,0,0,2.534,0c0-.049,0-1.6,0-2.944l.01-.006c.109-.515.4-1.041.836-1.041.566,0,.6.63.6.63l-.005,3.361a1.269,1.269,0,0,0,2.534,0l0-1.757c0-1.806.189-3.974-1.645-3.966m-58.129,0a2.882,2.882,0,0,0-2.319,1.471l-.007.005c0-.366,0-.657,0-.671a1.274,1.274,0,0,0-2.534,0c0,.086,0,4.853,0,4.917a1.269,1.269,0,0,0,2.534,0c0-.049,0-1.6,0-2.944l.01-.006c.109-.515.4-1.041.836-1.041.566,0,.6.63.6.63l-.006,3.361a1.269,1.269,0,0,0,2.534,0l0-1.757c0-1.806.189-3.974-1.645-3.966m48.968,5.368v0h-.015v0c-.683-.013-1.024-.8-1.024-2.076s.432-2.063,1.024-2.077h.015c.59.014,1.022.8,1.022,2.077s-.341,2.063-1.022,2.076m-.026-5.686a3.609,3.609,0,1,0,3.61,3.609,3.609,3.609,0,0,0-3.61-3.609m-17.353,5.409h-.016c-.682-.01-1.022-.694-1.022-1.81s.432-1.8,1.022-1.809h.016c.591.013,1.024.7,1.024,1.809s-.343,1.8-1.024,1.81m3.873-4.373a1.335,1.335,0,0,0-2.666,0c0,.048-.006.152-.006.171a2.673,2.673,0,0,0-2.133-1.2c-3.051,0-3.244,5.434-1.152,6.778a2.925,2.925,0,0,0,2.154.3,2.216,2.216,0,0,0,1.2-.838,1.4,1.4,0,0,0,1.228.967,1.372,1.372,0,0,0,1.38-1.252c0-.091,0-4.869,0-4.93m28.5,4.373h-.016c-.682-.01-1.023-.694-1.023-1.81s.433-1.8,1.023-1.809h.016c.591.013,1.023.7,1.023,1.809s-.342,1.8-1.023,1.81m3.872-4.373a1.335,1.335,0,0,0-2.665,0c0,.048-.008.152-.008.171a2.67,2.67,0,0,0-2.133-1.2c-3.051,0-3.244,5.434-1.152,6.778a2.922,2.922,0,0,0,2.153.3,2.213,2.213,0,0,0,1.2-.838,1.4,1.4,0,0,0,1.228.967,1.371,1.371,0,0,0,1.38-1.252c0-.091,0-4.869,0-4.93m-23.3.68a1.243,1.243,0,0,0-1.148-1.176,1.072,1.072,0,0,0-.108-.011,1.291,1.291,0,0,0-1.275,1.1l0,2.337h0c.008.729,0,2.046,0,2.06a1.244,1.244,0,0,0,1.148,1.176.945.945,0,0,0,.108.011,1.292,1.292,0,0,0,1.275-1.1l0-1.952h0c-.009-.73,0-2.431,0-2.446m-.009-3.161a1.256,1.256,0,1,1-1.256-1.257,1.255,1.255,0,0,1,1.256,1.257m-25.674,1.676c-.753.031-1.125.591-1.637,1.3,0,.005,0-.326,0-.338a1.269,1.269,0,0,0-2.534,0v4.867h0a1.269,1.269,0,0,0,2.532.018h.005v-3.082c.038-.452.235-1.016.6-1.014.514,0-.017,1.248,1.162,1.248,1.692,0,1.873-3.077-.126-2.995m-9.054,2.963a2.219,2.219,0,0,1,.728-1.621.68.68,0,0,1,1.031.571,1.024,1.024,0,0,1-.86,1.053,4,4,0,0,1-.9,0m3.885,1.788s-.39.534-1.9.534a1.792,1.792,0,0,1-1.839-1.176c2.206,0,4.057-.148,4.057-1.934s-2.019-2.374-3.215-2.374a3.6,3.6,0,0,0,.02,7.187c2.749,0,2.88-2.236,2.88-2.236m-6.474.9a2.164,2.164,0,0,1-4.165-.833c0-.012-.008-1.856-.012-3.4h-.34a.5.5,0,0,1-.493-.569.515.515,0,0,1,.529-.561h.3c0-.539,0-.91,0-.933a1.274,1.274,0,0,1,2.543,0v.932h1.073a.568.568,0,0,1-.037,1.131h-1.036v2.831a1.475,1.475,0,0,0,1.641,1.4m33.9,0a2.164,2.164,0,0,1-4.165-.833c0-.012-.007-1.856-.012-3.4h-.34a.5.5,0,0,1-.493-.569.515.515,0,0,1,.529-.561h.3c0-.539,0-.91,0-.933a1.274,1.274,0,0,1,2.543,0v.932h1.073a.569.569,0,0,1-.037,1.131H341.6v2.831a1.475,1.475,0,0,0,1.641,1.4M245.986,614.87c0,.094.067.156.067.245a.416.416,0,0,1-.107.256,2.045,2.045,0,0,0-.234.3,3.369,3.369,0,0,1-.721.977,2.542,2.542,0,0,1-.534.349c-.24.135-.46.3-.7.439a1.65,1.65,0,0,1-.8.224c-.207,0-.416-.028-.611-.028s-.381.016-.578.016a1.439,1.439,0,0,1-.755-.153,2.523,2.523,0,0,1-.96-.753c0,.062,0,.126,0,.28a2.367,2.367,0,0,1-.033.431c-.038.194-.122.369-.312.369a.437.437,0,0,1-.332-.129.588.588,0,0,1-.173-.321,1.446,1.446,0,0,1-.046-.341c0-.157.031-.283.031-.53,0-.181,0-.629,0-1.112,0-.625.006-1.305.034-1.538a1.622,1.622,0,0,1,.092-.493.6.6,0,0,1,.133-.2.337.337,0,0,1,.187-.1.245.245,0,0,1,.16.105,1.037,1.037,0,0,1,.153.395c.02.151.032.495.039.865.006.27.012.555.019.788a1.376,1.376,0,0,0,.155.575c.121.195.26.318.38.506a.622.622,0,0,0,.494.367,6.975,6.975,0,0,0,.84.137c.223,0,.28-.093.475-.189s.476-.058.666-.176a1.556,1.556,0,0,0,.454-.438.879.879,0,0,0,.131-.435.766.766,0,0,0-.058-.278c-.079-.206-.209-.39-.305-.588a7.484,7.484,0,0,0-.315-.684,10.63,10.63,0,0,0-.993-1.158c-.321-.383-.665-.751-1.006-1.119a14.82,14.82,0,0,1-1.014-1.211,4.059,4.059,0,0,1-.553-1.439,5.34,5.34,0,0,1-.208-1.265,2.7,2.7,0,0,1,.491-1.452,3.082,3.082,0,0,1,1.076-1.066,2.386,2.386,0,0,1,1.19-.371c.289-.025.381-.156.718-.156a2.988,2.988,0,0,1,.594.1,3.911,3.911,0,0,1,.625.225,1.773,1.773,0,0,1,.656.371,1.746,1.746,0,0,1,.09-.6.6.6,0,0,1,.133-.2.463.463,0,0,1,.229-.1.242.242,0,0,1,.16.1,1.049,1.049,0,0,1,.153.4c.025.177.042.791.041,1.171,0,.34-.017.678-.017.89,0,.5.054.7.045,1.153-.005.211,0,.8-.347.8a.433.433,0,0,1-.331-.13.582.582,0,0,1-.173-.32,1.428,1.428,0,0,1-.045-.342c0-.156.031-.282.031-.529,0-.136,0-.384,0-.671a1.79,1.79,0,0,0-.079-.491,1.573,1.573,0,0,0-.339-.585,1.139,1.139,0,0,0-.519-.319,2.467,2.467,0,0,0-.646-.093,1.115,1.115,0,0,0-.7.2,1.414,1.414,0,0,0-.286.46,2.528,2.528,0,0,0-.264.62,2.039,2.039,0,0,0-.128.61,2,2,0,0,0,.1.329c.03.141-.014.3.02.432.047.189.272.327.408.458a3.156,3.156,0,0,1,.344.556,3.659,3.659,0,0,0,.583.622c.171.153.346.3.5.46.329.326.684.628.99.974.145.164.236.392.393.541.052.05.127.067.176.115a2.15,2.15,0,0,1,.168.26c.142.185.338.339.461.535a4.642,4.642,0,0,1,.24.621c.085.2.124.4.2.6a.6.6,0,0,1,.037.214,2.252,2.252,0,0,1-.07.431,1.4,1.4,0,0,0-.061.247Zm9.562-9.642c.188,0,.551.012.551.3a.456.456,0,0,1-.1.324.441.441,0,0,1-.247.168,1.028,1.028,0,0,1-.312.055l-.592,0a2.913,2.913,0,0,1,.044.432c0,.225-.038.45-.038.676a8.339,8.339,0,0,0,.1,1.032c.041.344.054.69.062,1.035.005.285.01.57.024.855.015.3.054.606.054.909s-.077.6-.077.9,0,.589,0,.88c0,.347-.008.695-.041,1.048-.027.283-.01.56-.022.842s-.045.571-.045.86c0,.264.1.611.1.927a.719.719,0,0,1-.211.564,1.318,1.318,0,0,1-.907.32,2.323,2.323,0,0,1-.787-.171,2.512,2.512,0,0,1-.716-.379,3.423,3.423,0,0,1-.9-1.346c-.247-.564-.5-1.127-.724-1.7q-.192-.489-.372-.982-.284-.782-.545-1.573-.17-.514-.337-1.028a5.123,5.123,0,0,0-.341-.834c-.049-.093-.1-.185-.145-.185-.063,0-.069.171-.069.258s.013.2.013.275c0,.325.044.633.049.957.01.629.067,1.252.109,1.88.013.188.017.377.017.566,0,.419-.021.837-.021,1.258,0,.493-.046.975-.046,1.463,0,.151,0,.3.016.456,0,.184-.04.361-.057.54.357-.011.674-.021.842-.021.188,0,.551.011.551.3a.457.457,0,0,1-.1.325.437.437,0,0,1-.247.169,1.034,1.034,0,0,1-.311.055l-.714-.006-.671-.006c-.214,0-.618.018-.834.018a2.663,2.663,0,0,1-.352-.02,1.2,1.2,0,0,1-.381-.085.509.509,0,0,1-.235-.3.206.206,0,0,1,.064-.154.665.665,0,0,1,.322-.151,7.152,7.152,0,0,1,.854-.091l.191,0c.013-.823.066-1.6.066-2.449,0-.24,0-.478-.014-.715q-.053-1.274-.052-2.549,0-.739.013-1.475.015-.811.039-1.622c.02-.644.042-1.29.066-1.941h-.578a2.571,2.571,0,0,1-.352-.021,1.228,1.228,0,0,1-.381-.084.511.511,0,0,1-.235-.3.208.208,0,0,1,.064-.154.655.655,0,0,1,.322-.151,10.192,10.192,0,0,1,1.063-.092c.114,0,.343-.01.592-.02.109-.1.224-.185.329-.264a.8.8,0,0,1,.482-.16.71.71,0,0,1,.635.36,5.85,5.85,0,0,1,.34.595c.111.276.182.559.308.829.107.23.174.469.268.7a6.751,6.751,0,0,1,.3.785c.07.269.159.531.231.8a2.448,2.448,0,0,0,.209.724,5.465,5.465,0,0,1,.659,1.544,3.3,3.3,0,0,0,.263.751,3.163,3.163,0,0,1,.244.826,2.963,2.963,0,0,0,.307.738c.059.114.144.213.2.327a3.584,3.584,0,0,1,.11.371c.06.165.105.366.177.523.035.078.073.119.108.119s.073-.039.1-.127a.735.735,0,0,0,.021-.183c0-.319-.019-.64-.019-.96,0-.655.035-1.305,0-1.959-.026-.6-.129-1.187-.129-1.793,0-.425,0-.851,0-1.274,0-.245,0-.489,0-.735,0-.378-.028-.758-.028-1.138a5.126,5.126,0,0,1,.031-.59c-.184.005-.391.016-.562.016a2.664,2.664,0,0,1-.353-.021,1.209,1.209,0,0,1-.381-.084.508.508,0,0,1-.236-.305.208.208,0,0,1,.065-.154.66.66,0,0,1,.321-.151,10.164,10.164,0,0,1,1.063-.092c.088,0,.239,0,.421-.008a.525.525,0,0,1,.374-.161.281.281,0,0,1,.286.141c.316-.01.614-.018.766-.018Zm10.139,12.093c0,.113-.081.158-.163.257a.578.578,0,0,1-.317.169,1.832,1.832,0,0,1-.478.055c-.129,0-.258-.012-.431-.012l-.155,0a1.66,1.66,0,0,1-.275.087,1.6,1.6,0,0,1-.314.041,2.1,2.1,0,0,1-.682-.113h-.439c-.432,0-.805,0-.956-.021a1.687,1.687,0,0,1-.494-.085c-.091-.042-.308-.172-.31-.3,0-.239.309-.277.493-.305.087-.013.278-.023.523-.032-.017-.137-.023-.278-.033-.365-.019-.177-.028-.358-.061-.514a1.219,1.219,0,0,1-.046-.251c0-.084.038-.206.037-.294,0-.1-.067-.167-.089-.314-.025-.21-.089-.419-.116-.629-.024-.188-.01-.354-.051-.544-.046-.21-.035-.418-.074-.629-.023-.126-.045-.168-.128-.168-.042,0-.105.021-.189.021-.21,0-.413.016-.615.032s-.4.032-.6.032c-.168,0-.335.02-.5.02-.075,0-.3-.034-.443-.035-.175,0-.184.136-.182.254a3.342,3.342,0,0,1-.115.662c-.077.356-.14.7-.211,1.067s-.23,1.051-.337,1.436c.175-.008.35-.011.6-.011s.69.012.718.326a.407.407,0,0,1-.122.3.581.581,0,0,1-.317.169,1.715,1.715,0,0,1-.4.055c-.12,0-.236-.012-.423-.012-.275,0-.555.018-.834.018a4.277,4.277,0,0,1-.457-.021,1.97,1.97,0,0,1-.494-.084c-.156-.063-.309-.233-.311-.3a.185.185,0,0,1,.081-.154.954.954,0,0,1,.413-.151c.251-.037.507-.053.76-.07a.377.377,0,0,1,0-.049,2.963,2.963,0,0,1,.075-.565c.075-.44.154-.859.229-1.3.056-.336.108-.692.191-1.048a2.549,2.549,0,0,0,.1-.5c0-.168-.38-.168-.528-.251-.127-.062-.191-.126-.192-.21,0-.167.164-.209.351-.251a1.266,1.266,0,0,0,.521-.147c.1-.084.1-.419.136-.565.119-.419.229-.84.335-1.236.118-.44.236-.859.333-1.278s.19-.836.272-1.256a8.18,8.18,0,0,1,.273-1.173,12.172,12.172,0,0,1,.46-1.215l.182-.377a1.122,1.122,0,0,1,.306-.481,1.966,1.966,0,0,1,1.105-.272,1.278,1.278,0,0,1,.589.126c.191.083.192.209.322.4a4.106,4.106,0,0,1,.278.357,3.177,3.177,0,0,1,.112.44c.09.292.078.627.142.942.07.335.207.627.247.963a9.06,9.06,0,0,0,.166,1.132,6.04,6.04,0,0,1,.187,1.088,3.548,3.548,0,0,0,.087.534c.053.238.115.473.144.7a4.975,4.975,0,0,0,.09.518.745.745,0,0,0,.176.382.432.432,0,0,0,.231.046c.072,0,.147,0,.21,0a.649.649,0,0,1,.528.23.284.284,0,0,1,.065.147.249.249,0,0,1-.122.188,1.623,1.623,0,0,1-.372.293.8.8,0,0,1-.208.037.277.277,0,0,0-.148.047c-.02.02-.02.042-.019.084a1.142,1.142,0,0,0,.044.226,1.268,1.268,0,0,1,.049.277l0,.23a1.019,1.019,0,0,0,.025.23,5.592,5.592,0,0,1,.136.566,5.362,5.362,0,0,0,.116.56,2.874,2.874,0,0,1,.092.592,2.389,2.389,0,0,0,.1.67c.019.073.039.152.052.233.151,0,.309-.006.487-.006.3,0,.586.142.589.367Zm-4.62-5.077c0-.083-.034-.275-.047-.355a4.433,4.433,0,0,1-.1-.712c-.01-.566-.02-1.153-.052-1.717a7.993,7.993,0,0,0-.1-.8,6.581,6.581,0,0,1-.1-.913c0-.1-.018-.467-.046-.742s-.072-.431-.163-.431c-.147,0-.33.335-.349.419-.059.209-.1.459-.156.67a2.077,2.077,0,0,0-.047.315,1.5,1.5,0,0,1-.067.335,4.034,4.034,0,0,0-.135.711,10.389,10.389,0,0,1-.374,1.4,5.965,5.965,0,0,0-.142.663,4.081,4.081,0,0,1-.189.762,2.43,2.43,0,0,0-.116.565c0,.063.042.063.127.063.125,0,.355-.021.418-.02a3.627,3.627,0,0,0,.443-.037,2.886,2.886,0,0,1,.352-.026c.125,0,.293.021.46.021a.67.67,0,0,0,.293-.041.163.163,0,0,0,.081-.126m11.776,4.7c0,.21,0,.8-.332.8a.413.413,0,0,1-.32-.13.589.589,0,0,1-.166-.321,3.152,3.152,0,0,1-.018-.917,5.6,5.6,0,0,1-.531.7,2.274,2.274,0,0,1-1.614.681,2.7,2.7,0,0,1-.423-.034,4.561,4.561,0,0,1-1.373-.459,3.449,3.449,0,0,1-.91-.674,3.124,3.124,0,0,1-.62-1.019,5.491,5.491,0,0,1-.312-1.273,10.192,10.192,0,0,1-.1-1.413c0-.467.024-.925.061-1.389.035-.438.023-.877.1-1.311a10.391,10.391,0,0,1,.384-1.357c.15-.466.284-.925.468-1.354a4.062,4.062,0,0,1,.721-1.07,9.253,9.253,0,0,1,.843-.966,2.55,2.55,0,0,1,1.077-.5,3.445,3.445,0,0,1,.877-.152,1.34,1.34,0,0,1,.352.044,1.322,1.322,0,0,1,.4.272c.167.127.181.28.325.433a2.386,2.386,0,0,1,.242.443c.005-.167.012-.411.022-.5a1.7,1.7,0,0,1,.09-.493.611.611,0,0,1,.127-.2.325.325,0,0,1,.18-.1.238.238,0,0,1,.154.105,1.06,1.06,0,0,1,.147.4c.02.15.031.494.039.864.01.484.013,1.012.03,1.208a8.348,8.348,0,0,1,.038,1.009c0,.043.006.088.006.132a1.025,1.025,0,0,1-.029.255c-.032.213-.11.42-.309.42a.41.41,0,0,1-.319-.13.585.585,0,0,1-.166-.32,2.878,2.878,0,0,1-.015-.871c0-.047,0-.108,0-.179a10.532,10.532,0,0,0-.325-1.1c-.1-.305-.531-.8-.91-.8a1.021,1.021,0,0,0-.607.28,2.726,2.726,0,0,0-.195.194c-.058.057-.163.122-.2.187-.072.13-.023.349-.078.5a3.963,3.963,0,0,0-.193.65c-.081.413-.183.828-.26,1.246a5.955,5.955,0,0,0-.121,1.264c0,.07.026.152.026.224,0,.109-.06.185-.063.3s.033.243.041.363a.5.5,0,0,1-.019.187.8.8,0,0,0-.053.234.735.735,0,0,0,.026.173,1.039,1.039,0,0,1,.02.208c0,.119-.012.24-.012.359,0,.466.168.9.185,1.366a6.855,6.855,0,0,0,.14,1.367c.044.19.044.4.1.586a5.381,5.381,0,0,0,.286.524.939.939,0,0,0,.843.651,1.554,1.554,0,0,0,1.077-.736,2.679,2.679,0,0,0,.331-.7c0-.548.01-1.167.033-1.365a1.675,1.675,0,0,1,.089-.493.629.629,0,0,1,.127-.2.329.329,0,0,1,.181-.1.237.237,0,0,1,.153.105,1.058,1.058,0,0,1,.147.4c.021.15.031.913.039,1.283.01.485.014,1.013.03,1.208a8.442,8.442,0,0,1,.038,1.017m6.835-6.567c-.138.229-.385.5-.385.762,0,.179.349.193.711.351a2.153,2.153,0,0,1,.989.885c.1.2.2.4.289.6a2.774,2.774,0,0,1,.224.712,1.969,1.969,0,0,0,.175.617,4.421,4.421,0,0,1,.181.723c.048.184.038.414.1.587a2.239,2.239,0,0,0,.167.245,1.652,1.652,0,0,1,.169.308,3.932,3.932,0,0,0,.254.541c.092.212.2.258.408.365a.4.4,0,0,1,.21.338.289.289,0,0,1-.037.144.756.756,0,0,1-.623.244,3.855,3.855,0,0,1-.981-.143,2.872,2.872,0,0,1-.966-.656,2.06,2.06,0,0,1-.4-.5,6.162,6.162,0,0,1-.294-.625,11.848,11.848,0,0,1-.375-1.172c-.1-.3-.161-.617-.231-.93-.043-.189-.088-.375-.149-.559q-.076-.222-.168-.438c-.09-.212-.193-.4-.345-.4a.27.27,0,0,0-.193.106,4.669,4.669,0,0,0-.33.414,1.482,1.482,0,0,0-.249.667,3.778,3.778,0,0,0-.047.454c0,.034,0,.067.005.1.012.109.019.426.018.618,0,.575.036.92,0,1.494-.012.19-.024.382-.054.569.2,0,.366-.006.466-.006.252,0,.742.012.742.3a.383.383,0,0,1-.134.325.619.619,0,0,1-.332.169,1.85,1.85,0,0,1-.42.055l-.719,0a.6.6,0,0,1-.4.144,1.273,1.273,0,0,1-.526-.139h-.3l-1.038,0a4.365,4.365,0,0,1-.476-.022,2.062,2.062,0,0,1-.512-.084c-.161-.063-.318-.232-.318-.3a.185.185,0,0,1,.088-.153,1.03,1.03,0,0,1,.432-.151,8.438,8.438,0,0,1,.882-.092c.092,0,.225,0,.384,0a.743.743,0,0,0-.052-.123,2.613,2.613,0,0,1-.282-1.36c0-.565.014-1.132.028-1.7.016-.612.033-1.224.033-1.834,0-.515-.042-1.026-.042-1.541,0-.487.056-.967.056-1.458,0-.3.045-.595.045-.9,0-.237-.036-.473-.041-.71-.011-.418,0-.8,0-1.2a.907.907,0,0,1-.224.015,4.669,4.669,0,0,1-.475-.021,2.208,2.208,0,0,1-.513-.084c-.16-.063-.317-.233-.317-.306a.182.182,0,0,1,.087-.153,1.029,1.029,0,0,1,.432-.151,9.787,9.787,0,0,1,1.013-.082l.143,0a.589.589,0,0,1,.469-.223.774.774,0,0,1,.158.013,1.988,1.988,0,0,1,.542.185c.649-.014,1.341-.029,1.592-.029s.742.011.742.3a.383.383,0,0,1-.133.325.626.626,0,0,1-.333.168,1.852,1.852,0,0,1-.439.056l-.9,0a1.007,1.007,0,0,1,.148.481c0,.09-.019.175-.019.285a.845.845,0,0,0,.04.184c.042.193.049.4.082.609a1.181,1.181,0,0,1,.015.195c0,.136-.017.273-.017.41a6.764,6.764,0,0,0,.1.849c.028.218.117.421.159.636a2.722,2.722,0,0,1,.054.514c0,.061,0,.122-.008.184a3.07,3.07,0,0,0-.01.382c0,.114-.028.265-.028.392,0,.081.027.248.11.248s.181-.147.232-.25c.12-.242.234-.485.353-.727q.131-.265.278-.522c.168-.3.345-.591.507-.892q.195-.361.385-.725.262-.5.517-1,.279-.549.549-1.1l.037-.078a2.192,2.192,0,0,1-.293-.021,1.117,1.117,0,0,1-.366-.084.509.509,0,0,1-.226-.3.209.209,0,0,1,.062-.154.624.624,0,0,1,.309-.151,4.534,4.534,0,0,1,.717-.092l.266,0a.826.826,0,0,1,.071-.046.522.522,0,0,1,.268-.072,1.715,1.715,0,0,1,.291.04.189.189,0,0,1,.123.056c.351-.011.683-.022.851-.022s.529.012.529.3a.469.469,0,0,1-.1.326.418.418,0,0,1-.238.168.966.966,0,0,1-.3.055l-.826-.006a4.908,4.908,0,0,1-.23.433c-.2.379-.351.762-.546,1.135-.223.428-.378.909-.571,1.354a11.944,11.944,0,0,1-.766,1.377m8.513,6.419c.26,0,.77.013.741.326a.415.415,0,0,1-.132.3.628.628,0,0,1-.332.168,1.816,1.816,0,0,1-.42.055c-.057,0-.43-.015-.82-.008-.482.008-1,.038-1.108.038-.286,0-.767-.023-1.058-.023q-.238,0-.474-.022a2.111,2.111,0,0,1-.513-.084c-.16-.063-.317-.233-.317-.3a.183.183,0,0,1,.087-.154,1.043,1.043,0,0,1,.432-.15,9.248,9.248,0,0,1,.926-.092l.2,0a.609.609,0,0,1-.24-.45,1.134,1.134,0,0,0-.04-.291.776.776,0,0,1-.022-.193c0-.06,0-.12.008-.182q.018-.369.011-.739c-.018-.97.032-1.937.008-2.906-.013-.514,0-1.025.017-1.536.014-.443.03-.886.033-1.33q0-.365,0-.729c0-.3,0-.611,0-.915,0-.43-.013-.862,0-1.292,0-.063.006-.126.012-.189l-.133,0a4.635,4.635,0,0,1-.476-.022,2.062,2.062,0,0,1-.512-.084c-.161-.063-.318-.233-.318-.3a.191.191,0,0,1,.045-.175,1.05,1.05,0,0,1,.453-.13c.34-.047.793-.087.967-.091q-.005-.055-.006-.11a.34.34,0,0,1,.066-.232.969.969,0,0,1,.283-.154,1.286,1.286,0,0,1,.317-.1,1.77,1.77,0,0,1,.287-.025,1.542,1.542,0,0,1,.383.047,1.119,1.119,0,0,1,.709.541c.409-.006.763-.012.932-.012.259,0,.771.013.741.325a.419.419,0,0,1-.132.3.633.633,0,0,1-.333.168,1.855,1.855,0,0,1-.42.055l-.585,0,0,.039c.034.238.075.475.106.713a5.286,5.286,0,0,1,.05.71c0,.231-.013.453-.013.689,0,.116-.023.226-.023.346a1.852,1.852,0,0,0,.032.286,12.754,12.754,0,0,1,.085,1.449c.02.536.03,1.071.04,1.607.009.437.017.874.031,1.31.014.487.094.97.106,1.457.006.232.017.466.024.7s.009.5-.008.743a2.4,2.4,0,0,1-.1.671c.17,0,.308,0,.4,0h0Zm10.229-11.559c.188,0,.551.012.551.3a.455.455,0,0,1-.1.324.442.442,0,0,1-.247.168,1.025,1.025,0,0,1-.312.055l-.592,0a2.907,2.907,0,0,1,.044.432c0,.225-.038.45-.038.676a8.419,8.419,0,0,0,.1,1.031c.042.344.055.69.063,1.036.005.285.01.57.024.855.014.3.054.606.054.909s-.077.6-.077.9,0,.59,0,.881c0,.347-.007.695-.041,1.048-.027.283-.01.56-.022.842s-.045.571-.045.86c0,.264.1.611.1.927a.718.718,0,0,1-.211.564,1.317,1.317,0,0,1-.907.321,2.325,2.325,0,0,1-.787-.171,2.513,2.513,0,0,1-.716-.379,3.42,3.42,0,0,1-.9-1.346c-.247-.564-.5-1.127-.724-1.7q-.192-.489-.372-.982-.283-.783-.545-1.573c-.114-.343-.226-.686-.337-1.028a5.128,5.128,0,0,0-.342-.834c-.048-.093-.1-.185-.145-.185-.064,0-.069.171-.069.258s.013.2.013.275c0,.325.044.633.049.957.01.629.067,1.252.109,1.88.013.188.017.377.017.566,0,.419-.021.837-.021,1.258,0,.493-.046.975-.046,1.462,0,.151,0,.3.016.456,0,.185-.04.361-.056.54.357-.011.674-.021.842-.02.188,0,.551.011.551.3a.457.457,0,0,1-.1.325.437.437,0,0,1-.247.169,1.04,1.04,0,0,1-.311.055l-.714-.006-.671-.007c-.214,0-.618.018-.834.018a2.662,2.662,0,0,1-.352-.02,1.206,1.206,0,0,1-.382-.085.508.508,0,0,1-.235-.3.208.208,0,0,1,.064-.154.665.665,0,0,1,.322-.151,7.16,7.16,0,0,1,.854-.091l.191,0c.013-.823.066-1.6.066-2.449,0-.239,0-.478-.013-.715q-.053-1.274-.052-2.549,0-.739.013-1.475.014-.811.039-1.622c.02-.644.042-1.29.066-1.941h-.578a2.578,2.578,0,0,1-.352-.021,1.229,1.229,0,0,1-.381-.084.511.511,0,0,1-.235-.3.208.208,0,0,1,.064-.154.656.656,0,0,1,.322-.151,10.226,10.226,0,0,1,1.063-.092c.114,0,.343-.01.592-.02.109-.1.224-.184.329-.264a.8.8,0,0,1,.482-.16.71.71,0,0,1,.635.36,5.814,5.814,0,0,1,.34.595c.111.276.182.559.308.829.107.23.174.469.268.7a6.755,6.755,0,0,1,.3.785c.07.269.159.531.231.8a2.449,2.449,0,0,0,.209.724,5.473,5.473,0,0,1,.659,1.544,3.289,3.289,0,0,0,.263.751,3.171,3.171,0,0,1,.244.826,2.964,2.964,0,0,0,.306.739c.059.113.144.212.2.326a3.574,3.574,0,0,1,.11.371c.06.165.105.366.177.523.036.077.073.119.108.119s.073-.039.1-.127a.711.711,0,0,0,.02-.183c0-.319-.018-.64-.018-.96,0-.655.035-1.305,0-1.959-.026-.6-.128-1.187-.128-1.793,0-.425,0-.85,0-1.274,0-.245,0-.489,0-.735,0-.378-.028-.758-.028-1.138a5.122,5.122,0,0,1,.031-.59c-.185,0-.391.016-.562.016a2.667,2.667,0,0,1-.353-.021,1.214,1.214,0,0,1-.381-.084.509.509,0,0,1-.236-.3.208.208,0,0,1,.065-.154.659.659,0,0,1,.321-.151,10.184,10.184,0,0,1,1.063-.092c.088,0,.239,0,.421-.008a.524.524,0,0,1,.374-.161.281.281,0,0,1,.286.141c.316-.01.614-.018.767-.018Zm9.221,7.03c0,.19-.21.329-.365.4a2.91,2.91,0,0,1-.81.19c-.218.026-.353.04-.353.245,0,.153.034.515.034.64,0,.07,0,.56,0,.63,0,.132.008.28.012.433.01.485.014,1.076.03,1.271a8.4,8.4,0,0,1,.038,1.015c0,.212,0,.8-.332.8a.411.411,0,0,1-.319-.13.585.585,0,0,1-.166-.321,1.456,1.456,0,0,1-.044-.342c0-.156.03-.283.029-.529v-.052a1.977,1.977,0,0,1-.721,1,2.155,2.155,0,0,1-1.482.553,3.46,3.46,0,0,1-1.1-.18,2.656,2.656,0,0,1-1.028-.645,5.566,5.566,0,0,1-.983-1.458,4.461,4.461,0,0,1-.4-1.265c-.054-.3-.093-.6-.137-.908a4.842,4.842,0,0,1-.027-.781,14.892,14.892,0,0,1,.539-3.279c.12-.523.243-1.06.409-1.581a5.861,5.861,0,0,1,.738-1.57,6.285,6.285,0,0,1,1-1.189,1.546,1.546,0,0,1,.593-.316,3.373,3.373,0,0,1,.828-.242l.134,0a2.443,2.443,0,0,1,.418.043,1.92,1.92,0,0,1,.673.221,1.146,1.146,0,0,1,.4.419,1.109,1.109,0,0,1,.074-.353.635.635,0,0,1,.128-.2.325.325,0,0,1,.18-.1c.062,0,.131.073.153.105a1.061,1.061,0,0,1,.147.4c.021.15.031.494.039.863.01.485.013,1.013.03,1.209a8.79,8.79,0,0,1,.039,1.016c-.005.211,0,.8-.333.8a.414.414,0,0,1-.319-.129.574.574,0,0,1-.166-.322,1.7,1.7,0,0,1-.028-.323c0-.151.013-.311.014-.537q-.02-.2-.042-.392c-.031-.287-.08-.574-.123-.852a1.953,1.953,0,0,0-.311-.756.713.713,0,0,0-.571-.234.631.631,0,0,0-.577.356,3.837,3.837,0,0,0-.407.635,3.3,3.3,0,0,0-.159.79,3.714,3.714,0,0,1-.147.755c-.083.284-.1.593-.16.883a7.848,7.848,0,0,0-.1.791c-.023.247-.1.485-.123.733-.03.282-.067.561-.1.842s-.068.536-.093.806c-.024.238-.057.478-.057.719,0,.34.045.676.059,1.016a9.433,9.433,0,0,0,.252,1.373c.033.179.072.361.122.537a2.448,2.448,0,0,0,.279.655,1.174,1.174,0,0,0,.876.621.931.931,0,0,0,.706-.484,3.23,3.23,0,0,0,.475-1.219,9.216,9.216,0,0,0,.13-1.15c.018-.264.026-.634.027-.9,0-.047,0-.1,0-.148,0-.2-.009-.264-.3-.264-.232,0-.482.033-.728.033a1.349,1.349,0,0,1-.612-.12c-.079-.04-.124-.085-.127-.14a.212.212,0,0,1,.07-.146.994.994,0,0,1,.364-.209,2.907,2.907,0,0,1,.852-.208c.272-.043.549-.064.805-.086q.316-.025.633-.025c.318,0,.815-.03,1.019-.03.233,0,.5.079.5.317m13.891,4.534c.252,0,.742.012.742.3a.382.382,0,0,1-.134.324.623.623,0,0,1-.332.168,1.833,1.833,0,0,1-.421.055l-.588,0a1.891,1.891,0,0,1-.894.243,1.292,1.292,0,0,1-.537-.11,1.045,1.045,0,0,1-.229-.141c-.25,0-.479.017-.737.017-.159,0-.318-.005-.476-.021a2.113,2.113,0,0,1-.513-.084c-.16-.063-.317-.233-.317-.3a.184.184,0,0,1,.087-.154,1.067,1.067,0,0,1,.432-.151c.361-.05.859-.091,1.006-.091h.071q-.032-.126-.053-.254a16.8,16.8,0,0,1-.167-1.678c-.042-.658-.026-1.322-.056-1.968-.028-.586-.04-1.172-.054-1.757s-.028-1.146-.058-1.718c-.027-.528-.068-1.246-.068-1.447,0-.094-.024-.145-.057-.145s-.041.029-.056.087c-.059.233-.076.478-.128.714-.113.523-.215,1.049-.334,1.572a14.212,14.212,0,0,0-.305,1.522,5.359,5.359,0,0,1-.153.755c-.066.253-.138.505-.189.767a2.091,2.091,0,0,1-.242.765.747.747,0,0,1-.678.309,1.646,1.646,0,0,1-1.1-.419,2.814,2.814,0,0,1-.606-1.395c-.131-.526-.23-1.062-.342-1.591-.022-.105-.108-.558-.219-1.112-.1-.5-.224-1.091-.336-1.575a8.471,8.471,0,0,0-.221-.826c-.032-.093-.04-.125-.061-.125-.043,0-.067.123-.081.33-.012.176-.016.435-.02.481-.016.235-.034.473-.034.709,0,.189-.016.512-.037.867-.019.317-.042.658-.059.945-.015.251-.032.506-.037.757,0,.224-.042.426-.042.644,0,.169,0,.338,0,.507a4.179,4.179,0,0,1-.021.457c-.031.295-.082.589-.129.881-.095.583-.159,1.174-.2,1.763-.02.251,0,.575-.03.886q-.01.135-.033.268c.422-.011.826-.02,1-.02.2,0,.618.052.618.343,0,.17-.108.165-.191.282a.478.478,0,0,1-.267.168,1.15,1.15,0,0,1-.339.056c-.1,0-1.112-.012-1.268-.012-.231,0-.9.019-1.134.018a3.154,3.154,0,0,1-.382-.021,1.464,1.464,0,0,1-.412-.084.432.432,0,0,1-.214-.306.2.2,0,0,1,.07-.153.6.6,0,0,1,.306-.151,9.279,9.279,0,0,1,.977-.092l.308,0c.017-.506.087-1.011.126-1.515.051-.635.088-1.271.118-1.907.027-.531.05-1.062.073-1.593.033-.755.069-1.509.119-2.263q.038-.57.09-1.14c.055-.6.128-.969.215-1.566.041-.279.061-.6.1-.879,0-.023.007-.046.01-.068-.125.006-.222.014-.413.014a4.5,4.5,0,0,1-.474-.022,2.1,2.1,0,0,1-.513-.085c-.16-.063-.317-.232-.317-.3a.182.182,0,0,1,.086-.153,1.032,1.032,0,0,1,.432-.151c.36-.052.858-.092,1.005-.092.417,0,.749-.048,1.237-.047h.183a1.254,1.254,0,0,1,.538.084,1.46,1.46,0,0,1,.733.948c.137.5.363,1.022.5,1.562.061.241.031.481.107.72a5,5,0,0,1,.2.849,2.365,2.365,0,0,0,.147.7,2.418,2.418,0,0,1,.168.674c.015.087.137.456.229.75.087.273.141.475.205.475.129,0,.172-.636.192-.749.054-.292.105-.585.16-.877.111-.6.233-1.2.355-1.8.124-.617.233-1.239.38-1.85a2.95,2.95,0,0,1,.67-1.373,1.306,1.306,0,0,1,.908-.426.8.8,0,0,1,.45.112l1.352,0c.259,0,.741.013.74.326a.366.366,0,0,1-.132.3.626.626,0,0,1-.333.168,1.829,1.829,0,0,1-.42.056q-.263,0-.525-.007a.486.486,0,0,1,.042.136c.042.258.075.522.105.786s.061.554.1.828a4.568,4.568,0,0,1,.085.575c0,.032,0,.064,0,.1q-.009.094-.009.188a5.151,5.151,0,0,0,.046.574c.028.251.086.51.089.763,0,.077-.018.157-.018.236a1.672,1.672,0,0,0,.1.346,1.274,1.274,0,0,1,.027.225c.008.154,0,.314,0,.478s.006.322.019.481c.014.177.038.353.07.53a2.017,2.017,0,0,1,.041.4c0,.077-.016.149-.016.25a.318.318,0,0,0,.032.165,1.716,1.716,0,0,1,.089.393q.043.345.078.692c.031.3.058.593.082.888,0,.039,0,.078,0,.114,0,.108-.02.21-.02.313a1.475,1.475,0,0,0,.058.465.891.891,0,0,1,.031.225c0,.1-.007.189-.007.285a1.1,1.1,0,0,0,.013.175,2.376,2.376,0,0,1,.036.394c0,.034,0,.069,0,.1h.214Zm10.86.533c0,.113-.081.158-.163.257a.576.576,0,0,1-.317.169,1.83,1.83,0,0,1-.478.055c-.129,0-.258-.012-.431-.012l-.154,0a1.655,1.655,0,0,1-.275.087,1.591,1.591,0,0,1-.314.042,2.093,2.093,0,0,1-.682-.113h-.439c-.432,0-.805,0-.956-.021a1.7,1.7,0,0,1-.494-.085c-.091-.043-.308-.172-.31-.3,0-.239.309-.277.494-.305.086-.013.277-.022.522-.032-.017-.137-.023-.278-.033-.365-.019-.177-.028-.358-.061-.514a1.224,1.224,0,0,1-.046-.251c0-.084.038-.207.037-.294,0-.1-.067-.167-.089-.313-.025-.21-.089-.419-.116-.629-.024-.188-.01-.354-.051-.544-.046-.21-.035-.418-.074-.629-.023-.126-.045-.168-.128-.168-.042,0-.1.021-.189.021-.21,0-.413.016-.615.032s-.4.032-.6.032c-.168,0-.335.021-.5.021-.075,0-.3-.035-.443-.036-.175,0-.184.136-.182.254a3.317,3.317,0,0,1-.115.661c-.078.356-.14.7-.211,1.067s-.23,1.052-.337,1.436c.176-.008.35-.011.6-.011s.69.012.718.326a.408.408,0,0,1-.122.3.583.583,0,0,1-.317.169,1.709,1.709,0,0,1-.4.055c-.12,0-.237-.012-.423-.012-.275,0-.555.018-.834.018a4.293,4.293,0,0,1-.457-.021,1.944,1.944,0,0,1-.494-.084c-.156-.063-.309-.233-.311-.3a.186.186,0,0,1,.081-.154.954.954,0,0,1,.413-.15c.251-.037.507-.053.761-.071a.357.357,0,0,1,0-.049,2.956,2.956,0,0,1,.075-.565c.075-.44.154-.859.229-1.3.057-.336.108-.692.191-1.048a2.543,2.543,0,0,0,.1-.5c0-.168-.38-.168-.528-.251-.127-.062-.191-.126-.191-.21,0-.167.163-.209.351-.251a1.264,1.264,0,0,0,.521-.147c.1-.083.1-.419.136-.565.119-.419.229-.84.335-1.236.118-.44.236-.859.334-1.277s.191-.838.272-1.256a8.187,8.187,0,0,1,.273-1.173,11.98,11.98,0,0,1,.461-1.215l.181-.377a1.121,1.121,0,0,1,.306-.481,1.967,1.967,0,0,1,1.106-.272,1.274,1.274,0,0,1,.587.126c.191.083.193.209.322.4a4.108,4.108,0,0,1,.278.357,3.375,3.375,0,0,1,.112.44c.089.292.077.627.141.942.069.335.207.627.247.963a9.016,9.016,0,0,0,.166,1.132,6.046,6.046,0,0,1,.187,1.088,3.521,3.521,0,0,0,.087.534c.053.238.115.473.144.7a4.945,4.945,0,0,0,.09.518.743.743,0,0,0,.176.382.432.432,0,0,0,.231.046c.072,0,.147,0,.21,0a.649.649,0,0,1,.528.23.286.286,0,0,1,.065.147.244.244,0,0,1-.122.188,1.611,1.611,0,0,1-.372.293.809.809,0,0,1-.207.036.275.275,0,0,0-.148.047c-.019.021-.019.042-.019.084a1.114,1.114,0,0,0,.044.227,1.28,1.28,0,0,1,.048.276l0,.23a1.029,1.029,0,0,0,.025.23,5.664,5.664,0,0,1,.136.566,5.359,5.359,0,0,0,.116.56,2.875,2.875,0,0,1,.092.592,2.391,2.391,0,0,0,.1.67c.019.073.039.152.052.233.151,0,.309-.006.487-.006.3,0,.586.142.59.367Zm-4.62-5.078c0-.083-.035-.275-.048-.355a4.4,4.4,0,0,1-.1-.712c-.01-.566-.02-1.153-.051-1.717a7.942,7.942,0,0,0-.1-.8,6.615,6.615,0,0,1-.1-.913c0-.1-.018-.467-.046-.742s-.072-.431-.163-.431c-.147,0-.33.335-.349.419-.059.209-.1.459-.156.67a2.072,2.072,0,0,0-.047.315,1.472,1.472,0,0,1-.067.335,4.056,4.056,0,0,0-.135.712,10.4,10.4,0,0,1-.374,1.4,5.949,5.949,0,0,0-.142.663,4.1,4.1,0,0,1-.189.762,2.437,2.437,0,0,0-.116.565c0,.062.042.062.127.062.125,0,.356-.021.418-.021a3.443,3.443,0,0,0,.443-.036,2.886,2.886,0,0,1,.352-.026c.125,0,.293.021.46.021a.669.669,0,0,0,.293-.041.165.165,0,0,0,.082-.126m14.139-.7c0,.072.041.277.041.4a3,3,0,0,1-.117.478c-.026.173,0,.353-.026.527a3.4,3.4,0,0,1-.1.354,3.458,3.458,0,0,1-.1.345,2.865,2.865,0,0,0-.132.555,2.4,2.4,0,0,1-.148.528,2.968,2.968,0,0,1-.282.425c-.076.113-.083.242-.16.354-.1.137-.281.469-.381.6a4.54,4.54,0,0,1-1.08,1.038,2.005,2.005,0,0,1-.724.312,2.92,2.92,0,0,1-.737.116c-.206,0-.4-.07-.579-.07-.543,0-.342.047-.893.049a.53.53,0,0,1-.31.322,1.907,1.907,0,0,1-.3.065c-.1.021-.211.033-.32.051a2.2,2.2,0,0,1-.253.028.9.9,0,0,1-.373-.112c-.113-.076-.224-.165-.365-.27a1.438,1.438,0,0,1-.12-.1,2.159,2.159,0,0,1-.278.018c-.159,0-.317-.006-.474-.02a2.13,2.13,0,0,1-.513-.084c-.16-.062-.317-.228-.317-.3,0-.128.01-.172.086-.234a1.059,1.059,0,0,1,.432-.148c.222-.031.514-.054.74-.07a3.3,3.3,0,0,1-.026-.5c0-.851-.03-1.685-.03-2.53,0-.337.048-1.163.069-2.393.016-.877.037-1.752.037-2.636,0-.485.009-1.075.036-1.665.015-.339.052-.675.068-1.015l-.106,0a4.655,4.655,0,0,1-.476-.022,2.1,2.1,0,0,1-.512-.082c-.161-.063-.318-.229-.318-.3a.329.329,0,0,1,.087-.235,1.056,1.056,0,0,1,.432-.147,8.671,8.671,0,0,1,.979-.09.574.574,0,0,1,.111-.154,1.141,1.141,0,0,1,.3-.175,1.267,1.267,0,0,1,.317-.1,1.691,1.691,0,0,1,.287-.025,1.524,1.524,0,0,1,.383.047.885.885,0,0,1,.521.365q.188-.009.376-.01c.373,0,.719.107,1.324.107.344,0,.645.182.986.182a1.07,1.07,0,0,1,.508.094,3.018,3.018,0,0,1,.405.359,1.465,1.465,0,0,1,.339.314,3.378,3.378,0,0,0,.173.362,1.6,1.6,0,0,0,.491.395c.176.109.1.373.2.555a6.363,6.363,0,0,1,.682,1.174,3.837,3.837,0,0,1,.133,1.047c0,.248-.014.493-.014.741a2.346,2.346,0,0,0,.052.514.724.724,0,0,1,.018.154c0,.171-.054.31-.054.512m-2.386.025c0-.208-.023-.618-.064-1.082-.048-.536-.107-.934-.118-1.039a12.74,12.74,0,0,0-.415-2.154,1.71,1.71,0,0,0-.7-1.132,2.509,2.509,0,0,0-1.122-.262c-.23,0-.354.049-.4.179a8.2,8.2,0,0,0-.04,1.044c-.019,1.141-.019,2.812-.045,3.058a4.353,4.353,0,0,0-.02.436c0,.27.018.541.028.807q.019.542.027,1.083c0,.307.007.614.007.919,0,.414.042,1.3.026,1.716-.006.154-.038.315-.038.467,0,.094-.063.678-.063.987,0,.1.018.163.137.163.145,0,.237,0,.3,0,.183.006.116.018.409.018a5.626,5.626,0,0,0,.533-.245,1.648,1.648,0,0,0,.292-.131.993.993,0,0,0,.292-.4c.11-.2.216-.4.31-.6a2.375,2.375,0,0,0,.38-1.226c.051-.48.18-.928.223-1.361a12.386,12.386,0,0,0,.061-1.252m10.49,5.015a.221.221,0,0,1,.1.194.547.547,0,0,1-.265.422,1.273,1.273,0,0,1-.492.147c-.379.067-.761.076-1.138.138-.187.031-.372.066-.561.09-.14.018-.528.023-.783.026a1.564,1.564,0,0,1-.235.036h-.22a.532.532,0,0,1-.289.223,2.234,2.234,0,0,1-.337.066c-.115.021-.233.032-.352.049a2.662,2.662,0,0,1-.28.027,1.084,1.084,0,0,1-.412-.112c-.123-.076-.243-.161-.395-.265h-.232c-.275,0-.074.019-.353.019a4.141,4.141,0,0,1-.457-.022,1.964,1.964,0,0,1-.493-.084.626.626,0,0,1-.305-.367.188.188,0,0,1,.083-.154,1,1,0,0,1,.415-.151c.277-.039.587-.074.86-.086-.012-.308,0-.742,0-1.189,0-.676-.025-1.383-.03-1.58,0-.1-.006-.7-.027-1.1s-.028-.779-.032-1.17c0-.153-.011-.306-.011-.459,0-.233.047-.464.048-.7,0-.17-.017-.339-.017-.508a4.584,4.584,0,0,1,.053-.637,10.326,10.326,0,0,0,.118-1.13c.01-.419,0-.837,0-1.256,0-.33.008-.661.041-.991a1.691,1.691,0,0,1-.26.017,4.451,4.451,0,0,1-.457-.021,1.955,1.955,0,0,1-.494-.084.623.623,0,0,1-.3-.368.184.184,0,0,1,.083-.153.968.968,0,0,1,.415-.151,11.286,11.286,0,0,1,1.128-.092c0-.007,0-.014.006-.021.022-.074.1-.113.161-.153a1.62,1.62,0,0,1,.482-.172,1.68,1.68,0,0,1,.4-.066.689.689,0,0,1,.146.014,1.166,1.166,0,0,1,.218.089,2.1,2.1,0,0,0,.261.088c.174.049.336.135.511.176a.724.724,0,0,0,.18.019c.117,0,.237-.017.348-.019.191,0,.8,0,.99,0s.354.014.531.028c.2.016.406.04.608.073q.184.029.366.07a.364.364,0,0,1,.191-.131.187.187,0,0,1,.154.083.841.841,0,0,1,.182.391c.052.556.03.307.06.65a6.654,6.654,0,0,1,.047.9c0,.242-.012.713-.3.713a.389.389,0,0,1-.324-.128.593.593,0,0,1-.168-.32,1.715,1.715,0,0,1-.055-.4c0-.121.012-.236.012-.423s.013-.365,0-.546a2.441,2.441,0,0,1-.5.053,4.759,4.759,0,0,0-.636.038,8.78,8.78,0,0,1-1,.074c-.09,0-.181.022-.27.035a.282.282,0,0,0-.2.09.384.384,0,0,0-.039.22,2.348,2.348,0,0,0,.028.292c.019.189.021.379.026.569,0,.133,0,.267,0,.4,0,.242,0,.485-.011.726-.005.185-.039.368-.044.554s0,.381-.006.571q0,.142-.009.285a.544.544,0,0,0,0,.226c.03.062.108.061.167.066.094.009.188.023.281.025a7.741,7.741,0,0,1,.938.044,3.948,3.948,0,0,0,.5.052c0-.036,0-.07,0-.107a4.081,4.081,0,0,1,.022-.457,1.93,1.93,0,0,1,.085-.492c.064-.154.232-.305.3-.305a.185.185,0,0,1,.153.083.968.968,0,0,1,.151.415c.052.346.062.7.092,1.046a10.425,10.425,0,0,1,.047,1.107c0,.242-.012.713-.3.713a.392.392,0,0,1-.324-.128.6.6,0,0,1-.169-.32,1.7,1.7,0,0,1-.055-.4c0-.106.01-.208.012-.357-.384.019-.935.031-1.664.023a.238.238,0,0,0-.261.259c-.011.187-.01.372-.028.559q-.01.1-.01.209c0,.11.008.219.018.331.014.157.044.311.044.467s-.018.3-.018.453c0,.251.054.49.056.739.006.38-.007.759.013,1.137a2.845,2.845,0,0,0,.079.556c.036.143-.01.5.115.582a1.155,1.155,0,0,0,.458.043c.249,0,.558-.023.706-.023.234,0,.472.049.706.049a3.577,3.577,0,0,0,.63-.1c.005-.191.014-.38.014-.568s-.013-.3-.012-.423a1.692,1.692,0,0,1,.056-.4.586.586,0,0,1,.169-.32.388.388,0,0,1,.324-.128c.287,0,.3.471.3.713a10.445,10.445,0,0,1-.047,1.107c0,.035-.006.064-.009.088Zm12.249.594c.113.077.289.175.282.3a.206.206,0,0,1-.047.121.582.582,0,0,1-.462.172,2.534,2.534,0,0,1-1.517-.688,5.051,5.051,0,0,1-.785-1.153c-.124-.221-.228-.448-.331-.675a3.836,3.836,0,0,1-.231-.648q-.089-.359-.2-.711-.122-.37-.265-.733c-.071-.181-.157-.424-.243-.653a.892.892,0,0,0-.362-.468.772.772,0,0,0-.364-.108,3.1,3.1,0,0,0-.342,0c-.047,0-.064.047-.064.1,0,.143.032.394.031.452,0,.255-.052.506-.052.76,0,.4.1.6.1,1,0,.482-.08.97-.127,1.453-.016.16-.047.329-.047.492a2.135,2.135,0,0,0,.029.3c.294-.006.536-.011.686-.011.253,0,.741.012.741.376a.386.386,0,0,1-.133.332.633.633,0,0,1-.333.168,1.807,1.807,0,0,1-.438.055l-.782,0a1.681,1.681,0,0,1-.689.261,3.194,3.194,0,0,1-.361.038.785.785,0,0,1-.23-.033,1.5,1.5,0,0,1-.5-.266c-.189.005-.381.011-.547.011a4.407,4.407,0,0,1-.476-.022,2.252,2.252,0,0,1-.513-.168c-.16-.064-.317-.233-.317-.305a.186.186,0,0,1,.087-.154,1.052,1.052,0,0,1,.433-.151c.266-.038.654-.07.9-.083q-.027-.176-.044-.353c-.016-.145-.054-1.127-.054-1.467,0-.4.033-.836.033-1.224,0-.454-.039-.9-.039-1.356,0-.507.011-1.012.026-1.517.017-.532.039-1.065.061-1.6.02-.51.039-.623.039-1.133,0-.231-.01-.463-.01-.693s.049-.476.052-.718c0-.125-.027-.291-.039-.452-.026,0-.067,0-.135,0-.159,0-.318-.005-.476-.021a2.229,2.229,0,0,1-.514-.085.577.577,0,0,1-.317-.327.185.185,0,0,1,.087-.153,1.035,1.035,0,0,1,.433-.151,7.463,7.463,0,0,1,.976-.093.2.2,0,0,1,.081-.1,3.178,3.178,0,0,1,.331-.155,2.361,2.361,0,0,1,.313-.13,1.677,1.677,0,0,1,.32-.025,2.061,2.061,0,0,1,.594.116,1.065,1.065,0,0,1,.439.211c.251-.009.4-.021.611-.021.23,0,.448.018.754.018.072,0,.232-.021.377-.021a5.179,5.179,0,0,1,.9.221,1.433,1.433,0,0,1,.466.24c.09.064.309.19.515.328a1.419,1.419,0,0,1,.452.39c.085.2.331.382.42.582a2.227,2.227,0,0,1,.16.779c.013.2.076.345.076.423,0,.053,0,.1,0,.154,0,.081.062.2.062.312a2.9,2.9,0,0,1-.048.378c-.027.195-.027.3-.074.539a1.48,1.48,0,0,1-.232.607c-.061.081-.15.114-.2.208a1.467,1.467,0,0,1-.087.219,2,2,0,0,1-.351.4c-.076.053-.156.048-.23.125s-.138.165-.224.24a2.586,2.586,0,0,1-.419.368c-.132.071-.257.069-.247.267.008.166.416.387.487.539.136.29.324.521.437.815.1.253.182.507.263.765.11.351.206.709.293,1.073a10.934,10.934,0,0,0,.436,1.073,2.765,2.765,0,0,0,.273.582,1.568,1.568,0,0,0,.446.465Zm-2.767-9.733c0-.068,0-.175-.007-.291a1.558,1.558,0,0,0-.4-.765,1.309,1.309,0,0,0-.262-.242,1.363,1.363,0,0,0-.43-.195,2.885,2.885,0,0,0-.805-.07l-.5.016q-.015.532,0,1.064c.016.582.077,1.261.093,1.858.022.777.039,1.355.039,1.474a4.931,4.931,0,0,1,.029.629.777.777,0,0,0-.007.1c0,.132.054.156.157.155.062,0,.144-.01.242-.01.116,0,.193.008.309.008a1.223,1.223,0,0,0,.824-.3,1.261,1.261,0,0,0,.3-.488c.064-.2.114-.4.166-.576a3.875,3.875,0,0,0,.157-.643,3.407,3.407,0,0,0,.048-.587c0-.346.015-.229.029-.54.012-.267.017-.324.016-.593m8.025,9.348c.26,0,.77.013.741.326a.415.415,0,0,1-.132.3.625.625,0,0,1-.332.168,1.814,1.814,0,0,1-.42.055c-.057,0-.43-.015-.82-.008-.482.008-1,.038-1.108.038-.286,0-.767-.022-1.058-.022q-.238,0-.475-.022a2.106,2.106,0,0,1-.513-.084c-.16-.063-.317-.233-.317-.3a.185.185,0,0,1,.087-.154,1.047,1.047,0,0,1,.432-.15,9.233,9.233,0,0,1,.926-.092l.2,0a.608.608,0,0,1-.24-.45,1.109,1.109,0,0,0-.04-.291.774.774,0,0,1-.022-.194c0-.06,0-.12.008-.182q.018-.369.011-.738c-.018-.97.032-1.937.008-2.906-.013-.514,0-1.025.017-1.536.014-.443.03-.886.033-1.33q0-.365,0-.729c0-.3,0-.611,0-.915,0-.43-.013-.862,0-1.292,0-.064.006-.126.012-.189l-.133,0c-.159,0-.318-.006-.476-.021a2.08,2.08,0,0,1-.512-.085c-.161-.063-.318-.233-.318-.3a.191.191,0,0,1,.045-.175,1.048,1.048,0,0,1,.453-.13c.341-.047.793-.087.967-.091,0-.038-.006-.075-.006-.11a.34.34,0,0,1,.066-.232.966.966,0,0,1,.283-.154,1.288,1.288,0,0,1,.317-.1,1.761,1.761,0,0,1,.287-.025,1.541,1.541,0,0,1,.383.047,1.119,1.119,0,0,1,.709.541c.409-.007.763-.012.932-.012.259,0,.771.013.741.325a.418.418,0,0,1-.132.3.631.631,0,0,1-.333.168,1.853,1.853,0,0,1-.42.055l-.585,0,0,.039c.034.238.075.475.106.713a5.206,5.206,0,0,1,.05.71c0,.231-.013.453-.013.689,0,.116-.023.227-.023.346a1.847,1.847,0,0,0,.032.286,12.753,12.753,0,0,1,.085,1.45c.02.536.03,1.071.04,1.607.009.437.017.874.031,1.31.014.487.094.97.106,1.457.006.232.017.466.024.7s.008.5-.008.743a2.393,2.393,0,0,1-.1.671c.17,0,.308,0,.4,0Zm9.629-4.531c0,.19-.21.329-.365.4a2.913,2.913,0,0,1-.811.19c-.218.026-.353.04-.353.245,0,.153.034.515.034.64,0,.07,0,.56,0,.63,0,.132.008.28.012.433.01.485.014,1.076.03,1.271a8.478,8.478,0,0,1,.038,1.016c0,.212,0,.8-.332.8a.411.411,0,0,1-.32-.13.585.585,0,0,1-.166-.321,1.454,1.454,0,0,1-.044-.342c0-.156.03-.283.029-.529v-.052a1.977,1.977,0,0,1-.721,1,2.154,2.154,0,0,1-1.482.553,3.458,3.458,0,0,1-1.1-.18,2.657,2.657,0,0,1-1.028-.645,5.552,5.552,0,0,1-.983-1.458,4.451,4.451,0,0,1-.4-1.265c-.054-.3-.093-.6-.137-.908a4.841,4.841,0,0,1-.027-.78,14.892,14.892,0,0,1,.539-3.279c.121-.523.243-1.06.409-1.581a5.876,5.876,0,0,1,.738-1.569,6.3,6.3,0,0,1,1-1.189,1.553,1.553,0,0,1,.593-.316,3.366,3.366,0,0,1,.828-.242l.134,0a2.461,2.461,0,0,1,.418.042,1.923,1.923,0,0,1,.673.221,1.145,1.145,0,0,1,.4.419,1.11,1.11,0,0,1,.074-.353.632.632,0,0,1,.128-.2.326.326,0,0,1,.18-.1c.062,0,.131.073.153.105a1.059,1.059,0,0,1,.147.4c.021.15.031.494.039.863.01.485.013,1.013.029,1.209a8.714,8.714,0,0,1,.039,1.016c-.005.211,0,.8-.333.8a.414.414,0,0,1-.319-.129.574.574,0,0,1-.166-.321,1.708,1.708,0,0,1-.028-.323c0-.151.013-.311.014-.537-.013-.129-.027-.261-.042-.392-.031-.287-.08-.574-.122-.852a1.958,1.958,0,0,0-.311-.756.713.713,0,0,0-.571-.234.632.632,0,0,0-.577.356,3.857,3.857,0,0,0-.407.635,3.3,3.3,0,0,0-.159.79,3.715,3.715,0,0,1-.147.755c-.083.284-.1.593-.16.883a7.815,7.815,0,0,0-.1.791c-.023.247-.1.485-.123.733-.03.282-.067.562-.1.842s-.068.536-.094.806c-.024.238-.057.478-.057.719,0,.34.045.676.059,1.016a9.582,9.582,0,0,0,.251,1.373c.034.179.073.36.123.537a2.455,2.455,0,0,0,.279.655,1.175,1.175,0,0,0,.876.621.931.931,0,0,0,.706-.484,3.227,3.227,0,0,0,.475-1.219,9.178,9.178,0,0,0,.13-1.149c.018-.264.026-.634.027-.9,0-.047,0-.1,0-.148,0-.2-.009-.264-.3-.264-.232,0-.482.033-.728.033a1.349,1.349,0,0,1-.612-.12c-.079-.04-.124-.086-.127-.14a.212.212,0,0,1,.07-.146,1,1,0,0,1,.364-.209,2.9,2.9,0,0,1,.852-.208c.272-.042.549-.064.805-.086q.316-.025.632-.025c.318,0,.815-.03,1.019-.03.233,0,.5.079.5.317" transform="translate(-0.001)" fill="#4f2170"/>
    <path id="Path_2422" data-name="Path 2422" d="M2095.538,1180.153c.253,0,.743.012.743.3a.383.383,0,0,1-.134.324.626.626,0,0,1-.333.169,1.828,1.828,0,0,1-.437.055c-.229,0-2-.012-2.184-.012-.286,0-.076.018-.367.018-.159,0-.316-.006-.475-.021a2.128,2.128,0,0,1-.513-.084c-.159-.063-.317-.234-.317-.3a.183.183,0,0,1,.087-.154,1.045,1.045,0,0,1,.432-.151c.325-.046.617-.083.779-.09a.572.572,0,0,1-.256-.466c-.043-.461-.053-.926-.053-1.389,0-.44.009-.881.009-1.319,0-.285,0-.569-.017-.852s-.033-.592-.022-.887c0-.1.034-.259.035-.391a.249.249,0,0,0-.068-.209.33.33,0,0,0-.169-.031c-.215,0-.549.07-.663.079a8.817,8.817,0,0,1-.951.033,3.289,3.289,0,0,1-.5-.054c-.05,0-.082.006-.082.1,0,.134,0,.256,0,.375,0,.156,0,.306-.017.471q-.017.209-.016.418c0,.221.011.442.024.663,0,.03,0,.06,0,.089,0,.212-.038.411-.038.621,0,.232-.013.464-.026.7s-.025.448-.025.672c0,.315-.054.565-.055.881a4.029,4.029,0,0,0,.05.453c.259.009.6.056.6.3a.382.382,0,0,1-.134.325.619.619,0,0,1-.332.168,1.8,1.8,0,0,1-.417.056l-.021.013c-.095.054-.132.039-.216.107s-.049.134-.15.185a.5.5,0,0,1-.223.041.935.935,0,0,1-.615-.192,1.579,1.579,0,0,1-.176-.162l-.571,0c-.287,0-.078.019-.367.019a4.687,4.687,0,0,1-.476-.022,2.088,2.088,0,0,1-.512-.084c-.161-.063-.318-.233-.318-.3a.186.186,0,0,1,.088-.154,1.039,1.039,0,0,1,.432-.15c.26-.038.652-.069.9-.083a.629.629,0,0,1-.021-.164c0-.1.019-.213.024-.332.009-.22.012-.441.012-.661,0-.245,0-.491,0-.735,0-.314,0-.628,0-.942,0-.426,0-.853.006-1.28,0-.287.007-.575,0-.861,0-.074,0-.154,0-.234s-.015-.225-.015-.291c0-.088-.013-.119-.125-.137-.068-.01-.317-.034-.488-.066-.235-.043-.477-.112-.477-.234,0-.046.034-.1.115-.161a.783.783,0,0,1,.322-.14c.119-.026.242-.037.363-.059.188-.035.191-.025.262-.133a.327.327,0,0,0,.026-.159c0-.473-.006-.958-.005-1.446a20.48,20.48,0,0,1,.119-2.495c.015-.124.023-.27.033-.419-.131,0-.07.009-.314.009h-.116a2.819,2.819,0,0,1-.31-.013,2.194,2.194,0,0,1-.513-.084c-.161-.063-.317-.233-.317-.3a.263.263,0,0,1,.087-.175.85.85,0,0,1,.411-.151,9.375,9.375,0,0,1,1.026-.071h.191a.723.723,0,0,1,.736-.464.991.991,0,0,1,.785.427c.217-.006.406-.01.55-.01.253,0,.825.012.825.3,0,.163-.114.2-.217.321a.625.625,0,0,1-.333.168,1.814,1.814,0,0,1-.42.055h-.144c.008.032.018.063.028.094a4.182,4.182,0,0,1,.191.989c.036.32.051.64.086.961.033.3.086.592.114.888.01.1.011.2.011.3v.094a2.169,2.169,0,0,0,.039.486c.021.093.086.168.1.263a.226.226,0,0,1,0,.045c0,.046-.007.1-.008.146,0,.113.03.136.168.136.238,0,1.1-.08,1.195-.087.177-.015.365-.006.55-.006.114,0,.225-.018.335-.018.128,0,.222-.043.222-.2s-.034-.406-.036-.479q0-.523.04-1.045c0-.067.032-.4.056-.766.021-.326.039-.68.04-.91,0-.148-.028-.358-.028-.469,0-.162,0-.208-.005-.328q-.153,0-.306-.019a2.185,2.185,0,0,1-.513-.084.463.463,0,0,1-.275-.3.182.182,0,0,1,.086-.154.87.87,0,0,1,.391-.151q.331-.045.665-.062a.19.19,0,0,1,.169-.107,2.39,2.39,0,0,0,.372-.059.939.939,0,0,1,.1,0,1.489,1.489,0,0,1,.388.052.706.706,0,0,1,.183.083c.531-.018,1.085-.043,1.372-.043.252,0,.721.012.721.3a.37.37,0,0,1-.112.326.632.632,0,0,1-.333.169,1.861,1.861,0,0,1-.42.055l-.79-.005a4.475,4.475,0,0,1,.182.483c.064.319.16.639.231.964.059.265.04.525.112.784a3.676,3.676,0,0,1,.116.783c.014.23-.024.377-.023.606,0,.088.045.289.045.375,0,.034,0,.057,0,.076,0,.082.081.081.167.081.054,0,.127,0,.2,0,.165,0,.351.021.419.156a.246.246,0,0,1,.026.11.565.565,0,0,1-.329.419,1.546,1.546,0,0,1-.288.085c-.087.019-.141.027-.171.1a.154.154,0,0,0-.007.055c0,.066.017.164.018.211,0,.031,0,.062,0,.093,0,.171-.023.336-.023.508,0,.427,0,.857.042,1.287.041.453.089.905.089,1.354a4.9,4.9,0,0,1-.041.644c-.051.374-.072.747-.1,1.121,0,.054-.067.1-.073.166s.039.148.033.225a.642.642,0,0,1-.022.127c.247,0,.455-.007.579-.007Zm9.21-9.353c0,.224-.012.659-.3.659a.41.41,0,0,1-.325-.118.538.538,0,0,1-.168-.3,1.472,1.472,0,0,1-.056-.373c0-.112.012-.8.012-.978,0-.119,0-.238-.008-.359-.166.008-.33.011-.5.014s-.326.008-.489.02-.34.03-.51.044l-.19.017h-.023c-.16,0-.2.046-.2.127a1.141,1.141,0,0,0,.035.193c.03.176.052.517.064.695s.024.339.026.509-.031.313-.031.469.072.4.068.554-.019.341-.03.511a9.476,9.476,0,0,0,.014,1.056c.009.166.023.331.027.5,0,.077-.012.155-.012.232s.032.3.032.384c0,.351,0,.555.007.907s.038.7.019,1.052c-.008.165-.034.328-.032.493,0,.187.018.373.027.56.018.359.025.716.028,1.075,0,.33.009.745-.007,1.075,0,.058-.007.117-.012.175.209,0,.379-.007.48-.007.252,0,.742.071.742.361a.383.383,0,0,1-.134.325.622.622,0,0,1-.332.168,1.794,1.794,0,0,1-.42.055l-.622,0c-.057.034-.118.066-.167.1a.766.766,0,0,1-.434.115c-.121,0-.242.013-.363.013a.945.945,0,0,1-.512-.163l-.125-.071c-.263,0-.493.019-.764.019-.159,0-.317-.007-.475-.022a2.118,2.118,0,0,1-.513-.085.632.632,0,0,1-.317-.367.183.183,0,0,1,.087-.154,1.034,1.034,0,0,1,.432-.151,7.941,7.941,0,0,1,.82-.071v-.023c0-.19-.052-.373-.052-.567,0-.323.027-.73.032-1.052.007-.348.024-.7.04-1.044.018-.416.039-.833.039-1.248,0-.3-.013-.592,0-.887.01-.168.044-.335.057-.5s.054-.313.06-.469c.01-.349-.011-.7-.011-1.051s.022-.728.022-1.092c0-.31-.012-.62-.012-.93,0-.4,0-.962.016-1.358,0-.083.031-.2.031-.289,0-.127-.108-.134-.154-.134-.116,0-.756.016-.838.016a7.97,7.97,0,0,1-.976-.042,1.438,1.438,0,0,1-.162-.029c.028.391.034,1.069.034,1.446,0,.224-.012.659-.3.659a.406.406,0,0,1-.325-.119.53.53,0,0,1-.168-.295,1.46,1.46,0,0,1-.056-.373c0-.112.012-.637.012-.81,0-.23-.015-.465-.018-.7a.485.485,0,0,1-.108-.265.212.212,0,0,1,.135-.2.86.86,0,0,1,.515-.174c.139,0,.3-.005.429-.008.357-.007.71,0,1.064-.041.167-.019.333-.036.5-.044h.043c.078,0,.166.008.249.008a.593.593,0,0,0,.183-.022c.124-.04.233-.146.36-.193a.931.931,0,0,1,.335-.047,2.18,2.18,0,0,1,.6.055.99.99,0,0,1,.2.084,2.216,2.216,0,0,0,.224.143.456.456,0,0,0,.161.023c.087,0,.18-.012.254-.013.184,0,.367-.006.551-.007.444,0,.887,0,1.335,0a1.263,1.263,0,0,1,.631.118.434.434,0,0,1,.2.36.325.325,0,0,1-.068.2c.006.03.006.036.024.217.037.4.046,1.01.046,1.441" transform="translate(-1709.042 -563.346)" fill="#4f2170"/>
  </g>
</svg>
