<?xml version="1.0" encoding="utf-8"?>
<!-- Generator: Adobe Illustrator 24.3.0, SVG Export Plug-In . SVG Version: 6.00 Build 0)  -->
<svg version="1.1" id="Group_1602" xmlns="http://www.w3.org/2000/svg" xmlns:xlink="http://www.w3.org/1999/xlink" x="0px" y="0px"
	 width="81.9px" height="80.5px" viewBox="0 0 81.9 80.5" style="enable-background:new 0 0 81.9 80.5;" xml:space="preserve">
<style type="text/css">
	.st0{fill:#00AEEF;}
</style>
<g>
	<path class="st0" d="M38.6,33.7c0.3,0.3,0.6,0.4,1,0.4h0.1c0.4,0,0.7-0.2,1-0.5l8.2-9.6c0.5-0.6,0.4-1.4-0.2-1.9
		c-0.6-0.5-1.4-0.4-1.9,0.1l-7.2,8.4l-3.1-3.1c-0.5-0.5-1.4-0.5-1.9,0c-0.5,0.5-0.5,1.4,0,1.9L38.6,33.7z M38.6,33.7"/>
	<path class="st0" d="M40.9,6.8c0.8,0,1.4-0.6,1.4-1.4V1.4c0-0.8-0.6-1.4-1.4-1.4c-0.8,0-1.4,0.6-1.4,1.4v4.1
		C39.6,6.2,40.2,6.8,40.9,6.8L40.9,6.8z M40.9,6.8"/>
	<path class="st0" d="M16.4,25.9h4.1c0.8,0,1.4-0.6,1.4-1.4c0-0.8-0.6-1.4-1.4-1.4h-4.1c-0.8,0-1.4,0.6-1.4,1.4
		C15,25.3,15.6,25.9,16.4,25.9L16.4,25.9z M16.4,25.9"/>
	<path class="st0" d="M61.4,25.9h4.1c0.8,0,1.4-0.6,1.4-1.4c0-0.8-0.6-1.4-1.4-1.4h-4.1c-0.8,0-1.4,0.6-1.4,1.4
		C60,25.3,60.6,25.9,61.4,25.9L61.4,25.9z M61.4,25.9"/>
	<path class="st0" d="M25,11.9c0.5,0.5,1.4,0.5,1.9,0c0.5-0.5,0.5-1.4,0-1.9l-2.7-2.7c-0.3-0.3-0.6-0.4-1-0.4c-0.4,0-0.7,0.1-1,0.4
		c-0.3,0.3-0.4,0.6-0.4,1c0,0.4,0.2,0.7,0.4,1L25,11.9z M25,11.9"/>
	<path class="st0" d="M55.9,12.3c0.4,0,0.7-0.1,1-0.4l2.7-2.7c0.3-0.3,0.4-0.6,0.4-1c0-0.4-0.1-0.7-0.4-1c-0.3-0.3-0.6-0.4-1-0.4
		c-0.4,0-0.7,0.2-1,0.4L55,10c-0.4,0.4-0.5,1-0.3,1.5C54.9,11.9,55.4,12.3,55.9,12.3L55.9,12.3z M55.9,12.3"/>
	<path class="st0" d="M40.9,9.6c-7.1,0-13.4,4.6-15.6,11.4c-2.2,6.8,0.3,14.2,6,18.3v4.4c0,0.4,0.2,0.8,0.5,1
		c0.2,0.2,0.6,0.3,0.9,0.3c0.1,0,0.1,0,0.2,0l16.4-2.7c0.7-0.1,1.1-0.7,1.1-1.4v-1.7c5.8-4.2,8.2-11.5,6-18.3
		C54.3,14.1,48,9.6,40.9,9.6L40.9,9.6z M48.4,37.4c-0.4,0.3-0.6,0.7-0.6,1.1v1.3l-13.6,2.3v-3.6c0-0.5-0.2-0.9-0.6-1.1
		c-5.1-3.3-7.4-9.5-5.6-15.3c1.7-5.8,7-9.8,13.1-9.8s11.4,4,13.1,9.8C55.7,27.8,53.4,34.1,48.4,37.4L48.4,37.4z M48.4,37.4"/>
	<path class="st0" d="M50.5,46.2c0.1,0.4,0,0.7-0.2,1c-0.2,0.3-0.5,0.5-0.9,0.5L33,50.5c-0.1,0-0.1,0-0.2,0c-0.7,0-1.3-0.5-1.4-1.3
		c-0.1-0.7,0.5-1.4,1.2-1.5L48.9,45c0.4-0.1,0.7,0,1,0.2C50.2,45.5,50.4,45.8,50.5,46.2L50.5,46.2z M50.5,46.2"/>
	<path class="st0" d="M80.5,58.7h-33c0.2-0.4,0.2-0.9,0.2-1.4v-3.8l1.6-0.3c0.7-0.1,1.3-0.8,1.1-1.6c-0.1-0.7-0.8-1.3-1.6-1.1
		l-16.4,2.7c-0.7,0.1-1.2,0.7-1.2,1.5c0.1,0.7,0.7,1.3,1.4,1.3c0.1,0,0.1,0,0.2,0l1.1-0.2v1.6c0,0.5,0.1,0.9,0.2,1.4H10.9
		C4.9,58.7,0,63.6,0,69.6s4.9,10.9,10.9,10.9h69.6c0.8,0,1.4-0.6,1.4-1.4V60C81.9,59.3,81.3,58.7,80.5,58.7L80.5,58.7z M36.8,55.3
		l8.2-1.4v3.4c0,0.8-0.6,1.4-1.4,1.4h-5.5c-0.8,0-1.4-0.6-1.4-1.4V55.3z M79.1,68.2H9.6c-0.8,0-1.4,0.6-1.4,1.4S8.8,71,9.6,71h69.6
		v6.8H10.9c-4.5,0-8.2-3.7-8.2-8.2s3.7-8.2,8.2-8.2h68.2V68.2z M79.1,68.2"/>
</g>
</svg>
