<svg xmlns="http://www.w3.org/2000/svg" width="69.362" height="81.334" viewBox="0 0 69.362 81.334">
  <g id="Group_1652" data-name="Group 1652" transform="translate(-37.681)">
    <path id="Path_2442" data-name="Path 2442" d="M105.784,14.044A135.3,135.3,0,0,1,73.232.237a1.71,1.71,0,0,0-1.739,0A131.588,131.588,0,0,1,38.94,14.044a1.711,1.711,0,0,0-1.259,1.65V33.176A50.291,50.291,0,0,0,52.953,69.92c7.5,7.349,16.238,11.414,19.41,11.414S84.271,77.269,91.772,69.92a50.292,50.292,0,0,0,15.271-36.744V15.694A1.711,1.711,0,0,0,105.784,14.044Zm-2.163,19.131a46.938,46.938,0,0,1-14.244,34.3C82,74.7,74.115,77.912,72.363,77.912S62.723,74.7,55.347,67.476A46.939,46.939,0,0,1,41.1,33.176V16.993a134.746,134.746,0,0,0,31.26-13.3,139.007,139.007,0,0,0,31.258,13.3Z" fill="#00aeef"/>
    <path id="Path_2443" data-name="Path 2443" d="M93.069,100.028a1.711,1.711,0,0,0-2.219-.965c-3.056,1.2-6.193,2.313-9.324,3.295a1.711,1.711,0,0,0-1.2,1.632V110.6a1.711,1.711,0,0,0,3.422,0V105.24c2.808-.909,5.614-1.914,8.355-2.994A1.71,1.71,0,0,0,93.069,100.028Z" transform="translate(-35.871 -83.226)" fill="#00aeef"/>
    <path id="Path_2444" data-name="Path 2444" d="M171.917,89.638a1.711,1.711,0,0,0,.686-.144l.031-.014a1.711,1.711,0,1,0-1.382-3.13l-.028.012a1.71,1.71,0,0,0,.692,3.276Z" transform="translate(-111.47 -72.512)" fill="#00aeef"/>
    <path id="Path_2445" data-name="Path 2445" d="M316.2,345.807a1.712,1.712,0,0,0-2.368.5,41.631,41.631,0,0,1-4.917,6.141A43.714,43.714,0,0,1,304,356.811a1.711,1.711,0,1,0,2.075,2.721,47.159,47.159,0,0,0,5.293-4.709,45.032,45.032,0,0,0,5.321-6.648A1.711,1.711,0,0,0,316.2,345.807Z" transform="translate(-223.449 -290.64)" fill="#00aeef"/>
    <path id="Path_2446" data-name="Path 2446" d="M277.515,432.2l-.1.058a1.711,1.711,0,1,0,1.714,2.961l.113-.067a1.711,1.711,0,1,0-1.729-2.952Z" transform="translate(-200.934 -363.346)" fill="#00aeef"/>
    <path id="Path_2447" data-name="Path 2447" d="M132.315,167.215a5.564,5.564,0,1,0-7.868,7.868l10.1,10.1a5.565,5.565,0,0,0,7.868,0l21.09-21.09a5.563,5.563,0,0,0-7.868-7.868l-17.156,17.156Zm25.744-8.568a2.142,2.142,0,1,1,3.029,3.029L140,182.766a2.143,2.143,0,0,1-3.029,0l-10.1-10.1a2.142,2.142,0,0,1,3.029-3.029l7.378,7.378a1.711,1.711,0,0,0,2.419,0Z" transform="translate(-71.615 -130.04)" fill="#00aeef"/>
  </g>
</svg>
