<svg xmlns="http://www.w3.org/2000/svg" width="91.897" height="95.432" viewBox="0 0 91.897 95.432">
  <g id="Group_1653" data-name="Group 1653" transform="translate(-100 -215.89)">
    <path id="Path_2448" data-name="Path 2448" d="M333.593,443.445A21.207,21.207,0,1,0,354.8,464.652a21.231,21.231,0,0,0-21.207-21.207Zm0,38.879a17.672,17.672,0,1,1,17.672-17.672,17.692,17.692,0,0,1-17.672,17.672Zm0,0" transform="translate(-162.904 -174.538)" fill="#00aeef"/>
    <path id="Path_2449" data-name="Path 2449" d="M254.628,347.468a29.164,29.164,0,1,0-39.041,37.861,1.767,1.767,0,0,0,1.478-3.211,25.63,25.63,0,1,1,34.308-33.272,1.767,1.767,0,0,0,3.254-1.378Zm0,0" transform="translate(-75.631 -87.269)" fill="#00aeef"/>
    <path id="Path_2450" data-name="Path 2450" d="M168.861,239.984a35.35,35.35,0,1,0-53.019,40.732,1.767,1.767,0,1,0,1.952-2.946,31.815,31.815,0,1,1,47.716-36.663,1.767,1.767,0,0,0,3.351-1.124Zm0,0" transform="translate(0)" fill="#00aeef"/>
  </g>
</svg>
