<svg xmlns="http://www.w3.org/2000/svg" width="82.399" height="82.4" viewBox="0 0 82.399 82.4">
  <g id="Group_1649" data-name="Group 1649" transform="translate(-16 -15.994)">
    <path id="Path_2427" data-name="Path 2427" d="M16,480H98.4v2.747H16Z" transform="translate(0 -384.352)" fill="#00aeef"/>
    <path id="Path_2428" data-name="Path 2428" d="M112.737,27.22l2.217-6.334,4.04,8.082a1.374,1.374,0,0,0,2.458-1.228l-5.493-10.987a1.373,1.373,0,0,0-1.842-.616h0l-10.987,5.493a1.374,1.374,0,1,0,1.228,2.458l7.957-3.976-2.171,6.2A73.288,73.288,0,0,1,47.32,75.048l.233,2.747A76.035,76.035,0,0,0,112.737,27.22Z" transform="translate(-25.943 0)" fill="#00aeef"/>
    <path id="Path_2429" data-name="Path 2429" d="M49.373,400A1.373,1.373,0,0,0,48,401.373v8.24a1.373,1.373,0,0,0,1.373,1.373h9.613a1.373,1.373,0,0,0,1.373-1.373v-8.24A1.373,1.373,0,0,0,58.987,400Zm8.24,8.24H50.747v-5.493h6.867Z" transform="translate(-26.507 -318.086)" fill="#00aeef"/>
    <path id="Path_2430" data-name="Path 2430" d="M137.373,376A1.373,1.373,0,0,0,136,377.373v12.36a1.373,1.373,0,0,0,1.373,1.373h9.613a1.373,1.373,0,0,0,1.373-1.373v-12.36A1.373,1.373,0,0,0,146.987,376Zm8.24,12.36h-6.867v-9.613h6.867Z" transform="translate(-99.4 -298.206)" fill="#00aeef"/>
    <path id="Path_2431" data-name="Path 2431" d="M225.373,336A1.373,1.373,0,0,0,224,337.373V356.6a1.373,1.373,0,0,0,1.373,1.373h9.613a1.373,1.373,0,0,0,1.373-1.373V337.373A1.373,1.373,0,0,0,234.987,336Zm8.24,19.227h-6.867v-16.48h6.867Z" transform="translate(-172.294 -265.072)" fill="#00aeef"/>
    <path id="Path_2432" data-name="Path 2432" d="M313.373,280A1.373,1.373,0,0,0,312,281.373v28.84a1.373,1.373,0,0,0,1.373,1.373h9.613a1.373,1.373,0,0,0,1.373-1.373v-28.84A1.373,1.373,0,0,0,322.987,280Zm8.24,28.84h-6.867V282.747h6.867Z" transform="translate(-245.187 -218.685)" fill="#00aeef"/>
    <path id="Path_2433" data-name="Path 2433" d="M401.373,168A1.373,1.373,0,0,0,400,169.373V217.44a1.373,1.373,0,0,0,1.373,1.373h9.613a1.373,1.373,0,0,0,1.373-1.373V169.373A1.373,1.373,0,0,0,410.987,168Zm8.24,48.066h-6.867v-45.32h6.867Z" transform="translate(-318.081 -125.912)" fill="#00aeef"/>
  </g>
</svg>
