<svg xmlns="http://www.w3.org/2000/svg" width="94.198" height="82.399" viewBox="0 0 94.198 82.399">
  <g id="Group_1650" data-name="Group 1650" transform="translate(0 -32.064)">
    <path id="Path_2434" data-name="Path 2434" d="M286.023,361.687h-5.164a1.38,1.38,0,1,0,0,2.76h5.164a1.38,1.38,0,1,0,0-2.76Z" transform="translate(-228.06 -268.979)" fill="#00aeef"/>
    <path id="Path_2435" data-name="Path 2435" d="M268.476,77.939l-7.514-2.9-3.831-3.831a1.374,1.374,0,0,0-.887-.4V67.761a14.23,14.23,0,0,0,3.609-7.11,3.947,3.947,0,0,0,.968-.077,4.084,4.084,0,0,0,3.169-4.05V55.518a4.136,4.136,0,0,0-1.215-2.935c1.218-6.627.215-12.028-2.915-15.642-3.028-3.5-7.906-5.167-14.106-4.832a18.482,18.482,0,0,0-10.6,3.91,7.27,7.27,0,0,0-2.84.965c-1.533.92-3.359,2.851-3.359,6.831a34.457,34.457,0,0,0,.957,8.015,4.09,4.09,0,0,0-2.248,3.7v.991a4.084,4.084,0,0,0,3.169,4.05,3.939,3.939,0,0,0,.968.077,14.232,14.232,0,0,0,3.61,7.11v3.048a1.373,1.373,0,0,0-.887.4l-3.831,3.831-7.514,2.9a9.136,9.136,0,0,0-1.845.966,1.38,1.38,0,1,0,1.551,2.283,6.385,6.385,0,0,1,1.288-.674l6.973-2.69,5.332,8a3.947,3.947,0,0,0,2.906,1.745c.132.013.264.02.395.02a3.938,3.938,0,0,0,1.942-.514l-1.144,25.954a1.38,1.38,0,0,0,1.318,1.439h.062a1.38,1.38,0,0,0,1.377-1.319L244.4,89.056h2.865l1.062,24.091a1.38,1.38,0,0,0,1.377,1.319h.062a1.38,1.38,0,0,0,1.318-1.439l-1.144-25.954a3.938,3.938,0,0,0,1.942.514c.131,0,.263-.006.395-.02a3.948,3.948,0,0,0,2.906-1.745l5.332-8,6.973,2.69a6.351,6.351,0,0,1,2.482,1.73l-4.771,4.771a9.066,9.066,0,0,0-2.673,6.453v19.62a1.38,1.38,0,1,0,2.76,0V93.466a6.324,6.324,0,0,1,1.864-4.5l4.187-4.187a6.358,6.358,0,0,1,.22,1.928l-1.069,26.324a1.38,1.38,0,0,0,1.323,1.435h.057a1.38,1.38,0,0,0,1.378-1.324l1.069-26.324A9.123,9.123,0,0,0,268.476,77.939Zm-22.648,1.449-7.657-6.7V70.047a14.281,14.281,0,0,0,15.314,0v2.641Zm-14.119-21.5a1.184,1.184,0,0,1-.321-.022,1.338,1.338,0,0,1-.962-1.346v-.991a1.308,1.308,0,0,1,.974-1.313,1.2,1.2,0,0,1,1.181.452,1.925,1.925,0,0,0,2.645.415,10.018,10.018,0,0,0,2.263-2.212,1.38,1.38,0,0,0-2.215-1.647A7.323,7.323,0,0,1,234.2,52.39a3.947,3.947,0,0,0-1.5-.8,31.736,31.736,0,0,1-.986-7.777c0-2.113.651-3.6,1.936-4.413a4.479,4.479,0,0,1,2.063-.662,1.393,1.393,0,0,0,.952-.381,15.544,15.544,0,0,1,9.235-3.494c5.317-.287,9.422,1.055,11.871,3.883,2.468,2.85,3.29,7.225,2.4,12.7a5.981,5.981,0,0,0-1.177.082l-1.3-3.113a1.381,1.381,0,0,0-1.623-.8c-.128.033-12.871,3.264-18.214-3.388a1.38,1.38,0,1,0-2.151,1.728c5.456,6.793,16.282,5.315,19.886,4.595l1,2.407a2.268,2.268,0,0,0,2.621,1.344,2.978,2.978,0,0,1,1.033-.076,1.3,1.3,0,0,1,.979,1.3v1.006a1.338,1.338,0,0,1-.962,1.346,1.17,1.17,0,0,1-.321.022,2.688,2.688,0,0,0-2.794,2.19,11.515,11.515,0,0,1-22.65,0A2.686,2.686,0,0,0,231.708,57.892Zm7.947,26.927a1.185,1.185,0,0,1-.882-.529L233.4,76.234l2.16-2.16,8.246,7.215-3.185,3.185A1.185,1.185,0,0,1,239.656,84.82Zm4.861,1.477.084-1.9,1.227-1.227,1.227,1.227.084,1.9h-2.621Zm8.365-2.006a1.2,1.2,0,0,1-1.85.183l-3.185-3.185,8.246-7.215,2.16,2.16Z" transform="translate(-180.119 -0.002)" fill="#00aeef"/>
    <path id="Path_2436" data-name="Path 2436" d="M43.759,85.168l-6.738-2.941-3.683-3.683a1.372,1.372,0,0,0-.887-.4V75.973a14.252,14.252,0,0,0,6.191-9.278,3.965,3.965,0,0,0,1.089-.1,4.107,4.107,0,0,0,3.047-4.023V61.561a4.114,4.114,0,0,0-1.768-3.393,15.6,15.6,0,0,0,.477-3.823A16.088,16.088,0,0,0,33.74,40.7a8.946,8.946,0,0,0-9.123-8.638A8.946,8.946,0,0,0,15.493,40.7,16.089,16.089,0,0,0,7.746,54.345a15.6,15.6,0,0,0,.474,3.812,4.123,4.123,0,0,0-1.765,3.419v.991A4.107,4.107,0,0,0,9.5,66.591a3.957,3.957,0,0,0,1.089.1,14.252,14.252,0,0,0,6.192,9.278v2.171a1.372,1.372,0,0,0-.887.4l-3.683,3.683L5.475,85.168a9.183,9.183,0,0,0-5.466,8.75l.815,19.225A1.38,1.38,0,0,0,2.2,114.464H2.26a1.38,1.38,0,0,0,1.32-1.437L2.766,93.8a6.354,6.354,0,0,1,.875-3.475l3.622,4.346a7.671,7.671,0,0,1,1.775,4.9v13.511a1.38,1.38,0,1,0,2.76,0V99.573A10.436,10.436,0,0,0,9.382,92.9l-3.85-4.62A6.257,6.257,0,0,1,6.579,87.7l5.872-2.563,4.15,6.735a2.671,2.671,0,0,0,4.008.631l2.629-2.244v22.828a1.38,1.38,0,1,0,2.76,0V90.256L28.626,92.5a2.671,2.671,0,0,0,4.008-.631l4.15-6.736L42.656,87.7a6.263,6.263,0,0,1,1.047.588l-3.85,4.62a10.436,10.436,0,0,0-2.414,6.668v13.511a1.38,1.38,0,1,0,2.76,0V99.573a7.672,7.672,0,0,1,1.775-4.9l3.622-4.346a6.354,6.354,0,0,1,.875,3.475l-.815,19.225a1.38,1.38,0,0,0,1.32,1.437h.059a1.38,1.38,0,0,0,1.378-1.322l.815-19.225A9.184,9.184,0,0,0,43.759,85.168ZM24.617,34.824a6.322,6.322,0,0,1,6.145,4.41,17.5,17.5,0,0,0-12.29,0A6.322,6.322,0,0,1,24.617,34.824Zm-11.325,31.3a2.687,2.687,0,0,0-2.794-2.19,1.192,1.192,0,0,1-.36-.031,1.348,1.348,0,0,1-.923-1.338v-.991a1.308,1.308,0,0,1,.974-1.313,1.2,1.2,0,0,1,1.181.452,1.924,1.924,0,0,0,2.645.415,10.009,10.009,0,0,0,2.233-2.173A1.38,1.38,0,0,0,14.04,57.3a7.316,7.316,0,0,1-1.053,1.132,3.954,3.954,0,0,0-2.082-.917,12.851,12.851,0,0,1-.4-3.171c0-7.425,6.33-13.466,14.112-13.466S38.729,46.92,38.729,54.346a12.846,12.846,0,0,1-.4,3.165,6.329,6.329,0,0,0-1.074.177l-1.037-.853a2.649,2.649,0,0,0-1.841-.6c-2.028.12-12.415.394-17.745-5.984a1.38,1.38,0,1,0-2.118,1.77c2.628,3.146,6.483,5.273,11.458,6.322a33.773,33.773,0,0,0,8.521.65l1.618,1.331a1.377,1.377,0,0,0,1.569.128,3.045,3.045,0,0,1,1.36-.181,1.3,1.3,0,0,1,.979,1.3v1.006a1.347,1.347,0,0,1-.923,1.338,1.18,1.18,0,0,1-.36.031,2.69,2.69,0,0,0-2.794,2.19,11.515,11.515,0,0,1-22.65,0ZM24.617,78.317a14.245,14.245,0,0,0,5.075-.933v2.854l-5.075,5.075-5.075-5.075V77.384A14.241,14.241,0,0,0,24.617,78.317ZM18.9,90.333,14.745,83.6l2.126-2.126,5.714,5.714Zm11.443,0-3.69-3.149,5.714-5.714L34.489,83.6Z" transform="translate(0)" fill="#00aeef"/>
    <path id="Path_2437" data-name="Path 2437" d="M82.437,394.767H78.564a1.38,1.38,0,0,0,0,2.76h3.873a1.38,1.38,0,0,0,0-2.76Z" transform="translate(-62.983 -295.973)" fill="#00aeef"/>
  </g>
</svg>
