<svg xmlns="http://www.w3.org/2000/svg" width="82.597" height="82.599" viewBox="0 0 82.597 82.599">
  <path id="Path_2324" data-name="Path 2324" d="M80.51,25.848c-.142-.5-.373-1.139-.376-1.141h0a2.01,2.01,0,0,0-1.791-1.1,2.086,2.086,0,0,0-.721.131l-2.167.865A39.122,39.122,0,1,0,22.713,74.617l-.981,2.123a1.964,1.964,0,0,0,1.152,2.7,19.045,19.045,0,0,0,2.055.766A43.447,43.447,0,0,0,80.51,25.848ZM59.72,34.34l8.31-3.314L79.274,41.919A40.018,40.018,0,0,1,77.5,51.282ZM76.291,54.578a40.415,40.415,0,0,1-4.044,7.389L48.22,38.926l8.571-3.419-.244.257Zm3.028-17.1L71.3,29.718l6.264-2.5A40.21,40.21,0,0,1,79.319,37.483ZM72.434,25.8,41.157,38.278a3.54,3.54,0,0,0-.434.2L14.381,13.143A35.837,35.837,0,0,1,72.434,25.8Zm-43.1,42.155,3.654-7.91,18.148,17.5a40.017,40.017,0,0,1-9.859,1.771Zm5.08-11,3.543-7.673L61.888,72.3A40.1,40.1,0,0,1,54.5,76.324ZM3.218,39.123a35.739,35.739,0,0,1,8.933-23.66L38.4,40.7a3.1,3.1,0,0,0-.171.319L24.067,71.687A35.93,35.93,0,0,1,3.218,39.123ZM25.954,77.156l-.04-.013c-.265-.086-.5-.166-.711-.242l2.7-5.856,8.665,8.245a40.012,40.012,0,0,1-10.578-2.121ZM64.5,70.346,39.385,46.191l1.771-3.84A3.181,3.181,0,0,1,42.3,41.287l.027-.011.027-.011,2.588-1.032L70.3,64.555A40.435,40.435,0,0,1,64.5,70.346Z" fill="#00aeef"/>
</svg>
