<svg id="Group_1562" data-name="Group 1562" xmlns="http://www.w3.org/2000/svg" width="89.765" height="89.915" viewBox="0 0 89.765 89.915">
  <path id="Path_2339" data-name="Path 2339" d="M151.239,30.726A12.665,12.665,0,0,0,147,30v2.992a9.661,9.661,0,0,1,3.242.556Zm0,0" transform="translate(-110.346 -22.52)" fill="#00aeef"/>
  <path id="Path_2340" data-name="Path 2340" d="M104.478,32.91A12.75,12.75,0,0,0,96,44.9h2.992a9.747,9.747,0,0,1,6.483-9.169Zm0,0" transform="translate(-72.063 -24.704)" fill="#00aeef"/>
  <path id="Path_2341" data-name="Path 2341" d="M74.8,66.706V61.071a17.942,17.942,0,0,0-2.992-35.634,17.7,17.7,0,0,0-6.184,1.1,8.991,8.991,0,0,0-8.777-7.091h-.012a20.2,20.2,0,1,0-40.23,3.222A19.425,19.425,0,0,0,14.961,60.8v5.91L4.927,76.74A1.489,1.489,0,0,0,4.488,77.8v5.984H7.48V78.415L17.514,68.382a1.489,1.489,0,0,0,.439-1.057V61.265c.494.04.99.075,1.5.075h4.488V69.7L16.9,76.74a1.489,1.489,0,0,0-.439,1.057v5.984h2.992V78.415l7.042-7.042a1.489,1.489,0,0,0,.439-1.057V61.34h7.48V72.69L30.361,76.74a1.489,1.489,0,0,0-.439,1.057v5.984h2.992V78.415l4.049-4.049a1.489,1.489,0,0,0,.439-1.057V61.34h5.984V83.781h2.992V61.34h5.984V73.309a1.489,1.489,0,0,0,.439,1.057l4.049,4.049v5.366h2.992V77.8A1.489,1.489,0,0,0,59.4,76.74L55.355,72.69V61.34h7.48v8.977a1.489,1.489,0,0,0,.439,1.057l7.042,7.042v5.366h2.992V77.8a1.489,1.489,0,0,0-.439-1.057L65.828,69.7V61.34h5.984v5.984a1.489,1.489,0,0,0,.439,1.057L82.285,78.415v5.366h2.992V77.8a1.489,1.489,0,0,0-.439-1.057ZM19.449,58.348a16.446,16.446,0,0,1-1.017-32.862,1.5,1.5,0,0,0,1.374-1.8A17.206,17.206,0,1,1,53.859,20.2c0,.167-.012.334-.025.5l-.02.342a1.5,1.5,0,0,0,1.8,1.533,6,6,0,0,1,7.214,5.83c0,.045-.025.234-.03.279a1.494,1.494,0,0,0,2.179,1.406,14.8,14.8,0,0,1,6.832-1.661,14.961,14.961,0,0,1,0,29.922Zm0,0" fill="#00aeef"/>
  <rect id="Rectangle_497" data-name="Rectangle 497" width="3" height="3" transform="translate(82.107 86.915)" fill="#00aeef"/>
  <rect id="Rectangle_498" data-name="Rectangle 498" width="3" height="3" transform="translate(70.107 86.915)" fill="#00aeef"/>
  <rect id="Rectangle_499" data-name="Rectangle 499" width="3" height="3" transform="translate(57.107 86.915)" fill="#00aeef"/>
  <rect id="Rectangle_500" data-name="Rectangle 500" width="2" height="3" transform="translate(5.107 86.915)" fill="#00aeef"/>
  <rect id="Rectangle_501" data-name="Rectangle 501" width="3" height="3" transform="translate(16.107 86.915)" fill="#00aeef"/>
  <rect id="Rectangle_502" data-name="Rectangle 502" width="3" height="3" transform="translate(30.107 86.915)" fill="#00aeef"/>
  <rect id="Rectangle_503" data-name="Rectangle 503" width="3" height="3" transform="translate(43.107 86.915)" fill="#00aeef"/>
  <rect id="Rectangle_504" data-name="Rectangle 504" width="2" height="2" transform="translate(38.107 32.915)" fill="#00aeef"/>
  <rect id="Rectangle_505" data-name="Rectangle 505" width="2" height="3" transform="translate(38.107 38.915)" fill="#00aeef"/>
  <rect id="Rectangle_506" data-name="Rectangle 506" width="2" height="3" transform="translate(38.107 44.915)" fill="#00aeef"/>
  <rect id="Rectangle_507" data-name="Rectangle 507" width="3" height="2" transform="translate(43.107 32.915)" fill="#00aeef"/>
  <rect id="Rectangle_508" data-name="Rectangle 508" width="3" height="3" transform="translate(43.107 38.915)" fill="#00aeef"/>
  <rect id="Rectangle_509" data-name="Rectangle 509" width="3" height="3" transform="translate(43.107 44.915)" fill="#00aeef"/>
  <rect id="Rectangle_510" data-name="Rectangle 510" width="2" height="2" transform="translate(50.107 32.915)" fill="#00aeef"/>
  <rect id="Rectangle_511" data-name="Rectangle 511" width="2" height="3" transform="translate(50.107 38.915)" fill="#00aeef"/>
  <rect id="Rectangle_512" data-name="Rectangle 512" width="2" height="3" transform="translate(50.107 44.915)" fill="#00aeef"/>
  <path id="Path_2342" data-name="Path 2342" d="M203.984,181.48H198v2.992h7.48a1.5,1.5,0,0,0,1.5-1.5V174h-2.992Zm0,0" transform="translate(-148.629 -130.613)" fill="#00aeef"/>
  <path id="Path_2343" data-name="Path 2343" d="M136.473,108H127.5a1.5,1.5,0,0,0-1.5,1.5v8.977h2.992v-7.48h7.48Zm0,0" transform="translate(-94.582 -81.07)" fill="#00aeef"/>
  <rect id="Rectangle_513" data-name="Rectangle 513" width="6" height="4" transform="translate(40.107 50.915)" fill="#00aeef"/>
  <rect id="Rectangle_514" data-name="Rectangle 514" width="5" height="3" transform="translate(45.107 26.915)" fill="#00aeef"/>
  <path id="Path_2344" data-name="Path 2344" d="M214.488,108H210v2.992h2.992v10.473h2.992V109.5a1.5,1.5,0,0,0-1.5-1.5Zm0,0" transform="translate(-157.637 -81.07)" fill="#00aeef"/>
  <path id="Path_2345" data-name="Path 2345" d="M128.992,162H126v11.969a1.5,1.5,0,0,0,1.5,1.5h4.488v-2.992h-2.992Zm0,0" transform="translate(-94.582 -121.605)" fill="#00aeef"/>
</svg>
