<svg id="Group_1602" data-name="Group 1602" xmlns="http://www.w3.org/2000/svg" width="59.492" height="80.504" viewBox="0 0 59.492 80.504">
  <path id="Path_2379" data-name="Path 2379" d="M52.34,215.089a1.18,1.18,0,0,0,1.179,1.179h23.3a1.179,1.179,0,1,0,0-2.358h-23.3A1.18,1.18,0,0,0,52.34,215.089Z" transform="translate(-44.11 -180.276)" fill="#00aeef"/>
  <path id="Path_2380" data-name="Path 2380" d="M267.745,198.61a1.178,1.178,0,0,0-1.45.824l-.645,2.34a2.137,2.137,0,0,0,.755,2.266,2.181,2.181,0,0,0,2.384.164l5.97-3.434a1.179,1.179,0,0,0-1.176-2.044l-5.52,3.175.508-1.838A1.184,1.184,0,0,0,267.745,198.61Z" transform="translate(-223.816 -167.346)" fill="#00aeef"/>
  <path id="Path_2381" data-name="Path 2381" d="M53.519,273.448h23.3a1.179,1.179,0,1,0,0-2.358h-23.3a1.179,1.179,0,1,0,0,2.358Z" transform="translate(-44.11 -228.466)" fill="#00aeef"/>
  <path id="Path_2382" data-name="Path 2382" d="M275.182,256.339a1.178,1.178,0,0,0-1.61-.434l-5.52,3.175.508-1.838a1.179,1.179,0,1,0-2.274-.626l-.645,2.34a2.137,2.137,0,0,0,.755,2.266,2.178,2.178,0,0,0,2.384.164l5.97-3.432A1.184,1.184,0,0,0,275.182,256.339Z" transform="translate(-223.808 -215.535)" fill="#00aeef"/>
  <path id="Path_2383" data-name="Path 2383" d="M53.519,330.628h23.3a1.179,1.179,0,0,0,0-2.359h-23.3a1.179,1.179,0,0,0,0,2.359Z" transform="translate(-44.11 -276.655)" fill="#00aeef"/>
  <path id="Path_2384" data-name="Path 2384" d="M275.182,313.519a1.178,1.178,0,0,0-1.61-.434l-5.52,3.175.508-1.838a1.179,1.179,0,1,0-2.274-.626l-.645,2.34a2.145,2.145,0,0,0,3.137,2.429l5.97-3.432A1.183,1.183,0,0,0,275.182,313.519Z" transform="translate(-223.808 -263.725)" fill="#00aeef"/>
  <path id="Path_2385" data-name="Path 2385" d="M53.519,387.8h23.3a1.179,1.179,0,1,0,0-2.358h-23.3a1.179,1.179,0,1,0,0,2.358Z" transform="translate(-44.11 -324.836)" fill="#00aeef"/>
  <path id="Path_2386" data-name="Path 2386" d="M267.745,370.14a1.178,1.178,0,0,0-1.45.822l-.645,2.34a2.145,2.145,0,0,0,3.137,2.429l5.97-3.432a1.179,1.179,0,0,0-1.176-2.044l-5.52,3.175.508-1.838A1.182,1.182,0,0,0,267.745,370.14Z" transform="translate(-223.816 -311.906)" fill="#00aeef"/>
  <path id="Path_2387" data-name="Path 2387" d="M59.492,5.063A5.068,5.068,0,0,0,54.429,0H21.937A1.193,1.193,0,0,0,21.1.346L.344,21.105A1.208,1.208,0,0,0,0,21.939V65.379a1.179,1.179,0,1,0,2.358,0V23.118h14.95a5.8,5.8,0,0,0,5.808-5.808V2.359H54.429a2.707,2.707,0,0,1,2.7,2.7V21.038a1.179,1.179,0,1,0,2.359,0V5.063ZM20.759,4.027V17.308a3.489,3.489,0,0,1-3.451,3.451H4.027Z" transform="translate(0)" fill="#00aeef"/>
  <path id="Path_2388" data-name="Path 2388" d="M1.179,200.65A1.18,1.18,0,0,0,0,201.829v5.346a5.067,5.067,0,0,0,5.061,5.061h49.37a5.067,5.067,0,0,0,5.061-5.061V157.489a1.179,1.179,0,0,0-2.358,0v49.686a2.706,2.706,0,0,1-2.7,2.7H5.061a2.706,2.706,0,0,1-2.7-2.7v-5.346A1.18,1.18,0,0,0,1.179,200.65Z" transform="translate(0 -131.733)" fill="#00aeef"/>
</svg>
