<svg xmlns="http://www.w3.org/2000/svg" width="62.263" height="83.892" viewBox="0 0 62.263 83.892">
  <g id="Group_1651" data-name="Group 1651" transform="translate(-107 -165.89)">
    <path id="Path_2438" data-name="Path 2438" d="M108.639,501.655a1.639,1.639,0,1,0-1.158-.48,1.649,1.649,0,0,0,1.158.48Zm0,0" transform="translate(0 -278.01)" fill="#00aeef"/>
    <path id="Path_2439" data-name="Path 2439" d="M251.956,471.639a4.921,4.921,0,0,0,4.916-4.916v-8.7a8.848,8.848,0,1,0-9.831-.028v8.729a4.921,4.921,0,0,0,4.915,4.916Zm-5.55-20.987a5.571,5.571,0,1,1,8.086,4.971,1.638,1.638,0,0,0-.9,1.461v9.64a1.638,1.638,0,0,1-3.277,0v-9.661a1.638,1.638,0,0,0-.888-1.456,5.554,5.554,0,0,1-3.024-4.954Zm0,0" transform="translate(-113.824 -230.705)" fill="#00aeef"/>
    <path id="Path_2440" data-name="Path 2440" d="M428.639,548.167a1.639,1.639,0,1,0-1.158-.48,1.647,1.647,0,0,0,1.158.48Zm0,0" transform="translate(-267.568 -316.901)" fill="#00aeef"/>
    <path id="Path_2441" data-name="Path 2441" d="M162.709,197.76V190.7a24.578,24.578,0,1,0-49.155-.236v.807a.516.516,0,0,0,.516.516h1.67a1.091,1.091,0,0,0,1.091-1.091h0a21.3,21.3,0,1,1,42.6-.232v7.021a.516.516,0,0,1-.516.516h-4.539a.516.516,0,0,1-.516-.516v-7.021a15.73,15.73,0,1,0-31.459.2v.609a.516.516,0,0,0,.516.516h2.245a.516.516,0,0,0,.516-.516v-.636a12.453,12.453,0,1,1,24.905-.172v7.021a.516.516,0,0,1-.516.516H116.831l-3.234.163a.541.541,0,0,0-.086.011A8.206,8.206,0,0,0,107,206.2v9.248a1.673,1.673,0,0,0,1.4,1.675,1.639,1.639,0,0,0,1.879-1.621v-9.3a4.919,4.919,0,0,1,4.919-4.919h45.871a4.919,4.919,0,0,1,4.919,4.919v35.388a4.918,4.918,0,0,1-2.516,4.288.515.515,0,0,1-.761-.454V236.4a1.674,1.674,0,0,0-1.4-1.675,1.639,1.639,0,0,0-1.879,1.621v9.643a.516.516,0,0,1-.516.516H115.2a4.919,4.919,0,0,1-4.919-4.919V228.7a1.674,1.674,0,0,0-1.4-1.675A1.639,1.639,0,0,0,107,228.645v12.941a8.2,8.2,0,0,0,8.2,8.2h45.871a8.2,8.2,0,0,0,8.2-8.2V206.2a8.206,8.206,0,0,0-6.167-7.939A.514.514,0,0,1,162.709,197.76Z" transform="translate(0 0)" fill="#00aeef"/>
  </g>
</svg>
