<svg id="Group_1606" data-name="Group 1606" xmlns="http://www.w3.org/2000/svg" xmlns:xlink="http://www.w3.org/1999/xlink" width="79.407" height="39.287" viewBox="0 0 79.407 39.287">
  <defs>
    <clipPath id="clip-path">
      <path id="Path_2207" data-name="Path 2207" d="M0-34.293V4.988H40.129L79.407-34.293Z" transform="translate(0 34.293)" fill="none"/>
    </clipPath>
    <linearGradient id="linear-gradient" x1="-0.001" y1="0.5" x2="0.999" y2="0.5" gradientUnits="objectBoundingBox">
      <stop offset="0" stop-color="#205db1"/>
      <stop offset="0.1" stop-color="#2366b7"/>
      <stop offset="0.2" stop-color="#2470bc"/>
      <stop offset="0.3" stop-color="#2879c1"/>
      <stop offset="0.4" stop-color="#2a83c7"/>
      <stop offset="0.5" stop-color="#2d8dcd"/>
      <stop offset="0.6" stop-color="#3297d3"/>
      <stop offset="0.7" stop-color="#36a0d8"/>
      <stop offset="0.8" stop-color="#39a9de"/>
      <stop offset="0.9" stop-color="#3db2e3"/>
      <stop offset="1" stop-color="#41bbe9"/>
    </linearGradient>
    <clipPath id="clip-path-2">
      <path id="Path_2210" data-name="Path 2210" d="M0,4.994H79.407V-34.293H0Z" transform="translate(0 34.293)" fill="none"/>
    </clipPath>
  </defs>
  <g id="Group_1452" data-name="Group 1452" transform="translate(0 0)" clip-path="url(#clip-path)">
    <g id="Group_1451" data-name="Group 1451" transform="translate(0 39.287) rotate(-90)">
      <path id="Path_2206" data-name="Path 2206" d="M39.287,0V79.407H0V0Z" transform="translate(0)" fill="url(#linear-gradient)"/>
    </g>
  </g>
  <g id="Group_1455" data-name="Group 1455" transform="translate(0 0)" clip-path="url(#clip-path-2)">
    <g id="Group_1453" data-name="Group 1453" transform="translate(1.111 6.968)">
      <path id="Path_2208" data-name="Path 2208" d="M5.908,1.5H4.185V-4.8H5.908c2.3,0,4.124.763,4.124,3.115C10.032.742,8.2,1.5,5.908,1.5M-12.616,6a7.089,7.089,0,0,1-2.505-.443l2.479-7.814h.05l2.428,7.837A7.208,7.208,0,0,1-12.616,6M5.448-9.908l-7.817,0V8.672L-9.2-9.91h-6.77L-21.8,5.629C-22.416,1.712-26.469.357-29.66-.658-31.769-1.333-34-2.33-33.978-3.428c.014-.9,1.2-1.74,3.537-1.613A12.767,12.767,0,0,1-24.724-3.5L-22-8.23a21.192,21.192,0,0,0-8.855-2.1h-.019a10.757,10.757,0,0,0-7.817,2.856A6.6,6.6,0,0,0-40.564-2.91a6.119,6.119,0,0,0,2.687,5.458,18.324,18.324,0,0,0,5.312,2.433c2.169.67,3.94,1.253,3.918,2.5A1.8,1.8,0,0,1-29.158,8.7a3.435,3.435,0,0,1-2.519.792A10.825,10.825,0,0,1-38.15,7.644l-2.414,4.794a18.063,18.063,0,0,0,8.847,2.353l.407,0a10.692,10.692,0,0,0,6.728-2.256c.1-.078.192-.164.285-.246l-.782,2.1h7.1l1.193-3.624a13.123,13.123,0,0,0,4.172.659,13.163,13.163,0,0,0,4.075-.626l1.148,3.59H4.185V6.875H6.709c6.1,0,9.718-3.107,9.718-8.318,0-5.8-3.509-8.465-10.98-8.465" transform="translate(40.565 10.325)" fill="#fff" fill-rule="evenodd"/>
    </g>
    <g id="Group_1454" data-name="Group 1454" transform="translate(49.222 34.192)">
      <path id="Path_2209" data-name="Path 2209" d="M.26.3V-.607H.868c.3,0,.634.065.634.431C1.5.278,1.166.3.794.3Zm0,.378H.772l.773,1.273h.5L1.209.658A.761.761,0,0,0,1.971-.15c0-.579-.343-.835-1.036-.835H-.183V1.951H.26ZM.8,3.032A2.545,2.545,0,0,0,3.373.478,2.541,2.541,0,0,0,.8-2.063,2.542,2.542,0,0,0-1.786.478,2.546,2.546,0,0,0,.8,3.032M-1.274.478A2.063,2.063,0,0,1,.8-1.641,2.062,2.062,0,0,1,2.862.478,2.057,2.057,0,0,1,.8,2.607,2.059,2.059,0,0,1-1.274.478" transform="translate(1.786 2.063)" fill="#205db1"/>
    </g>
  </g>
</svg>
