<?xml version="1.0" encoding="utf-8"?>
<!-- Generator: Adobe Illustrator 24.3.0, SVG Export Plug-In . SVG Version: 6.00 Build 0)  -->
<svg version="1.1" id="Layer_1" xmlns="http://www.w3.org/2000/svg" xmlns:xlink="http://www.w3.org/1999/xlink" x="0px" y="0px"
	 width="1268.3px" height="611.8px" viewBox="0 0 1268.3 611.8" enable-background="new 0 0 1268.3 611.8" xml:space="preserve">
<g enable-background="new    ">
	<path fill="#00AEEF" d="M489.2,103.4c-0.4,0.1-0.6,0.1-0.8,0.2c-0.2,0-0.4,0-0.8,0c-1.2,0-2.2-0.3-2.9-0.9c-0.7-0.6-1.1-1.6-1.1-3
		V83.1h3.5v15.9c0,0.4,0.1,0.8,0.3,1s0.6,0.4,1.1,0.4c0.1,0,0.3,0,0.3,0c0.1,0,0.2,0,0.3,0V103.4z"/>
	<path fill="#00AEEF" d="M503.7,96.2c0,0.1,0,0.3,0,0.4v0.6h-9.7c0,0.6,0.1,1.1,0.3,1.6c0.2,0.5,0.4,0.9,0.8,1.3
		c0.3,0.2,0.6,0.5,0.9,0.6c0.3,0.2,0.8,0.3,1.2,0.3c0.5,0,0.9-0.1,1.2-0.2c0.3-0.1,0.6-0.3,0.9-0.5c0.3-0.3,0.6-0.7,0.7-1.2h3.4
		c0,0.4-0.2,0.9-0.4,1.4c-0.3,0.5-0.5,0.9-0.8,1.3c-0.6,0.7-1.4,1.3-2.2,1.6c-0.9,0.3-1.8,0.5-2.7,0.5c-1,0-1.9-0.2-2.6-0.5
		s-1.4-0.8-2-1.3c-0.7-0.7-1.3-1.6-1.7-2.5c-0.4-1-0.6-2.1-0.6-3.3c0-1.2,0.2-2.3,0.5-3.3c0.3-1,0.9-1.9,1.6-2.6
		c0.5-0.6,1.2-1,2-1.3c0.8-0.3,1.7-0.5,2.7-0.5c1.1,0,2.1,0.2,3,0.7c0.9,0.4,1.7,1.1,2.3,2c0.5,0.8,0.9,1.6,1,2.5
		C503.6,94.4,503.7,95.3,503.7,96.2z M500.2,94.7c0-1.1-0.3-1.9-0.9-2.5c-0.2-0.3-0.5-0.5-0.9-0.6c-0.4-0.1-0.8-0.2-1.3-0.2
		c-0.5,0-1,0.1-1.4,0.3c-0.4,0.2-0.7,0.5-1,0.8c-0.3,0.3-0.4,0.7-0.6,1c-0.1,0.4-0.2,0.8-0.2,1.3H500.2z"/>
	<path fill="#00AEEF" d="M519,103.2c-0.3,0.1-0.6,0.2-0.8,0.3c-0.2,0.1-0.5,0.1-1,0.1c-0.8,0-1.4-0.2-1.8-0.6
		c-0.4-0.4-0.6-0.9-0.7-1.4c-0.3,0.6-0.9,1.1-1.7,1.5c-0.8,0.4-1.7,0.6-2.7,0.6c-0.9,0-1.6-0.1-2.3-0.4s-1.2-0.6-1.6-1
		c-0.4-0.4-0.8-0.9-1-1.5c-0.2-0.6-0.3-1.1-0.3-1.7c0-0.7,0.1-1.3,0.4-1.8s0.6-1,1-1.4c0.4-0.4,1-0.7,1.6-0.9
		c0.6-0.2,1.2-0.3,1.9-0.4l4.3-0.3v-0.9c0-0.7-0.2-1.2-0.5-1.7c-0.3-0.4-1-0.6-2-0.6c-0.8,0-1.5,0.2-1.9,0.5
		c-0.5,0.4-0.7,0.9-0.7,1.5h-3.4c0.1-0.8,0.2-1.5,0.6-2.1c0.3-0.6,0.8-1.1,1.3-1.5c0.5-0.4,1.2-0.7,1.9-0.9c0.7-0.2,1.5-0.3,2.3-0.3
		c1.3,0,2.4,0.2,3.3,0.7c1,0.4,1.7,1.2,2.1,2.3c0.2,0.5,0.3,1,0.3,1.5s0.1,1,0.1,1.5v5.4c0,0.3,0.1,0.6,0.2,0.7
		c0.1,0.1,0.3,0.2,0.6,0.2c0.1,0,0.3,0,0.3,0c0.1,0,0.1,0,0.1,0V103.2z M514.3,96.9l-3.7,0.3c-0.5,0-1,0.2-1.5,0.5
		c-0.4,0.3-0.6,0.8-0.6,1.4c0,0.6,0.2,1,0.6,1.3c0.4,0.3,0.9,0.5,1.4,0.5c1.1,0,2-0.3,2.7-0.9c0.7-0.6,1-1.4,1-2.5V96.9z"/>
	<path fill="#00AEEF" d="M530.8,103.4l-0.2-1.6c-0.4,0.7-1,1.2-1.8,1.5c-0.7,0.3-1.5,0.5-2.3,0.5c-0.7,0-1.4-0.1-2-0.3
		s-1.1-0.5-1.6-0.9c-0.9-0.7-1.5-1.6-1.9-2.7c-0.4-1.1-0.6-2.3-0.6-3.7c0-2.9,0.9-5.1,2.6-6.5c0.4-0.4,1-0.7,1.6-0.9
		c0.6-0.2,1.3-0.3,2-0.3c0.9,0,1.7,0.1,2.4,0.4c0.6,0.3,1.1,0.6,1.4,1v-6.7h3.5v20.2H530.8z M530.5,96.1c0-0.5,0-1.1-0.1-1.6
		s-0.2-1.1-0.5-1.5c-0.2-0.5-0.6-0.8-1-1.1s-1-0.4-1.7-0.4c-0.5,0-1,0.1-1.4,0.3c-0.4,0.2-0.7,0.5-1,0.8c-0.4,0.5-0.6,1-0.7,1.7
		c-0.1,0.6-0.2,1.2-0.2,1.9s0.1,1.3,0.2,1.9c0.1,0.6,0.4,1.2,0.7,1.7c0.3,0.3,0.6,0.6,1,0.8c0.4,0.2,0.8,0.3,1.4,0.3
		c0.7,0,1.2-0.1,1.7-0.4c0.4-0.3,0.8-0.7,1-1.1c0.2-0.5,0.4-1,0.5-1.5C530.4,97.1,530.5,96.6,530.5,96.1z"/>
	<path fill="#00AEEF" d="M549.8,96.2c0,0.1,0,0.3,0,0.4v0.6H540c0,0.6,0.1,1.1,0.3,1.6c0.2,0.5,0.4,0.9,0.8,1.3
		c0.3,0.2,0.6,0.5,0.9,0.6c0.3,0.2,0.8,0.3,1.2,0.3c0.5,0,0.9-0.1,1.2-0.2c0.3-0.1,0.6-0.3,0.9-0.5c0.3-0.3,0.6-0.7,0.7-1.2h3.4
		c0,0.4-0.2,0.9-0.4,1.4c-0.3,0.5-0.5,0.9-0.8,1.3c-0.6,0.7-1.4,1.3-2.2,1.6c-0.9,0.3-1.8,0.5-2.7,0.5c-1,0-1.9-0.2-2.6-0.5
		s-1.4-0.8-2-1.3c-0.7-0.7-1.3-1.6-1.7-2.5c-0.4-1-0.6-2.1-0.6-3.3c0-1.2,0.2-2.3,0.5-3.3c0.3-1,0.9-1.9,1.6-2.6
		c0.5-0.6,1.2-1,2-1.3c0.8-0.3,1.7-0.5,2.7-0.5c1.1,0,2.1,0.2,3,0.7c0.9,0.4,1.7,1.1,2.3,2c0.5,0.8,0.9,1.6,1,2.5
		C549.7,94.4,549.8,95.3,549.8,96.2z M546.3,94.7c0-1.1-0.3-1.9-0.9-2.5c-0.2-0.3-0.5-0.5-0.9-0.6c-0.4-0.1-0.8-0.2-1.3-0.2
		c-0.5,0-1,0.1-1.4,0.3c-0.4,0.2-0.7,0.5-1,0.8c-0.3,0.3-0.4,0.7-0.6,1c-0.1,0.4-0.2,0.8-0.2,1.3H546.3z"/>
	<path fill="#00AEEF" d="M560.8,92.1c-0.4-0.1-0.8-0.1-1.2-0.1c-1.2,0-2.2,0.4-2.8,1.2c-0.6,0.8-1,1.8-1,2.9v7.3h-3.5V88.8h3
		l0.3,2.2c0.3-0.8,0.9-1.4,1.7-1.8c0.8-0.4,1.6-0.6,2.5-0.6c0.4,0,0.7,0,1.1,0.1V92.1z"/>
	<path fill="#00AEEF" d="M573.7,98.9c0,0.7-0.1,1.3-0.3,1.8c-0.2,0.5-0.5,1-0.9,1.3c-0.6,0.6-1.3,1-2.2,1.3
		c-0.9,0.3-1.8,0.4-2.8,0.4c-0.9,0-1.8-0.1-2.6-0.4c-0.8-0.3-1.5-0.7-2.1-1.3c-0.4-0.4-0.8-0.9-1.1-1.5c-0.3-0.6-0.4-1.2-0.4-1.9
		h3.3c0,0.3,0.1,0.6,0.2,1s0.3,0.6,0.6,0.8c0.3,0.2,0.6,0.4,0.9,0.5s0.8,0.2,1.3,0.2c0.3,0,0.6,0,1-0.1s0.7-0.1,1-0.3
		c0.3-0.1,0.5-0.3,0.7-0.6c0.2-0.2,0.3-0.6,0.3-1c0-0.4-0.1-0.8-0.4-1c-0.3-0.3-0.6-0.4-1.1-0.5c-0.7-0.1-1.3-0.2-2-0.2
		c-0.7-0.1-1.4-0.2-2-0.3c-0.5-0.1-1-0.3-1.4-0.5c-0.4-0.2-0.8-0.5-1-0.9c-0.3-0.3-0.5-0.7-0.7-1.1s-0.2-0.9-0.2-1.3
		c0-0.7,0.1-1.4,0.4-1.9c0.3-0.5,0.6-1,1.1-1.4c0.5-0.5,1.2-0.8,1.9-1.1c0.7-0.3,1.6-0.4,2.5-0.4c0.9,0,1.7,0.1,2.5,0.4
		c0.8,0.3,1.5,0.7,2,1.3c0.4,0.4,0.7,0.9,0.9,1.4s0.4,1,0.4,1.6h-3.3c0-0.3-0.1-0.5-0.2-0.8c-0.1-0.2-0.3-0.4-0.4-0.6
		c-0.2-0.2-0.5-0.4-0.8-0.5c-0.3-0.1-0.7-0.2-1.1-0.2c-0.3,0-0.5,0-0.8,0c-0.2,0-0.5,0.1-0.8,0.2c-0.3,0.1-0.6,0.3-0.8,0.6
		c-0.2,0.3-0.3,0.6-0.3,1c0,0.5,0.2,0.9,0.5,1.1s0.7,0.3,1.1,0.4c0.3,0,0.6,0.1,0.8,0.1c0.2,0,0.4,0.1,0.7,0.1
		c0.2,0,0.5,0.1,0.7,0.1s0.5,0.1,0.9,0.1c1.2,0.2,2.1,0.6,2.9,1.3C573.4,96.8,573.7,97.7,573.7,98.9z"/>
	<path fill="#00AEEF" d="M585.2,103.4v-9c0-0.8-0.2-1.5-0.5-2s-1-0.7-1.9-0.7c-0.5,0-1,0.1-1.4,0.4s-0.7,0.6-0.9,1
		c-0.2,0.4-0.4,0.8-0.5,1.3c-0.1,0.5-0.2,0.9-0.2,1.4v7.7h-3.5V83.2h3.5v7.2c0.4-0.6,1-1.1,1.7-1.4c0.7-0.3,1.5-0.5,2.2-0.5
		c0.8,0,1.5,0.1,2.1,0.4c0.6,0.3,1.1,0.6,1.5,1.1c0.4,0.5,0.7,1,1,1.7c0.2,0.6,0.3,1.3,0.3,2.1v9.7H585.2z"/>
	<path fill="#00AEEF" d="M592.1,86.8v-3.6h3.8v3.6H592.1z M592.2,103.4V88.8h3.6v14.6H592.2z"/>
	<path fill="#00AEEF" d="M612.9,96.1c0,1.4-0.2,2.7-0.6,3.8c-0.4,1.1-1.1,2-2,2.7c-0.4,0.4-1,0.7-1.6,0.9s-1.3,0.3-2,0.3
		c-0.9,0-1.6-0.1-2.3-0.4c-0.7-0.3-1.2-0.6-1.5-1v6.6h-3.5V88.8h3l0.2,1.6c0.4-0.7,1-1.2,1.8-1.5c0.7-0.3,1.5-0.5,2.3-0.5
		c0.7,0,1.4,0.1,2,0.3c0.6,0.2,1.1,0.5,1.6,0.9c0.9,0.7,1.5,1.6,2,2.7C612.7,93.5,612.9,94.7,612.9,96.1z M609.4,96.1
		c0-0.6-0.1-1.3-0.2-1.9c-0.1-0.6-0.4-1.2-0.7-1.7c-0.3-0.3-0.6-0.6-1-0.8s-0.8-0.3-1.4-0.3c-0.7,0-1.3,0.1-1.7,0.4
		c-0.4,0.3-0.8,0.7-1,1.1c-0.2,0.5-0.4,1-0.5,1.5s-0.1,1.1-0.1,1.6s0,1.1,0.1,1.6s0.2,1.1,0.5,1.5c0.2,0.5,0.6,0.8,1,1.1
		c0.4,0.3,1,0.4,1.7,0.4c0.5,0,1-0.1,1.4-0.3s0.7-0.5,1-0.8c0.4-0.5,0.6-1,0.7-1.7S609.4,96.8,609.4,96.1z"/>
</g>
<g enable-background="new    ">
	<path fill="#00AEEF" d="M775.5,144.7c0,1-0.2,1.7-0.6,2.4c-0.4,0.6-1,1.1-1.7,1.5c-0.7,0.4-1.4,0.6-2.3,0.8
		c-0.8,0.1-1.7,0.2-2.5,0.2c-0.9,0-1.8-0.1-2.7-0.2c-0.9-0.1-1.7-0.5-2.5-1c-0.6-0.4-1-0.8-1.3-1.4c-0.3-0.5-0.5-1.1-0.5-1.8
		c0-0.6,0.1-1.2,0.4-1.8s0.7-0.9,1.3-1.2c-0.5-0.3-0.8-0.6-1.1-1.1s-0.4-0.9-0.4-1.4c0-1.3,0.6-2.2,1.7-2.9c-0.4-0.4-0.8-1-1.1-1.6
		s-0.4-1.3-0.4-2c0-0.9,0.2-1.6,0.5-2.3s0.7-1.2,1.3-1.7c0.5-0.4,1.2-0.8,1.9-1s1.5-0.3,2.3-0.3c0.6,0,1.2,0.1,1.7,0.2
		c0.6,0.2,1.1,0.4,1.6,0.7c0.3-0.6,0.7-1.1,1.3-1.4c0.5-0.3,1.1-0.4,1.7-0.4c0.1,0,0.3,0,0.5,0c0.2,0,0.4,0,0.5,0.1v2.7l-0.3,0
		c-0.4,0-0.8,0.1-1.1,0.2c-0.3,0.1-0.5,0.4-0.7,0.7c0.5,0.8,0.8,1.7,0.8,2.6c0,0.8-0.2,1.6-0.5,2.2c-0.3,0.7-0.8,1.2-1.3,1.7
		c-0.5,0.4-1.2,0.8-1.9,1c-0.7,0.2-1.5,0.4-2.3,0.4c-0.8,0-1.6-0.1-2.4-0.4c-0.2,0.1-0.3,0.2-0.5,0.4c-0.2,0.2-0.2,0.4-0.2,0.6
		c0,0.4,0.2,0.7,0.5,0.9c0.3,0.1,0.7,0.2,1.1,0.2h2.4c0.4,0,0.7,0,1.1,0c0.4,0,0.8,0,1.2,0.1c0.4,0.1,0.8,0.2,1.2,0.3
		s0.8,0.3,1.1,0.6c0.6,0.4,1.1,0.9,1.4,1.5C775.4,143.3,775.5,144,775.5,144.7z M772.2,144.8c0-0.4-0.1-0.8-0.4-1
		c-0.2-0.2-0.5-0.4-0.9-0.5c-0.3-0.1-0.7-0.2-1.1-0.2s-0.8,0-1.1,0H766c-0.4,0.1-0.7,0.3-0.9,0.6c-0.3,0.3-0.4,0.7-0.4,1.2
		s0.1,0.8,0.4,1.1c0.3,0.3,0.6,0.5,0.9,0.6c0.4,0.1,0.8,0.2,1.2,0.3c0.4,0,0.8,0.1,1.1,0.1c0.4,0,0.8,0,1.2,0c0.4,0,0.9-0.1,1.3-0.2
		s0.7-0.3,1-0.6C772.1,145.6,772.2,145.2,772.2,144.8z M770.7,133.2c0-0.8-0.2-1.4-0.7-1.9c-0.5-0.5-1.1-0.8-1.9-0.8
		c-0.8,0-1.4,0.3-1.9,0.8c-0.5,0.5-0.7,1.2-0.7,1.9s0.2,1.4,0.7,1.9c0.5,0.5,1.1,0.8,1.9,0.8c0.8,0,1.4-0.3,1.9-0.8
		C770.5,134.6,770.7,133.9,770.7,133.2z"/>
	<path fill="#00AEEF" d="M785.9,131.4c-0.4-0.1-0.8-0.1-1.2-0.1c-1.2,0-2.2,0.4-2.8,1.2c-0.6,0.8-1,1.8-1,2.9v7.3h-3.5v-14.6h3
		l0.3,2.2c0.3-0.8,0.9-1.4,1.7-1.8c0.8-0.4,1.6-0.6,2.5-0.6c0.4,0,0.7,0,1.1,0.1V131.4z"/>
	<path fill="#00AEEF" d="M799.9,135.5c0,1.2-0.2,2.3-0.4,3.1c-0.3,0.8-0.7,1.6-1.3,2.3c-0.5,0.6-1.2,1.1-2.1,1.6
		c-0.9,0.4-1.9,0.7-3,0.7s-2.1-0.2-3-0.7c-0.9-0.4-1.6-1-2.1-1.6c-0.5-0.7-1-1.5-1.3-2.3c-0.3-0.8-0.4-1.9-0.4-3.1
		c0-1.2,0.1-2.3,0.4-3.1c0.3-0.8,0.7-1.6,1.3-2.3c0.5-0.6,1.2-1.1,2.1-1.6s1.9-0.7,3-0.7s2.1,0.2,3,0.7c0.9,0.4,1.6,1,2.1,1.6
		c0.5,0.7,1,1.5,1.3,2.3C799.7,133.2,799.9,134.2,799.9,135.5z M796.3,135.5c0-0.7-0.1-1.4-0.2-2c-0.1-0.6-0.4-1.2-0.8-1.7
		c-0.2-0.3-0.6-0.5-0.9-0.7c-0.4-0.2-0.8-0.3-1.3-0.3s-0.9,0.1-1.3,0.3c-0.4,0.2-0.7,0.4-0.9,0.7c-0.4,0.5-0.7,1-0.8,1.7
		c-0.1,0.6-0.2,1.3-0.2,2c0,0.7,0.1,1.4,0.2,2c0.1,0.6,0.4,1.2,0.8,1.7c0.2,0.3,0.6,0.5,0.9,0.7c0.4,0.2,0.8,0.3,1.3,0.3
		s0.9-0.1,1.3-0.3c0.4-0.2,0.7-0.4,0.9-0.7c0.4-0.5,0.7-1,0.8-1.7C796.3,136.8,796.3,136.1,796.3,135.5z"/>
	<path fill="#00AEEF" d="M817.6,142.7h-3.2l-3.3-9.8l-3.2,9.8h-3.2l-3.7-14.6h3.4l2.3,9.5l3.1-9.4h2.9l3.1,9.4l2.2-9.5h3.3
		L817.6,142.7z"/>
	<path fill="#00AEEF" d="M831.5,142.5c-1,0.3-2,0.4-3,0.4c-1.5,0-2.6-0.4-3.3-1.2c-0.7-0.8-1.1-1.9-1.1-3.3v-7.4h-2.7v-2.9h2.7v-3.7
		l3.5-0.9v4.6h3.7v2.9h-3.7v7.1c0,0.6,0.1,1,0.4,1.2c0.3,0.3,0.7,0.4,1.2,0.4c0.4,0,0.7,0,1.1,0c0.3,0,0.7-0.1,1.2-0.1V142.5z"/>
	<path fill="#00AEEF" d="M842.7,142.7v-9c0-0.8-0.2-1.5-0.5-2s-1-0.7-1.9-0.7c-0.5,0-1,0.1-1.4,0.4s-0.7,0.6-0.9,1
		c-0.2,0.4-0.4,0.8-0.5,1.3c-0.1,0.5-0.2,0.9-0.2,1.4v7.7h-3.5v-20.2h3.5v7.2c0.4-0.6,1-1.1,1.7-1.4c0.7-0.3,1.5-0.5,2.2-0.5
		c0.8,0,1.5,0.1,2.1,0.4c0.6,0.3,1.1,0.6,1.5,1.1c0.4,0.5,0.7,1,1,1.7c0.2,0.6,0.3,1.3,0.3,2.1v9.7H842.7z"/>
	<path fill="#00AEEF" d="M872,142.7v-9c0-0.9-0.2-1.6-0.5-2.1c-0.3-0.5-0.9-0.7-1.8-0.7c-0.5,0-0.9,0.1-1.3,0.3
		c-0.4,0.2-0.6,0.5-0.9,0.9s-0.4,0.8-0.5,1.3c-0.1,0.5-0.2,0.9-0.2,1.4v8h-3.5v-9c0-0.9-0.2-1.6-0.5-2.1c-0.3-0.5-0.9-0.7-1.8-0.7
		c-0.5,0-0.9,0.1-1.3,0.3c-0.4,0.2-0.7,0.5-0.9,0.9c-0.2,0.4-0.4,0.8-0.5,1.3c-0.1,0.5-0.2,0.9-0.2,1.4v8h-3.5v-14.6h2.9l0.3,1.9
		c0.4-0.7,1-1.2,1.7-1.7c0.7-0.4,1.5-0.6,2.5-0.6c1,0,1.9,0.2,2.6,0.6c0.7,0.4,1.2,1,1.6,1.8c0.4-0.8,1-1.4,1.8-1.8
		c0.8-0.4,1.6-0.6,2.6-0.6c1.6,0,2.7,0.5,3.5,1.4c0.8,0.9,1.2,2.2,1.2,3.7v9.8H872z"/>
	<path fill="#00AEEF" d="M878.8,126.2v-3.6h3.8v3.6H878.8z M878.9,142.7v-14.6h3.6v14.6H878.9z"/>
	<path fill="#00AEEF" d="M895.1,142.7v-8.9c0-0.9-0.2-1.5-0.5-2c-0.3-0.5-1-0.7-1.9-0.7c-0.6,0-1.1,0.2-1.5,0.5
		c-0.4,0.3-0.7,0.8-1,1.3c-0.2,0.5-0.4,1.2-0.4,1.9c0,0.7-0.1,1.4-0.1,2v5.9h-3.5v-14.6h2.9l0.3,1.9c0.4-0.8,1-1.3,1.8-1.7
		c0.8-0.4,1.6-0.5,2.5-0.5c0.8,0,1.5,0.1,2.1,0.4c0.6,0.3,1.1,0.6,1.5,1.1c0.4,0.5,0.7,1,1,1.7c0.2,0.6,0.3,1.3,0.3,2.1v9.7H895.1z"
		/>
	<path fill="#00AEEF" d="M911.5,142.7l-0.2-1.6c-0.4,0.7-1,1.2-1.8,1.5c-0.7,0.3-1.5,0.5-2.3,0.5c-0.7,0-1.4-0.1-2-0.3
		c-0.6-0.2-1.1-0.5-1.6-0.9c-0.9-0.7-1.5-1.6-1.9-2.7c-0.4-1.1-0.6-2.3-0.6-3.7c0-2.9,0.9-5.1,2.6-6.5c0.4-0.4,1-0.7,1.6-0.9
		c0.6-0.2,1.3-0.3,2-0.3c0.9,0,1.7,0.1,2.4,0.4c0.6,0.3,1.1,0.6,1.4,1v-6.7h3.5v20.2H911.5z M911.2,135.4c0-0.5,0-1.1-0.1-1.6
		s-0.2-1.1-0.5-1.5c-0.2-0.5-0.6-0.8-1-1.1c-0.4-0.3-1-0.4-1.7-0.4c-0.5,0-1,0.1-1.4,0.3c-0.4,0.2-0.7,0.5-1,0.8
		c-0.4,0.5-0.6,1-0.7,1.7c-0.1,0.6-0.2,1.2-0.2,1.9s0.1,1.3,0.2,1.9c0.1,0.6,0.4,1.2,0.7,1.7c0.3,0.3,0.6,0.6,1,0.8
		c0.4,0.2,0.8,0.3,1.4,0.3c0.7,0,1.3-0.1,1.7-0.4c0.4-0.3,0.8-0.7,1-1.1c0.2-0.5,0.4-1,0.5-1.5C911.1,136.5,911.2,136,911.2,135.4z"
		/>
	<path fill="#00AEEF" d="M929.5,138.2c0,0.7-0.1,1.3-0.3,1.8c-0.2,0.5-0.5,1-0.9,1.3c-0.6,0.6-1.3,1-2.2,1.3
		c-0.9,0.3-1.8,0.4-2.8,0.4c-0.9,0-1.8-0.1-2.6-0.4c-0.8-0.3-1.5-0.7-2.1-1.3c-0.4-0.4-0.8-0.9-1.1-1.5c-0.3-0.6-0.4-1.2-0.4-1.9
		h3.3c0,0.3,0.1,0.6,0.2,1s0.3,0.6,0.6,0.8c0.3,0.2,0.6,0.4,0.9,0.5s0.8,0.2,1.3,0.2c0.3,0,0.6,0,1-0.1s0.7-0.1,1-0.3
		c0.3-0.1,0.5-0.3,0.7-0.6c0.2-0.2,0.3-0.6,0.3-1c0-0.4-0.1-0.8-0.4-1c-0.3-0.3-0.6-0.4-1.1-0.5c-0.7-0.1-1.3-0.2-2-0.2
		c-0.7-0.1-1.4-0.2-2-0.3c-0.5-0.1-1-0.3-1.4-0.5c-0.4-0.2-0.8-0.5-1-0.9c-0.3-0.3-0.5-0.7-0.7-1.1s-0.2-0.9-0.2-1.3
		c0-0.7,0.1-1.4,0.4-1.9c0.3-0.5,0.6-1,1.1-1.4c0.5-0.5,1.2-0.8,1.9-1.1c0.7-0.3,1.6-0.4,2.5-0.4c0.9,0,1.7,0.1,2.5,0.4
		c0.8,0.3,1.5,0.7,2,1.3c0.4,0.4,0.7,0.9,0.9,1.4s0.4,1,0.4,1.6h-3.3c0-0.3-0.1-0.5-0.2-0.8c-0.1-0.2-0.3-0.4-0.4-0.6
		c-0.2-0.2-0.5-0.4-0.8-0.5c-0.3-0.1-0.7-0.2-1.1-0.2c-0.3,0-0.5,0-0.8,0c-0.2,0-0.5,0.1-0.8,0.2c-0.3,0.1-0.6,0.3-0.8,0.6
		c-0.2,0.3-0.3,0.6-0.3,1c0,0.5,0.2,0.9,0.5,1.1s0.7,0.3,1.1,0.4c0.3,0,0.6,0.1,0.8,0.1c0.2,0,0.4,0.1,0.7,0.1
		c0.2,0,0.5,0.1,0.7,0.1s0.5,0.1,0.9,0.1c1.2,0.2,2.1,0.6,2.9,1.3C929.1,136.1,929.5,137.1,929.5,138.2z"/>
	<path fill="#00AEEF" d="M944.4,135.6c0,0.1,0,0.3,0,0.4v0.6h-9.7c0,0.6,0.1,1.1,0.3,1.6s0.4,0.9,0.8,1.3c0.3,0.2,0.6,0.5,0.9,0.6
		c0.3,0.2,0.8,0.3,1.2,0.3c0.5,0,0.9-0.1,1.2-0.2c0.3-0.1,0.6-0.3,0.9-0.5c0.3-0.3,0.6-0.7,0.7-1.2h3.4c0,0.4-0.2,0.9-0.4,1.4
		c-0.3,0.5-0.5,0.9-0.8,1.3c-0.6,0.7-1.4,1.3-2.2,1.6c-0.9,0.3-1.8,0.5-2.7,0.5c-1,0-1.9-0.2-2.6-0.5c-0.7-0.3-1.4-0.8-2-1.3
		c-0.7-0.7-1.3-1.6-1.7-2.5s-0.6-2.1-0.6-3.3c0-1.2,0.2-2.3,0.5-3.3c0.3-1,0.9-1.9,1.6-2.6c0.5-0.6,1.2-1,2-1.3s1.7-0.5,2.7-0.5
		c1.1,0,2.1,0.2,3,0.7s1.7,1.1,2.3,2c0.5,0.8,0.9,1.6,1,2.5C944.3,133.8,944.4,134.7,944.4,135.6z M940.9,134c0-1.1-0.3-1.9-0.9-2.5
		c-0.2-0.3-0.5-0.5-0.9-0.6c-0.4-0.1-0.8-0.2-1.3-0.2c-0.5,0-1,0.1-1.4,0.3c-0.4,0.2-0.7,0.5-1,0.8c-0.3,0.3-0.4,0.7-0.6,1
		s-0.2,0.8-0.2,1.3H940.9z"/>
	<path fill="#00AEEF" d="M955,142.5c-1,0.3-2,0.4-3,0.4c-1.5,0-2.6-0.4-3.3-1.2c-0.7-0.8-1.1-1.9-1.1-3.3v-7.4H945v-2.9h2.7v-3.7
		l3.5-0.9v4.6h3.7v2.9h-3.7v7.1c0,0.6,0.1,1,0.4,1.2c0.3,0.3,0.7,0.4,1.2,0.4c0.4,0,0.7,0,1.1,0c0.3,0,0.7-0.1,1.2-0.1V142.5z"/>
</g>
<path fill="#00AEEF" d="M849.2,248l-0.2-1.6c-0.4,0.7-1,1.2-1.8,1.5c-0.7,0.3-1.5,0.5-2.3,0.5c-0.7,0-1.4-0.1-2-0.3
	c-0.6-0.2-1.1-0.5-1.6-0.9c-0.9-0.7-1.5-1.6-1.9-2.7c-0.4-1.1-0.6-2.3-0.6-3.7c0-2.9,0.9-5.1,2.6-6.5c0.4-0.4,1-0.7,1.6-0.9
	c0.6-0.2,1.3-0.3,2-0.3c0.9,0,1.7,0.1,2.4,0.4c0.6,0.3,1.1,0.6,1.4,1v-6.7h3.5V248H849.2z M848.9,240.7c0-0.5,0-1.1-0.1-1.6
	s-0.2-1.1-0.5-1.5c-0.2-0.5-0.6-0.8-1-1.1c-0.4-0.3-1-0.4-1.7-0.4c-0.5,0-1,0.1-1.4,0.3c-0.4,0.2-0.7,0.5-1,0.8
	c-0.4,0.5-0.6,1-0.7,1.7c-0.1,0.6-0.2,1.2-0.2,1.9s0.1,1.3,0.2,1.9c0.1,0.6,0.4,1.2,0.7,1.7c0.3,0.3,0.6,0.6,1,0.8
	c0.4,0.2,0.8,0.3,1.4,0.3c0.7,0,1.3-0.1,1.7-0.4c0.4-0.3,0.8-0.7,1-1.1c0.2-0.5,0.4-1,0.5-1.5C848.9,241.8,848.9,241.3,848.9,240.7z
	"/>
<path fill="#00AEEF" d="M855.9,231.5v-3.6h3.8v3.6H855.9z M856,248v-14.6h3.6V248H856z"/>
<path fill="#00AEEF" d="M876,250c0,1-0.2,1.7-0.6,2.4c-0.4,0.6-1,1.1-1.7,1.5c-0.7,0.4-1.4,0.6-2.3,0.8c-0.8,0.1-1.7,0.2-2.5,0.2
	c-0.9,0-1.8-0.1-2.7-0.2c-0.9-0.1-1.7-0.5-2.5-1c-0.6-0.4-1-0.8-1.3-1.4c-0.3-0.5-0.5-1.1-0.5-1.8c0-0.6,0.1-1.2,0.4-1.8
	s0.7-0.9,1.3-1.2c-0.5-0.3-0.8-0.6-1.1-1.1s-0.4-0.9-0.4-1.4c0-1.3,0.6-2.2,1.7-2.9c-0.4-0.4-0.8-1-1.1-1.6s-0.4-1.3-0.4-2
	c0-0.9,0.2-1.6,0.5-2.3s0.7-1.2,1.3-1.7c0.5-0.4,1.2-0.8,1.9-1s1.5-0.3,2.3-0.3c0.6,0,1.2,0.1,1.7,0.2c0.6,0.2,1.1,0.4,1.6,0.7
	c0.3-0.6,0.7-1.1,1.3-1.4c0.5-0.3,1.1-0.4,1.7-0.4c0.1,0,0.3,0,0.5,0c0.2,0,0.4,0,0.5,0.1v2.7l-0.3,0c-0.4,0-0.8,0.1-1.1,0.2
	c-0.3,0.1-0.5,0.4-0.7,0.7c0.5,0.8,0.8,1.7,0.8,2.6c0,0.8-0.2,1.6-0.5,2.2c-0.3,0.7-0.8,1.2-1.3,1.7c-0.5,0.4-1.2,0.8-1.9,1
	c-0.7,0.2-1.5,0.4-2.3,0.4c-0.8,0-1.6-0.1-2.4-0.4c-0.2,0.1-0.3,0.2-0.5,0.4c-0.2,0.2-0.2,0.4-0.2,0.6c0,0.4,0.2,0.7,0.5,0.9
	c0.3,0.1,0.7,0.2,1.1,0.2h2.4c0.4,0,0.7,0,1.1,0c0.4,0,0.8,0,1.2,0.1c0.4,0.1,0.8,0.2,1.2,0.3s0.8,0.3,1.1,0.6
	c0.6,0.4,1.1,0.9,1.4,1.5C875.9,248.6,876,249.3,876,250z M872.7,250.1c0-0.4-0.1-0.8-0.4-1c-0.2-0.2-0.5-0.4-0.9-0.5
	c-0.3-0.1-0.7-0.2-1.1-0.2s-0.8,0-1.1,0h-2.7c-0.4,0.1-0.7,0.3-0.9,0.6c-0.3,0.3-0.4,0.7-0.4,1.2s0.1,0.8,0.4,1.1
	c0.3,0.3,0.6,0.5,0.9,0.6c0.4,0.1,0.8,0.2,1.2,0.3c0.4,0,0.8,0.1,1.1,0.1c0.4,0,0.8,0,1.2,0c0.4,0,0.9-0.1,1.3-0.2s0.7-0.3,1-0.6
	C872.6,250.9,872.7,250.5,872.7,250.1z M871.2,238.5c0-0.8-0.2-1.4-0.7-1.9c-0.5-0.5-1.1-0.8-1.9-0.8c-0.8,0-1.4,0.3-1.9,0.8
	c-0.5,0.5-0.7,1.2-0.7,1.9s0.2,1.4,0.7,1.9c0.5,0.5,1.1,0.8,1.9,0.8c0.8,0,1.4-0.3,1.9-0.8C871,239.9,871.2,239.2,871.2,238.5z"/>
<path fill="#00AEEF" d="M877.9,231.5v-3.6h3.8v3.6H877.9z M878,248v-14.6h3.6V248H878z"/>
<path fill="#00AEEF" d="M893.5,247.8c-1,0.3-2,0.4-3,0.4c-1.5,0-2.6-0.4-3.3-1.2c-0.7-0.8-1.1-1.9-1.1-3.3v-7.4h-2.7v-2.9h2.7v-3.7
	l3.5-0.9v4.6h3.7v2.9h-3.7v7.1c0,0.6,0.1,1,0.4,1.2s0.7,0.4,1.2,0.4c0.4,0,0.7,0,1,0c0.3,0,0.7-0.1,1.2-0.1V247.8z"/>
<path fill="#00AEEF" d="M908.4,247.9c-0.3,0.1-0.6,0.2-0.8,0.3s-0.5,0.1-1,0.1c-0.8,0-1.4-0.2-1.8-0.6c-0.4-0.4-0.6-0.9-0.7-1.4
	c-0.3,0.6-0.9,1.1-1.7,1.5c-0.8,0.4-1.7,0.6-2.7,0.6c-0.9,0-1.6-0.1-2.3-0.4c-0.7-0.3-1.2-0.6-1.6-1c-0.4-0.4-0.8-0.9-1-1.5
	c-0.2-0.6-0.3-1.1-0.3-1.7c0-0.7,0.1-1.3,0.4-1.8s0.6-1,1.1-1.4c0.4-0.4,1-0.7,1.6-0.9c0.6-0.2,1.2-0.3,1.9-0.4l4.3-0.3v-0.9
	c0-0.7-0.2-1.2-0.5-1.7c-0.3-0.4-1-0.6-2-0.6c-0.8,0-1.5,0.2-1.9,0.5c-0.5,0.4-0.7,0.9-0.7,1.5h-3.4c0.1-0.8,0.2-1.5,0.6-2.1
	c0.3-0.6,0.8-1.1,1.3-1.5c0.5-0.4,1.2-0.7,1.9-0.9c0.7-0.2,1.5-0.3,2.3-0.3c1.3,0,2.4,0.2,3.3,0.7c1,0.4,1.7,1.2,2.1,2.3
	c0.2,0.5,0.3,1,0.4,1.5c0,0.5,0.1,1,0.1,1.5v5.4c0,0.3,0.1,0.6,0.2,0.7c0.1,0.1,0.3,0.2,0.6,0.2c0.1,0,0.3,0,0.3,0
	c0.1,0,0.1,0,0.1,0V247.9z M903.8,241.6l-3.7,0.3c-0.5,0-1,0.2-1.5,0.5c-0.4,0.3-0.6,0.8-0.6,1.4c0,0.6,0.2,1,0.6,1.3
	c0.4,0.3,0.9,0.5,1.4,0.5c1.1,0,2-0.3,2.7-0.9c0.7-0.6,1-1.4,1-2.5V241.6z"/>
<path fill="#00AEEF" d="M916.2,248c-0.4,0.1-0.6,0.1-0.8,0.2c-0.2,0-0.4,0-0.8,0c-1.2,0-2.2-0.3-2.9-0.9c-0.7-0.6-1.1-1.6-1.1-3
	v-16.5h3.5v15.9c0,0.4,0.1,0.8,0.3,1s0.5,0.4,1.1,0.4c0.1,0,0.3,0,0.3,0c0.1,0,0.2,0,0.3,0V248z"/>
<path fill="#00AEEF" d="M931.9,247.8c-1,0.3-2,0.4-3,0.4c-1.5,0-2.6-0.4-3.3-1.2c-0.7-0.8-1.1-1.9-1.1-3.3v-7.4h-2.7v-2.9h2.7v-3.7
	l3.5-0.9v4.6h3.7v2.9H928v7.1c0,0.6,0.1,1,0.4,1.2s0.7,0.4,1.2,0.4c0.4,0,0.7,0,1,0c0.3,0,0.7-0.1,1.2-0.1V247.8z"/>
<path fill="#00AEEF" d="M942.7,236.7c-0.4-0.1-0.8-0.1-1.2-0.1c-1.2,0-2.2,0.4-2.8,1.2c-0.6,0.8-1,1.8-1,2.9v7.3h-3.5v-14.6h3
	l0.3,2.2c0.3-0.8,0.9-1.4,1.7-1.8c0.8-0.4,1.6-0.6,2.5-0.6c0.4,0,0.7,0,1.1,0.1V236.7z"/>
<path fill="#00AEEF" d="M957,247.9c-0.3,0.1-0.6,0.2-0.8,0.3s-0.5,0.1-1,0.1c-0.8,0-1.4-0.2-1.8-0.6c-0.4-0.4-0.6-0.9-0.7-1.4
	c-0.3,0.6-0.9,1.1-1.7,1.5c-0.8,0.4-1.7,0.6-2.7,0.6c-0.9,0-1.6-0.1-2.3-0.4c-0.7-0.3-1.2-0.6-1.6-1c-0.4-0.4-0.8-0.9-1-1.5
	c-0.2-0.6-0.3-1.1-0.3-1.7c0-0.7,0.1-1.3,0.4-1.8s0.6-1,1.1-1.4c0.4-0.4,1-0.7,1.6-0.9c0.6-0.2,1.2-0.3,1.9-0.4l4.3-0.3v-0.9
	c0-0.7-0.2-1.2-0.5-1.7c-0.3-0.4-1-0.6-2-0.6c-0.8,0-1.5,0.2-1.9,0.5c-0.5,0.4-0.7,0.9-0.7,1.5h-3.4c0.1-0.8,0.2-1.5,0.6-2.1
	c0.3-0.6,0.8-1.1,1.3-1.5c0.5-0.4,1.2-0.7,1.9-0.9c0.7-0.2,1.5-0.3,2.3-0.3c1.3,0,2.4,0.2,3.3,0.7c1,0.4,1.7,1.2,2.1,2.3
	c0.2,0.5,0.3,1,0.4,1.5c0,0.5,0.1,1,0.1,1.5v5.4c0,0.3,0.1,0.6,0.2,0.7c0.1,0.1,0.3,0.2,0.6,0.2c0.1,0,0.3,0,0.3,0
	c0.1,0,0.1,0,0.1,0V247.9z M952.3,241.6l-3.7,0.3c-0.5,0-1,0.2-1.5,0.5c-0.4,0.3-0.6,0.8-0.6,1.4c0,0.6,0.2,1,0.6,1.3
	c0.4,0.3,0.9,0.5,1.4,0.5c1.1,0,2-0.3,2.7-0.9c0.7-0.6,1-1.4,1-2.5V241.6z"/>
<path fill="#00AEEF" d="M968.2,248v-8.9c0-0.9-0.2-1.5-0.5-2c-0.3-0.5-1-0.7-1.9-0.7c-0.6,0-1.1,0.2-1.5,0.5c-0.4,0.3-0.7,0.8-1,1.3
	c-0.2,0.5-0.4,1.2-0.4,1.9c0,0.7-0.1,1.4-0.1,2v5.9h-3.5v-14.6h2.9l0.3,1.9c0.4-0.8,1-1.3,1.8-1.7c0.8-0.4,1.6-0.5,2.5-0.5
	c0.8,0,1.5,0.1,2.1,0.4c0.6,0.3,1.1,0.6,1.5,1.1c0.4,0.5,0.7,1,1,1.7c0.2,0.6,0.3,1.3,0.3,2.1v9.7H968.2z"/>
<path fill="#00AEEF" d="M986.5,243.5c0,0.7-0.1,1.3-0.3,1.8c-0.2,0.5-0.5,1-0.9,1.3c-0.6,0.6-1.3,1-2.2,1.3
	c-0.9,0.3-1.8,0.4-2.8,0.4c-0.9,0-1.8-0.1-2.6-0.4c-0.8-0.3-1.5-0.7-2.1-1.3c-0.4-0.4-0.8-0.9-1.1-1.5c-0.3-0.6-0.4-1.2-0.4-1.9h3.3
	c0,0.3,0.1,0.6,0.2,1s0.3,0.6,0.6,0.8c0.3,0.2,0.6,0.4,0.9,0.5s0.8,0.2,1.3,0.2c0.3,0,0.6,0,1-0.1s0.7-0.1,1-0.3
	c0.3-0.1,0.5-0.3,0.7-0.6c0.2-0.2,0.3-0.6,0.3-1c0-0.4-0.1-0.8-0.4-1c-0.3-0.3-0.6-0.4-1.1-0.5c-0.7-0.1-1.3-0.2-2-0.2
	c-0.7-0.1-1.4-0.2-2-0.3c-0.5-0.1-1-0.3-1.4-0.5c-0.4-0.2-0.8-0.5-1-0.9c-0.3-0.3-0.5-0.7-0.7-1.1s-0.2-0.9-0.2-1.3
	c0-0.7,0.1-1.4,0.4-1.9c0.3-0.5,0.6-1,1.1-1.4c0.5-0.5,1.2-0.8,1.9-1.1c0.7-0.3,1.6-0.4,2.5-0.4c0.9,0,1.7,0.1,2.5,0.4
	c0.8,0.3,1.5,0.7,2,1.3c0.4,0.4,0.7,0.9,0.9,1.4s0.4,1,0.4,1.6h-3.3c0-0.3-0.1-0.5-0.2-0.8c-0.1-0.2-0.3-0.4-0.4-0.6
	c-0.2-0.2-0.5-0.4-0.8-0.5c-0.3-0.1-0.7-0.2-1.1-0.2c-0.3,0-0.5,0-0.8,0c-0.2,0-0.5,0.1-0.8,0.2c-0.3,0.1-0.6,0.3-0.8,0.6
	c-0.2,0.3-0.3,0.6-0.3,1c0,0.5,0.2,0.9,0.5,1.1s0.7,0.3,1.1,0.4c0.3,0,0.6,0.1,0.8,0.1c0.2,0,0.4,0.1,0.7,0.1c0.2,0,0.5,0.1,0.7,0.1
	s0.5,0.1,0.9,0.1c1.2,0.2,2.1,0.6,2.9,1.3C986.1,241.4,986.5,242.4,986.5,243.5z"/>
<path fill="#00AEEF" d="M997.3,230.6c-0.4-0.1-0.7-0.1-1.1-0.2c-0.3,0-0.8-0.1-1.2-0.1c-0.6,0-1.1,0.2-1.4,0.5s-0.5,0.8-0.5,1.3v1.3
	h3.9v2.9h-3.9V248h-3.5v-11.7h-2.5v-2.9h2.5v-1.4c0-1.3,0.4-2.4,1.3-3.3s2.1-1.3,3.7-1.3c0.5,0,1,0,1.3,0.1c0.4,0,0.9,0.1,1.4,0.2
	V230.6z"/>
<path fill="#00AEEF" d="M1021.8,236.7c-0.4-0.1-0.8-0.1-1.2-0.1c-1.2,0-2.2,0.4-2.8,1.2c-0.6,0.8-1,1.8-1,2.9v7.3h-3.5v-14.6h3
	l0.3,2.2c0.3-0.8,0.9-1.4,1.7-1.8c0.8-0.4,1.6-0.6,2.5-0.6c0.4,0,0.7,0,1.1,0.1V236.7z"/>
<path fill="#00AEEF" d="M1011.3,240.8c0,1.2-0.2,2.3-0.4,3.1c-0.3,0.8-0.7,1.6-1.3,2.3c-0.5,0.6-1.2,1.1-2.1,1.6
	c-0.9,0.4-1.9,0.7-3,0.7s-2.1-0.2-3-0.7c-0.9-0.4-1.6-1-2.1-1.6c-0.5-0.7-1-1.5-1.3-2.3c-0.3-0.8-0.4-1.9-0.4-3.1
	c0-1.2,0.1-2.3,0.4-3.1c0.3-0.8,0.7-1.6,1.3-2.3c0.5-0.6,1.2-1.1,2.1-1.6s1.9-0.7,3-0.7s2.1,0.2,3,0.7c0.9,0.4,1.6,1,2.1,1.6
	c0.5,0.7,1,1.5,1.3,2.3C1011.1,238.5,1011.3,239.5,1011.3,240.8z M1007.7,240.8c0-0.7-0.1-1.4-0.2-2c-0.1-0.6-0.4-1.2-0.8-1.7
	c-0.2-0.3-0.6-0.5-0.9-0.7c-0.4-0.2-0.8-0.3-1.3-0.3s-0.9,0.1-1.3,0.3c-0.4,0.2-0.7,0.4-0.9,0.7c-0.4,0.5-0.7,1-0.8,1.7
	c-0.1,0.6-0.2,1.3-0.2,2c0,0.7,0.1,1.4,0.2,2c0.1,0.6,0.4,1.2,0.8,1.7c0.2,0.3,0.6,0.5,0.9,0.7c0.4,0.2,0.8,0.3,1.3,0.3
	s0.9-0.1,1.3-0.3c0.4-0.2,0.7-0.4,0.9-0.7c0.4-0.5,0.7-1,0.8-1.7C1007.7,242.1,1007.7,241.5,1007.7,240.8z"/>
<path fill="#00AEEF" d="M1041.1,248v-9c0-0.9-0.2-1.6-0.5-2.1c-0.3-0.5-0.9-0.7-1.8-0.7c-0.5,0-0.9,0.1-1.3,0.3
	c-0.4,0.2-0.6,0.5-0.9,0.9s-0.4,0.8-0.5,1.3c-0.1,0.5-0.2,0.9-0.2,1.4v8h-3.5v-9c0-0.9-0.2-1.6-0.5-2.1c-0.3-0.5-0.9-0.7-1.8-0.7
	c-0.5,0-0.9,0.1-1.3,0.3c-0.4,0.2-0.7,0.5-0.9,0.9s-0.4,0.8-0.5,1.3c-0.1,0.5-0.2,0.9-0.2,1.4v8h-3.5v-14.6h2.9l0.3,1.9
	c0.4-0.7,1-1.2,1.7-1.7c0.7-0.4,1.5-0.6,2.5-0.6c1,0,1.9,0.2,2.6,0.6s1.2,1,1.6,1.8c0.4-0.8,1-1.4,1.8-1.8c0.8-0.4,1.6-0.6,2.6-0.6
	c1.6,0,2.7,0.5,3.5,1.4c0.8,0.9,1.2,2.2,1.2,3.7v9.8H1041.1z"/>
<path fill="#00AEEF" d="M1060.7,247.9c-0.3,0.1-0.6,0.2-0.8,0.3s-0.5,0.1-1,0.1c-0.8,0-1.4-0.2-1.8-0.6c-0.4-0.4-0.6-0.9-0.7-1.4
	c-0.3,0.6-0.9,1.1-1.7,1.5c-0.8,0.4-1.7,0.6-2.7,0.6c-0.9,0-1.6-0.1-2.3-0.4c-0.7-0.3-1.2-0.6-1.6-1c-0.4-0.4-0.8-0.9-1-1.5
	c-0.2-0.6-0.3-1.1-0.3-1.7c0-0.7,0.1-1.3,0.4-1.8s0.6-1,1.1-1.4c0.4-0.4,1-0.7,1.6-0.9c0.6-0.2,1.2-0.3,1.9-0.4l4.3-0.3v-0.9
	c0-0.7-0.2-1.2-0.5-1.7s-1-0.6-2-0.6c-0.8,0-1.5,0.2-1.9,0.5c-0.5,0.4-0.7,0.9-0.7,1.5h-3.4c0.1-0.8,0.2-1.5,0.6-2.1
	c0.3-0.6,0.8-1.1,1.3-1.5c0.5-0.4,1.2-0.7,1.9-0.9c0.7-0.2,1.5-0.3,2.3-0.3c1.3,0,2.4,0.2,3.3,0.7c1,0.4,1.7,1.2,2.1,2.3
	c0.2,0.5,0.3,1,0.3,1.5s0.1,1,0.1,1.5v5.4c0,0.3,0.1,0.6,0.2,0.7c0.1,0.1,0.3,0.2,0.6,0.2c0.1,0,0.3,0,0.3,0c0.1,0,0.1,0,0.1,0
	V247.9z M1056,241.6l-3.7,0.3c-0.5,0-1,0.2-1.5,0.5c-0.4,0.3-0.6,0.8-0.6,1.4c0,0.6,0.2,1,0.6,1.3c0.4,0.3,0.9,0.5,1.4,0.5
	c1.1,0,2-0.3,2.7-0.9c0.7-0.6,1-1.4,1-2.5V241.6z"/>
<path fill="#00AEEF" d="M1071.1,247.8c-1,0.3-2,0.4-3,0.4c-1.5,0-2.6-0.4-3.3-1.2c-0.7-0.8-1.1-1.9-1.1-3.3v-7.4h-2.7v-2.9h2.7v-3.7
	l3.5-0.9v4.6h3.7v2.9h-3.7v7.1c0,0.6,0.1,1,0.4,1.2c0.3,0.3,0.7,0.4,1.2,0.4c0.4,0,0.7,0,1,0c0.3,0,0.7-0.1,1.2-0.1V247.8z"/>
<path fill="#00AEEF" d="M1073.4,231.5v-3.6h3.8v3.6H1073.4z M1073.5,248v-14.6h3.6V248H1073.5z"/>
<path fill="#00AEEF" d="M1093.3,240.8c0,1.2-0.1,2.3-0.4,3.1c-0.3,0.8-0.7,1.6-1.3,2.3c-0.5,0.6-1.2,1.1-2.1,1.6
	c-0.9,0.4-1.9,0.7-3,0.7c-1.1,0-2.1-0.2-3-0.7c-0.9-0.4-1.6-1-2.1-1.6c-0.5-0.7-1-1.5-1.3-2.3c-0.3-0.8-0.4-1.9-0.4-3.1
	c0-1.2,0.1-2.3,0.4-3.1c0.3-0.8,0.7-1.6,1.3-2.3c0.5-0.6,1.2-1.1,2.1-1.6s1.9-0.7,3-0.7c1.1,0,2.1,0.2,3,0.7c0.9,0.4,1.6,1,2.1,1.6
	c0.5,0.7,1,1.5,1.3,2.3C1093.2,238.5,1093.3,239.5,1093.3,240.8z M1089.8,240.8c0-0.7-0.1-1.4-0.2-2c-0.1-0.6-0.4-1.2-0.8-1.7
	c-0.2-0.3-0.6-0.5-0.9-0.7c-0.4-0.2-0.8-0.3-1.3-0.3c-0.5,0-0.9,0.1-1.3,0.3c-0.4,0.2-0.7,0.4-0.9,0.7c-0.4,0.5-0.7,1-0.8,1.7
	c-0.1,0.6-0.2,1.3-0.2,2c0,0.7,0.1,1.4,0.2,2c0.1,0.6,0.4,1.2,0.8,1.7c0.2,0.3,0.6,0.5,0.9,0.7c0.4,0.2,0.8,0.3,1.3,0.3
	c0.5,0,0.9-0.1,1.3-0.3c0.4-0.2,0.7-0.4,0.9-0.7c0.4-0.5,0.7-1,0.8-1.7C1089.7,242.1,1089.8,241.5,1089.8,240.8z"/>
<path fill="#00AEEF" d="M1104.9,248v-8.9c0-0.9-0.2-1.5-0.5-2c-0.3-0.5-1-0.7-1.9-0.7c-0.6,0-1.1,0.2-1.5,0.5
	c-0.4,0.3-0.7,0.8-1,1.3c-0.2,0.5-0.4,1.2-0.4,1.9c0,0.7-0.1,1.4-0.1,2v5.9h-3.5v-14.6h2.9l0.3,1.9c0.4-0.8,1-1.3,1.8-1.7
	c0.8-0.4,1.6-0.5,2.5-0.5c0.8,0,1.5,0.1,2.1,0.4c0.6,0.3,1.1,0.6,1.5,1.1c0.4,0.5,0.7,1,1,1.7c0.2,0.6,0.3,1.3,0.3,2.1v9.7H1104.9z"
	/>
<g enable-background="new    ">
	<path fill="#00AEEF" d="M495.6,419c-0.3,0.1-0.6,0.2-0.8,0.3c-0.2,0.1-0.5,0.1-1,0.1c-0.8,0-1.4-0.2-1.8-0.6
		c-0.4-0.4-0.6-0.9-0.7-1.4c-0.3,0.6-0.9,1.1-1.7,1.5c-0.8,0.4-1.7,0.6-2.7,0.6c-0.9,0-1.6-0.1-2.3-0.4s-1.2-0.6-1.6-1
		c-0.4-0.4-0.8-0.9-1-1.5c-0.2-0.6-0.3-1.1-0.3-1.7c0-0.7,0.1-1.3,0.4-1.8s0.6-1,1-1.4c0.4-0.4,1-0.7,1.6-0.9
		c0.6-0.2,1.2-0.3,1.9-0.4l4.3-0.3v-0.9c0-0.7-0.2-1.2-0.5-1.7c-0.3-0.4-1-0.6-2-0.6c-0.8,0-1.5,0.2-1.9,0.5
		c-0.5,0.4-0.7,0.9-0.7,1.5h-3.4c0.1-0.8,0.2-1.5,0.6-2.1c0.3-0.6,0.8-1.1,1.3-1.5c0.5-0.4,1.2-0.7,1.9-0.9c0.7-0.2,1.5-0.3,2.3-0.3
		c1.2,0,2.4,0.2,3.3,0.7c1,0.4,1.7,1.2,2.1,2.3c0.2,0.5,0.3,1,0.3,1.5s0.1,1,0.1,1.5v5.4c0,0.3,0.1,0.6,0.2,0.7
		c0.1,0.1,0.3,0.2,0.6,0.2c0.1,0,0.3,0,0.3,0c0.1,0,0.1,0,0.1,0V419z M490.9,412.7l-3.7,0.3c-0.5,0-1,0.2-1.5,0.5
		c-0.4,0.3-0.6,0.8-0.6,1.4c0,0.6,0.2,1,0.6,1.3c0.4,0.3,0.9,0.5,1.4,0.5c1.1,0,2-0.3,2.7-0.9c0.7-0.6,1-1.4,1-2.5V412.7z"/>
	<path fill="#00AEEF" d="M510.8,421.1c0,1-0.2,1.7-0.6,2.4c-0.4,0.6-1,1.1-1.7,1.5c-0.7,0.4-1.4,0.6-2.3,0.8s-1.7,0.2-2.5,0.2
		c-0.9,0-1.8-0.1-2.7-0.2c-0.9-0.1-1.7-0.5-2.5-1c-0.6-0.4-1-0.8-1.3-1.4c-0.3-0.5-0.5-1.1-0.5-1.8c0-0.6,0.1-1.2,0.4-1.8
		c0.3-0.5,0.7-0.9,1.3-1.2c-0.5-0.3-0.8-0.6-1.1-1.1s-0.4-0.9-0.4-1.4c0-1.3,0.6-2.2,1.7-2.9c-0.4-0.4-0.8-1-1.1-1.6
		c-0.3-0.6-0.4-1.3-0.4-2c0-0.9,0.2-1.6,0.5-2.3c0.3-0.7,0.7-1.2,1.3-1.7c0.5-0.4,1.2-0.8,1.9-1s1.5-0.3,2.3-0.3
		c0.6,0,1.2,0.1,1.7,0.2c0.6,0.2,1.1,0.4,1.6,0.7c0.3-0.6,0.7-1.1,1.3-1.4c0.5-0.3,1.1-0.4,1.7-0.4c0.1,0,0.3,0,0.5,0s0.4,0,0.5,0.1
		v2.7l-0.3,0c-0.4,0-0.8,0.1-1.1,0.2c-0.3,0.1-0.5,0.4-0.7,0.7c0.5,0.8,0.8,1.7,0.8,2.6c0,0.8-0.2,1.6-0.5,2.2
		c-0.3,0.7-0.8,1.2-1.3,1.7c-0.5,0.4-1.2,0.8-1.9,1c-0.7,0.2-1.5,0.4-2.3,0.4c-0.8,0-1.6-0.1-2.4-0.4c-0.2,0.1-0.3,0.2-0.5,0.4
		c-0.2,0.2-0.2,0.4-0.2,0.6c0,0.4,0.2,0.7,0.5,0.9c0.3,0.1,0.7,0.2,1.1,0.2h2.4c0.4,0,0.7,0,1.1,0c0.4,0,0.8,0,1.2,0.1
		s0.8,0.2,1.2,0.3c0.4,0.1,0.8,0.3,1.1,0.6c0.6,0.4,1.1,0.9,1.4,1.5C510.6,419.7,510.8,420.4,510.8,421.1z M507.5,421.2
		c0-0.4-0.1-0.8-0.4-1c-0.2-0.2-0.5-0.4-0.9-0.5c-0.3-0.1-0.7-0.2-1.1-0.2s-0.8,0-1.1,0h-2.7c-0.4,0.1-0.7,0.3-0.9,0.6
		c-0.3,0.3-0.4,0.7-0.4,1.2s0.1,0.8,0.4,1.1c0.3,0.3,0.6,0.5,0.9,0.6c0.4,0.1,0.8,0.2,1.2,0.3c0.4,0,0.8,0.1,1.1,0.1
		c0.4,0,0.8,0,1.2,0c0.4,0,0.9-0.1,1.3-0.2c0.4-0.1,0.7-0.3,1-0.6C507.3,422.1,507.5,421.7,507.5,421.2z M505.9,409.6
		c0-0.8-0.2-1.4-0.7-1.9c-0.5-0.5-1.1-0.8-1.9-0.8s-1.4,0.3-1.9,0.8c-0.5,0.5-0.7,1.2-0.7,1.9s0.2,1.4,0.7,1.9
		c0.5,0.5,1.1,0.8,1.9,0.8s1.4-0.3,1.9-0.8C505.7,411,505.9,410.4,505.9,409.6z"/>
	<path fill="#00AEEF" d="M512.6,402.6V399h3.8v3.6H512.6z M512.7,419.2v-14.6h3.6v14.6H512.7z"/>
	<path fill="#00AEEF" d="M525.4,419.2c-0.4,0.1-0.6,0.1-0.8,0.2c-0.2,0-0.4,0-0.8,0c-1.2,0-2.2-0.3-2.9-0.9c-0.7-0.6-1.1-1.6-1.1-3
		v-16.5h3.5v15.9c0,0.4,0.1,0.8,0.3,1s0.5,0.4,1.1,0.4c0.1,0,0.3,0,0.3,0c0.1,0,0.2,0,0.3,0V419.2z"/>
	<path fill="#00AEEF" d="M527.7,402.6V399h3.8v3.6H527.7z M527.8,419.2v-14.6h3.6v14.6H527.8z"/>
	<path fill="#00AEEF" d="M543.3,419c-1,0.3-2,0.4-3,0.4c-1.5,0-2.6-0.4-3.3-1.2c-0.7-0.8-1.1-1.9-1.1-3.3v-7.4h-2.7v-2.9h2.7v-3.7
		l3.5-0.9v4.6h3.7v2.9h-3.7v7.1c0,0.6,0.1,1,0.4,1.2c0.3,0.3,0.7,0.4,1.2,0.4c0.4,0,0.7,0,1.1,0c0.3,0,0.7-0.1,1.2-0.1V419z"/>
	<path fill="#00AEEF" d="M551.8,421.7c-0.2,0.5-0.4,0.9-0.7,1.4s-0.6,0.8-0.9,1.2s-0.8,0.6-1.2,0.8s-1,0.3-1.7,0.3
		c-0.6,0-1.1,0-1.5-0.1c-0.4-0.1-0.8-0.2-1.2-0.3V422c0.2,0,0.4,0.1,0.6,0.1s0.3,0.1,0.4,0.1s0.3,0,0.4,0s0.3,0,0.5,0
		c0.3,0,0.6-0.1,0.9-0.2s0.6-0.4,0.7-0.9l0.8-2l-5.7-14.5h3.8l3.8,10.5l3.6-10.5h3.6L551.8,421.7z"/>
</g>
<g enable-background="new    ">
	<path fill="#00AEEF" d="M774.6,439.9v-3.6h3.8v3.6H774.6z M774.7,456.5V442h3.6v14.6H774.7z"/>
	<path fill="#00AEEF" d="M790.9,456.5v-8.9c0-0.9-0.2-1.5-0.5-2c-0.3-0.5-1-0.7-1.9-0.7c-0.6,0-1.1,0.2-1.5,0.5
		c-0.4,0.3-0.7,0.8-1,1.3c-0.2,0.5-0.4,1.2-0.4,1.9c0,0.7-0.1,1.4-0.1,2v5.9H782V442h2.9l0.3,1.9c0.4-0.8,1-1.3,1.8-1.7
		c0.8-0.4,1.6-0.5,2.5-0.5c0.8,0,1.5,0.1,2.1,0.4c0.6,0.3,1.1,0.6,1.5,1.1c0.4,0.5,0.7,1,1,1.7c0.2,0.6,0.3,1.3,0.3,2.1v9.7H790.9z"
		/>
	<path fill="#00AEEF" d="M806.7,456.5v-8.9c0-0.9-0.2-1.5-0.5-2c-0.3-0.5-1-0.7-1.9-0.7c-0.6,0-1.1,0.2-1.5,0.5
		c-0.4,0.3-0.7,0.8-1,1.3c-0.2,0.5-0.4,1.2-0.4,1.9c0,0.7-0.1,1.4-0.1,2v5.9h-3.5V442h2.9l0.3,1.9c0.4-0.8,1-1.3,1.8-1.7
		c0.8-0.4,1.6-0.5,2.5-0.5c0.8,0,1.5,0.1,2.1,0.4c0.6,0.3,1.1,0.6,1.5,1.1c0.4,0.5,0.7,1,1,1.7c0.2,0.6,0.3,1.3,0.3,2.1v9.7H806.7z"
		/>
	<path fill="#00AEEF" d="M826.3,449.2c0,1.2-0.2,2.3-0.4,3.1c-0.3,0.8-0.7,1.6-1.3,2.3c-0.5,0.6-1.2,1.1-2.1,1.6
		c-0.9,0.4-1.9,0.7-3,0.7s-2.1-0.2-3-0.7c-0.9-0.4-1.6-1-2.1-1.6c-0.5-0.7-1-1.5-1.3-2.3c-0.3-0.8-0.4-1.9-0.4-3.1
		c0-1.2,0.1-2.3,0.4-3.1c0.3-0.8,0.7-1.6,1.3-2.3c0.5-0.6,1.2-1.1,2.1-1.6s1.9-0.7,3-0.7s2.1,0.2,3,0.7c0.9,0.4,1.6,1,2.1,1.6
		c0.5,0.7,1,1.5,1.3,2.3C826.1,447,826.3,448,826.3,449.2z M822.7,449.2c0-0.7-0.1-1.4-0.2-2c-0.1-0.6-0.4-1.2-0.8-1.7
		c-0.2-0.3-0.6-0.5-0.9-0.7c-0.4-0.2-0.8-0.3-1.3-0.3s-0.9,0.1-1.3,0.3c-0.4,0.2-0.7,0.4-0.9,0.7c-0.4,0.5-0.7,1-0.8,1.7
		c-0.1,0.6-0.2,1.3-0.2,2c0,0.7,0.1,1.4,0.2,2c0.1,0.6,0.4,1.2,0.8,1.7c0.2,0.3,0.6,0.5,0.9,0.7c0.4,0.2,0.8,0.3,1.3,0.3
		s0.9-0.1,1.3-0.3c0.4-0.2,0.7-0.4,0.9-0.7c0.4-0.5,0.7-1,0.8-1.7C822.6,450.6,822.7,449.9,822.7,449.2z"/>
	<path fill="#00AEEF" d="M835.7,456.5H832l-5.4-14.6h3.7l3.6,10.2l3.4-10.2h3.6L835.7,456.5z"/>
	<path fill="#00AEEF" d="M855.2,456.4c-0.3,0.1-0.6,0.2-0.8,0.3s-0.5,0.1-1,0.1c-0.8,0-1.4-0.2-1.8-0.6c-0.4-0.4-0.6-0.9-0.7-1.4
		c-0.3,0.6-0.9,1.1-1.7,1.5c-0.8,0.4-1.7,0.6-2.7,0.6c-0.9,0-1.6-0.1-2.3-0.4c-0.7-0.3-1.2-0.6-1.6-1c-0.4-0.4-0.8-0.9-1-1.5
		c-0.2-0.6-0.3-1.1-0.3-1.7c0-0.7,0.1-1.3,0.4-1.8s0.6-1,1.1-1.4c0.4-0.4,1-0.7,1.6-0.9c0.6-0.2,1.2-0.3,1.9-0.4l4.3-0.3v-0.9
		c0-0.7-0.2-1.2-0.5-1.7c-0.3-0.4-1-0.6-2-0.6c-0.8,0-1.5,0.2-1.9,0.5c-0.5,0.4-0.7,0.9-0.7,1.5H842c0.1-0.8,0.2-1.5,0.6-2.1
		c0.3-0.6,0.8-1.1,1.3-1.5c0.5-0.4,1.2-0.7,1.9-0.9c0.7-0.2,1.5-0.3,2.3-0.3c1.3,0,2.4,0.2,3.3,0.7c1,0.4,1.7,1.2,2.1,2.3
		c0.2,0.5,0.3,1,0.4,1.5c0,0.5,0.1,1,0.1,1.5v5.4c0,0.3,0.1,0.6,0.2,0.7c0.1,0.1,0.3,0.2,0.6,0.2c0.1,0,0.3,0,0.3,0
		c0.1,0,0.1,0,0.1,0V456.4z M850.5,450.1l-3.7,0.3c-0.5,0-1,0.2-1.5,0.5c-0.4,0.3-0.6,0.8-0.6,1.4c0,0.6,0.2,1,0.6,1.3
		c0.4,0.3,0.9,0.5,1.4,0.5c1.1,0,2-0.3,2.7-0.9c0.7-0.6,1-1.4,1-2.5V450.1z"/>
	<path fill="#00AEEF" d="M865.6,456.3c-1,0.3-2,0.4-3,0.4c-1.5,0-2.6-0.4-3.3-1.2c-0.7-0.8-1.1-1.9-1.1-3.3v-7.4h-2.7V442h2.7v-3.7
		l3.5-0.9v4.6h3.7v2.9h-3.7v7.1c0,0.6,0.1,1,0.4,1.2c0.3,0.3,0.7,0.4,1.2,0.4c0.4,0,0.7,0,1.1,0c0.3,0,0.7-0.1,1.2-0.1V456.3z"/>
	<path fill="#00AEEF" d="M867.8,439.9v-3.6h3.8v3.6H867.8z M867.9,456.5V442h3.6v14.6H867.9z"/>
	<path fill="#00AEEF" d="M887.8,449.2c0,1.2-0.2,2.3-0.4,3.1c-0.3,0.8-0.7,1.6-1.3,2.3c-0.5,0.6-1.2,1.1-2.1,1.6
		c-0.9,0.4-1.9,0.7-3,0.7s-2.1-0.2-3-0.7c-0.9-0.4-1.6-1-2.1-1.6c-0.5-0.7-1-1.5-1.3-2.3c-0.3-0.8-0.4-1.9-0.4-3.1
		c0-1.2,0.1-2.3,0.4-3.1c0.3-0.8,0.7-1.6,1.3-2.3c0.5-0.6,1.2-1.1,2.1-1.6s1.9-0.7,3-0.7s2.1,0.2,3,0.7c0.9,0.4,1.6,1,2.1,1.6
		c0.5,0.7,1,1.5,1.3,2.3C887.6,447,887.8,448,887.8,449.2z M884.2,449.2c0-0.7-0.1-1.4-0.2-2c-0.1-0.6-0.4-1.2-0.8-1.7
		c-0.2-0.3-0.6-0.5-0.9-0.7c-0.4-0.2-0.8-0.3-1.3-0.3s-0.9,0.1-1.3,0.3c-0.4,0.2-0.7,0.4-0.9,0.7c-0.4,0.5-0.7,1-0.8,1.7
		c-0.1,0.6-0.2,1.3-0.2,2c0,0.7,0.1,1.4,0.2,2c0.1,0.6,0.4,1.2,0.8,1.7c0.2,0.3,0.6,0.5,0.9,0.7c0.4,0.2,0.8,0.3,1.3,0.3
		s0.9-0.1,1.3-0.3c0.4-0.2,0.7-0.4,0.9-0.7c0.4-0.5,0.7-1,0.8-1.7C884.1,450.6,884.2,449.9,884.2,449.2z"/>
	<path fill="#00AEEF" d="M899.3,456.5v-8.9c0-0.9-0.2-1.5-0.5-2c-0.3-0.5-1-0.7-1.9-0.7c-0.6,0-1.1,0.2-1.5,0.5
		c-0.4,0.3-0.7,0.8-1,1.3c-0.2,0.5-0.4,1.2-0.4,1.9c0,0.7-0.1,1.4-0.1,2v5.9h-3.5V442h2.9l0.3,1.9c0.4-0.8,1-1.3,1.8-1.7
		c0.8-0.4,1.6-0.5,2.5-0.5c0.8,0,1.5,0.1,2.1,0.4c0.6,0.3,1.1,0.6,1.5,1.1c0.4,0.5,0.7,1,1,1.7c0.2,0.6,0.3,1.3,0.3,2.1v9.7H899.3z"
		/>
</g>
<g enable-background="new    ">
	<path fill="#00AEEF" d="M1054.5,493.5c0,0.6-0.1,1.1-0.3,1.7s-0.4,1-0.8,1.5c-0.5,0.6-1.2,1.2-2,1.6c-0.8,0.4-1.8,0.7-3,0.7
		c-1.1,0-2.1-0.2-3-0.7c-0.9-0.5-1.6-1-2.1-1.6c-0.5-0.7-0.9-1.5-1.2-2.4c-0.3-0.9-0.4-1.9-0.4-2.9c0-1.1,0.1-2,0.4-2.9
		c0.3-0.9,0.7-1.7,1.2-2.4c0.5-0.6,1.2-1.2,2.1-1.6c0.9-0.5,1.9-0.7,3-0.7c1.1,0,2.1,0.2,3,0.7s1.5,1,2,1.6c0.3,0.4,0.6,0.9,0.8,1.5
		c0.2,0.6,0.3,1.1,0.3,1.7h-3.4c0-0.3-0.1-0.5-0.1-0.7c-0.1-0.2-0.2-0.4-0.3-0.6c-0.2-0.3-0.5-0.6-0.9-0.8s-0.8-0.3-1.4-0.3
		c-0.5,0-0.9,0.1-1.2,0.3c-0.3,0.2-0.6,0.4-0.9,0.6c-0.4,0.5-0.7,1-0.8,1.7c-0.1,0.7-0.2,1.3-0.2,2s0.1,1.4,0.2,2
		c0.1,0.6,0.4,1.2,0.8,1.7c0.2,0.3,0.5,0.5,0.9,0.7c0.3,0.2,0.8,0.3,1.2,0.3c0.5,0,1-0.1,1.4-0.3c0.4-0.2,0.7-0.5,0.9-0.8
		c0.1-0.2,0.2-0.4,0.3-0.6c0.1-0.2,0.1-0.5,0.1-0.7H1054.5z"/>
	<path fill="#00AEEF" d="M1069.5,491.3c0,1.2-0.1,2.3-0.4,3.1c-0.3,0.8-0.7,1.6-1.3,2.3c-0.5,0.6-1.2,1.1-2.1,1.6
		c-0.9,0.4-1.9,0.7-3,0.7s-2.1-0.2-3-0.7c-0.9-0.4-1.6-1-2.1-1.6c-0.5-0.7-1-1.5-1.3-2.3c-0.3-0.8-0.4-1.9-0.4-3.1
		c0-1.2,0.1-2.3,0.4-3.1c0.3-0.8,0.7-1.6,1.3-2.3c0.5-0.6,1.2-1.1,2.1-1.6c0.9-0.4,1.9-0.7,3-0.7s2.1,0.2,3,0.7s1.6,1,2.1,1.6
		c0.5,0.7,1,1.5,1.3,2.3C1069.4,489.1,1069.5,490.1,1069.5,491.3z M1066,491.3c0-0.7-0.1-1.4-0.2-2c-0.1-0.6-0.4-1.2-0.8-1.7
		c-0.2-0.3-0.6-0.5-0.9-0.7c-0.4-0.2-0.8-0.3-1.3-0.3c-0.5,0-0.9,0.1-1.3,0.3c-0.4,0.2-0.7,0.4-0.9,0.7c-0.4,0.5-0.7,1-0.8,1.7
		c-0.1,0.6-0.2,1.3-0.2,2c0,0.7,0.1,1.4,0.2,2c0.1,0.6,0.4,1.2,0.8,1.7c0.2,0.3,0.5,0.5,0.9,0.7c0.4,0.2,0.8,0.3,1.3,0.3
		c0.5,0,0.9-0.1,1.3-0.3c0.4-0.2,0.7-0.4,0.9-0.7c0.4-0.5,0.7-1,0.8-1.7C1065.9,492.7,1066,492,1066,491.3z"/>
	<path fill="#00AEEF" d="M1084.9,498.4c-0.3,0.1-0.6,0.2-0.8,0.3c-0.2,0.1-0.5,0.1-1,0.1c-0.8,0-1.4-0.2-1.8-0.6
		c-0.4-0.4-0.6-0.9-0.7-1.4c-0.3,0.6-0.9,1.1-1.7,1.5c-0.8,0.4-1.7,0.6-2.7,0.6c-0.9,0-1.6-0.1-2.3-0.4s-1.2-0.6-1.6-1
		c-0.4-0.4-0.8-0.9-1-1.5c-0.2-0.6-0.3-1.1-0.3-1.7c0-0.7,0.1-1.3,0.4-1.8s0.6-1,1-1.4c0.4-0.4,1-0.7,1.6-0.9
		c0.6-0.2,1.2-0.3,1.9-0.4l4.3-0.3v-0.9c0-0.7-0.2-1.2-0.5-1.7c-0.3-0.4-1-0.6-2-0.6c-0.8,0-1.5,0.2-1.9,0.5
		c-0.5,0.4-0.7,0.9-0.7,1.5h-3.4c0.1-0.8,0.2-1.5,0.6-2.1c0.3-0.6,0.8-1.1,1.3-1.5c0.5-0.4,1.2-0.7,1.9-0.9c0.7-0.2,1.5-0.3,2.3-0.3
		c1.2,0,2.4,0.2,3.3,0.7c1,0.4,1.7,1.2,2.1,2.3c0.2,0.5,0.3,1,0.3,1.5s0.1,1,0.1,1.5v5.4c0,0.3,0.1,0.6,0.2,0.7
		c0.1,0.1,0.3,0.2,0.6,0.2c0.1,0,0.3,0,0.3,0c0.1,0,0.1,0,0.1,0V498.4z M1080.2,492.1l-3.7,0.3c-0.5,0-1,0.2-1.5,0.5
		c-0.4,0.3-0.6,0.8-0.6,1.4c0,0.6,0.2,1,0.6,1.3c0.4,0.3,0.9,0.5,1.4,0.5c1.1,0,2-0.3,2.7-0.9c0.7-0.6,1-1.4,1-2.5V492.1z"/>
	<path fill="#00AEEF" d="M1099,493.5c0,0.6-0.1,1.1-0.3,1.7s-0.4,1-0.8,1.5c-0.5,0.6-1.2,1.2-2,1.6c-0.8,0.4-1.8,0.7-3,0.7
		s-2.1-0.2-3-0.7c-0.9-0.5-1.6-1-2.1-1.6c-0.5-0.7-0.9-1.5-1.2-2.4c-0.3-0.9-0.4-1.9-0.4-2.9c0-1.1,0.1-2,0.4-2.9
		c0.3-0.9,0.7-1.7,1.2-2.4c0.5-0.6,1.2-1.2,2.1-1.6c0.9-0.5,1.9-0.7,3-0.7s2.1,0.2,3,0.7c0.8,0.4,1.5,1,2,1.6
		c0.3,0.4,0.6,0.9,0.8,1.5c0.2,0.6,0.3,1.1,0.3,1.7h-3.4c0-0.3-0.1-0.5-0.1-0.7c-0.1-0.2-0.2-0.4-0.3-0.6c-0.2-0.3-0.5-0.6-0.9-0.8
		c-0.4-0.2-0.8-0.3-1.4-0.3c-0.5,0-0.9,0.1-1.2,0.3c-0.3,0.2-0.6,0.4-0.9,0.6c-0.4,0.5-0.7,1-0.8,1.7c-0.1,0.7-0.2,1.3-0.2,2
		s0.1,1.4,0.2,2c0.1,0.6,0.4,1.2,0.8,1.7c0.2,0.3,0.5,0.5,0.9,0.7c0.3,0.2,0.8,0.3,1.2,0.3c0.5,0,1-0.1,1.4-0.3
		c0.4-0.2,0.7-0.5,0.9-0.8c0.1-0.2,0.2-0.4,0.3-0.6c0.1-0.2,0.1-0.5,0.1-0.7H1099z"/>
	<path fill="#00AEEF" d="M1110.2,498.6v-9c0-0.8-0.2-1.5-0.5-2s-1-0.7-1.9-0.7c-0.5,0-1,0.1-1.4,0.4s-0.7,0.6-0.9,1
		c-0.2,0.4-0.4,0.8-0.5,1.3c-0.1,0.5-0.2,0.9-0.2,1.4v7.7h-3.5v-20.2h3.5v7.2c0.4-0.6,1-1.1,1.7-1.4c0.7-0.3,1.5-0.5,2.2-0.5
		c0.8,0,1.5,0.1,2.1,0.4c0.6,0.3,1.1,0.6,1.5,1.1c0.4,0.5,0.7,1,1,1.7c0.2,0.6,0.3,1.3,0.3,2.1v9.7H1110.2z"/>
	<path fill="#00AEEF" d="M1117,482v-3.6h3.8v3.6H1117z M1117.2,498.6V484h3.6v14.6H1117.2z"/>
	<path fill="#00AEEF" d="M1133.3,498.6v-8.9c0-0.9-0.2-1.5-0.5-2c-0.3-0.5-1-0.7-1.9-0.7c-0.6,0-1.1,0.2-1.5,0.5
		c-0.4,0.3-0.7,0.8-1,1.3c-0.2,0.5-0.4,1.2-0.4,1.9c0,0.7-0.1,1.4-0.1,2v5.9h-3.5V484h2.9l0.3,1.9c0.4-0.8,1-1.3,1.8-1.7
		c0.8-0.4,1.6-0.5,2.5-0.5c0.8,0,1.5,0.1,2.1,0.4c0.6,0.3,1.1,0.6,1.5,1.1c0.4,0.5,0.7,1,1,1.7c0.2,0.6,0.3,1.3,0.3,2.1v9.7H1133.3z
		"/>
	<path fill="#00AEEF" d="M1153.1,500.5c0,1-0.2,1.7-0.6,2.4c-0.4,0.6-1,1.1-1.7,1.5c-0.7,0.4-1.4,0.6-2.3,0.8
		c-0.8,0.1-1.7,0.2-2.5,0.2c-0.9,0-1.8-0.1-2.7-0.2c-0.9-0.1-1.7-0.5-2.5-1c-0.6-0.4-1-0.8-1.3-1.4c-0.3-0.5-0.5-1.1-0.5-1.8
		c0-0.6,0.1-1.2,0.4-1.8s0.7-0.9,1.3-1.2c-0.5-0.3-0.8-0.6-1.1-1.1s-0.4-0.9-0.4-1.4c0-1.3,0.6-2.2,1.7-2.9c-0.4-0.4-0.8-1-1.1-1.6
		s-0.4-1.3-0.4-2c0-0.9,0.2-1.6,0.5-2.3s0.7-1.2,1.3-1.7c0.5-0.4,1.2-0.8,1.9-1s1.5-0.3,2.3-0.3c0.6,0,1.2,0.1,1.7,0.2
		c0.6,0.2,1.1,0.4,1.6,0.7c0.3-0.6,0.7-1.1,1.3-1.4c0.5-0.3,1.1-0.4,1.7-0.4c0.1,0,0.3,0,0.5,0c0.2,0,0.4,0,0.5,0.1v2.7l-0.3,0
		c-0.4,0-0.8,0.1-1.1,0.2c-0.3,0.1-0.5,0.4-0.7,0.7c0.5,0.8,0.8,1.7,0.8,2.6c0,0.8-0.2,1.6-0.5,2.2c-0.3,0.7-0.8,1.2-1.3,1.7
		c-0.5,0.4-1.2,0.8-1.9,1c-0.7,0.2-1.5,0.4-2.3,0.4c-0.8,0-1.6-0.1-2.4-0.4c-0.2,0.1-0.3,0.2-0.5,0.4c-0.2,0.2-0.2,0.4-0.2,0.6
		c0,0.4,0.2,0.7,0.5,0.9c0.3,0.1,0.7,0.2,1.1,0.2h2.4c0.4,0,0.7,0,1.1,0c0.4,0,0.8,0,1.2,0.1c0.4,0.1,0.8,0.2,1.2,0.3
		s0.8,0.3,1.1,0.6c0.6,0.4,1.1,0.9,1.4,1.5C1152.9,499.2,1153.1,499.8,1153.1,500.5z M1149.8,500.6c0-0.4-0.1-0.8-0.4-1
		c-0.2-0.2-0.5-0.4-0.9-0.5c-0.3-0.1-0.7-0.2-1.1-0.2s-0.8,0-1.1,0h-2.7c-0.4,0.1-0.7,0.3-0.9,0.6c-0.3,0.3-0.4,0.7-0.4,1.2
		s0.1,0.8,0.4,1.1c0.3,0.3,0.6,0.5,0.9,0.6c0.4,0.1,0.8,0.2,1.2,0.3c0.4,0,0.8,0.1,1.1,0.1c0.4,0,0.8,0,1.2,0c0.4,0,0.9-0.1,1.3-0.2
		s0.7-0.3,1-0.6C1149.6,501.5,1149.8,501.1,1149.8,500.6z M1148.2,489c0-0.8-0.2-1.4-0.7-1.9c-0.5-0.5-1.1-0.8-1.9-0.8
		c-0.8,0-1.4,0.3-1.9,0.8c-0.5,0.5-0.7,1.2-0.7,1.9s0.2,1.4,0.7,1.9c0.5,0.5,1.1,0.8,1.9,0.8c0.8,0,1.4-0.3,1.9-0.8
		C1148,490.5,1148.2,489.8,1148.2,489z"/>
</g>
<g enable-background="new    ">
	<path fill="#00AEEF" d="M769.5,371c0,0.6-0.1,1.1-0.3,1.7s-0.4,1-0.8,1.5c-0.5,0.6-1.2,1.2-2,1.6c-0.8,0.4-1.8,0.7-3,0.7
		c-1.1,0-2.1-0.2-3-0.7c-0.9-0.5-1.6-1-2.1-1.6c-0.5-0.7-0.9-1.5-1.2-2.4c-0.3-0.9-0.4-1.9-0.4-2.9c0-1.1,0.1-2,0.4-2.9
		c0.3-0.9,0.7-1.7,1.2-2.4c0.5-0.6,1.2-1.2,2.1-1.6c0.9-0.5,1.9-0.7,3-0.7c1.1,0,2.1,0.2,3,0.7s1.5,1,2,1.6c0.3,0.4,0.6,0.9,0.8,1.5
		c0.2,0.6,0.3,1.1,0.3,1.7H766c0-0.3-0.1-0.5-0.1-0.7c-0.1-0.2-0.2-0.4-0.3-0.6c-0.2-0.3-0.5-0.6-0.9-0.8s-0.8-0.3-1.4-0.3
		c-0.5,0-0.9,0.1-1.2,0.3c-0.3,0.2-0.6,0.4-0.9,0.6c-0.4,0.5-0.7,1-0.8,1.7c-0.1,0.7-0.2,1.3-0.2,2s0.1,1.4,0.2,2
		c0.1,0.6,0.4,1.2,0.8,1.7c0.2,0.3,0.5,0.5,0.9,0.7c0.3,0.2,0.8,0.3,1.2,0.3c0.5,0,1-0.1,1.4-0.3c0.4-0.2,0.7-0.5,0.9-0.8
		c0.1-0.2,0.2-0.4,0.3-0.6c0.1-0.2,0.1-0.5,0.1-0.7H769.5z"/>
	<path fill="#00AEEF" d="M780.6,376.1v-9c0-0.8-0.2-1.5-0.5-2s-1-0.7-1.9-0.7c-0.5,0-1,0.1-1.4,0.4s-0.7,0.6-0.9,1
		c-0.2,0.4-0.4,0.8-0.5,1.3c-0.1,0.5-0.2,0.9-0.2,1.4v7.7h-3.5v-20.2h3.5v7.2c0.4-0.6,1-1.1,1.7-1.4c0.7-0.3,1.5-0.5,2.2-0.5
		c0.8,0,1.5,0.1,2.1,0.4c0.6,0.3,1.1,0.6,1.5,1.1c0.4,0.5,0.7,1,1,1.7c0.2,0.6,0.3,1.3,0.3,2.1v9.7H780.6z"/>
	<path fill="#00AEEF" d="M800.3,376c-0.3,0.1-0.6,0.2-0.8,0.3s-0.5,0.1-1,0.1c-0.8,0-1.4-0.2-1.8-0.6c-0.4-0.4-0.6-0.9-0.7-1.4
		c-0.3,0.6-0.9,1.1-1.7,1.5c-0.8,0.4-1.7,0.6-2.7,0.6c-0.9,0-1.6-0.1-2.3-0.4c-0.7-0.3-1.2-0.6-1.6-1c-0.4-0.4-0.8-0.9-1-1.5
		c-0.2-0.6-0.3-1.1-0.3-1.7c0-0.7,0.1-1.3,0.4-1.8s0.6-1,1.1-1.4c0.4-0.4,1-0.7,1.6-0.9c0.6-0.2,1.2-0.3,1.9-0.4l4.3-0.3v-0.9
		c0-0.7-0.2-1.2-0.5-1.7c-0.3-0.4-1-0.6-2-0.6c-0.8,0-1.5,0.2-1.9,0.5c-0.5,0.4-0.7,0.9-0.7,1.5h-3.4c0.1-0.8,0.2-1.5,0.6-2.1
		c0.3-0.6,0.8-1.1,1.3-1.5c0.5-0.4,1.2-0.7,1.9-0.9c0.7-0.2,1.5-0.3,2.3-0.3c1.3,0,2.4,0.2,3.3,0.7c1,0.4,1.7,1.2,2.1,2.3
		c0.2,0.5,0.3,1,0.4,1.5c0,0.5,0.1,1,0.1,1.5v5.4c0,0.3,0.1,0.6,0.2,0.7c0.1,0.1,0.3,0.2,0.6,0.2c0.1,0,0.3,0,0.3,0
		c0.1,0,0.1,0,0.1,0V376z M795.6,369.7l-3.7,0.3c-0.5,0-1,0.2-1.5,0.5c-0.4,0.3-0.6,0.8-0.6,1.4c0,0.6,0.2,1,0.6,1.3
		c0.4,0.3,0.9,0.5,1.4,0.5c1.1,0,2-0.3,2.7-0.9c0.7-0.6,1-1.4,1-2.5V369.7z"/>
	<path fill="#00AEEF" d="M811.5,376.1v-8.9c0-0.9-0.2-1.5-0.5-2c-0.3-0.5-1-0.7-1.9-0.7c-0.6,0-1.1,0.2-1.5,0.5
		c-0.4,0.3-0.7,0.8-1,1.3c-0.2,0.5-0.4,1.2-0.4,1.9c0,0.7-0.1,1.4-0.1,2v5.9h-3.5v-14.6h2.9l0.3,1.9c0.4-0.8,1-1.3,1.8-1.7
		c0.8-0.4,1.6-0.5,2.5-0.5c0.8,0,1.5,0.1,2.1,0.4c0.6,0.3,1.1,0.6,1.5,1.1c0.4,0.5,0.7,1,1,1.7c0.2,0.6,0.3,1.3,0.3,2.1v9.7H811.5z"
		/>
	<path fill="#00AEEF" d="M831.3,378.1c0,1-0.2,1.7-0.6,2.4c-0.4,0.6-1,1.1-1.7,1.5c-0.7,0.4-1.4,0.6-2.3,0.8
		c-0.8,0.1-1.7,0.2-2.5,0.2c-0.9,0-1.8-0.1-2.7-0.2c-0.9-0.1-1.7-0.5-2.5-1c-0.6-0.4-1-0.8-1.3-1.4c-0.3-0.5-0.5-1.1-0.5-1.8
		c0-0.6,0.1-1.2,0.4-1.8s0.7-0.9,1.3-1.2c-0.5-0.3-0.8-0.6-1.1-1.1s-0.4-0.9-0.4-1.4c0-1.3,0.6-2.2,1.7-2.9c-0.4-0.4-0.8-1-1.1-1.6
		s-0.4-1.3-0.4-2c0-0.9,0.2-1.6,0.5-2.3s0.7-1.2,1.3-1.7c0.5-0.4,1.2-0.8,1.9-1s1.5-0.3,2.3-0.3c0.6,0,1.2,0.1,1.7,0.2
		c0.6,0.2,1.1,0.4,1.6,0.7c0.3-0.6,0.7-1.1,1.3-1.4c0.5-0.3,1.1-0.4,1.7-0.4c0.1,0,0.3,0,0.5,0c0.2,0,0.4,0,0.5,0.1v2.7l-0.3,0
		c-0.4,0-0.8,0.1-1.1,0.2c-0.3,0.1-0.5,0.4-0.7,0.7c0.5,0.8,0.8,1.7,0.8,2.6c0,0.8-0.2,1.6-0.5,2.2c-0.3,0.7-0.8,1.2-1.3,1.7
		c-0.5,0.4-1.2,0.8-1.9,1c-0.7,0.2-1.5,0.4-2.3,0.4c-0.8,0-1.6-0.1-2.4-0.4c-0.2,0.1-0.3,0.2-0.5,0.4c-0.2,0.2-0.2,0.4-0.2,0.6
		c0,0.4,0.2,0.7,0.5,0.9c0.3,0.1,0.7,0.2,1.1,0.2h2.4c0.4,0,0.7,0,1.1,0c0.4,0,0.8,0,1.2,0.1c0.4,0.1,0.8,0.2,1.2,0.3
		s0.8,0.3,1.1,0.6c0.6,0.4,1.1,0.9,1.4,1.5C831.1,376.7,831.3,377.4,831.3,378.1z M828,378.1c0-0.4-0.1-0.8-0.4-1
		c-0.2-0.2-0.5-0.4-0.9-0.5c-0.3-0.1-0.7-0.2-1.1-0.2s-0.8,0-1.1,0h-2.7c-0.4,0.1-0.7,0.3-0.9,0.6c-0.3,0.3-0.4,0.7-0.4,1.2
		s0.1,0.8,0.4,1.1c0.3,0.3,0.6,0.5,0.9,0.6c0.4,0.1,0.8,0.2,1.2,0.3c0.4,0,0.8,0.1,1.1,0.1c0.4,0,0.8,0,1.2,0c0.4,0,0.9-0.1,1.3-0.2
		s0.7-0.3,1-0.6C827.8,379,828,378.6,828,378.1z M826.4,366.6c0-0.8-0.2-1.4-0.7-1.9c-0.5-0.5-1.1-0.8-1.9-0.8
		c-0.8,0-1.4,0.3-1.9,0.8c-0.5,0.5-0.7,1.2-0.7,1.9s0.2,1.4,0.7,1.9c0.5,0.5,1.1,0.8,1.9,0.8c0.8,0,1.4-0.3,1.9-0.8
		C826.2,368,826.4,367.3,826.4,366.6z"/>
	<path fill="#00AEEF" d="M845.2,369c0,0.1,0,0.3,0,0.4v0.6h-9.7c0,0.6,0.1,1.1,0.3,1.6s0.4,0.9,0.8,1.3c0.3,0.2,0.6,0.5,0.9,0.6
		c0.3,0.2,0.8,0.3,1.2,0.3c0.5,0,0.9-0.1,1.2-0.2c0.3-0.1,0.6-0.3,0.9-0.5c0.3-0.3,0.6-0.7,0.7-1.2h3.4c0,0.4-0.2,0.9-0.4,1.4
		c-0.3,0.5-0.5,0.9-0.8,1.3c-0.6,0.7-1.4,1.3-2.2,1.6c-0.9,0.3-1.8,0.5-2.7,0.5c-1,0-1.9-0.2-2.6-0.5c-0.7-0.3-1.4-0.8-2-1.3
		c-0.7-0.7-1.3-1.6-1.7-2.5s-0.6-2.1-0.6-3.3c0-1.2,0.2-2.3,0.5-3.3c0.3-1,0.9-1.9,1.6-2.6c0.5-0.6,1.2-1,2-1.3s1.7-0.5,2.7-0.5
		c1.1,0,2.1,0.2,3,0.7s1.7,1.1,2.3,2c0.5,0.8,0.9,1.6,1,2.5C845.1,367.2,845.2,368,845.2,369z M841.7,367.4c0-1.1-0.3-1.9-0.9-2.5
		c-0.2-0.3-0.5-0.5-0.9-0.6c-0.4-0.1-0.8-0.2-1.3-0.2c-0.5,0-1,0.1-1.4,0.3c-0.4,0.2-0.7,0.5-1,0.8c-0.3,0.3-0.4,0.7-0.6,1
		s-0.2,0.8-0.2,1.3H841.7z"/>
	<path fill="#00AEEF" d="M870.1,376.1v-9c0-0.9-0.2-1.6-0.5-2.1c-0.3-0.5-0.9-0.7-1.8-0.7c-0.5,0-0.9,0.1-1.3,0.3
		c-0.4,0.2-0.6,0.5-0.9,0.9s-0.4,0.8-0.5,1.3c-0.1,0.5-0.2,0.9-0.2,1.4v8h-3.5v-9c0-0.9-0.2-1.6-0.5-2.1c-0.3-0.5-0.9-0.7-1.8-0.7
		c-0.5,0-0.9,0.1-1.3,0.3c-0.4,0.2-0.7,0.5-0.9,0.9c-0.2,0.4-0.4,0.8-0.5,1.3c-0.1,0.5-0.2,0.9-0.2,1.4v8H853v-14.6h2.9l0.3,1.9
		c0.4-0.7,1-1.2,1.7-1.7c0.7-0.4,1.5-0.6,2.5-0.6c1,0,1.9,0.2,2.6,0.6c0.7,0.4,1.2,1,1.6,1.8c0.4-0.8,1-1.4,1.8-1.8
		c0.8-0.4,1.6-0.6,2.6-0.6c1.6,0,2.7,0.5,3.5,1.4c0.8,0.9,1.2,2.2,1.2,3.7v9.8H870.1z"/>
	<path fill="#00AEEF" d="M889.7,376c-0.3,0.1-0.6,0.2-0.8,0.3c-0.2,0.1-0.5,0.1-1,0.1c-0.8,0-1.4-0.2-1.8-0.6
		c-0.4-0.4-0.6-0.9-0.7-1.4c-0.3,0.6-0.9,1.1-1.7,1.5c-0.8,0.4-1.7,0.6-2.7,0.6c-0.9,0-1.6-0.1-2.3-0.4s-1.2-0.6-1.6-1
		c-0.4-0.4-0.8-0.9-1-1.5c-0.2-0.6-0.3-1.1-0.3-1.7c0-0.7,0.1-1.3,0.4-1.8s0.6-1,1-1.4c0.4-0.4,1-0.7,1.6-0.9
		c0.6-0.2,1.2-0.3,1.9-0.4l4.3-0.3v-0.9c0-0.7-0.2-1.2-0.5-1.7c-0.3-0.4-1-0.6-2-0.6c-0.8,0-1.5,0.2-1.9,0.5
		c-0.5,0.4-0.7,0.9-0.7,1.5h-3.4c0.1-0.8,0.2-1.5,0.6-2.1c0.3-0.6,0.8-1.1,1.3-1.5c0.5-0.4,1.2-0.7,1.9-0.9c0.7-0.2,1.5-0.3,2.3-0.3
		c1.2,0,2.4,0.2,3.3,0.7c1,0.4,1.7,1.2,2.1,2.3c0.2,0.5,0.3,1,0.3,1.5s0.1,1,0.1,1.5v5.4c0,0.3,0.1,0.6,0.2,0.7
		c0.1,0.1,0.3,0.2,0.6,0.2c0.1,0,0.3,0,0.3,0c0.1,0,0.1,0,0.1,0V376z M885,369.7l-3.7,0.3c-0.5,0-1,0.2-1.5,0.5
		c-0.4,0.3-0.6,0.8-0.6,1.4c0,0.6,0.2,1,0.6,1.3c0.4,0.3,0.9,0.5,1.4,0.5c1.1,0,2-0.3,2.7-0.9c0.7-0.6,1-1.4,1-2.5V369.7z"/>
	<path fill="#00AEEF" d="M901,376.1v-8.9c0-0.9-0.2-1.5-0.5-2c-0.3-0.5-1-0.7-1.9-0.7c-0.6,0-1.1,0.2-1.5,0.5
		c-0.4,0.3-0.7,0.8-1,1.3c-0.2,0.5-0.4,1.2-0.4,1.9c0,0.7-0.1,1.4-0.1,2v5.9h-3.5v-14.6h2.9l0.3,1.9c0.4-0.8,1-1.3,1.8-1.7
		c0.8-0.4,1.6-0.5,2.5-0.5c0.8,0,1.5,0.1,2.1,0.4c0.6,0.3,1.1,0.6,1.5,1.1c0.4,0.5,0.7,1,1,1.7c0.2,0.6,0.3,1.3,0.3,2.1v9.7H901z"/>
	<path fill="#00AEEF" d="M920.6,376c-0.3,0.1-0.6,0.2-0.8,0.3s-0.5,0.1-1,0.1c-0.8,0-1.4-0.2-1.8-0.6c-0.4-0.4-0.6-0.9-0.7-1.4
		c-0.3,0.6-0.9,1.1-1.7,1.5c-0.8,0.4-1.7,0.6-2.7,0.6c-0.9,0-1.6-0.1-2.3-0.4c-0.7-0.3-1.2-0.6-1.6-1c-0.4-0.4-0.8-0.9-1-1.5
		c-0.2-0.6-0.3-1.1-0.3-1.7c0-0.7,0.1-1.3,0.4-1.8s0.6-1,1.1-1.4c0.4-0.4,1-0.7,1.6-0.9c0.6-0.2,1.2-0.3,1.9-0.4l4.3-0.3v-0.9
		c0-0.7-0.2-1.2-0.5-1.7c-0.3-0.4-1-0.6-2-0.6c-0.8,0-1.5,0.2-1.9,0.5c-0.5,0.4-0.7,0.9-0.7,1.5h-3.4c0.1-0.8,0.2-1.5,0.6-2.1
		c0.3-0.6,0.8-1.1,1.3-1.5c0.5-0.4,1.2-0.7,1.9-0.9c0.7-0.2,1.5-0.3,2.3-0.3c1.3,0,2.4,0.2,3.3,0.7c1,0.4,1.7,1.2,2.1,2.3
		c0.2,0.5,0.3,1,0.4,1.5c0,0.5,0.1,1,0.1,1.5v5.4c0,0.3,0.1,0.6,0.2,0.7c0.1,0.1,0.3,0.2,0.6,0.2c0.1,0,0.3,0,0.3,0
		c0.1,0,0.1,0,0.1,0V376z M915.9,369.7l-3.7,0.3c-0.5,0-1,0.2-1.5,0.5c-0.4,0.3-0.6,0.8-0.6,1.4c0,0.6,0.2,1,0.6,1.3
		c0.4,0.3,0.9,0.5,1.4,0.5c1.1,0,2-0.3,2.7-0.9c0.7-0.6,1-1.4,1-2.5V369.7z"/>
	<path fill="#00AEEF" d="M935.8,378.1c0,1-0.2,1.7-0.6,2.4c-0.4,0.6-1,1.1-1.7,1.5c-0.7,0.4-1.4,0.6-2.3,0.8
		c-0.8,0.1-1.7,0.2-2.5,0.2c-0.9,0-1.8-0.1-2.7-0.2c-0.9-0.1-1.7-0.5-2.5-1c-0.6-0.4-1-0.8-1.3-1.4c-0.3-0.5-0.5-1.1-0.5-1.8
		c0-0.6,0.1-1.2,0.4-1.8s0.7-0.9,1.3-1.2c-0.5-0.3-0.8-0.6-1.1-1.1s-0.4-0.9-0.4-1.4c0-1.3,0.6-2.2,1.7-2.9c-0.4-0.4-0.8-1-1.1-1.6
		s-0.4-1.3-0.4-2c0-0.9,0.2-1.6,0.5-2.3s0.7-1.2,1.3-1.7c0.5-0.4,1.2-0.8,1.9-1s1.5-0.3,2.3-0.3c0.6,0,1.2,0.1,1.7,0.2
		c0.6,0.2,1.1,0.4,1.6,0.7c0.3-0.6,0.7-1.1,1.3-1.4c0.5-0.3,1.1-0.4,1.7-0.4c0.1,0,0.3,0,0.5,0c0.2,0,0.4,0,0.5,0.1v2.7l-0.3,0
		c-0.4,0-0.8,0.1-1.1,0.2c-0.3,0.1-0.5,0.4-0.7,0.7c0.5,0.8,0.8,1.7,0.8,2.6c0,0.8-0.2,1.6-0.5,2.2c-0.3,0.7-0.8,1.2-1.3,1.7
		c-0.5,0.4-1.2,0.8-1.9,1c-0.7,0.2-1.5,0.4-2.3,0.4c-0.8,0-1.6-0.1-2.4-0.4c-0.2,0.1-0.3,0.2-0.5,0.4c-0.2,0.2-0.2,0.4-0.2,0.6
		c0,0.4,0.2,0.7,0.5,0.9c0.3,0.1,0.7,0.2,1.1,0.2h2.4c0.4,0,0.7,0,1.1,0c0.4,0,0.8,0,1.2,0.1c0.4,0.1,0.8,0.2,1.2,0.3
		s0.8,0.3,1.1,0.6c0.6,0.4,1.1,0.9,1.4,1.5C935.6,376.7,935.8,377.4,935.8,378.1z M932.5,378.1c0-0.4-0.1-0.8-0.4-1
		c-0.2-0.2-0.5-0.4-0.9-0.5c-0.3-0.1-0.7-0.2-1.1-0.2s-0.8,0-1.1,0h-2.7c-0.4,0.1-0.7,0.3-0.9,0.6c-0.3,0.3-0.4,0.7-0.4,1.2
		s0.1,0.8,0.4,1.1c0.3,0.3,0.6,0.5,0.9,0.6c0.4,0.1,0.8,0.2,1.2,0.3c0.4,0,0.8,0.1,1.1,0.1c0.4,0,0.8,0,1.2,0c0.4,0,0.9-0.1,1.3-0.2
		s0.7-0.3,1-0.6C932.3,379,932.5,378.6,932.5,378.1z M930.9,366.6c0-0.8-0.2-1.4-0.7-1.9c-0.5-0.5-1.1-0.8-1.9-0.8
		c-0.8,0-1.4,0.3-1.9,0.8c-0.5,0.5-0.7,1.2-0.7,1.9s0.2,1.4,0.7,1.9c0.5,0.5,1.1,0.8,1.9,0.8c0.8,0,1.4-0.3,1.9-0.8
		C930.7,368,930.9,367.3,930.9,366.6z"/>
	<path fill="#00AEEF" d="M949.7,369c0,0.1,0,0.3,0,0.4v0.6h-9.7c0,0.6,0.1,1.1,0.3,1.6s0.4,0.9,0.8,1.3c0.3,0.2,0.6,0.5,0.9,0.6
		c0.3,0.2,0.8,0.3,1.2,0.3c0.5,0,0.9-0.1,1.2-0.2c0.3-0.1,0.6-0.3,0.9-0.5c0.3-0.3,0.6-0.7,0.7-1.2h3.4c0,0.4-0.2,0.9-0.4,1.4
		c-0.3,0.5-0.5,0.9-0.8,1.3c-0.6,0.7-1.4,1.3-2.2,1.6c-0.9,0.3-1.8,0.5-2.7,0.5c-1,0-1.9-0.2-2.6-0.5c-0.7-0.3-1.4-0.8-2-1.3
		c-0.7-0.7-1.3-1.6-1.7-2.5s-0.6-2.1-0.6-3.3c0-1.2,0.2-2.3,0.5-3.3c0.3-1,0.9-1.9,1.6-2.6c0.5-0.6,1.2-1,2-1.3s1.7-0.5,2.7-0.5
		c1.1,0,2.1,0.2,3,0.7s1.7,1.1,2.3,2c0.5,0.8,0.9,1.6,1,2.5C949.6,367.2,949.7,368,949.7,369z M946.2,367.4c0-1.1-0.3-1.9-0.9-2.5
		c-0.2-0.3-0.5-0.5-0.9-0.6c-0.4-0.1-0.8-0.2-1.3-0.2c-0.5,0-1,0.1-1.4,0.3c-0.4,0.2-0.7,0.5-1,0.8c-0.3,0.3-0.4,0.7-0.6,1
		s-0.2,0.8-0.2,1.3H946.2z"/>
	<path fill="#00AEEF" d="M969.5,376.1v-9c0-0.9-0.2-1.6-0.5-2.1c-0.3-0.5-0.9-0.7-1.8-0.7c-0.5,0-0.9,0.1-1.3,0.3
		c-0.4,0.2-0.6,0.5-0.9,0.9s-0.4,0.8-0.5,1.3c-0.1,0.5-0.2,0.9-0.2,1.4v8h-3.5v-9c0-0.9-0.2-1.6-0.5-2.1c-0.3-0.5-0.9-0.7-1.8-0.7
		c-0.5,0-0.9,0.1-1.3,0.3c-0.4,0.2-0.7,0.5-0.9,0.9s-0.4,0.8-0.5,1.3c-0.1,0.5-0.2,0.9-0.2,1.4v8h-3.5v-14.6h2.9l0.3,1.9
		c0.4-0.7,1-1.2,1.7-1.7c0.7-0.4,1.5-0.6,2.5-0.6c1,0,1.9,0.2,2.6,0.6s1.2,1,1.6,1.8c0.4-0.8,1-1.4,1.8-1.8c0.8-0.4,1.6-0.6,2.6-0.6
		c1.6,0,2.7,0.5,3.5,1.4c0.8,0.9,1.2,2.2,1.2,3.7v9.8H969.5z"/>
	<path fill="#00AEEF" d="M988.7,369c0,0.1,0,0.3,0,0.4v0.6h-9.7c0,0.6,0.1,1.1,0.3,1.6c0.2,0.5,0.4,0.9,0.8,1.3
		c0.3,0.2,0.6,0.5,0.9,0.6c0.3,0.2,0.8,0.3,1.2,0.3c0.5,0,0.9-0.1,1.2-0.2c0.3-0.1,0.6-0.3,0.9-0.5c0.3-0.3,0.6-0.7,0.7-1.2h3.4
		c0,0.4-0.2,0.9-0.4,1.4c-0.3,0.5-0.5,0.9-0.8,1.3c-0.6,0.7-1.4,1.3-2.2,1.6c-0.9,0.3-1.8,0.5-2.7,0.5c-1,0-1.9-0.2-2.6-0.5
		s-1.4-0.8-2-1.3c-0.7-0.7-1.3-1.6-1.7-2.5s-0.6-2.1-0.6-3.3c0-1.2,0.2-2.3,0.5-3.3c0.3-1,0.9-1.9,1.6-2.6c0.5-0.6,1.2-1,2-1.3
		s1.7-0.5,2.7-0.5c1.1,0,2.1,0.2,3,0.7c0.9,0.4,1.7,1.1,2.3,2c0.5,0.8,0.9,1.6,1,2.5C988.6,367.2,988.7,368,988.7,369z M985.2,367.4
		c0-1.1-0.3-1.9-0.9-2.5c-0.2-0.3-0.5-0.5-0.9-0.6c-0.4-0.1-0.8-0.2-1.3-0.2c-0.5,0-1,0.1-1.4,0.3c-0.4,0.2-0.7,0.5-1,0.8
		c-0.3,0.3-0.4,0.7-0.6,1c-0.1,0.4-0.2,0.8-0.2,1.3H985.2z"/>
	<path fill="#00AEEF" d="M1000.2,376.1v-8.9c0-0.9-0.2-1.5-0.5-2c-0.3-0.5-1-0.7-1.9-0.7c-0.6,0-1.1,0.2-1.5,0.5
		c-0.4,0.3-0.7,0.8-1,1.3c-0.2,0.5-0.4,1.2-0.4,1.9c0,0.7-0.1,1.4-0.1,2v5.9h-3.5v-14.6h2.9l0.3,1.9c0.4-0.8,1-1.3,1.8-1.7
		c0.8-0.4,1.6-0.5,2.5-0.5c0.8,0,1.5,0.1,2.1,0.4c0.6,0.3,1.1,0.6,1.5,1.1c0.4,0.5,0.7,1,1,1.7c0.2,0.6,0.3,1.3,0.3,2.1v9.7H1000.2z
		"/>
	<path fill="#00AEEF" d="M1015.3,375.9c-1,0.3-2,0.4-3,0.4c-1.5,0-2.6-0.4-3.3-1.2c-0.7-0.8-1.1-1.9-1.1-3.3v-7.4h-2.7v-2.9h2.7
		v-3.7l3.5-0.9v4.6h3.7v2.9h-3.7v7.1c0,0.6,0.1,1,0.4,1.2c0.3,0.3,0.7,0.4,1.2,0.4c0.4,0,0.7,0,1,0c0.3,0,0.7-0.1,1.2-0.1V375.9z"/>
</g>
<g>
	<path fill="#00AEEF" d="M185.7,266.4c2.9,0,5.4-2.1,5.8-4.9H229c4.2,0,8.1-2.3,10.2-5.9l78.3-135.2c1.7-3,5-4.9,8.5-4.9h74.9h2.2
		h4.8c4.1,0,6.5,1.4,8.5,4.8l16.9,28.2c2.1,3.6,6,5.9,10.2,5.9l45.2-0.5c0.3,4.8,4.2,8.6,9.1,8.6c5,0,9.1-4.1,9.1-9.1
		c0-5-4.1-9.1-9.1-9.1c-4.5,0-8.3,3.3-9,7.6l-45.3,0.5c-3.5,0-6.7-1.9-8.5-4.9l-16.9-28.2c-0.9-1.6-2-2.9-3.2-3.8h208.2
		c0.5,4.6,4.4,8.1,9.1,8.1c5,0,9.1-4.1,9.1-9.1s-4.1-9.1-9.1-9.1c-4.7,0-8.6,3.6-9.1,8.1h-220h-2.2H326c-4.2,0-8.1,2.3-10.2,5.9
		l-78.3,135.2c-1.7,3-5,4.9-8.5,4.9h-37.5c-0.5-2.8-2.9-4.9-5.8-4.9c-3.3,0-5.9,2.7-5.9,5.9S182.4,266.4,185.7,266.4z M497.8,146.3
		c3.9,0,7.1,3.2,7.1,7.1s-3.2,7.1-7.1,7.1s-7.1-3.2-7.1-7.1S493.9,146.3,497.8,146.3z M632.1,107.4c3.9,0,7.1,3.2,7.1,7.1
		s-3.2,7.1-7.1,7.1s-7.1-3.2-7.1-7.1S628.2,107.4,632.1,107.4z"/>
	<path fill="#00AEEF" d="M347,125.8c0,2.6,2.1,4.8,4.8,4.8c2.6,0,4.8-2.1,4.8-4.8c0-2.6-2.1-4.8-4.8-4.8
		C349.2,121,347,123.1,347,125.8z"/>
	<path fill="#00AEEF" d="M359.7,125.8c0,2.6,2.1,4.8,4.8,4.8c2.6,0,4.8-2.1,4.8-4.8c0-2.6-2.1-4.8-4.8-4.8
		C361.9,121,359.7,123.1,359.7,125.8z"/>
	<path fill="#00AEEF" d="M372.4,125.8c0,2.6,2.1,4.8,4.8,4.8s4.8-2.1,4.8-4.8c0-2.6-2.1-4.8-4.8-4.8S372.4,123.1,372.4,125.8z"/>
	<path fill="#00AEEF" d="M1127.7,251.2c-4.5,0-8.2,3.2-9,7.5l-592.1,1c-0.3-4.7-4.3-8.5-9.1-8.5c-4.8,0-8.8,3.8-9.1,8.5l-10.3,0
		c-3.5,0-6.7-1.9-8.5-4.9l-28.8-49.8c-0.9-1.6-2-2.9-3.2-3.8h214.8c0.5,4.6,4.4,8.1,9.1,8.1c5,0,9.1-4.1,9.1-9.1s-4.1-9.1-9.1-9.1
		c-4.7,0-8.6,3.6-9.1,8.1h-24.2c1.5-1,2.7-2.3,3.7-3.8l26.4-35.2l0.1-0.1c1.7-3,5-4.9,8.5-4.9H966c0.5,4.6,4.4,8.1,9.1,8.1
		c5,0,9.1-4.1,9.1-9.1s-4.1-9.1-9.1-9.1c-4.7,0-8.6,3.6-9.1,8.1H686.9c-4.2,0-8.1,2.2-10.2,5.8l-26.4,35.2l-0.1,0.1
		c-1.7,3-5,4.9-8.5,4.9H434.2c-0.5-4.6-4.4-8.1-9.1-8.1s-8.6,3.6-9.1,8.1h-77.1c-4.2,0-8.1,2.3-10.2,5.9l-41.5,71.9
		c-1.7,3-5,4.9-8.5,4.9H176.5c-0.5-2.8-2.9-4.9-5.8-4.9c-3.3,0-5.9,2.7-5.9,5.9s2.7,5.9,5.9,5.9c2.9,0,5.4-2.1,5.8-4.9h102.2
		c0.1,0,0.2,0,0.4,0v0H352c0.5,4.6,4.4,8.1,9.1,8.1c5,0,9.1-4.1,9.1-9.1c0-5-4.1-9.1-9.1-9.1c-4.7,0-8.6,3.6-9.1,8.1h-66.8
		c1.5-1,2.8-2.3,3.7-3.9l41.5-71.9c1.7-3,5-4.9,8.5-4.9h77.1c0.5,4.6,4.4,8.1,9.1,8.1s8.6-3.6,9.1-8.1h16.5c4.1,0,6.5,1.4,8.5,4.8
		l28.8,49.8c2.1,3.6,6,5.9,10.2,5.9l10.4,0c0.7,4.4,4.5,7.7,9,7.7c4.6,0,8.3-3.4,9-7.7l592.1-1c0.2,4.9,4.2,8.8,9.1,8.8
		c5,0,9.1-4.1,9.1-9.1S1132.7,251.2,1127.7,251.2z M681.5,193.2c3.9,0,7.1,3.2,7.1,7.1s-3.2,7.1-7.1,7.1s-7.1-3.2-7.1-7.1
		S677.6,193.2,681.5,193.2z M975.1,147.2c3.9,0,7.1,3.2,7.1,7.1s-3.2,7.1-7.1,7.1s-7.1-3.2-7.1-7.1S971.2,147.2,975.1,147.2z
		 M361.1,275.9c3.9,0,7.1,3.2,7.1,7.1s-3.2,7.1-7.1,7.1s-7.1-3.2-7.1-7.1S357.1,275.9,361.1,275.9z M432.2,201.3
		c-0.5,3.5-3.5,6.1-7,6.1s-6.6-2.7-7-6.1v-2c0.5-3.5,3.5-6.1,7-6.1s6.6,2.7,7,6.1V201.3z M524.5,261.7c-0.6,3.3-3.5,5.7-7,5.7
		c-3.4,0-6.3-2.5-7-5.7l-0.1-2c0.3-3.7,3.4-6.5,7.1-6.5c3.7,0,6.8,2.9,7.1,6.5L524.5,261.7z M1127.7,267.5c-3.9,0-7.1-3.2-7.1-7.1
		s3.2-7.1,7.1-7.1s7.1,3.2,7.1,7.1S1131.6,267.5,1127.7,267.5z"/>
	<path fill="#00AEEF" d="M490.9,211.5c0,2.6,2.1,4.8,4.8,4.8c2.6,0,4.8-2.1,4.8-4.8c0-2.6-2.1-4.8-4.8-4.8
		C493.1,206.8,490.9,208.9,490.9,211.5z"/>
	<path fill="#00AEEF" d="M503.6,211.5c0,2.6,2.1,4.8,4.8,4.8c2.6,0,4.8-2.1,4.8-4.8c0-2.6-2.1-4.8-4.8-4.8
		C505.8,206.8,503.6,208.9,503.6,211.5z"/>
	<path fill="#00AEEF" d="M516.3,211.5c0,2.6,2.1,4.8,4.8,4.8s4.8-2.1,4.8-4.8c0-2.6-2.1-4.8-4.8-4.8S516.3,208.9,516.3,211.5z"/>
	<path fill="#00AEEF" d="M1210,296.5c-4.7,0-8.6,3.6-9.1,8.1h-118.7c-1.1-0.3-2.3-0.4-3.6-0.4v0.4h-734c-0.5-4.6-4.4-8.1-9.1-8.1
		s-8.6,3.6-9.1,8.1h-167c-0.5-2.8-2.9-4.9-5.8-4.9c-3.3,0-5.9,2.7-5.9,5.9s2.7,5.9,5.9,5.9c2.9,0,5.4-2.1,5.8-4.9h167
		c0.5,4.6,4.4,8.1,9.1,8.1s8.6-3.6,9.1-8.1h737.3c2.2,0.6,3.9,2,5.2,4.4l16.9,28.2c2.1,3.6,6,5.9,10.2,5.9l45.2-0.5
		c0.3,4.8,4.2,8.6,9.1,8.6c5,0,9.1-4.1,9.1-9.1c0-5-4.1-9.1-9.1-9.1c-4.5,0-8.3,3.3-9,7.6l-45.3,0.5c-3.5,0-6.7-1.9-8.5-4.9
		l-16.9-28.2c-0.8-1.4-1.7-2.5-2.7-3.4h114.7c0.5,4.6,4.4,8.1,9.1,8.1c5,0,9.1-4.1,9.1-9.1S1215,296.5,1210,296.5z M342.6,306.6
		c-0.5,3.5-3.5,6.1-7,6.1s-6.6-2.7-7-6.1v-2c0.5-3.5,3.5-6.1,7-6.1s6.6,2.7,7,6.1V306.6z M1168.6,336.9c3.9,0,7.1,3.2,7.1,7.1
		s-3.2,7.1-7.1,7.1s-7.1-3.2-7.1-7.1S1164.6,336.9,1168.6,336.9z M1210,312.7c-3.9,0-7.1-3.2-7.1-7.1s3.2-7.1,7.1-7.1
		s7.1,3.2,7.1,7.1S1213.9,312.7,1210,312.7z"/>
	<path fill="#00AEEF" d="M1090.3,417.5c-4.5,0-8.2,3.2-9,7.4l-45.4,0.5c-3.5,0-6.7-1.9-8.5-4.9l-16.9-28.2c-0.9-1.6-1.9-2.8-3.1-3.7
		l18.8,0c0.7,4.3,4.5,7.7,9,7.7c5,0,9.1-4.1,9.1-9.1c0-5-4.1-9.1-9.1-9.1c-4.8,0-8.8,3.8-9.1,8.6l-24.1,0c-0.5-0.1-1.1-0.1-1.7-0.1
		v0.1l-566.2,1c-0.3-4.7-4.3-8.5-9.1-8.5c-4.8,0-8.8,3.8-9.1,8.5l-10.3,0c-3.5,0-6.7-1.9-8.5-4.9l-34.1-55.2
		c-0.9-1.6-2.2-2.9-3.7-3.9H475c0.5,4.6,4.4,8.1,9.1,8.1c5,0,9.1-4.1,9.1-9.1s-4.1-9.1-9.1-9.1c-4.7,0-8.6,3.6-9.1,8.1H189
		c-0.5-2.8-2.9-4.9-5.8-4.9c-3.3,0-5.9,2.7-5.9,5.9s2.7,5.9,5.9,5.9c2.9,0,5.4-2.1,5.8-4.9h163.9c3.5,0,6.7,1.9,8.5,4.9l34.1,55.2
		c2.1,3.6,6,5.9,10.2,5.9l10.4,0c0.7,4.4,4.5,7.7,9,7.7c4.6,0,8.3-3.4,9-7.7l567.8-1c3.2,0.3,5.2,1.8,7,4.7l16.9,28.2
		c2.1,3.6,6,5.9,10.2,5.9l45.2-0.5c0.2,4.9,4.2,8.8,9.1,8.8c5,0,9.1-4.1,9.1-9.1S1095.4,417.5,1090.3,417.5z M1035.3,380.1
		c3.9,0,7.1,3.2,7.1,7.1s-3.2,7.1-7.1,7.1s-7.1-3.2-7.1-7.1S1031.4,380.1,1035.3,380.1z M484,315.6c3.9,0,7.1,3.2,7.1,7.1
		s-3.2,7.1-7.1,7.1s-7.1-3.2-7.1-7.1S480.1,315.6,484,315.6z M432.1,389.7c-0.6,3.3-3.5,5.7-7,5.7c-3.4,0-6.3-2.5-7-5.7l-0.1-2
		c0.3-3.7,3.4-6.5,7.1-6.5c3.7,0,6.8,2.9,7.1,6.5L432.1,389.7z M1090.3,433.8c-3.9,0-7.1-3.2-7.1-7.1s3.2-7.1,7.1-7.1
		s7.1,3.2,7.1,7.1S1094.2,433.8,1090.3,433.8z"/>
	<path fill="#00AEEF" d="M238.5,341c4.1,0,6.5,1.4,8.5,4.8l77.4,136.3c2.1,3.6,6,5.9,10.2,5.9l45.2-0.5c0.3,4.8,4.2,8.6,9.1,8.6
		c5,0,9.1-4.1,9.1-9.1s-4.1-9.1-9.1-9.1c-4.5,0-8.3,3.3-9,7.6l-45.3,0.5c-3.5,0-6.7-1.9-8.5-4.9l-77.4-136.3c-0.9-1.6-2-2.9-3.2-3.8
		h48.8c3.5,0,6.7,1.9,8.5,4.9l46,80c2.1,3.6,6,5.9,10.2,5.9H408c4.1,0,6.5,1.4,8.5,4.8l16.9,28.2c2.1,3.6,6,5.9,10.2,5.9l260.9-0.5
		c0.5,4.6,4.3,8.2,9.1,8.2c4.7,0,8.6-3.6,9.1-8.2l190.4-0.5c0.7,4.3,4.5,7.5,9,7.5c5,0,9.1-4.1,9.1-9.1c0-5-4.1-9.1-9.1-9.1
		c-4.9,0-8.9,3.9-9.1,8.7l-190.3,0.5c-0.6-4.5-4.4-8-9-8c-4.7,0-8.5,3.5-9,8l-260.9,0.5c-3.5,0-6.7-1.9-8.5-4.9l-16.9-28.2
		c-0.9-1.6-2-2.9-3.2-3.8H563c0.4,4.7,4.3,8.4,9.1,8.4c5,0,9.1-4.1,9.1-9.1c0-5-4.1-9.1-9.1-9.1c-4.6,0-8.4,3.4-9,7.8H359
		c-3.5,0-6.7-1.9-8.5-4.9l-46-80c-2.1-3.6-6-5.9-10.2-5.9H159.5c-0.5-2.8-2.9-4.9-5.8-4.9c-3.3,0-5.9,2.7-5.9,5.9s2.7,5.9,5.9,5.9
		c2.9,0,5.4-2.1,5.8-4.9H238.5z M388.9,479.9c3.9,0,7.1,3.2,7.1,7.1s-3.2,7.1-7.1,7.1s-7.1-3.2-7.1-7.1S385,479.9,388.9,479.9z
		 M921.9,461c3.9,0,7.1,3.2,7.1,7.1s-3.2,7.1-7.1,7.1s-7.1-3.2-7.1-7.1S918,461,921.9,461z M713.5,462.2c3.9,0,7.1,3.2,7.1,7.1
		s-3.2,7.1-7.1,7.1s-7.1-3.2-7.1-7.1S709.6,462.2,713.5,462.2z M572.1,424c3.9,0,7.1,3.2,7.1,7.1s-3.2,7.1-7.1,7.1s-7.1-3.2-7.1-7.1
		S568.2,424,572.1,424z"/>
	<path fill="#00AEEF" d="M938.5,399.7c0,2.6,2.1,4.8,4.8,4.8c2.6,0,4.8-2.1,4.8-4.8c0-2.6-2.1-4.8-4.8-4.8
		C940.7,395,938.5,397.1,938.5,399.7z"/>
	<path fill="#00AEEF" d="M951.2,399.7c0,2.6,2.1,4.8,4.8,4.8c2.6,0,4.8-2.1,4.8-4.8c0-2.6-2.1-4.8-4.8-4.8
		C953.4,395,951.2,397.1,951.2,399.7z"/>
	<path fill="#00AEEF" d="M963.9,399.7c0,2.6,2.1,4.8,4.8,4.8c2.6,0,4.8-2.1,4.8-4.8c0-2.6-2.1-4.8-4.8-4.8
		C966,395,963.9,397.1,963.9,399.7z"/>
	<path fill="#00AEEF" d="M935.4,519.2c-2.6,0-4.8,2.1-4.8,4.8c0,2.6,2.1,4.8,4.8,4.8c2.6,0,4.8-2.1,4.8-4.8
		C940.1,521.4,938,519.2,935.4,519.2z"/>
	<path fill="#00AEEF" d="M948.1,519.2c-2.6,0-4.8,2.1-4.8,4.8c0,2.6,2.1,4.8,4.8,4.8c2.6,0,4.8-2.1,4.8-4.8
		C952.8,521.4,950.7,519.2,948.1,519.2z"/>
	<path fill="#00AEEF" d="M960.7,519.2c-2.6,0-4.8,2.1-4.8,4.8c0,2.6,2.1,4.8,4.8,4.8s4.8-2.1,4.8-4.8
		C965.5,521.4,963.4,519.2,960.7,519.2z"/>
	<path fill="#00AEEF" d="M1050.1,270.1c0,2.6,2.1,4.8,4.8,4.8s4.8-2.1,4.8-4.8c0-2.6-2.1-4.8-4.8-4.8S1050.1,267.5,1050.1,270.1z"/>
	<path fill="#00AEEF" d="M1062.8,270.1c0,2.6,2.1,4.8,4.8,4.8c2.6,0,4.8-2.1,4.8-4.8c0-2.6-2.1-4.8-4.8-4.8
		C1064.9,265.4,1062.8,267.5,1062.8,270.1z"/>
	<path fill="#00AEEF" d="M1075.5,270.1c0,2.6,2.1,4.8,4.8,4.8c2.6,0,4.8-2.1,4.8-4.8c0-2.6-2.1-4.8-4.8-4.8
		C1077.6,265.4,1075.5,267.5,1075.5,270.1z"/>
	<path fill="#00AEEF" d="M1173.2,502c-4.7,0-8.6,3.6-9.1,8.1H291.6c-3.5,0-6.7-1.9-8.5-4.9l-34.6-59.7c2.3-1.7,3.8-4.3,3.8-7.4
		c0-5-4.1-9.1-9.1-9.1c-1.3,0-2.6,0.3-3.7,0.8L204.8,370c-2.1-3.6-6-5.9-10.2-5.9h-19.4c-0.8-2.3-3-3.9-5.6-3.9
		c-3.3,0-5.9,2.7-5.9,5.9s2.7,5.9,5.9,5.9s5.9-2.7,5.9-5.9c0,0,0-0.1,0-0.1h19.1c3.5,0,6.7,1.9,8.5,4.9l34.6,59.8
		c-2.2,1.7-3.7,4.3-3.7,7.3c0,5,4.1,9.1,9.1,9.1c1.3,0,2.5-0.3,3.6-0.8l34.6,59.7c2.1,3.6,6,5.9,10.2,5.9h872.5
		c0.5,4.6,4.4,8.1,9.1,8.1c5,0,9.1-4.1,9.1-9.1S1178.2,502,1173.2,502z M247.5,443.8l-1.7,1c-0.8,0.3-1.7,0.5-2.6,0.5
		c-3.9,0-7.1-3.2-7.1-7.1c0-2.2,1-4.2,2.7-5.6l1.7-1c0.8-0.3,1.8-0.5,2.7-0.5c3.9,0,7.1,3.2,7.1,7.1
		C250.3,440.4,249.2,442.5,247.5,443.8z M1173.2,518.2c-3.9,0-7.1-3.2-7.1-7.1s3.2-7.1,7.1-7.1s7.1,3.2,7.1,7.1
		S1177.1,518.2,1173.2,518.2z"/>
	<path fill="#00AEEF" d="M102.6,274.9c0-2.7,0-6.9,0.1-11.1c0-4.2,0.1-8.4,0.1-11.1c0-15.3-8.1-31.7-30.8-31.7H61V239h7.5
		c10.1,0,14.4,4.5,14.4,14.9v27.7c0.2,9.2,5.4,19.6,16.6,23.7c-11.2,4.2-16.5,14.8-16.6,24.3v27.6c0,10.5-4.3,14.9-14.4,14.9H61
		v18.1H72c22.7,0,30.8-16.4,30.8-31.7c0-2.7,0-6.9-0.1-11.1c0-4.2-0.1-8.4-0.1-11.1c0-14.2,5.4-19.9,19.9-21l1.3-0.1v-19.3l-1.3-0.1
		C109.9,294.6,102.6,290.8,102.6,274.9z"/>
</g>
</svg>
